<?xml version="1.0" encoding="UTF-8" standalone="no"?>
<!DOCTYPE svg PUBLIC "-//W3C//DTD SVG 1.1//EN"
 "http://www.w3.org/Graphics/SVG/1.1/DTD/svg11.dtd">
<!-- Generated by graphviz version 2.44.1 (20200629.0846)
 -->
<!-- Pages: 1 -->
<svg width="981pt" height="260pt"
 viewBox="0.00 0.00 981.05 260.00" xmlns="http://www.w3.org/2000/svg" xmlns:xlink="http://www.w3.org/1999/xlink">
<g id="graph0" class="graph" transform="scale(1 1) rotate(0) translate(4 256)">
<polygon fill="white" stroke="transparent" points="-4,4 -4,-256 977.05,-256 977.05,4 -4,4"/>
<!-- [root] aws_security_group_rule.rule -->
<g id="node1" class="node">
<title>[root] aws_security_group_rule.rule</title>
<polygon fill="none" stroke="black" points="614.05,-108 436.05,-108 436.05,-72 614.05,-72 614.05,-108"/>
<text text-anchor="middle" x="525.05" y="-86.3" font-family="Times,serif" font-size="14.00">aws_security_group_rule.rule</text>
</g>
<!-- [root] provider.aws -->
<g id="node2" class="node">
<title>[root] provider.aws</title>
<polygon fill="none" stroke="black" points="79.05,-36 -0.05,-18 79.05,0 158.14,-18 79.05,-36"/>
<text text-anchor="middle" x="79.05" y="-14.3" font-family="Times,serif" font-size="14.00">provider.aws</text>
</g>
<!-- [root] aws_security_group_rule.rule&#45;&gt;[root] provider.aws -->
<g id="edge1" class="edge">
<title>[root] aws_security_group_rule.rule&#45;&gt;[root] provider.aws</title>
<path fill="none" stroke="black" d="M435.87,-76.9C363.33,-66.8 258.4,-51.58 167.05,-36 154.7,-33.9 141.43,-31.43 129.02,-29.05"/>
<polygon fill="black" stroke="black" points="129.33,-25.54 118.84,-27.07 127.99,-32.41 129.33,-25.54"/>
</g>
<!-- [root] var.description -->
<g id="node3" class="node">
<title>[root] var.description</title>
<polygon fill="none" stroke="black" points="267.55,-36 176.55,-36 176.55,0 273.55,0 273.55,-30 267.55,-36"/>
<polyline fill="none" stroke="black" points="267.55,-36 267.55,-30 "/>
<polyline fill="none" stroke="black" points="273.55,-30 267.55,-30 "/>
<text text-anchor="middle" x="225.05" y="-14.3" font-family="Times,serif" font-size="14.00">var.description</text>
</g>
<!-- [root] aws_security_group_rule.rule&#45;&gt;[root] var.description -->
<g id="edge2" class="edge">
<title>[root] aws_security_group_rule.rule&#45;&gt;[root] var.description</title>
<path fill="none" stroke="black" d="M439.49,-71.98C395.32,-62.8 340.39,-50.79 283.66,-36.34"/>
<polygon fill="black" stroke="black" points="284.35,-32.9 273.8,-33.8 282.61,-39.68 284.35,-32.9"/>
</g>
<!-- [root] var.es_access_cidr -->
<g id="node4" class="node">
<title>[root] var.es_access_cidr</title>
<polygon fill="none" stroke="black" points="402.55,-36 291.55,-36 291.55,0 408.55,0 408.55,-30 402.55,-36"/>
<polyline fill="none" stroke="black" points="402.55,-36 402.55,-30 "/>
<polyline fill="none" stroke="black" points="408.55,-30 402.55,-30 "/>
<text text-anchor="middle" x="350.05" y="-14.3" font-family="Times,serif" font-size="14.00">var.es_access_cidr</text>
</g>
<!-- [root] aws_security_group_rule.rule&#45;&gt;[root] var.es_access_cidr -->
<g id="edge3" class="edge">
<title>[root] aws_security_group_rule.rule&#45;&gt;[root] var.es_access_cidr</title>
<path fill="none" stroke="black" d="M482.24,-71.88C458.1,-62.22 427.76,-50.09 402.24,-39.88"/>
<polygon fill="black" stroke="black" points="403.3,-36.53 392.72,-36.07 400.7,-43.03 403.3,-36.53"/>
</g>
<!-- [root] var.from_port -->
<g id="node5" class="node">
<title>[root] var.from_port</title>
<polygon fill="none" stroke="black" points="513.05,-36 427.05,-36 427.05,0 519.05,0 519.05,-30 513.05,-36"/>
<polyline fill="none" stroke="black" points="513.05,-36 513.05,-30 "/>
<polyline fill="none" stroke="black" points="519.05,-30 513.05,-30 "/>
<text text-anchor="middle" x="473.05" y="-14.3" font-family="Times,serif" font-size="14.00">var.from_port</text>
</g>
<!-- [root] aws_security_group_rule.rule&#45;&gt;[root] var.from_port -->
<g id="edge4" class="edge">
<title>[root] aws_security_group_rule.rule&#45;&gt;[root] var.from_port</title>
<path fill="none" stroke="black" d="M512.19,-71.7C506.02,-63.39 498.51,-53.28 491.72,-44.14"/>
<polygon fill="black" stroke="black" points="494.53,-42.04 485.75,-36.1 488.91,-46.22 494.53,-42.04"/>
</g>
<!-- [root] var.protocol -->
<g id="node6" class="node">
<title>[root] var.protocol</title>
<polygon fill="none" stroke="black" points="613.05,-36 537.05,-36 537.05,0 619.05,0 619.05,-30 613.05,-36"/>
<polyline fill="none" stroke="black" points="613.05,-36 613.05,-30 "/>
<polyline fill="none" stroke="black" points="619.05,-30 613.05,-30 "/>
<text text-anchor="middle" x="578.05" y="-14.3" font-family="Times,serif" font-size="14.00">var.protocol</text>
</g>
<!-- [root] aws_security_group_rule.rule&#45;&gt;[root] var.protocol -->
<g id="edge5" class="edge">
<title>[root] aws_security_group_rule.rule&#45;&gt;[root] var.protocol</title>
<path fill="none" stroke="black" d="M538.15,-71.7C544.44,-63.39 552.09,-53.28 559.01,-44.14"/>
<polygon fill="black" stroke="black" points="561.85,-46.19 565.1,-36.1 556.27,-41.96 561.85,-46.19"/>
</g>
<!-- [root] var.rule_type -->
<g id="node7" class="node">
<title>[root] var.rule_type</title>
<polygon fill="none" stroke="black" points="719.05,-36 637.05,-36 637.05,0 725.05,0 725.05,-30 719.05,-36"/>
<polyline fill="none" stroke="black" points="719.05,-36 719.05,-30 "/>
<polyline fill="none" stroke="black" points="725.05,-30 719.05,-30 "/>
<text text-anchor="middle" x="681.05" y="-14.3" font-family="Times,serif" font-size="14.00">var.rule_type</text>
</g>
<!-- [root] aws_security_group_rule.rule&#45;&gt;[root] var.rule_type -->
<g id="edge6" class="edge">
<title>[root] aws_security_group_rule.rule&#45;&gt;[root] var.rule_type</title>
<path fill="none" stroke="black" d="M563.21,-71.88C584.44,-62.35 611.06,-50.41 633.62,-40.28"/>
<polygon fill="black" stroke="black" points="635.32,-43.36 643.01,-36.07 632.45,-36.97 635.32,-43.36"/>
</g>
<!-- [root] var.security_group_id -->
<g id="node8" class="node">
<title>[root] var.security_group_id</title>
<polygon fill="none" stroke="black" points="872.55,-36 743.55,-36 743.55,0 878.55,0 878.55,-30 872.55,-36"/>
<polyline fill="none" stroke="black" points="872.55,-36 872.55,-30 "/>
<polyline fill="none" stroke="black" points="878.55,-30 872.55,-30 "/>
<text text-anchor="middle" x="811.05" y="-14.3" font-family="Times,serif" font-size="14.00">var.security_group_id</text>
</g>
<!-- [root] aws_security_group_rule.rule&#45;&gt;[root] var.security_group_id -->
<g id="edge7" class="edge">
<title>[root] aws_security_group_rule.rule&#45;&gt;[root] var.security_group_id</title>
<path fill="none" stroke="black" d="M594.65,-71.97C636.52,-61.72 689.92,-48.65 733.2,-38.05"/>
<polygon fill="black" stroke="black" points="734.23,-41.4 743.12,-35.63 732.57,-34.6 734.23,-41.4"/>
</g>
<!-- [root] var.to_port -->
<g id="node9" class="node">
<title>[root] var.to_port</title>
<polygon fill="none" stroke="black" points="967.05,-36 897.05,-36 897.05,0 973.05,0 973.05,-30 967.05,-36"/>
<polyline fill="none" stroke="black" points="967.05,-36 967.05,-30 "/>
<polyline fill="none" stroke="black" points="973.05,-30 967.05,-30 "/>
<text text-anchor="middle" x="935.05" y="-14.3" font-family="Times,serif" font-size="14.00">var.to_port</text>
</g>
<!-- [root] aws_security_group_rule.rule&#45;&gt;[root] var.to_port -->
<g id="edge8" class="edge">
<title>[root] aws_security_group_rule.rule&#45;&gt;[root] var.to_port</title>
<path fill="none" stroke="black" d="M614.42,-81.04C686.11,-73.48 789.26,-59.98 887.26,-35.92"/>
<polygon fill="black" stroke="black" points="888.17,-39.3 897.03,-33.48 886.48,-32.51 888.17,-39.3"/>
</g>
<!-- [root] meta.count&#45;boundary (EachMode fixup) -->
<g id="node10" class="node">
<title>[root] meta.count&#45;boundary (EachMode fixup)</title>
<ellipse fill="none" stroke="black" cx="376.05" cy="-162" rx="176.27" ry="18"/>
<text text-anchor="middle" x="376.05" y="-158.3" font-family="Times,serif" font-size="14.00">[root] meta.count&#45;boundary (EachMode fixup)</text>
</g>
<!-- [root] meta.count&#45;boundary (EachMode fixup)&#45;&gt;[root] aws_security_group_rule.rule -->
<g id="edge9" class="edge">
<title>[root] meta.count&#45;boundary (EachMode fixup)&#45;&gt;[root] aws_security_group_rule.rule</title>
<path fill="none" stroke="black" d="M411.74,-144.23C432.08,-134.68 457.77,-122.61 479.55,-112.38"/>
<polygon fill="black" stroke="black" points="481.05,-115.54 488.61,-108.12 478.08,-109.2 481.05,-115.54"/>
</g>
<!-- [root] provider.aws (close) -->
<g id="node11" class="node">
<title>[root] provider.aws (close)</title>
<ellipse fill="none" stroke="black" cx="675.05" cy="-162" rx="104.78" ry="18"/>
<text text-anchor="middle" x="675.05" y="-158.3" font-family="Times,serif" font-size="14.00">[root] provider.aws (close)</text>
</g>
<!-- [root] provider.aws (close)&#45;&gt;[root] aws_security_group_rule.rule -->
<g id="edge10" class="edge">
<title>[root] provider.aws (close)&#45;&gt;[root] aws_security_group_rule.rule</title>
<path fill="none" stroke="black" d="M640.63,-144.94C619.97,-135.3 593.43,-122.91 570.99,-112.44"/>
<polygon fill="black" stroke="black" points="572.2,-109.14 561.66,-108.08 569.24,-115.48 572.2,-109.14"/>
</g>
<!-- [root] root -->
<g id="node12" class="node">
<title>[root] root</title>
<ellipse fill="none" stroke="black" cx="525.05" cy="-234" rx="47.39" ry="18"/>
<text text-anchor="middle" x="525.05" y="-230.3" font-family="Times,serif" font-size="14.00">[root] root</text>
</g>
<!-- [root] root&#45;&gt;[root] meta.count&#45;boundary (EachMode fixup) -->
<g id="edge11" class="edge">
<title>[root] root&#45;&gt;[root] meta.count&#45;boundary (EachMode fixup)</title>
<path fill="none" stroke="black" d="M496.32,-219.5C474.87,-209.43 445.16,-195.47 420.64,-183.95"/>
<polygon fill="black" stroke="black" points="422.06,-180.75 411.52,-179.67 419.09,-187.09 422.06,-180.75"/>
</g>
<!-- [root] root&#45;&gt;[root] provider.aws (close) -->
<g id="edge12" class="edge">
<title>[root] root&#45;&gt;[root] provider.aws (close)</title>
<path fill="none" stroke="black" d="M553.97,-219.5C575.94,-209.25 606.51,-194.98 631.44,-183.35"/>
<polygon fill="black" stroke="black" points="633.11,-186.43 640.69,-179.03 630.15,-180.09 633.11,-186.43"/>
</g>
</g>
</svg>
