<?xml version="1.0" encoding="UTF-8" standalone="no"?>
<!DOCTYPE svg PUBLIC "-//W3C//DTD SVG 1.1//EN"
 "http://www.w3.org/Graphics/SVG/1.1/DTD/svg11.dtd">
<!-- Generated by graphviz version 2.44.1 (20200629.0846)
 -->
<!-- Pages: 1 -->
<svg width="1318pt" height="332pt"
 viewBox="0.00 0.00 1318.05 332.00" xmlns="http://www.w3.org/2000/svg" xmlns:xlink="http://www.w3.org/1999/xlink">
<g id="graph0" class="graph" transform="scale(1 1) rotate(0) translate(4 328)">
<polygon fill="white" stroke="transparent" points="-4,4 -4,-328 1314.05,-328 1314.05,4 -4,4"/>
<!-- [root] aws_subnet.sub -->
<g id="node1" class="node">
<title>[root] aws_subnet.sub</title>
<polygon fill="none" stroke="black" points="704.05,-108 602.05,-108 602.05,-72 704.05,-72 704.05,-108"/>
<text text-anchor="middle" x="653.05" y="-86.3" font-family="Times,serif" font-size="14.00">aws_subnet.sub</text>
</g>
<!-- [root] provider.aws -->
<g id="node4" class="node">
<title>[root] provider.aws</title>
<polygon fill="none" stroke="black" points="79.05,-36 -0.05,-18 79.05,0 158.14,-18 79.05,-36"/>
<text text-anchor="middle" x="79.05" y="-14.3" font-family="Times,serif" font-size="14.00">provider.aws</text>
</g>
<!-- [root] aws_subnet.sub&#45;&gt;[root] provider.aws -->
<g id="edge1" class="edge">
<title>[root] aws_subnet.sub&#45;&gt;[root] provider.aws</title>
<path fill="none" stroke="black" d="M601.79,-84.81C512.97,-77.23 324.83,-59.8 167.05,-36 154.3,-34.08 140.59,-31.62 127.87,-29.17"/>
<polygon fill="black" stroke="black" points="128.4,-25.71 117.92,-27.22 127.06,-32.58 128.4,-25.71"/>
</g>
<!-- [root] var.aws_azs -->
<g id="node5" class="node">
<title>[root] var.aws_azs</title>
<polygon fill="none" stroke="black" points="252.05,-36 176.05,-36 176.05,0 258.05,0 258.05,-30 252.05,-36"/>
<polyline fill="none" stroke="black" points="252.05,-36 252.05,-30 "/>
<polyline fill="none" stroke="black" points="258.05,-30 252.05,-30 "/>
<text text-anchor="middle" x="217.05" y="-14.3" font-family="Times,serif" font-size="14.00">var.aws_azs</text>
</g>
<!-- [root] aws_subnet.sub&#45;&gt;[root] var.aws_azs -->
<g id="edge2" class="edge">
<title>[root] aws_subnet.sub&#45;&gt;[root] var.aws_azs</title>
<path fill="none" stroke="black" d="M601.9,-85.11C529.41,-78.92 392.66,-64.7 268.15,-36"/>
<polygon fill="black" stroke="black" points="268.6,-32.51 258.07,-33.64 267,-39.33 268.6,-32.51"/>
</g>
<!-- [root] var.basenamesnt -->
<g id="node6" class="node">
<title>[root] var.basenamesnt</title>
<polygon fill="none" stroke="black" points="377.55,-36 276.55,-36 276.55,0 383.55,0 383.55,-30 377.55,-36"/>
<polyline fill="none" stroke="black" points="377.55,-36 377.55,-30 "/>
<polyline fill="none" stroke="black" points="383.55,-30 377.55,-30 "/>
<text text-anchor="middle" x="330.05" y="-14.3" font-family="Times,serif" font-size="14.00">var.basenamesnt</text>
</g>
<!-- [root] aws_subnet.sub&#45;&gt;[root] var.basenamesnt -->
<g id="edge3" class="edge">
<title>[root] aws_subnet.sub&#45;&gt;[root] var.basenamesnt</title>
<path fill="none" stroke="black" d="M601.81,-79.65C551.19,-70.18 471.34,-54.6 393.71,-36.32"/>
<polygon fill="black" stroke="black" points="394.3,-32.87 383.76,-33.97 392.68,-39.68 394.3,-32.87"/>
</g>
<!-- [root] var.default_tags -->
<g id="node7" class="node">
<title>[root] var.default_tags</title>
<polygon fill="none" stroke="black" points="498.55,-36 401.55,-36 401.55,0 504.55,0 504.55,-30 498.55,-36"/>
<polyline fill="none" stroke="black" points="498.55,-36 498.55,-30 "/>
<polyline fill="none" stroke="black" points="504.55,-30 498.55,-30 "/>
<text text-anchor="middle" x="453.05" y="-14.3" font-family="Times,serif" font-size="14.00">var.default_tags</text>
</g>
<!-- [root] aws_subnet.sub&#45;&gt;[root] var.default_tags -->
<g id="edge4" class="edge">
<title>[root] aws_subnet.sub&#45;&gt;[root] var.default_tags</title>
<path fill="none" stroke="black" d="M604.38,-71.97C576.43,-62.19 541.15,-49.84 511.69,-39.52"/>
<polygon fill="black" stroke="black" points="512.53,-36.11 501.94,-36.11 510.22,-42.72 512.53,-36.11"/>
</g>
<!-- [root] var.list_subnets -->
<g id="node8" class="node">
<title>[root] var.list_subnets</title>
<polygon fill="none" stroke="black" points="617.55,-36 522.55,-36 522.55,0 623.55,0 623.55,-30 617.55,-36"/>
<polyline fill="none" stroke="black" points="617.55,-36 617.55,-30 "/>
<polyline fill="none" stroke="black" points="623.55,-30 617.55,-30 "/>
<text text-anchor="middle" x="573.05" y="-14.3" font-family="Times,serif" font-size="14.00">var.list_subnets</text>
</g>
<!-- [root] aws_subnet.sub&#45;&gt;[root] var.list_subnets -->
<g id="edge5" class="edge">
<title>[root] aws_subnet.sub&#45;&gt;[root] var.list_subnets</title>
<path fill="none" stroke="black" d="M633.27,-71.7C623.29,-62.97 611.04,-52.24 600.19,-42.75"/>
<polygon fill="black" stroke="black" points="602.43,-40.06 592.6,-36.1 597.82,-45.32 602.43,-40.06"/>
</g>
<!-- [root] var.map_public_ip_on_launch -->
<g id="node9" class="node">
<title>[root] var.map_public_ip_on_launch</title>
<polygon fill="none" stroke="black" points="818.05,-36 642.05,-36 642.05,0 824.05,0 824.05,-30 818.05,-36"/>
<polyline fill="none" stroke="black" points="818.05,-36 818.05,-30 "/>
<polyline fill="none" stroke="black" points="824.05,-30 818.05,-30 "/>
<text text-anchor="middle" x="733.05" y="-14.3" font-family="Times,serif" font-size="14.00">var.map_public_ip_on_launch</text>
</g>
<!-- [root] aws_subnet.sub&#45;&gt;[root] var.map_public_ip_on_launch -->
<g id="edge6" class="edge">
<title>[root] aws_subnet.sub&#45;&gt;[root] var.map_public_ip_on_launch</title>
<path fill="none" stroke="black" d="M672.82,-71.7C682.8,-62.97 695.06,-52.24 705.9,-42.75"/>
<polygon fill="black" stroke="black" points="708.28,-45.32 713.5,-36.1 703.67,-40.06 708.28,-45.32"/>
</g>
<!-- [root] var.object_sequence -->
<g id="node10" class="node">
<title>[root] var.object_sequence</title>
<polygon fill="none" stroke="black" points="962.05,-36 842.05,-36 842.05,0 968.05,0 968.05,-30 962.05,-36"/>
<polyline fill="none" stroke="black" points="962.05,-36 962.05,-30 "/>
<polyline fill="none" stroke="black" points="968.05,-30 962.05,-30 "/>
<text text-anchor="middle" x="905.05" y="-14.3" font-family="Times,serif" font-size="14.00">var.object_sequence</text>
</g>
<!-- [root] aws_subnet.sub&#45;&gt;[root] var.object_sequence -->
<g id="edge7" class="edge">
<title>[root] aws_subnet.sub&#45;&gt;[root] var.object_sequence</title>
<path fill="none" stroke="black" d="M704.35,-74.75C741.65,-64.39 792.63,-50.23 833.87,-38.77"/>
<polygon fill="black" stroke="black" points="834.89,-42.12 843.59,-36.07 833.02,-35.38 834.89,-42.12"/>
</g>
<!-- [root] var.public_subnets_tags -->
<g id="node11" class="node">
<title>[root] var.public_subnets_tags</title>
<polygon fill="none" stroke="black" points="1126.05,-36 986.05,-36 986.05,0 1132.05,0 1132.05,-30 1126.05,-36"/>
<polyline fill="none" stroke="black" points="1126.05,-36 1126.05,-30 "/>
<polyline fill="none" stroke="black" points="1132.05,-30 1126.05,-30 "/>
<text text-anchor="middle" x="1059.05" y="-14.3" font-family="Times,serif" font-size="14.00">var.public_subnets_tags</text>
</g>
<!-- [root] aws_subnet.sub&#45;&gt;[root] var.public_subnets_tags -->
<g id="edge8" class="edge">
<title>[root] aws_subnet.sub&#45;&gt;[root] var.public_subnets_tags</title>
<path fill="none" stroke="black" d="M704.23,-81.31C766.19,-71.85 873.93,-54.92 975.91,-36.17"/>
<polygon fill="black" stroke="black" points="976.56,-39.61 985.76,-34.35 975.29,-32.73 976.56,-39.61"/>
</g>
<!-- [root] var.vpc_id -->
<g id="node13" class="node">
<title>[root] var.vpc_id</title>
<polygon fill="none" stroke="black" points="1218.05,-36 1150.05,-36 1150.05,0 1224.05,0 1224.05,-30 1218.05,-36"/>
<polyline fill="none" stroke="black" points="1218.05,-36 1218.05,-30 "/>
<polyline fill="none" stroke="black" points="1224.05,-30 1218.05,-30 "/>
<text text-anchor="middle" x="1187.05" y="-14.3" font-family="Times,serif" font-size="14.00">var.vpc_id</text>
</g>
<!-- [root] aws_subnet.sub&#45;&gt;[root] var.vpc_id -->
<g id="edge9" class="edge">
<title>[root] aws_subnet.sub&#45;&gt;[root] var.vpc_id</title>
<path fill="none" stroke="black" d="M704.32,-87.56C792.16,-84.21 976.9,-73.25 1139.68,-35.98"/>
<polygon fill="black" stroke="black" points="1140.93,-39.29 1149.88,-33.61 1139.34,-32.47 1140.93,-39.29"/>
</g>
<!-- [root] var.zones -->
<g id="node14" class="node">
<title>[root] var.zones</title>
<polygon fill="none" stroke="black" points="1304.05,-36 1242.05,-36 1242.05,0 1310.05,0 1310.05,-30 1304.05,-36"/>
<polyline fill="none" stroke="black" points="1304.05,-36 1304.05,-30 "/>
<polyline fill="none" stroke="black" points="1310.05,-30 1304.05,-30 "/>
<text text-anchor="middle" x="1276.05" y="-14.3" font-family="Times,serif" font-size="14.00">var.zones</text>
</g>
<!-- [root] aws_subnet.sub&#45;&gt;[root] var.zones -->
<g id="edge10" class="edge">
<title>[root] aws_subnet.sub&#45;&gt;[root] var.zones</title>
<path fill="none" stroke="black" d="M704.26,-89.18C804.63,-88.5 1033.95,-81.79 1231.61,-35.96"/>
<polygon fill="black" stroke="black" points="1232.66,-39.31 1241.59,-33.6 1231.05,-32.49 1232.66,-39.31"/>
</g>
<!-- [root] output.cidr_block -->
<g id="node2" class="node">
<title>[root] output.cidr_block</title>
<polygon fill="none" stroke="black" points="569.55,-180 462.55,-180 462.55,-144 575.55,-144 575.55,-174 569.55,-180"/>
<polyline fill="none" stroke="black" points="569.55,-180 569.55,-174 "/>
<polyline fill="none" stroke="black" points="575.55,-174 569.55,-174 "/>
<text text-anchor="middle" x="519.05" y="-158.3" font-family="Times,serif" font-size="14.00">output.cidr_block</text>
</g>
<!-- [root] output.cidr_block&#45;&gt;[root] aws_subnet.sub -->
<g id="edge14" class="edge">
<title>[root] output.cidr_block&#45;&gt;[root] aws_subnet.sub</title>
<path fill="none" stroke="black" d="M551.83,-143.88C569.67,-134.55 591.94,-122.92 611.05,-112.94"/>
<polygon fill="black" stroke="black" points="612.9,-115.92 620.14,-108.19 609.66,-109.72 612.9,-115.92"/>
</g>
<!-- [root] output.subnets_ids -->
<g id="node3" class="node">
<title>[root] output.subnets_ids</title>
<polygon fill="none" stroke="black" points="706.05,-180 594.05,-180 594.05,-144 712.05,-144 712.05,-174 706.05,-180"/>
<polyline fill="none" stroke="black" points="706.05,-180 706.05,-174 "/>
<polyline fill="none" stroke="black" points="712.05,-174 706.05,-174 "/>
<text text-anchor="middle" x="653.05" y="-158.3" font-family="Times,serif" font-size="14.00">output.subnets_ids</text>
</g>
<!-- [root] output.subnets_ids&#45;&gt;[root] aws_subnet.sub -->
<g id="edge15" class="edge">
<title>[root] output.subnets_ids&#45;&gt;[root] aws_subnet.sub</title>
<path fill="none" stroke="black" d="M653.05,-143.7C653.05,-135.98 653.05,-126.71 653.05,-118.11"/>
<polygon fill="black" stroke="black" points="656.55,-118.1 653.05,-108.1 649.55,-118.1 656.55,-118.1"/>
</g>
<!-- [root] var.subnet_sufix -->
<g id="node12" class="node">
<title>[root] var.subnet_sufix</title>
<polygon fill="none" stroke="black" points="829.55,-180 730.55,-180 730.55,-144 835.55,-144 835.55,-174 829.55,-180"/>
<polyline fill="none" stroke="black" points="829.55,-180 829.55,-174 "/>
<polyline fill="none" stroke="black" points="835.55,-174 829.55,-174 "/>
<text text-anchor="middle" x="783.05" y="-158.3" font-family="Times,serif" font-size="14.00">var.subnet_sufix</text>
</g>
<!-- [root] meta.count&#45;boundary (EachMode fixup) -->
<g id="node15" class="node">
<title>[root] meta.count&#45;boundary (EachMode fixup)</title>
<ellipse fill="none" stroke="black" cx="631.05" cy="-234" rx="176.27" ry="18"/>
<text text-anchor="middle" x="631.05" y="-230.3" font-family="Times,serif" font-size="14.00">[root] meta.count&#45;boundary (EachMode fixup)</text>
</g>
<!-- [root] meta.count&#45;boundary (EachMode fixup)&#45;&gt;[root] output.cidr_block -->
<g id="edge11" class="edge">
<title>[root] meta.count&#45;boundary (EachMode fixup)&#45;&gt;[root] output.cidr_block</title>
<path fill="none" stroke="black" d="M603.94,-216.05C589.19,-206.84 570.76,-195.32 554.84,-185.37"/>
<polygon fill="black" stroke="black" points="556.63,-182.36 546.3,-180.03 552.92,-188.3 556.63,-182.36"/>
</g>
<!-- [root] meta.count&#45;boundary (EachMode fixup)&#45;&gt;[root] output.subnets_ids -->
<g id="edge12" class="edge">
<title>[root] meta.count&#45;boundary (EachMode fixup)&#45;&gt;[root] output.subnets_ids</title>
<path fill="none" stroke="black" d="M636.49,-215.7C638.94,-207.9 641.89,-198.51 644.62,-189.83"/>
<polygon fill="black" stroke="black" points="648.01,-190.69 647.67,-180.1 641.33,-188.59 648.01,-190.69"/>
</g>
<!-- [root] meta.count&#45;boundary (EachMode fixup)&#45;&gt;[root] var.subnet_sufix -->
<g id="edge13" class="edge">
<title>[root] meta.count&#45;boundary (EachMode fixup)&#45;&gt;[root] var.subnet_sufix</title>
<path fill="none" stroke="black" d="M667.46,-216.23C688.2,-206.68 714.42,-194.61 736.63,-184.38"/>
<polygon fill="black" stroke="black" points="738.26,-187.48 745.88,-180.12 735.33,-181.12 738.26,-187.48"/>
</g>
<!-- [root] provider.aws (close) -->
<g id="node16" class="node">
<title>[root] provider.aws (close)</title>
<ellipse fill="none" stroke="black" cx="930.05" cy="-234" rx="104.78" ry="18"/>
<text text-anchor="middle" x="930.05" y="-230.3" font-family="Times,serif" font-size="14.00">[root] provider.aws (close)</text>
</g>
<!-- [root] provider.aws (close)&#45;&gt;[root] aws_subnet.sub -->
<g id="edge16" class="edge">
<title>[root] provider.aws (close)&#45;&gt;[root] aws_subnet.sub</title>
<path fill="none" stroke="black" d="M918.08,-215.94C903.06,-195.79 875.44,-162.67 844.05,-144 804.19,-120.29 753.36,-106.86 714.16,-99.45"/>
<polygon fill="black" stroke="black" points="714.67,-95.98 704.21,-97.65 713.42,-102.87 714.67,-95.98"/>
</g>
<!-- [root] root -->
<g id="node17" class="node">
<title>[root] root</title>
<ellipse fill="none" stroke="black" cx="780.05" cy="-306" rx="47.39" ry="18"/>
<text text-anchor="middle" x="780.05" y="-302.3" font-family="Times,serif" font-size="14.00">[root] root</text>
</g>
<!-- [root] root&#45;&gt;[root] meta.count&#45;boundary (EachMode fixup) -->
<g id="edge17" class="edge">
<title>[root] root&#45;&gt;[root] meta.count&#45;boundary (EachMode fixup)</title>
<path fill="none" stroke="black" d="M751.32,-291.5C729.87,-281.43 700.16,-267.47 675.64,-255.95"/>
<polygon fill="black" stroke="black" points="677.06,-252.75 666.52,-251.67 674.09,-259.09 677.06,-252.75"/>
</g>
<!-- [root] root&#45;&gt;[root] provider.aws (close) -->
<g id="edge18" class="edge">
<title>[root] root&#45;&gt;[root] provider.aws (close)</title>
<path fill="none" stroke="black" d="M808.97,-291.5C830.94,-281.25 861.51,-266.98 886.44,-255.35"/>
<polygon fill="black" stroke="black" points="888.11,-258.43 895.69,-251.03 885.15,-252.09 888.11,-258.43"/>
</g>
</g>
</svg>
