<?xml version="1.0" encoding="UTF-8" standalone="no"?>
<!DOCTYPE svg PUBLIC "-//W3C//DTD SVG 1.1//EN"
 "http://www.w3.org/Graphics/SVG/1.1/DTD/svg11.dtd">
<!-- Generated by graphviz version 2.44.1 (20200629.0846)
 -->
<!-- Pages: 1 -->
<svg width="572pt" height="548pt"
 viewBox="0.00 0.00 572.00 548.00" xmlns="http://www.w3.org/2000/svg" xmlns:xlink="http://www.w3.org/1999/xlink">
<g id="graph0" class="graph" transform="scale(1 1) rotate(0) translate(4 544)">
<polygon fill="white" stroke="transparent" points="-4,4 -4,-544 568,-544 568,4 -4,4"/>
<!-- [root] local.options -->
<g id="node1" class="node">
<title>[root] local.options</title>
<polygon fill="none" stroke="black" points="206,-324 126,-324 126,-288 212,-288 212,-318 206,-324"/>
<polyline fill="none" stroke="black" points="206,-324 206,-318 "/>
<polyline fill="none" stroke="black" points="212,-318 206,-318 "/>
<text text-anchor="middle" x="169" y="-302.3" font-family="Times,serif" font-size="14.00">local.options</text>
</g>
<!-- [root] module.ecr.output.registry_id -->
<g id="node3" class="node">
<title>[root] module.ecr.output.registry_id</title>
<polygon fill="none" stroke="black" points="172,-252 0,-252 0,-216 178,-216 178,-246 172,-252"/>
<polyline fill="none" stroke="black" points="172,-252 172,-246 "/>
<polyline fill="none" stroke="black" points="178,-246 172,-246 "/>
<text text-anchor="middle" x="89" y="-230.3" font-family="Times,serif" font-size="14.00">module.ecr.output.registry_id</text>
</g>
<!-- [root] local.options&#45;&gt;[root] module.ecr.output.registry_id -->
<g id="edge1" class="edge">
<title>[root] local.options&#45;&gt;[root] module.ecr.output.registry_id</title>
<path fill="none" stroke="black" d="M149.22,-287.7C139.25,-278.97 126.99,-268.24 116.14,-258.75"/>
<polygon fill="black" stroke="black" points="118.38,-256.06 108.55,-252.1 113.77,-261.32 118.38,-256.06"/>
</g>
<!-- [root] module.ecr.output.repo_url -->
<g id="node4" class="node">
<title>[root] module.ecr.output.repo_url</title>
<polygon fill="none" stroke="black" points="355.5,-252 196.5,-252 196.5,-216 361.5,-216 361.5,-246 355.5,-252"/>
<polyline fill="none" stroke="black" points="355.5,-252 355.5,-246 "/>
<polyline fill="none" stroke="black" points="361.5,-246 355.5,-246 "/>
<text text-anchor="middle" x="279" y="-230.3" font-family="Times,serif" font-size="14.00">module.ecr.output.repo_url</text>
</g>
<!-- [root] local.options&#45;&gt;[root] module.ecr.output.repo_url -->
<g id="edge2" class="edge">
<title>[root] local.options&#45;&gt;[root] module.ecr.output.repo_url</title>
<path fill="none" stroke="black" d="M195.91,-287.88C210.16,-278.81 227.85,-267.55 243.24,-257.76"/>
<polygon fill="black" stroke="black" points="245.43,-260.51 251.99,-252.19 241.67,-254.61 245.43,-260.51"/>
</g>
<!-- [root] module.ecr.aws_ecr_repository.repo -->
<g id="node2" class="node">
<title>[root] module.ecr.aws_ecr_repository.repo</title>
<polygon fill="none" stroke="black" points="386,-180 172,-180 172,-144 386,-144 386,-180"/>
<text text-anchor="middle" x="279" y="-158.3" font-family="Times,serif" font-size="14.00">module.ecr.aws_ecr_repository.repo</text>
</g>
<!-- [root] module.ecr.var.default_tags -->
<g id="node5" class="node">
<title>[root] module.ecr.var.default_tags</title>
<polygon fill="none" stroke="black" points="165.5,-108 4.5,-108 4.5,-72 171.5,-72 171.5,-102 165.5,-108"/>
<polyline fill="none" stroke="black" points="165.5,-108 165.5,-102 "/>
<polyline fill="none" stroke="black" points="171.5,-102 165.5,-102 "/>
<text text-anchor="middle" x="88" y="-86.3" font-family="Times,serif" font-size="14.00">module.ecr.var.default_tags</text>
</g>
<!-- [root] module.ecr.aws_ecr_repository.repo&#45;&gt;[root] module.ecr.var.default_tags -->
<g id="edge6" class="edge">
<title>[root] module.ecr.aws_ecr_repository.repo&#45;&gt;[root] module.ecr.var.default_tags</title>
<path fill="none" stroke="black" d="M232.28,-143.88C205.7,-134.14 172.24,-121.87 144.23,-111.61"/>
<polygon fill="black" stroke="black" points="145.17,-108.22 134.57,-108.07 142.76,-114.8 145.17,-108.22"/>
</g>
<!-- [root] module.ecr.var.ecr_repository -->
<g id="node6" class="node">
<title>[root] module.ecr.var.ecr_repository</title>
<polygon fill="none" stroke="black" points="362.5,-108 189.5,-108 189.5,-72 368.5,-72 368.5,-102 362.5,-108"/>
<polyline fill="none" stroke="black" points="362.5,-108 362.5,-102 "/>
<polyline fill="none" stroke="black" points="368.5,-102 362.5,-102 "/>
<text text-anchor="middle" x="279" y="-86.3" font-family="Times,serif" font-size="14.00">module.ecr.var.ecr_repository</text>
</g>
<!-- [root] module.ecr.aws_ecr_repository.repo&#45;&gt;[root] module.ecr.var.ecr_repository -->
<g id="edge7" class="edge">
<title>[root] module.ecr.aws_ecr_repository.repo&#45;&gt;[root] module.ecr.var.ecr_repository</title>
<path fill="none" stroke="black" d="M279,-143.7C279,-135.98 279,-126.71 279,-118.11"/>
<polygon fill="black" stroke="black" points="282.5,-118.1 279,-108.1 275.5,-118.1 282.5,-118.1"/>
</g>
<!-- [root] provider.aws -->
<g id="node10" class="node">
<title>[root] provider.aws</title>
<polygon fill="none" stroke="black" points="466,-108 386.9,-90 466,-72 545.1,-90 466,-108"/>
<text text-anchor="middle" x="466" y="-86.3" font-family="Times,serif" font-size="14.00">provider.aws</text>
</g>
<!-- [root] module.ecr.aws_ecr_repository.repo&#45;&gt;[root] provider.aws -->
<g id="edge8" class="edge">
<title>[root] module.ecr.aws_ecr_repository.repo&#45;&gt;[root] provider.aws</title>
<path fill="none" stroke="black" d="M324.75,-143.88C356.41,-132.02 398.08,-116.43 427.93,-105.25"/>
<polygon fill="black" stroke="black" points="429.44,-108.42 437.57,-101.64 426.98,-101.87 429.44,-108.42"/>
</g>
<!-- [root] module.ecr.output.registry_id&#45;&gt;[root] module.ecr.aws_ecr_repository.repo -->
<g id="edge9" class="edge">
<title>[root] module.ecr.output.registry_id&#45;&gt;[root] module.ecr.aws_ecr_repository.repo</title>
<path fill="none" stroke="black" d="M135.48,-215.88C161.92,-206.14 195.2,-193.87 223.06,-183.61"/>
<polygon fill="black" stroke="black" points="224.5,-186.81 232.67,-180.07 222.08,-180.24 224.5,-186.81"/>
</g>
<!-- [root] module.ecr.output.repo_url&#45;&gt;[root] module.ecr.aws_ecr_repository.repo -->
<g id="edge10" class="edge">
<title>[root] module.ecr.output.repo_url&#45;&gt;[root] module.ecr.aws_ecr_repository.repo</title>
<path fill="none" stroke="black" d="M279,-215.7C279,-207.98 279,-198.71 279,-190.11"/>
<polygon fill="black" stroke="black" points="282.5,-190.1 279,-180.1 275.5,-190.1 282.5,-190.1"/>
</g>
<!-- [root] var.default_tags -->
<g id="node11" class="node">
<title>[root] var.default_tags</title>
<polygon fill="none" stroke="black" points="133.5,-36 36.5,-36 36.5,0 139.5,0 139.5,-30 133.5,-36"/>
<polyline fill="none" stroke="black" points="133.5,-36 133.5,-30 "/>
<polyline fill="none" stroke="black" points="139.5,-30 133.5,-30 "/>
<text text-anchor="middle" x="88" y="-14.3" font-family="Times,serif" font-size="14.00">var.default_tags</text>
</g>
<!-- [root] module.ecr.var.default_tags&#45;&gt;[root] var.default_tags -->
<g id="edge11" class="edge">
<title>[root] module.ecr.var.default_tags&#45;&gt;[root] var.default_tags</title>
<path fill="none" stroke="black" d="M88,-71.7C88,-63.98 88,-54.71 88,-46.11"/>
<polygon fill="black" stroke="black" points="91.5,-46.1 88,-36.1 84.5,-46.1 91.5,-46.1"/>
</g>
<!-- [root] var.ecr_repository -->
<g id="node12" class="node">
<title>[root] var.ecr_repository</title>
<polygon fill="none" stroke="black" points="330.5,-36 221.5,-36 221.5,0 336.5,0 336.5,-30 330.5,-36"/>
<polyline fill="none" stroke="black" points="330.5,-36 330.5,-30 "/>
<polyline fill="none" stroke="black" points="336.5,-30 330.5,-30 "/>
<text text-anchor="middle" x="279" y="-14.3" font-family="Times,serif" font-size="14.00">var.ecr_repository</text>
</g>
<!-- [root] module.ecr.var.ecr_repository&#45;&gt;[root] var.ecr_repository -->
<g id="edge12" class="edge">
<title>[root] module.ecr.var.ecr_repository&#45;&gt;[root] var.ecr_repository</title>
<path fill="none" stroke="black" d="M279,-71.7C279,-63.98 279,-54.71 279,-46.11"/>
<polygon fill="black" stroke="black" points="282.5,-46.1 279,-36.1 275.5,-46.1 282.5,-46.1"/>
</g>
<!-- [root] output.ecr -->
<g id="node7" class="node">
<title>[root] output.ecr</title>
<polygon fill="none" stroke="black" points="295.5,-324 230.5,-324 230.5,-288 301.5,-288 301.5,-318 295.5,-324"/>
<polyline fill="none" stroke="black" points="295.5,-324 295.5,-318 "/>
<polyline fill="none" stroke="black" points="301.5,-318 295.5,-318 "/>
<text text-anchor="middle" x="266" y="-302.3" font-family="Times,serif" font-size="14.00">output.ecr</text>
</g>
<!-- [root] output.ecr&#45;&gt;[root] module.ecr.output.repo_url -->
<g id="edge13" class="edge">
<title>[root] output.ecr&#45;&gt;[root] module.ecr.output.repo_url</title>
<path fill="none" stroke="black" d="M269.21,-287.7C270.65,-279.98 272.37,-270.71 273.96,-262.11"/>
<polygon fill="black" stroke="black" points="277.44,-262.58 275.82,-252.1 270.56,-261.3 277.44,-262.58"/>
</g>
<!-- [root] output.id -->
<g id="node8" class="node">
<title>[root] output.id</title>
<polygon fill="none" stroke="black" points="115.5,-396 56.5,-396 56.5,-360 121.5,-360 121.5,-390 115.5,-396"/>
<polyline fill="none" stroke="black" points="115.5,-396 115.5,-390 "/>
<polyline fill="none" stroke="black" points="121.5,-390 115.5,-390 "/>
<text text-anchor="middle" x="89" y="-374.3" font-family="Times,serif" font-size="14.00">output.id</text>
</g>
<!-- [root] output.id&#45;&gt;[root] module.ecr.output.registry_id -->
<g id="edge14" class="edge">
<title>[root] output.id&#45;&gt;[root] module.ecr.output.registry_id</title>
<path fill="none" stroke="black" d="M89,-359.87C89,-335.67 89,-291.21 89,-262.39"/>
<polygon fill="black" stroke="black" points="92.5,-262.19 89,-252.19 85.5,-262.19 92.5,-262.19"/>
</g>
<!-- [root] output.toString -->
<g id="node9" class="node">
<title>[root] output.toString</title>
<polygon fill="none" stroke="black" points="232,-396 140,-396 140,-360 238,-360 238,-390 232,-396"/>
<polyline fill="none" stroke="black" points="232,-396 232,-390 "/>
<polyline fill="none" stroke="black" points="238,-390 232,-390 "/>
<text text-anchor="middle" x="189" y="-374.3" font-family="Times,serif" font-size="14.00">output.toString</text>
</g>
<!-- [root] output.toString&#45;&gt;[root] local.options -->
<g id="edge15" class="edge">
<title>[root] output.toString&#45;&gt;[root] local.options</title>
<path fill="none" stroke="black" d="M184.06,-359.7C181.83,-351.9 179.15,-342.51 176.67,-333.83"/>
<polygon fill="black" stroke="black" points="180,-332.76 173.89,-324.1 173.27,-334.68 180,-332.76"/>
</g>
<!-- [root] var.region -->
<g id="node13" class="node">
<title>[root] var.region</title>
<polygon fill="none" stroke="black" points="457.5,-36 392.5,-36 392.5,0 463.5,0 463.5,-30 457.5,-36"/>
<polyline fill="none" stroke="black" points="457.5,-36 457.5,-30 "/>
<polyline fill="none" stroke="black" points="463.5,-30 457.5,-30 "/>
<text text-anchor="middle" x="428" y="-14.3" font-family="Times,serif" font-size="14.00">var.region</text>
</g>
<!-- [root] provider.aws&#45;&gt;[root] var.region -->
<g id="edge17" class="edge">
<title>[root] provider.aws&#45;&gt;[root] var.region</title>
<path fill="none" stroke="black" d="M457.75,-73.81C453.19,-65.4 447.39,-54.72 442.12,-45.02"/>
<polygon fill="black" stroke="black" points="445.14,-43.25 437.3,-36.13 438.99,-46.59 445.14,-43.25"/>
</g>
<!-- [root] var.role_arn -->
<g id="node14" class="node">
<title>[root] var.role_arn</title>
<polygon fill="none" stroke="black" points="558,-36 482,-36 482,0 564,0 564,-30 558,-36"/>
<polyline fill="none" stroke="black" points="558,-36 558,-30 "/>
<polyline fill="none" stroke="black" points="564,-30 558,-30 "/>
<text text-anchor="middle" x="523" y="-14.3" font-family="Times,serif" font-size="14.00">var.role_arn</text>
</g>
<!-- [root] provider.aws&#45;&gt;[root] var.role_arn -->
<g id="edge18" class="edge">
<title>[root] provider.aws&#45;&gt;[root] var.role_arn</title>
<path fill="none" stroke="black" d="M477.81,-74.5C484.96,-65.71 494.28,-54.27 502.6,-44.06"/>
<polygon fill="black" stroke="black" points="505.39,-46.17 508.99,-36.2 499.96,-41.75 505.39,-46.17"/>
</g>
<!-- [root] meta.count&#45;boundary (EachMode fixup) -->
<g id="node15" class="node">
<title>[root] meta.count&#45;boundary (EachMode fixup)</title>
<ellipse fill="none" stroke="black" cx="204" cy="-450" rx="176.27" ry="18"/>
<text text-anchor="middle" x="204" y="-446.3" font-family="Times,serif" font-size="14.00">[root] meta.count&#45;boundary (EachMode fixup)</text>
</g>
<!-- [root] meta.count&#45;boundary (EachMode fixup)&#45;&gt;[root] output.ecr -->
<g id="edge3" class="edge">
<title>[root] meta.count&#45;boundary (EachMode fixup)&#45;&gt;[root] output.ecr</title>
<path fill="none" stroke="black" d="M221.45,-431.83C230.38,-422.1 240.66,-409.26 247,-396 256.34,-376.46 261.13,-352.32 263.56,-334.12"/>
<polygon fill="black" stroke="black" points="267.04,-334.51 264.73,-324.16 260.08,-333.68 267.04,-334.51"/>
</g>
<!-- [root] meta.count&#45;boundary (EachMode fixup)&#45;&gt;[root] output.id -->
<g id="edge4" class="edge">
<title>[root] meta.count&#45;boundary (EachMode fixup)&#45;&gt;[root] output.id</title>
<path fill="none" stroke="black" d="M176.16,-432.05C161.02,-422.84 142.09,-411.32 125.75,-401.37"/>
<polygon fill="black" stroke="black" points="127.34,-398.24 116.98,-396.03 123.7,-404.22 127.34,-398.24"/>
</g>
<!-- [root] meta.count&#45;boundary (EachMode fixup)&#45;&gt;[root] output.toString -->
<g id="edge5" class="edge">
<title>[root] meta.count&#45;boundary (EachMode fixup)&#45;&gt;[root] output.toString</title>
<path fill="none" stroke="black" d="M200.29,-431.7C198.64,-423.98 196.65,-414.71 194.81,-406.11"/>
<polygon fill="black" stroke="black" points="198.18,-405.15 192.67,-396.1 191.34,-406.62 198.18,-405.15"/>
</g>
<!-- [root] provider.aws (close) -->
<g id="node16" class="node">
<title>[root] provider.aws (close)</title>
<ellipse fill="none" stroke="black" cx="424" cy="-306" rx="104.78" ry="18"/>
<text text-anchor="middle" x="424" y="-302.3" font-family="Times,serif" font-size="14.00">[root] provider.aws (close)</text>
</g>
<!-- [root] provider.aws (close)&#45;&gt;[root] module.ecr.aws_ecr_repository.repo -->
<g id="edge16" class="edge">
<title>[root] provider.aws (close)&#45;&gt;[root] module.ecr.aws_ecr_repository.repo</title>
<path fill="none" stroke="black" d="M416.77,-287.88C407.95,-268.58 391.53,-237.15 370,-216 357.58,-203.8 341.8,-193.34 326.89,-185.02"/>
<polygon fill="black" stroke="black" points="328.22,-181.76 317.76,-180.12 324.91,-187.93 328.22,-181.76"/>
</g>
<!-- [root] root -->
<g id="node17" class="node">
<title>[root] root</title>
<ellipse fill="none" stroke="black" cx="306" cy="-522" rx="47.39" ry="18"/>
<text text-anchor="middle" x="306" y="-518.3" font-family="Times,serif" font-size="14.00">[root] root</text>
</g>
<!-- [root] root&#45;&gt;[root] meta.count&#45;boundary (EachMode fixup) -->
<g id="edge19" class="edge">
<title>[root] root&#45;&gt;[root] meta.count&#45;boundary (EachMode fixup)</title>
<path fill="none" stroke="black" d="M284.12,-505.98C270.39,-496.56 252.42,-484.23 236.98,-473.64"/>
<polygon fill="black" stroke="black" points="238.94,-470.73 228.71,-467.96 234.98,-476.5 238.94,-470.73"/>
</g>
<!-- [root] root&#45;&gt;[root] provider.aws (close) -->
<g id="edge20" class="edge">
<title>[root] root&#45;&gt;[root] provider.aws (close)</title>
<path fill="none" stroke="black" d="M337.3,-508.38C355.09,-499.62 376.3,-486.24 389,-468 417.17,-427.54 423.28,-368.59 424.26,-334.38"/>
<polygon fill="black" stroke="black" points="427.76,-334.25 424.41,-324.2 420.76,-334.14 427.76,-334.25"/>
</g>
</g>
</svg>
