<?xml version="1.0" encoding="UTF-8" standalone="no"?>
<!DOCTYPE svg PUBLIC "-//W3C//DTD SVG 1.1//EN"
 "http://www.w3.org/Graphics/SVG/1.1/DTD/svg11.dtd">
<!-- Generated by graphviz version 2.44.1 (20200629.0846)
 -->
<!-- Pages: 1 -->
<svg width="588pt" height="332pt"
 viewBox="0.00 0.00 587.78 332.00" xmlns="http://www.w3.org/2000/svg" xmlns:xlink="http://www.w3.org/1999/xlink">
<g id="graph0" class="graph" transform="scale(1 1) rotate(0) translate(4 328)">
<polygon fill="white" stroke="transparent" points="-4,4 -4,-328 583.78,-328 583.78,4 -4,4"/>
<!-- [root] aws_ecr_repository.repo -->
<g id="node1" class="node">
<title>[root] aws_ecr_repository.repo</title>
<polygon fill="none" stroke="black" points="375.63,-108 226.63,-108 226.63,-72 375.63,-72 375.63,-108"/>
<text text-anchor="middle" x="301.13" y="-86.3" font-family="Times,serif" font-size="14.00">aws_ecr_repository.repo</text>
</g>
<!-- [root] provider.aws -->
<g id="node4" class="node">
<title>[root] provider.aws</title>
<polygon fill="none" stroke="black" points="152.13,-36 73.04,-18 152.13,0 231.23,-18 152.13,-36"/>
<text text-anchor="middle" x="152.13" y="-14.3" font-family="Times,serif" font-size="14.00">provider.aws</text>
</g>
<!-- [root] aws_ecr_repository.repo&#45;&gt;[root] provider.aws -->
<g id="edge1" class="edge">
<title>[root] aws_ecr_repository.repo&#45;&gt;[root] provider.aws</title>
<path fill="none" stroke="black" d="M264.68,-71.88C240.61,-60.56 209.28,-45.85 185.79,-34.81"/>
<polygon fill="black" stroke="black" points="187.1,-31.56 176.57,-30.48 184.13,-37.9 187.1,-31.56"/>
</g>
<!-- [root] var.default_tags -->
<g id="node5" class="node">
<title>[root] var.default_tags</title>
<polygon fill="none" stroke="black" points="346.63,-36 249.63,-36 249.63,0 352.63,0 352.63,-30 346.63,-36"/>
<polyline fill="none" stroke="black" points="346.63,-36 346.63,-30 "/>
<polyline fill="none" stroke="black" points="352.63,-30 346.63,-30 "/>
<text text-anchor="middle" x="301.13" y="-14.3" font-family="Times,serif" font-size="14.00">var.default_tags</text>
</g>
<!-- [root] aws_ecr_repository.repo&#45;&gt;[root] var.default_tags -->
<g id="edge2" class="edge">
<title>[root] aws_ecr_repository.repo&#45;&gt;[root] var.default_tags</title>
<path fill="none" stroke="black" d="M301.13,-71.7C301.13,-63.98 301.13,-54.71 301.13,-46.11"/>
<polygon fill="black" stroke="black" points="304.63,-46.1 301.13,-36.1 297.63,-46.1 304.63,-46.1"/>
</g>
<!-- [root] var.ecr_repository -->
<g id="node6" class="node">
<title>[root] var.ecr_repository</title>
<polygon fill="none" stroke="black" points="479.63,-36 370.63,-36 370.63,0 485.63,0 485.63,-30 479.63,-36"/>
<polyline fill="none" stroke="black" points="479.63,-36 479.63,-30 "/>
<polyline fill="none" stroke="black" points="485.63,-30 479.63,-30 "/>
<text text-anchor="middle" x="428.13" y="-14.3" font-family="Times,serif" font-size="14.00">var.ecr_repository</text>
</g>
<!-- [root] aws_ecr_repository.repo&#45;&gt;[root] var.ecr_repository -->
<g id="edge3" class="edge">
<title>[root] aws_ecr_repository.repo&#45;&gt;[root] var.ecr_repository</title>
<path fill="none" stroke="black" d="M332.2,-71.88C348.96,-62.64 369.84,-51.13 387.84,-41.21"/>
<polygon fill="black" stroke="black" points="389.88,-44.08 396.95,-36.19 386.5,-37.95 389.88,-44.08"/>
</g>
<!-- [root] output.registry_id -->
<g id="node2" class="node">
<title>[root] output.registry_id</title>
<polygon fill="none" stroke="black" points="226.63,-180 119.63,-180 119.63,-144 232.63,-144 232.63,-174 226.63,-180"/>
<polyline fill="none" stroke="black" points="226.63,-180 226.63,-174 "/>
<polyline fill="none" stroke="black" points="232.63,-174 226.63,-174 "/>
<text text-anchor="middle" x="176.13" y="-158.3" font-family="Times,serif" font-size="14.00">output.registry_id</text>
</g>
<!-- [root] output.registry_id&#45;&gt;[root] aws_ecr_repository.repo -->
<g id="edge6" class="edge">
<title>[root] output.registry_id&#45;&gt;[root] aws_ecr_repository.repo</title>
<path fill="none" stroke="black" d="M206.71,-143.88C223.21,-134.64 243.76,-123.13 261.47,-113.21"/>
<polygon fill="black" stroke="black" points="263.42,-116.13 270.44,-108.19 260,-110.02 263.42,-116.13"/>
</g>
<!-- [root] output.repo_url -->
<g id="node3" class="node">
<title>[root] output.repo_url</title>
<polygon fill="none" stroke="black" points="345.63,-180 250.63,-180 250.63,-144 351.63,-144 351.63,-174 345.63,-180"/>
<polyline fill="none" stroke="black" points="345.63,-180 345.63,-174 "/>
<polyline fill="none" stroke="black" points="351.63,-174 345.63,-174 "/>
<text text-anchor="middle" x="301.13" y="-158.3" font-family="Times,serif" font-size="14.00">output.repo_url</text>
</g>
<!-- [root] output.repo_url&#45;&gt;[root] aws_ecr_repository.repo -->
<g id="edge7" class="edge">
<title>[root] output.repo_url&#45;&gt;[root] aws_ecr_repository.repo</title>
<path fill="none" stroke="black" d="M301.13,-143.7C301.13,-135.98 301.13,-126.71 301.13,-118.11"/>
<polygon fill="black" stroke="black" points="304.63,-118.1 301.13,-108.1 297.63,-118.1 304.63,-118.1"/>
</g>
<!-- [root] meta.count&#45;boundary (EachMode fixup) -->
<g id="node7" class="node">
<title>[root] meta.count&#45;boundary (EachMode fixup)</title>
<ellipse fill="none" stroke="black" cx="176.13" cy="-234" rx="176.27" ry="18"/>
<text text-anchor="middle" x="176.13" y="-230.3" font-family="Times,serif" font-size="14.00">[root] meta.count&#45;boundary (EachMode fixup)</text>
</g>
<!-- [root] meta.count&#45;boundary (EachMode fixup)&#45;&gt;[root] output.registry_id -->
<g id="edge4" class="edge">
<title>[root] meta.count&#45;boundary (EachMode fixup)&#45;&gt;[root] output.registry_id</title>
<path fill="none" stroke="black" d="M176.13,-215.7C176.13,-207.98 176.13,-198.71 176.13,-190.11"/>
<polygon fill="black" stroke="black" points="179.63,-190.1 176.13,-180.1 172.63,-190.1 179.63,-190.1"/>
</g>
<!-- [root] meta.count&#45;boundary (EachMode fixup)&#45;&gt;[root] output.repo_url -->
<g id="edge5" class="edge">
<title>[root] meta.count&#45;boundary (EachMode fixup)&#45;&gt;[root] output.repo_url</title>
<path fill="none" stroke="black" d="M206.07,-216.23C222.68,-206.93 243.54,-195.25 261.49,-185.2"/>
<polygon fill="black" stroke="black" points="263.55,-188.06 270.57,-180.12 260.13,-181.95 263.55,-188.06"/>
</g>
<!-- [root] provider.aws (close) -->
<g id="node8" class="node">
<title>[root] provider.aws (close)</title>
<ellipse fill="none" stroke="black" cx="475.13" cy="-234" rx="104.78" ry="18"/>
<text text-anchor="middle" x="475.13" y="-230.3" font-family="Times,serif" font-size="14.00">[root] provider.aws (close)</text>
</g>
<!-- [root] provider.aws (close)&#45;&gt;[root] aws_ecr_repository.repo -->
<g id="edge8" class="edge">
<title>[root] provider.aws (close)&#45;&gt;[root] aws_ecr_repository.repo</title>
<path fill="none" stroke="black" d="M454.49,-216.15C423.57,-190.92 365.12,-143.22 329.99,-114.55"/>
<polygon fill="black" stroke="black" points="331.98,-111.66 322.02,-108.05 327.56,-117.08 331.98,-111.66"/>
</g>
<!-- [root] root -->
<g id="node9" class="node">
<title>[root] root</title>
<ellipse fill="none" stroke="black" cx="325.13" cy="-306" rx="47.39" ry="18"/>
<text text-anchor="middle" x="325.13" y="-302.3" font-family="Times,serif" font-size="14.00">[root] root</text>
</g>
<!-- [root] root&#45;&gt;[root] meta.count&#45;boundary (EachMode fixup) -->
<g id="edge9" class="edge">
<title>[root] root&#45;&gt;[root] meta.count&#45;boundary (EachMode fixup)</title>
<path fill="none" stroke="black" d="M296.41,-291.5C274.96,-281.43 245.25,-267.47 220.73,-255.95"/>
<polygon fill="black" stroke="black" points="222.15,-252.75 211.61,-251.67 219.17,-259.09 222.15,-252.75"/>
</g>
<!-- [root] root&#45;&gt;[root] provider.aws (close) -->
<g id="edge10" class="edge">
<title>[root] root&#45;&gt;[root] provider.aws (close)</title>
<path fill="none" stroke="black" d="M354.06,-291.5C376.02,-281.25 406.6,-266.98 431.53,-255.35"/>
<polygon fill="black" stroke="black" points="433.2,-258.43 440.78,-251.03 430.24,-252.09 433.2,-258.43"/>
</g>
</g>
</svg>
