<?xml version="1.0" encoding="UTF-8" standalone="no"?>
<!DOCTYPE svg PUBLIC "-//W3C//DTD SVG 1.1//EN"
 "http://www.w3.org/Graphics/SVG/1.1/DTD/svg11.dtd">
<!-- Generated by graphviz version 2.44.1 (20200629.0846)
 -->
<!-- Pages: 1 -->
<svg width="1041pt" height="260pt"
 viewBox="0.00 0.00 1041.05 260.00" xmlns="http://www.w3.org/2000/svg" xmlns:xlink="http://www.w3.org/1999/xlink">
<g id="graph0" class="graph" transform="scale(1 1) rotate(0) translate(4 256)">
<polygon fill="white" stroke="transparent" points="-4,4 -4,-256 1037.05,-256 1037.05,4 -4,4"/>
<!-- [root] aws_security_group_rule.rule -->
<g id="node1" class="node">
<title>[root] aws_security_group_rule.rule</title>
<polygon fill="none" stroke="black" points="583.05,-108 405.05,-108 405.05,-72 583.05,-72 583.05,-108"/>
<text text-anchor="middle" x="494.05" y="-86.3" font-family="Times,serif" font-size="14.00">aws_security_group_rule.rule</text>
</g>
<!-- [root] provider.aws -->
<g id="node2" class="node">
<title>[root] provider.aws</title>
<polygon fill="none" stroke="black" points="79.05,-36 -0.05,-18 79.05,0 158.14,-18 79.05,-36"/>
<text text-anchor="middle" x="79.05" y="-14.3" font-family="Times,serif" font-size="14.00">provider.aws</text>
</g>
<!-- [root] aws_security_group_rule.rule&#45;&gt;[root] provider.aws -->
<g id="edge1" class="edge">
<title>[root] aws_security_group_rule.rule&#45;&gt;[root] provider.aws</title>
<path fill="none" stroke="black" d="M404.75,-75.27C338.95,-64.97 247.31,-50.25 167.05,-36 154.72,-33.81 141.45,-31.32 129.04,-28.93"/>
<polygon fill="black" stroke="black" points="129.35,-25.42 118.86,-26.96 128.02,-32.3 129.35,-25.42"/>
</g>
<!-- [root] var.description -->
<g id="node3" class="node">
<title>[root] var.description</title>
<polygon fill="none" stroke="black" points="267.55,-36 176.55,-36 176.55,0 273.55,0 273.55,-30 267.55,-36"/>
<polyline fill="none" stroke="black" points="267.55,-36 267.55,-30 "/>
<polyline fill="none" stroke="black" points="273.55,-30 267.55,-30 "/>
<text text-anchor="middle" x="225.05" y="-14.3" font-family="Times,serif" font-size="14.00">var.description</text>
</g>
<!-- [root] aws_security_group_rule.rule&#45;&gt;[root] var.description -->
<g id="edge2" class="edge">
<title>[root] aws_security_group_rule.rule&#45;&gt;[root] var.description</title>
<path fill="none" stroke="black" d="M423.05,-71.9C384.44,-62.43 335.63,-50.18 283.51,-36.08"/>
<polygon fill="black" stroke="black" points="284.31,-32.67 273.74,-33.42 282.48,-39.42 284.31,-32.67"/>
</g>
<!-- [root] var.from_port -->
<g id="node4" class="node">
<title>[root] var.from_port</title>
<polygon fill="none" stroke="black" points="378.05,-36 292.05,-36 292.05,0 384.05,0 384.05,-30 378.05,-36"/>
<polyline fill="none" stroke="black" points="378.05,-36 378.05,-30 "/>
<polyline fill="none" stroke="black" points="384.05,-30 378.05,-30 "/>
<text text-anchor="middle" x="338.05" y="-14.3" font-family="Times,serif" font-size="14.00">var.from_port</text>
</g>
<!-- [root] aws_security_group_rule.rule&#45;&gt;[root] var.from_port -->
<g id="edge3" class="edge">
<title>[root] aws_security_group_rule.rule&#45;&gt;[root] var.from_port</title>
<path fill="none" stroke="black" d="M455.89,-71.88C434.65,-62.35 408.04,-50.41 385.48,-40.28"/>
<polygon fill="black" stroke="black" points="386.64,-36.97 376.09,-36.07 383.78,-43.36 386.64,-36.97"/>
</g>
<!-- [root] var.protocol -->
<g id="node5" class="node">
<title>[root] var.protocol</title>
<polygon fill="none" stroke="black" points="478.05,-36 402.05,-36 402.05,0 484.05,0 484.05,-30 478.05,-36"/>
<polyline fill="none" stroke="black" points="478.05,-36 478.05,-30 "/>
<polyline fill="none" stroke="black" points="484.05,-30 478.05,-30 "/>
<text text-anchor="middle" x="443.05" y="-14.3" font-family="Times,serif" font-size="14.00">var.protocol</text>
</g>
<!-- [root] aws_security_group_rule.rule&#45;&gt;[root] var.protocol -->
<g id="edge4" class="edge">
<title>[root] aws_security_group_rule.rule&#45;&gt;[root] var.protocol</title>
<path fill="none" stroke="black" d="M481.44,-71.7C475.45,-63.47 468.17,-53.48 461.57,-44.42"/>
<polygon fill="black" stroke="black" points="464.23,-42.13 455.51,-36.1 458.57,-46.25 464.23,-42.13"/>
</g>
<!-- [root] var.rule_type -->
<g id="node6" class="node">
<title>[root] var.rule_type</title>
<polygon fill="none" stroke="black" points="584.05,-36 502.05,-36 502.05,0 590.05,0 590.05,-30 584.05,-36"/>
<polyline fill="none" stroke="black" points="584.05,-36 584.05,-30 "/>
<polyline fill="none" stroke="black" points="590.05,-30 584.05,-30 "/>
<text text-anchor="middle" x="546.05" y="-14.3" font-family="Times,serif" font-size="14.00">var.rule_type</text>
</g>
<!-- [root] aws_security_group_rule.rule&#45;&gt;[root] var.rule_type -->
<g id="edge5" class="edge">
<title>[root] aws_security_group_rule.rule&#45;&gt;[root] var.rule_type</title>
<path fill="none" stroke="black" d="M506.9,-71.7C513.07,-63.39 520.58,-53.28 527.37,-44.14"/>
<polygon fill="black" stroke="black" points="530.19,-46.22 533.34,-36.1 524.57,-42.04 530.19,-46.22"/>
</g>
<!-- [root] var.security_group_id -->
<g id="node7" class="node">
<title>[root] var.security_group_id</title>
<polygon fill="none" stroke="black" points="737.55,-36 608.55,-36 608.55,0 743.55,0 743.55,-30 737.55,-36"/>
<polyline fill="none" stroke="black" points="737.55,-36 737.55,-30 "/>
<polyline fill="none" stroke="black" points="743.55,-30 737.55,-30 "/>
<text text-anchor="middle" x="676.05" y="-14.3" font-family="Times,serif" font-size="14.00">var.security_group_id</text>
</g>
<!-- [root] aws_security_group_rule.rule&#45;&gt;[root] var.security_group_id -->
<g id="edge6" class="edge">
<title>[root] aws_security_group_rule.rule&#45;&gt;[root] var.security_group_id</title>
<path fill="none" stroke="black" d="M538.57,-71.88C563.78,-62.18 595.5,-49.98 622.12,-39.74"/>
<polygon fill="black" stroke="black" points="623.59,-42.92 631.67,-36.07 621.08,-36.39 623.59,-42.92"/>
</g>
<!-- [root] var.source_security_group_id -->
<g id="node8" class="node">
<title>[root] var.source_security_group_id</title>
<polygon fill="none" stroke="black" points="932.55,-36 761.55,-36 761.55,0 938.55,0 938.55,-30 932.55,-36"/>
<polyline fill="none" stroke="black" points="932.55,-36 932.55,-30 "/>
<polyline fill="none" stroke="black" points="938.55,-30 932.55,-30 "/>
<text text-anchor="middle" x="850.05" y="-14.3" font-family="Times,serif" font-size="14.00">var.source_security_group_id</text>
</g>
<!-- [root] aws_security_group_rule.rule&#45;&gt;[root] var.source_security_group_id -->
<g id="edge7" class="edge">
<title>[root] aws_security_group_rule.rule&#45;&gt;[root] var.source_security_group_id</title>
<path fill="none" stroke="black" d="M580.68,-71.97C632.9,-61.7 699.51,-48.6 753.42,-38"/>
<polygon fill="black" stroke="black" points="754.2,-41.41 763.34,-36.05 752.85,-34.55 754.2,-41.41"/>
</g>
<!-- [root] var.to_port -->
<g id="node9" class="node">
<title>[root] var.to_port</title>
<polygon fill="none" stroke="black" points="1027.05,-36 957.05,-36 957.05,0 1033.05,0 1033.05,-30 1027.05,-36"/>
<polyline fill="none" stroke="black" points="1027.05,-36 1027.05,-30 "/>
<polyline fill="none" stroke="black" points="1033.05,-30 1027.05,-30 "/>
<text text-anchor="middle" x="995.05" y="-14.3" font-family="Times,serif" font-size="14.00">var.to_port</text>
</g>
<!-- [root] aws_security_group_rule.rule&#45;&gt;[root] var.to_port -->
<g id="edge8" class="edge">
<title>[root] aws_security_group_rule.rule&#45;&gt;[root] var.to_port</title>
<path fill="none" stroke="black" d="M583.41,-84.67C673.48,-78.92 816.32,-66.03 947.01,-35.94"/>
<polygon fill="black" stroke="black" points="947.85,-39.34 956.79,-33.65 946.26,-32.52 947.85,-39.34"/>
</g>
<!-- [root] meta.count&#45;boundary (EachMode fixup) -->
<g id="node10" class="node">
<title>[root] meta.count&#45;boundary (EachMode fixup)</title>
<ellipse fill="none" stroke="black" cx="345.05" cy="-162" rx="176.27" ry="18"/>
<text text-anchor="middle" x="345.05" y="-158.3" font-family="Times,serif" font-size="14.00">[root] meta.count&#45;boundary (EachMode fixup)</text>
</g>
<!-- [root] meta.count&#45;boundary (EachMode fixup)&#45;&gt;[root] aws_security_group_rule.rule -->
<g id="edge9" class="edge">
<title>[root] meta.count&#45;boundary (EachMode fixup)&#45;&gt;[root] aws_security_group_rule.rule</title>
<path fill="none" stroke="black" d="M380.74,-144.23C401.08,-134.68 426.77,-122.61 448.55,-112.38"/>
<polygon fill="black" stroke="black" points="450.05,-115.54 457.61,-108.12 447.08,-109.2 450.05,-115.54"/>
</g>
<!-- [root] provider.aws (close) -->
<g id="node11" class="node">
<title>[root] provider.aws (close)</title>
<ellipse fill="none" stroke="black" cx="644.05" cy="-162" rx="104.78" ry="18"/>
<text text-anchor="middle" x="644.05" y="-158.3" font-family="Times,serif" font-size="14.00">[root] provider.aws (close)</text>
</g>
<!-- [root] provider.aws (close)&#45;&gt;[root] aws_security_group_rule.rule -->
<g id="edge10" class="edge">
<title>[root] provider.aws (close)&#45;&gt;[root] aws_security_group_rule.rule</title>
<path fill="none" stroke="black" d="M609.63,-144.94C588.97,-135.3 562.43,-122.91 539.99,-112.44"/>
<polygon fill="black" stroke="black" points="541.2,-109.14 530.66,-108.08 538.24,-115.48 541.2,-109.14"/>
</g>
<!-- [root] root -->
<g id="node12" class="node">
<title>[root] root</title>
<ellipse fill="none" stroke="black" cx="494.05" cy="-234" rx="47.39" ry="18"/>
<text text-anchor="middle" x="494.05" y="-230.3" font-family="Times,serif" font-size="14.00">[root] root</text>
</g>
<!-- [root] root&#45;&gt;[root] meta.count&#45;boundary (EachMode fixup) -->
<g id="edge11" class="edge">
<title>[root] root&#45;&gt;[root] meta.count&#45;boundary (EachMode fixup)</title>
<path fill="none" stroke="black" d="M465.32,-219.5C443.87,-209.43 414.16,-195.47 389.64,-183.95"/>
<polygon fill="black" stroke="black" points="391.06,-180.75 380.52,-179.67 388.09,-187.09 391.06,-180.75"/>
</g>
<!-- [root] root&#45;&gt;[root] provider.aws (close) -->
<g id="edge12" class="edge">
<title>[root] root&#45;&gt;[root] provider.aws (close)</title>
<path fill="none" stroke="black" d="M522.97,-219.5C544.94,-209.25 575.51,-194.98 600.44,-183.35"/>
<polygon fill="black" stroke="black" points="602.11,-186.43 609.69,-179.03 599.15,-180.09 602.11,-186.43"/>
</g>
</g>
</svg>
