<?xml version="1.0" encoding="UTF-8" standalone="no"?>
<!DOCTYPE svg PUBLIC "-//W3C//DTD SVG 1.1//EN"
 "http://www.w3.org/Graphics/SVG/1.1/DTD/svg11.dtd">
<!-- Generated by graphviz version 2.44.1 (20200629.0846)
 -->
<!-- Pages: 1 -->
<svg width="2112pt" height="620pt"
 viewBox="0.00 0.00 2111.71 620.00" xmlns="http://www.w3.org/2000/svg" xmlns:xlink="http://www.w3.org/1999/xlink">
<g id="graph0" class="graph" transform="scale(1 1) rotate(0) translate(4 616)">
<polygon fill="white" stroke="transparent" points="-4,4 -4,-616 2107.71,-616 2107.71,4 -4,4"/>
<!-- [root] aws_s3_bucket.monitoring&#45;storage -->
<g id="node1" class="node">
<title>[root] aws_s3_bucket.monitoring&#45;storage</title>
<polygon fill="none" stroke="black" points="862.98,-180 655.98,-180 655.98,-144 862.98,-144 862.98,-180"/>
<text text-anchor="middle" x="759.48" y="-158.3" font-family="Times,serif" font-size="14.00">aws_s3_bucket.monitoring&#45;storage</text>
</g>
<!-- [root] local.count_k8s_observability -->
<g id="node12" class="node">
<title>[root] local.count_k8s_observability</title>
<polygon fill="none" stroke="black" points="1508.98,-108 1335.98,-108 1335.98,-72 1514.98,-72 1514.98,-102 1508.98,-108"/>
<polyline fill="none" stroke="black" points="1508.98,-108 1508.98,-102 "/>
<polyline fill="none" stroke="black" points="1514.98,-102 1508.98,-102 "/>
<text text-anchor="middle" x="1425.48" y="-86.3" font-family="Times,serif" font-size="14.00">local.count_k8s_observability</text>
</g>
<!-- [root] aws_s3_bucket.monitoring&#45;storage&#45;&gt;[root] local.count_k8s_observability -->
<g id="edge1" class="edge">
<title>[root] aws_s3_bucket.monitoring&#45;storage&#45;&gt;[root] local.count_k8s_observability</title>
<path fill="none" stroke="black" d="M863.18,-144.99C865.98,-144.65 868.75,-144.32 871.48,-144 1070.19,-121.11 1124.05,-133 1325.78,-108.15"/>
<polygon fill="black" stroke="black" points="1326.32,-111.61 1335.81,-106.9 1325.45,-104.66 1326.32,-111.61"/>
</g>
<!-- [root] provider.aws -->
<g id="node17" class="node">
<title>[root] provider.aws</title>
<polygon fill="none" stroke="black" points="1615.48,-108 1536.39,-90 1615.48,-72 1694.58,-90 1615.48,-108"/>
<text text-anchor="middle" x="1615.48" y="-86.3" font-family="Times,serif" font-size="14.00">provider.aws</text>
</g>
<!-- [root] aws_s3_bucket.monitoring&#45;storage&#45;&gt;[root] provider.aws -->
<g id="edge2" class="edge">
<title>[root] aws_s3_bucket.monitoring&#45;storage&#45;&gt;[root] provider.aws</title>
<path fill="none" stroke="black" d="M863.17,-144.9C865.97,-144.59 868.74,-144.28 871.48,-144 1160.61,-114.16 1235.9,-142.76 1524.48,-108 1538.34,-106.33 1553.27,-103.84 1566.95,-101.27"/>
<polygon fill="black" stroke="black" points="1567.97,-104.64 1577.13,-99.31 1566.65,-97.76 1567.97,-104.64"/>
</g>
<!-- [root] var.default_tags -->
<g id="node21" class="node">
<title>[root] var.default_tags</title>
<polygon fill="none" stroke="black" points="1311.98,-108 1214.98,-108 1214.98,-72 1317.98,-72 1317.98,-102 1311.98,-108"/>
<polyline fill="none" stroke="black" points="1311.98,-108 1311.98,-102 "/>
<polyline fill="none" stroke="black" points="1317.98,-102 1311.98,-102 "/>
<text text-anchor="middle" x="1266.48" y="-86.3" font-family="Times,serif" font-size="14.00">var.default_tags</text>
</g>
<!-- [root] aws_s3_bucket.monitoring&#45;storage&#45;&gt;[root] var.default_tags -->
<g id="edge3" class="edge">
<title>[root] aws_s3_bucket.monitoring&#45;storage&#45;&gt;[root] var.default_tags</title>
<path fill="none" stroke="black" d="M863.21,-145.19C865.99,-144.79 868.76,-144.39 871.48,-144 989.15,-127.18 1126.76,-109.07 1204.57,-98.97"/>
<polygon fill="black" stroke="black" points="1205.21,-102.42 1214.68,-97.66 1204.31,-95.48 1205.21,-102.42"/>
</g>
<!-- [root] aws_s3_bucket_policy.monitoring&#45;storage -->
<g id="node2" class="node">
<title>[root] aws_s3_bucket_policy.monitoring&#45;storage</title>
<polygon fill="none" stroke="black" points="1752.98,-324 1505.98,-324 1505.98,-288 1752.98,-288 1752.98,-324"/>
<text text-anchor="middle" x="1629.48" y="-302.3" font-family="Times,serif" font-size="14.00">aws_s3_bucket_policy.monitoring&#45;storage</text>
</g>
<!-- [root] data.template_file.monitoring&#45;storage&#45;bucket&#45;policy -->
<g id="node9" class="node">
<title>[root] data.template_file.monitoring&#45;storage&#45;bucket&#45;policy</title>
<polygon fill="none" stroke="black" points="1236.98,-252 935.98,-252 935.98,-216 1236.98,-216 1236.98,-252"/>
<text text-anchor="middle" x="1086.48" y="-230.3" font-family="Times,serif" font-size="14.00">data.template_file.monitoring&#45;storage&#45;bucket&#45;policy</text>
</g>
<!-- [root] aws_s3_bucket_policy.monitoring&#45;storage&#45;&gt;[root] data.template_file.monitoring&#45;storage&#45;bucket&#45;policy -->
<g id="edge4" class="edge">
<title>[root] aws_s3_bucket_policy.monitoring&#45;storage&#45;&gt;[root] data.template_file.monitoring&#45;storage&#45;bucket&#45;policy</title>
<path fill="none" stroke="black" d="M1505.93,-289.07C1423.44,-278.44 1314.73,-264.42 1228.65,-253.33"/>
<polygon fill="black" stroke="black" points="1228.9,-249.83 1218.53,-252.02 1228.01,-256.77 1228.9,-249.83"/>
</g>
<!-- [root] data.aws_caller_identity.current -->
<g id="node3" class="node">
<title>[root] data.aws_caller_identity.current</title>
<polygon fill="none" stroke="black" points="1710.48,-180 1520.48,-180 1520.48,-144 1710.48,-144 1710.48,-180"/>
<text text-anchor="middle" x="1615.48" y="-158.3" font-family="Times,serif" font-size="14.00">data.aws_caller_identity.current</text>
</g>
<!-- [root] data.aws_caller_identity.current&#45;&gt;[root] provider.aws -->
<g id="edge5" class="edge">
<title>[root] data.aws_caller_identity.current&#45;&gt;[root] provider.aws</title>
<path fill="none" stroke="black" d="M1615.48,-143.7C1615.48,-135.98 1615.48,-126.71 1615.48,-118.11"/>
<polygon fill="black" stroke="black" points="1618.98,-118.1 1615.48,-108.1 1611.98,-118.1 1618.98,-118.1"/>
</g>
<!-- [root] data.aws_eks_cluster.main -->
<g id="node4" class="node">
<title>[root] data.aws_eks_cluster.main</title>
<polygon fill="none" stroke="black" points="1502.48,-180 1340.48,-180 1340.48,-144 1502.48,-144 1502.48,-180"/>
<text text-anchor="middle" x="1421.48" y="-158.3" font-family="Times,serif" font-size="14.00">data.aws_eks_cluster.main</text>
</g>
<!-- [root] data.aws_eks_cluster.main&#45;&gt;[root] local.count_k8s_observability -->
<g id="edge6" class="edge">
<title>[root] data.aws_eks_cluster.main&#45;&gt;[root] local.count_k8s_observability</title>
<path fill="none" stroke="black" d="M1422.47,-143.7C1422.91,-135.98 1423.44,-126.71 1423.93,-118.11"/>
<polygon fill="black" stroke="black" points="1427.43,-118.29 1424.5,-108.1 1420.44,-117.89 1427.43,-118.29"/>
</g>
<!-- [root] data.aws_eks_cluster.main&#45;&gt;[root] provider.aws -->
<g id="edge7" class="edge">
<title>[root] data.aws_eks_cluster.main&#45;&gt;[root] provider.aws</title>
<path fill="none" stroke="black" d="M1468.94,-143.88C1502.14,-131.9 1545.92,-116.1 1576.96,-104.9"/>
<polygon fill="black" stroke="black" points="1578.34,-108.12 1586.56,-101.43 1575.97,-101.54 1578.34,-108.12"/>
</g>
<!-- [root] data.aws_eks_cluster.main&#45;&gt;[root] var.default_tags -->
<g id="edge8" class="edge">
<title>[root] data.aws_eks_cluster.main&#45;&gt;[root] var.default_tags</title>
<path fill="none" stroke="black" d="M1383.56,-143.88C1362.47,-134.35 1336.03,-122.41 1313.61,-112.28"/>
<polygon fill="black" stroke="black" points="1314.83,-108.99 1304.28,-108.07 1311.95,-115.37 1314.83,-108.99"/>
</g>
<!-- [root] data.aws_eks_cluster_auth.main_cluster_auth -->
<g id="node5" class="node">
<title>[root] data.aws_eks_cluster_auth.main_cluster_auth</title>
<polygon fill="none" stroke="black" points="1994.48,-180 1728.48,-180 1728.48,-144 1994.48,-144 1994.48,-180"/>
<text text-anchor="middle" x="1861.48" y="-158.3" font-family="Times,serif" font-size="14.00">data.aws_eks_cluster_auth.main_cluster_auth</text>
</g>
<!-- [root] data.aws_eks_cluster_auth.main_cluster_auth&#45;&gt;[root] local.count_k8s_observability -->
<g id="edge9" class="edge">
<title>[root] data.aws_eks_cluster_auth.main_cluster_auth&#45;&gt;[root] local.count_k8s_observability</title>
<path fill="none" stroke="black" d="M1752.77,-143.97C1687.44,-133.68 1602.67,-120.23 1527.48,-108 1526.72,-107.88 1525.95,-107.75 1525.18,-107.63"/>
<polygon fill="black" stroke="black" points="1525.47,-104.13 1515.03,-105.97 1524.34,-111.03 1525.47,-104.13"/>
</g>
<!-- [root] data.aws_eks_cluster_auth.main_cluster_auth&#45;&gt;[root] provider.aws -->
<g id="edge10" class="edge">
<title>[root] data.aws_eks_cluster_auth.main_cluster_auth&#45;&gt;[root] provider.aws</title>
<path fill="none" stroke="black" d="M1801.62,-143.97C1757.3,-131.36 1697.99,-114.48 1658.34,-103.2"/>
<polygon fill="black" stroke="black" points="1659.28,-99.83 1648.71,-100.45 1657.37,-106.56 1659.28,-99.83"/>
</g>
<!-- [root] data.aws_eks_cluster_auth.main_cluster_auth&#45;&gt;[root] var.default_tags -->
<g id="edge11" class="edge">
<title>[root] data.aws_eks_cluster_auth.main_cluster_auth&#45;&gt;[root] var.default_tags</title>
<path fill="none" stroke="black" d="M1728.46,-144.96C1725.44,-144.63 1722.44,-144.31 1719.48,-144 1548.72,-125.94 1501.31,-139.1 1328.2,-107.93"/>
<polygon fill="black" stroke="black" points="1328.71,-104.46 1318.25,-106.11 1327.46,-111.35 1328.71,-104.46"/>
</g>
<!-- [root] data.aws_region.current -->
<g id="node6" class="node">
<title>[root] data.aws_region.current</title>
<polygon fill="none" stroke="black" points="2070.98,-324 1923.98,-324 1923.98,-288 2070.98,-288 2070.98,-324"/>
<text text-anchor="middle" x="1997.48" y="-302.3" font-family="Times,serif" font-size="14.00">data.aws_region.current</text>
</g>
<!-- [root] data.aws_region.current&#45;&gt;[root] provider.aws -->
<g id="edge12" class="edge">
<title>[root] data.aws_region.current&#45;&gt;[root] provider.aws</title>
<path fill="none" stroke="black" d="M2004.84,-287.94C2017.54,-255.53 2038.98,-184.67 2003.48,-144 1965.47,-100.44 1806.69,-91.37 1704.4,-90.18"/>
<polygon fill="black" stroke="black" points="1704.41,-86.68 1694.38,-90.09 1704.35,-93.68 1704.41,-86.68"/>
</g>
<!-- [root] data.template_file.helm_prometheus -->
<g id="node7" class="node">
<title>[root] data.template_file.helm_prometheus</title>
<polygon fill="none" stroke="black" points="900.48,-252 684.48,-252 684.48,-216 900.48,-216 900.48,-252"/>
<text text-anchor="middle" x="792.48" y="-230.3" font-family="Times,serif" font-size="14.00">data.template_file.helm_prometheus</text>
</g>
<!-- [root] data.template_file.helm_prometheus&#45;&gt;[root] local.count_k8s_observability -->
<g id="edge13" class="edge">
<title>[root] data.template_file.helm_prometheus&#45;&gt;[root] local.count_k8s_observability</title>
<path fill="none" stroke="black" d="M900.83,-217.24C981.17,-205.03 1079.71,-188.78 1097.48,-180 1118.63,-169.55 1115.38,-154.54 1136.48,-144 1140.87,-141.81 1244.23,-123.13 1326.1,-108.56"/>
<polygon fill="black" stroke="black" points="1326.73,-112 1335.97,-106.81 1325.51,-105.11 1326.73,-112"/>
</g>
<!-- [root] provider.template -->
<g id="node19" class="node">
<title>[root] provider.template</title>
<polygon fill="none" stroke="black" points="984.48,-180 880.75,-162 984.48,-144 1088.21,-162 984.48,-180"/>
<text text-anchor="middle" x="984.48" y="-158.3" font-family="Times,serif" font-size="14.00">provider.template</text>
</g>
<!-- [root] data.template_file.helm_prometheus&#45;&gt;[root] provider.template -->
<g id="edge14" class="edge">
<title>[root] data.template_file.helm_prometheus&#45;&gt;[root] provider.template</title>
<path fill="none" stroke="black" d="M839.45,-215.88C871.21,-204.3 912.75,-189.15 943.23,-178.04"/>
<polygon fill="black" stroke="black" points="944.51,-181.3 952.71,-174.58 942.11,-174.72 944.51,-181.3"/>
</g>
<!-- [root] data.template_file.helm_prometheus&#45;&gt;[root] var.default_tags -->
<g id="edge15" class="edge">
<title>[root] data.template_file.helm_prometheus&#45;&gt;[root] var.default_tags</title>
<path fill="none" stroke="black" d="M720.08,-215.97C669.85,-200.89 616.87,-176.25 646.48,-144 683.72,-103.44 1054.81,-93.87 1204.43,-91.65"/>
<polygon fill="black" stroke="black" points="1204.86,-95.15 1214.81,-91.51 1204.76,-88.15 1204.86,-95.15"/>
</g>
<!-- [root] var.root_infra_domain -->
<g id="node28" class="node">
<title>[root] var.root_infra_domain</title>
<polygon fill="none" stroke="black" points="1277.98,-180 1144.98,-180 1144.98,-144 1283.98,-144 1283.98,-174 1277.98,-180"/>
<polyline fill="none" stroke="black" points="1277.98,-180 1277.98,-174 "/>
<polyline fill="none" stroke="black" points="1283.98,-174 1277.98,-174 "/>
<text text-anchor="middle" x="1214.48" y="-158.3" font-family="Times,serif" font-size="14.00">var.root_infra_domain</text>
</g>
<!-- [root] data.template_file.helm_prometheus&#45;&gt;[root] var.root_infra_domain -->
<g id="edge16" class="edge">
<title>[root] data.template_file.helm_prometheus&#45;&gt;[root] var.root_infra_domain</title>
<path fill="none" stroke="black" d="M900.76,-217.26C967.18,-207.3 1053.89,-193.75 1130.48,-180 1131.95,-179.74 1133.42,-179.47 1134.91,-179.2"/>
<polygon fill="black" stroke="black" points="1135.67,-182.62 1144.86,-177.34 1134.38,-175.73 1135.67,-182.62"/>
</g>
<!-- [root] data.template_file.helm_thanos -->
<g id="node8" class="node">
<title>[root] data.template_file.helm_thanos</title>
<polygon fill="none" stroke="black" points="629.48,-252 441.48,-252 441.48,-216 629.48,-216 629.48,-252"/>
<text text-anchor="middle" x="535.48" y="-230.3" font-family="Times,serif" font-size="14.00">data.template_file.helm_thanos</text>
</g>
<!-- [root] data.template_file.helm_thanos&#45;&gt;[root] aws_s3_bucket.monitoring&#45;storage -->
<g id="edge17" class="edge">
<title>[root] data.template_file.helm_thanos&#45;&gt;[root] aws_s3_bucket.monitoring&#45;storage</title>
<path fill="none" stroke="black" d="M589.99,-215.97C621.7,-206.06 661.84,-193.51 695.09,-183.12"/>
<polygon fill="black" stroke="black" points="696.23,-186.43 704.73,-180.11 694.14,-179.75 696.23,-186.43"/>
</g>
<!-- [root] data.template_file.helm_thanos&#45;&gt;[root] provider.template -->
<g id="edge18" class="edge">
<title>[root] data.template_file.helm_thanos&#45;&gt;[root] provider.template</title>
<path fill="none" stroke="black" d="M629.61,-218.33C717.65,-204.6 846.64,-184.49 922.44,-172.67"/>
<polygon fill="black" stroke="black" points="923.43,-176.06 932.77,-171.06 922.35,-169.14 923.43,-176.06"/>
</g>
<!-- [root] var.access_key -->
<g id="node20" class="node">
<title>[root] var.access_key</title>
<polygon fill="none" stroke="black" points="503.48,-180 411.48,-180 411.48,-144 509.48,-144 509.48,-174 503.48,-180"/>
<polyline fill="none" stroke="black" points="503.48,-180 503.48,-174 "/>
<polyline fill="none" stroke="black" points="509.48,-174 503.48,-174 "/>
<text text-anchor="middle" x="460.48" y="-158.3" font-family="Times,serif" font-size="14.00">var.access_key</text>
</g>
<!-- [root] data.template_file.helm_thanos&#45;&gt;[root] var.access_key -->
<g id="edge19" class="edge">
<title>[root] data.template_file.helm_thanos&#45;&gt;[root] var.access_key</title>
<path fill="none" stroke="black" d="M516.94,-215.7C507.68,-207.05 496.32,-196.45 486.22,-187.03"/>
<polygon fill="black" stroke="black" points="488.51,-184.37 478.81,-180.1 483.73,-189.49 488.51,-184.37"/>
</g>
<!-- [root] var.region -->
<g id="node27" class="node">
<title>[root] var.region</title>
<polygon fill="none" stroke="black" points="592.98,-180 527.98,-180 527.98,-144 598.98,-144 598.98,-174 592.98,-180"/>
<polyline fill="none" stroke="black" points="592.98,-180 592.98,-174 "/>
<polyline fill="none" stroke="black" points="598.98,-174 592.98,-174 "/>
<text text-anchor="middle" x="563.48" y="-158.3" font-family="Times,serif" font-size="14.00">var.region</text>
</g>
<!-- [root] data.template_file.helm_thanos&#45;&gt;[root] var.region -->
<g id="edge20" class="edge">
<title>[root] data.template_file.helm_thanos&#45;&gt;[root] var.region</title>
<path fill="none" stroke="black" d="M542.4,-215.7C545.56,-207.81 549.36,-198.3 552.86,-189.55"/>
<polygon fill="black" stroke="black" points="556.18,-190.69 556.64,-180.1 549.68,-188.09 556.18,-190.69"/>
</g>
<!-- [root] data.template_file.helm_thanos&#45;&gt;[root] var.root_infra_domain -->
<g id="edge21" class="edge">
<title>[root] data.template_file.helm_thanos&#45;&gt;[root] var.root_infra_domain</title>
<path fill="none" stroke="black" d="M629.56,-221.11C644.9,-219.3 660.63,-217.54 675.48,-216 862.72,-196.65 910.48,-201.54 1097.48,-180 1109.63,-178.6 1122.46,-176.93 1135,-175.19"/>
<polygon fill="black" stroke="black" points="1135.55,-178.65 1144.97,-173.79 1134.58,-171.72 1135.55,-178.65"/>
</g>
<!-- [root] var.secret_key -->
<g id="node30" class="node">
<title>[root] var.secret_key</title>
<polygon fill="none" stroke="black" points="386.98,-180 297.98,-180 297.98,-144 392.98,-144 392.98,-174 386.98,-180"/>
<polyline fill="none" stroke="black" points="386.98,-180 386.98,-174 "/>
<polyline fill="none" stroke="black" points="392.98,-174 386.98,-174 "/>
<text text-anchor="middle" x="345.48" y="-158.3" font-family="Times,serif" font-size="14.00">var.secret_key</text>
</g>
<!-- [root] data.template_file.helm_thanos&#45;&gt;[root] var.secret_key -->
<g id="edge22" class="edge">
<title>[root] data.template_file.helm_thanos&#45;&gt;[root] var.secret_key</title>
<path fill="none" stroke="black" d="M489,-215.88C462.57,-206.14 429.28,-193.87 401.42,-183.61"/>
<polygon fill="black" stroke="black" points="402.4,-180.24 391.81,-180.07 399.98,-186.81 402.4,-180.24"/>
</g>
<!-- [root] data.template_file.monitoring&#45;storage&#45;bucket&#45;policy&#45;&gt;[root] aws_s3_bucket.monitoring&#45;storage -->
<g id="edge23" class="edge">
<title>[root] data.template_file.monitoring&#45;storage&#45;bucket&#45;policy&#45;&gt;[root] aws_s3_bucket.monitoring&#45;storage</title>
<path fill="none" stroke="black" d="M1006.91,-215.97C959.24,-205.76 898.52,-192.76 849.16,-182.2"/>
<polygon fill="black" stroke="black" points="849.64,-178.72 839.13,-180.05 848.18,-185.57 849.64,-178.72"/>
</g>
<!-- [root] data.template_file.monitoring&#45;storage&#45;bucket&#45;policy&#45;&gt;[root] data.aws_caller_identity.current -->
<g id="edge24" class="edge">
<title>[root] data.template_file.monitoring&#45;storage&#45;bucket&#45;policy&#45;&gt;[root] data.aws_caller_identity.current</title>
<path fill="none" stroke="black" d="M1234.18,-215.98C1313.28,-206.52 1412.64,-194.11 1510.24,-180.15"/>
<polygon fill="black" stroke="black" points="1510.89,-183.59 1520.29,-178.71 1509.89,-176.67 1510.89,-183.59"/>
</g>
<!-- [root] data.template_file.monitoring&#45;storage&#45;bucket&#45;policy&#45;&gt;[root] provider.template -->
<g id="edge25" class="edge">
<title>[root] data.template_file.monitoring&#45;storage&#45;bucket&#45;policy&#45;&gt;[root] provider.template</title>
<path fill="none" stroke="black" d="M1061.53,-215.88C1046.84,-205.79 1028.2,-193 1012.94,-182.53"/>
<polygon fill="black" stroke="black" points="1014.62,-179.44 1004.4,-176.67 1010.66,-185.21 1014.62,-179.44"/>
</g>
<!-- [root] data.template_file.monitoring&#45;storage&#45;bucket&#45;policy&#45;&gt;[root] var.root_infra_domain -->
<g id="edge26" class="edge">
<title>[root] data.template_file.monitoring&#45;storage&#45;bucket&#45;policy&#45;&gt;[root] var.root_infra_domain</title>
<path fill="none" stroke="black" d="M1117.79,-215.88C1134.68,-206.64 1155.73,-195.13 1173.87,-185.21"/>
<polygon fill="black" stroke="black" points="1175.95,-188.06 1183.05,-180.19 1172.6,-181.92 1175.95,-188.06"/>
</g>
<!-- [root] helm_release.stable&#45;prometheus&#45;operator -->
<g id="node10" class="node">
<title>[root] helm_release.stable&#45;prometheus&#45;operator</title>
<polygon fill="none" stroke="black" points="1209.48,-396 967.48,-396 967.48,-360 1209.48,-360 1209.48,-396"/>
<text text-anchor="middle" x="1088.48" y="-374.3" font-family="Times,serif" font-size="14.00">helm_release.stable&#45;prometheus&#45;operator</text>
</g>
<!-- [root] helm_release.stable&#45;prometheus&#45;operator&#45;&gt;[root] data.template_file.helm_prometheus -->
<g id="edge27" class="edge">
<title>[root] helm_release.stable&#45;prometheus&#45;operator&#45;&gt;[root] data.template_file.helm_prometheus</title>
<path fill="none" stroke="black" d="M967.31,-370.81C842.4,-363.15 662.89,-348.1 641.48,-324 614.02,-293.09 658.26,-269.92 705.81,-254.98"/>
<polygon fill="black" stroke="black" points="707.1,-258.24 715.67,-252.01 705.08,-251.54 707.1,-258.24"/>
</g>
<!-- [root] helm_release.stable&#45;thanos -->
<g id="node11" class="node">
<title>[root] helm_release.stable&#45;thanos</title>
<polygon fill="none" stroke="black" points="332.48,-324 168.48,-324 168.48,-288 332.48,-288 332.48,-324"/>
<text text-anchor="middle" x="250.48" y="-302.3" font-family="Times,serif" font-size="14.00">helm_release.stable&#45;thanos</text>
</g>
<!-- [root] helm_release.stable&#45;prometheus&#45;operator&#45;&gt;[root] helm_release.stable&#45;thanos -->
<g id="edge28" class="edge">
<title>[root] helm_release.stable&#45;prometheus&#45;operator&#45;&gt;[root] helm_release.stable&#45;thanos</title>
<path fill="none" stroke="black" d="M967.42,-372.65C821.49,-366.45 568.73,-352.64 342.81,-324.09"/>
<polygon fill="black" stroke="black" points="343.12,-320.6 332.76,-322.8 342.23,-327.54 343.12,-320.6"/>
</g>
<!-- [root] var.kubernetes_helm_prometheusop_chart_name -->
<g id="node24" class="node">
<title>[root] var.kubernetes_helm_prometheusop_chart_name</title>
<polygon fill="none" stroke="black" points="928.48,-324 650.48,-324 650.48,-288 934.48,-288 934.48,-318 928.48,-324"/>
<polyline fill="none" stroke="black" points="928.48,-324 928.48,-318 "/>
<polyline fill="none" stroke="black" points="934.48,-318 928.48,-318 "/>
<text text-anchor="middle" x="792.48" y="-302.3" font-family="Times,serif" font-size="14.00">var.kubernetes_helm_prometheusop_chart_name</text>
</g>
<!-- [root] helm_release.stable&#45;prometheus&#45;operator&#45;&gt;[root] var.kubernetes_helm_prometheusop_chart_name -->
<g id="edge29" class="edge">
<title>[root] helm_release.stable&#45;prometheus&#45;operator&#45;&gt;[root] var.kubernetes_helm_prometheusop_chart_name</title>
<path fill="none" stroke="black" d="M1016.45,-359.97C973.57,-349.83 919.03,-336.93 874.5,-326.4"/>
<polygon fill="black" stroke="black" points="875.12,-322.95 864.58,-324.05 873.51,-329.76 875.12,-322.95"/>
</g>
<!-- [root] var.kubernetes_helm_prometheusop_chart_version -->
<g id="node25" class="node">
<title>[root] var.kubernetes_helm_prometheusop_chart_version</title>
<polygon fill="none" stroke="black" points="1240.48,-324 952.48,-324 952.48,-288 1246.48,-288 1246.48,-318 1240.48,-324"/>
<polyline fill="none" stroke="black" points="1240.48,-324 1240.48,-318 "/>
<polyline fill="none" stroke="black" points="1246.48,-318 1240.48,-318 "/>
<text text-anchor="middle" x="1099.48" y="-302.3" font-family="Times,serif" font-size="14.00">var.kubernetes_helm_prometheusop_chart_version</text>
</g>
<!-- [root] helm_release.stable&#45;prometheus&#45;operator&#45;&gt;[root] var.kubernetes_helm_prometheusop_chart_version -->
<g id="edge30" class="edge">
<title>[root] helm_release.stable&#45;prometheus&#45;operator&#45;&gt;[root] var.kubernetes_helm_prometheusop_chart_version</title>
<path fill="none" stroke="black" d="M1091.2,-359.7C1092.41,-351.98 1093.87,-342.71 1095.22,-334.11"/>
<polygon fill="black" stroke="black" points="1098.7,-334.53 1096.79,-324.1 1091.78,-333.44 1098.7,-334.53"/>
</g>
<!-- [root] helm_release.stable&#45;thanos&#45;&gt;[root] data.template_file.helm_thanos -->
<g id="edge31" class="edge">
<title>[root] helm_release.stable&#45;thanos&#45;&gt;[root] data.template_file.helm_thanos</title>
<path fill="none" stroke="black" d="M319.84,-287.97C360.96,-277.87 413.22,-265.03 456,-254.52"/>
<polygon fill="black" stroke="black" points="456.94,-257.9 465.82,-252.11 455.27,-251.1 456.94,-257.9"/>
</g>
<!-- [root] provider.helm -->
<g id="node18" class="node">
<title>[root] provider.helm</title>
<polygon fill="none" stroke="black" points="85.48,-252 0.02,-234 85.48,-216 170.94,-234 85.48,-252"/>
<text text-anchor="middle" x="85.48" y="-230.3" font-family="Times,serif" font-size="14.00">provider.helm</text>
</g>
<!-- [root] helm_release.stable&#45;thanos&#45;&gt;[root] provider.helm -->
<g id="edge32" class="edge">
<title>[root] helm_release.stable&#45;thanos&#45;&gt;[root] provider.helm</title>
<path fill="none" stroke="black" d="M210.12,-287.88C183.13,-276.43 147.92,-261.49 121.81,-250.41"/>
<polygon fill="black" stroke="black" points="122.86,-247.06 112.29,-246.37 120.13,-253.5 122.86,-247.06"/>
</g>
<!-- [root] var.observability_depends_on -->
<g id="node26" class="node">
<title>[root] var.observability_depends_on</title>
<polygon fill="none" stroke="black" points="361.98,-252 188.98,-252 188.98,-216 367.98,-216 367.98,-246 361.98,-252"/>
<polyline fill="none" stroke="black" points="361.98,-252 361.98,-246 "/>
<polyline fill="none" stroke="black" points="367.98,-246 361.98,-246 "/>
<text text-anchor="middle" x="278.48" y="-230.3" font-family="Times,serif" font-size="14.00">var.observability_depends_on</text>
</g>
<!-- [root] helm_release.stable&#45;thanos&#45;&gt;[root] var.observability_depends_on -->
<g id="edge33" class="edge">
<title>[root] helm_release.stable&#45;thanos&#45;&gt;[root] var.observability_depends_on</title>
<path fill="none" stroke="black" d="M257.4,-287.7C260.56,-279.81 264.36,-270.3 267.86,-261.55"/>
<polygon fill="black" stroke="black" points="271.18,-262.69 271.64,-252.1 264.68,-260.09 271.18,-262.69"/>
</g>
<!-- [root] var.enable_k8s_observability -->
<g id="node23" class="node">
<title>[root] var.enable_k8s_observability</title>
<polygon fill="none" stroke="black" points="1843.98,-36 1674.98,-36 1674.98,0 1849.98,0 1849.98,-30 1843.98,-36"/>
<polyline fill="none" stroke="black" points="1843.98,-36 1843.98,-30 "/>
<polyline fill="none" stroke="black" points="1849.98,-30 1843.98,-30 "/>
<text text-anchor="middle" x="1762.48" y="-14.3" font-family="Times,serif" font-size="14.00">var.enable_k8s_observability</text>
</g>
<!-- [root] local.count_k8s_observability&#45;&gt;[root] var.enable_k8s_observability -->
<g id="edge34" class="edge">
<title>[root] local.count_k8s_observability&#45;&gt;[root] var.enable_k8s_observability</title>
<path fill="none" stroke="black" d="M1507.49,-71.97C1556.72,-61.74 1619.45,-48.71 1670.38,-38.13"/>
<polygon fill="black" stroke="black" points="1671.32,-41.51 1680.4,-36.05 1669.89,-34.66 1671.32,-41.51"/>
</g>
<!-- [root] local.options -->
<g id="node13" class="node">
<title>[root] local.options</title>
<polygon fill="none" stroke="black" points="1322.48,-396 1242.48,-396 1242.48,-360 1328.48,-360 1328.48,-390 1322.48,-396"/>
<polyline fill="none" stroke="black" points="1322.48,-396 1322.48,-390 "/>
<polyline fill="none" stroke="black" points="1328.48,-390 1322.48,-390 "/>
<text text-anchor="middle" x="1285.48" y="-374.3" font-family="Times,serif" font-size="14.00">local.options</text>
</g>
<!-- [root] local.options&#45;&gt;[root] var.default_tags -->
<g id="edge35" class="edge">
<title>[root] local.options&#45;&gt;[root] var.default_tags</title>
<path fill="none" stroke="black" d="M1289.17,-359.73C1296.87,-320.65 1312.38,-222.71 1293.48,-144 1291.28,-134.81 1287.19,-125.41 1282.86,-117.13"/>
<polygon fill="black" stroke="black" points="1285.88,-115.36 1277.95,-108.33 1279.77,-118.77 1285.88,-115.36"/>
</g>
<!-- [root] local.options&#45;&gt;[root] var.kubernetes_helm_prometheusop_chart_name -->
<g id="edge36" class="edge">
<title>[root] local.options&#45;&gt;[root] var.kubernetes_helm_prometheusop_chart_name</title>
<path fill="none" stroke="black" d="M1242.41,-365.23C1234.49,-363.31 1226.27,-361.47 1218.48,-360 1191.64,-354.95 1055.88,-338.3 944.73,-325"/>
<polygon fill="black" stroke="black" points="945.08,-321.52 934.74,-323.81 944.25,-328.47 945.08,-321.52"/>
</g>
<!-- [root] local.options&#45;&gt;[root] var.kubernetes_helm_prometheusop_chart_version -->
<g id="edge37" class="edge">
<title>[root] local.options&#45;&gt;[root] var.kubernetes_helm_prometheusop_chart_version</title>
<path fill="none" stroke="black" d="M1242.34,-360.76C1216.13,-350.9 1182.43,-338.22 1154.34,-327.64"/>
<polygon fill="black" stroke="black" points="1155.25,-324.25 1144.66,-324 1152.78,-330.8 1155.25,-324.25"/>
</g>
<!-- [root] local.options&#45;&gt;[root] var.root_infra_domain -->
<g id="edge38" class="edge">
<title>[root] local.options&#45;&gt;[root] var.root_infra_domain</title>
<path fill="none" stroke="black" d="M1283.04,-359.54C1278.45,-329.39 1267.06,-266 1246.48,-216 1242.7,-206.8 1237.47,-197.33 1232.33,-188.98"/>
<polygon fill="black" stroke="black" points="1235.2,-186.97 1226.87,-180.43 1229.3,-190.74 1235.2,-186.97"/>
</g>
<!-- [root] var.root_public_domain -->
<g id="node29" class="node">
<title>[root] var.root_public_domain</title>
<polygon fill="none" stroke="black" points="1481.98,-324 1340.98,-324 1340.98,-288 1487.98,-288 1487.98,-318 1481.98,-324"/>
<polyline fill="none" stroke="black" points="1481.98,-324 1481.98,-318 "/>
<polyline fill="none" stroke="black" points="1487.98,-318 1481.98,-318 "/>
<text text-anchor="middle" x="1414.48" y="-302.3" font-family="Times,serif" font-size="14.00">var.root_public_domain</text>
</g>
<!-- [root] local.options&#45;&gt;[root] var.root_public_domain -->
<g id="edge39" class="edge">
<title>[root] local.options&#45;&gt;[root] var.root_public_domain</title>
<path fill="none" stroke="black" d="M1317.04,-359.88C1334.14,-350.6 1355.46,-339.03 1373.8,-329.08"/>
<polygon fill="black" stroke="black" points="1375.68,-332.04 1382.8,-324.19 1372.34,-325.88 1375.68,-332.04"/>
</g>
<!-- [root] local.skip_module_string -->
<g id="node14" class="node">
<title>[root] local.skip_module_string</title>
<polygon fill="none" stroke="black" points="1784.98,-396 1635.98,-396 1635.98,-360 1790.98,-360 1790.98,-390 1784.98,-396"/>
<polyline fill="none" stroke="black" points="1784.98,-396 1784.98,-390 "/>
<polyline fill="none" stroke="black" points="1790.98,-390 1784.98,-390 "/>
<text text-anchor="middle" x="1713.48" y="-374.3" font-family="Times,serif" font-size="14.00">local.skip_module_string</text>
</g>
<!-- [root] output.stable&#45;prometheus&#45;operator -->
<g id="node15" class="node">
<title>[root] output.stable&#45;prometheus&#45;operator</title>
<polygon fill="none" stroke="black" points="1373.48,-468 1175.48,-468 1175.48,-432 1379.48,-432 1379.48,-462 1373.48,-468"/>
<polyline fill="none" stroke="black" points="1373.48,-468 1373.48,-462 "/>
<polyline fill="none" stroke="black" points="1379.48,-462 1373.48,-462 "/>
<text text-anchor="middle" x="1277.48" y="-446.3" font-family="Times,serif" font-size="14.00">output.stable&#45;prometheus&#45;operator</text>
</g>
<!-- [root] output.stable&#45;prometheus&#45;operator&#45;&gt;[root] helm_release.stable&#45;prometheus&#45;operator -->
<g id="edge47" class="edge">
<title>[root] output.stable&#45;prometheus&#45;operator&#45;&gt;[root] helm_release.stable&#45;prometheus&#45;operator</title>
<path fill="none" stroke="black" d="M1231.25,-431.88C1204.95,-422.14 1171.84,-409.87 1144.12,-399.61"/>
<polygon fill="black" stroke="black" points="1145.16,-396.26 1134.57,-396.07 1142.73,-402.82 1145.16,-396.26"/>
</g>
<!-- [root] output.toString -->
<g id="node16" class="node">
<title>[root] output.toString</title>
<polygon fill="none" stroke="black" points="1742.48,-468 1650.48,-468 1650.48,-432 1748.48,-432 1748.48,-462 1742.48,-468"/>
<polyline fill="none" stroke="black" points="1742.48,-468 1742.48,-462 "/>
<polyline fill="none" stroke="black" points="1748.48,-462 1742.48,-462 "/>
<text text-anchor="middle" x="1699.48" y="-446.3" font-family="Times,serif" font-size="14.00">output.toString</text>
</g>
<!-- [root] output.toString&#45;&gt;[root] local.options -->
<g id="edge48" class="edge">
<title>[root] output.toString&#45;&gt;[root] local.options</title>
<path fill="none" stroke="black" d="M1650.36,-440.7C1572,-427.45 1419.32,-401.63 1338.55,-387.97"/>
<polygon fill="black" stroke="black" points="1339.03,-384.5 1328.59,-386.29 1337.86,-391.41 1339.03,-384.5"/>
</g>
<!-- [root] output.toString&#45;&gt;[root] local.skip_module_string -->
<g id="edge49" class="edge">
<title>[root] output.toString&#45;&gt;[root] local.skip_module_string</title>
<path fill="none" stroke="black" d="M1702.94,-431.7C1704.49,-423.98 1706.34,-414.71 1708.06,-406.11"/>
<polygon fill="black" stroke="black" points="1711.53,-406.6 1710.06,-396.1 1704.67,-405.22 1711.53,-406.6"/>
</g>
<!-- [root] output.toString&#45;&gt;[root] var.enable_k8s_observability -->
<g id="edge50" class="edge">
<title>[root] output.toString&#45;&gt;[root] var.enable_k8s_observability</title>
<path fill="none" stroke="black" d="M1748.74,-448.66C1838.04,-446.99 2021.58,-438.34 2066.48,-396 2119.63,-345.89 2099.48,-308.04 2099.48,-235 2099.48,-235 2099.48,-235 2099.48,-161 2099.48,-56.35 1959.76,-27.59 1860.25,-20.38"/>
<polygon fill="black" stroke="black" points="1860.35,-16.88 1850.14,-19.71 1859.89,-23.87 1860.35,-16.88"/>
</g>
<!-- [root] var.enable_k8s_istio -->
<g id="node22" class="node">
<title>[root] var.enable_k8s_istio</title>
<polygon fill="none" stroke="black" points="1573.48,-468 1451.48,-468 1451.48,-432 1579.48,-432 1579.48,-462 1573.48,-468"/>
<polyline fill="none" stroke="black" points="1573.48,-468 1573.48,-462 "/>
<polyline fill="none" stroke="black" points="1579.48,-462 1573.48,-462 "/>
<text text-anchor="middle" x="1515.48" y="-446.3" font-family="Times,serif" font-size="14.00">var.enable_k8s_istio</text>
</g>
<!-- [root] meta.count&#45;boundary (EachMode fixup) -->
<g id="node31" class="node">
<title>[root] meta.count&#45;boundary (EachMode fixup)</title>
<ellipse fill="none" stroke="black" cx="1561.48" cy="-522" rx="176.27" ry="18"/>
<text text-anchor="middle" x="1561.48" y="-518.3" font-family="Times,serif" font-size="14.00">[root] meta.count&#45;boundary (EachMode fixup)</text>
</g>
<!-- [root] meta.count&#45;boundary (EachMode fixup)&#45;&gt;[root] aws_s3_bucket_policy.monitoring&#45;storage -->
<g id="edge40" class="edge">
<title>[root] meta.count&#45;boundary (EachMode fixup)&#45;&gt;[root] aws_s3_bucket_policy.monitoring&#45;storage</title>
<path fill="none" stroke="black" d="M1492.12,-505.36C1472.77,-497.46 1453.94,-485.64 1442.48,-468 1433.77,-454.58 1434.94,-446.11 1442.48,-432 1469.63,-381.2 1527.58,-347.44 1571.82,-327.95"/>
<polygon fill="black" stroke="black" points="1573.22,-331.16 1581.04,-324.01 1570.46,-324.72 1573.22,-331.16"/>
</g>
<!-- [root] meta.count&#45;boundary (EachMode fixup)&#45;&gt;[root] data.aws_eks_cluster.main -->
<g id="edge41" class="edge">
<title>[root] meta.count&#45;boundary (EachMode fixup)&#45;&gt;[root] data.aws_eks_cluster.main</title>
<path fill="none" stroke="black" d="M1571.04,-503.6C1576.48,-493.38 1583.23,-480.13 1588.48,-468 1608.77,-421.17 1589.88,-394.5 1627.48,-360 1673.24,-318.02 1724.65,-373.24 1762.48,-324 1772.23,-311.31 1771.64,-301.12 1762.48,-288 1732.48,-245.05 1597.71,-205.18 1506.86,-182.5"/>
<polygon fill="black" stroke="black" points="1507.65,-179.09 1497.11,-180.09 1505.97,-185.88 1507.65,-179.09"/>
</g>
<!-- [root] meta.count&#45;boundary (EachMode fixup)&#45;&gt;[root] data.aws_eks_cluster_auth.main_cluster_auth -->
<g id="edge42" class="edge">
<title>[root] meta.count&#45;boundary (EachMode fixup)&#45;&gt;[root] data.aws_eks_cluster_auth.main_cluster_auth</title>
<path fill="none" stroke="black" d="M1668.16,-507.66C1699.22,-499.87 1731.7,-487.53 1757.48,-468 1846.88,-400.28 1860.04,-251.6 1861.54,-190.27"/>
<polygon fill="black" stroke="black" points="1865.04,-190.26 1861.7,-180.21 1858.05,-190.15 1865.04,-190.26"/>
</g>
<!-- [root] meta.count&#45;boundary (EachMode fixup)&#45;&gt;[root] data.aws_region.current -->
<g id="edge43" class="edge">
<title>[root] meta.count&#45;boundary (EachMode fixup)&#45;&gt;[root] data.aws_region.current</title>
<path fill="none" stroke="black" d="M1681.12,-508.78C1815.61,-492.22 2021.18,-457.42 2066.48,-396 2075.98,-383.12 2073.55,-374.35 2066.48,-360 2060.52,-347.91 2050.33,-337.8 2039.58,-329.77"/>
<polygon fill="black" stroke="black" points="2041.53,-326.86 2031.32,-324.04 2037.54,-332.61 2041.53,-326.86"/>
</g>
<!-- [root] meta.count&#45;boundary (EachMode fixup)&#45;&gt;[root] output.stable&#45;prometheus&#45;operator -->
<g id="edge44" class="edge">
<title>[root] meta.count&#45;boundary (EachMode fixup)&#45;&gt;[root] output.stable&#45;prometheus&#45;operator</title>
<path fill="none" stroke="black" d="M1497.39,-505.2C1455.64,-494.91 1400.88,-481.41 1356.44,-470.46"/>
<polygon fill="black" stroke="black" points="1357.1,-467.02 1346.55,-468.02 1355.42,-473.82 1357.1,-467.02"/>
</g>
<!-- [root] meta.count&#45;boundary (EachMode fixup)&#45;&gt;[root] output.toString -->
<g id="edge45" class="edge">
<title>[root] meta.count&#45;boundary (EachMode fixup)&#45;&gt;[root] output.toString</title>
<path fill="none" stroke="black" d="M1594.54,-504.23C1613.21,-494.76 1636.75,-482.82 1656.8,-472.65"/>
<polygon fill="black" stroke="black" points="1658.4,-475.76 1665.74,-468.12 1655.24,-469.52 1658.4,-475.76"/>
</g>
<!-- [root] meta.count&#45;boundary (EachMode fixup)&#45;&gt;[root] var.enable_k8s_istio -->
<g id="edge46" class="edge">
<title>[root] meta.count&#45;boundary (EachMode fixup)&#45;&gt;[root] var.enable_k8s_istio</title>
<path fill="none" stroke="black" d="M1550.11,-503.7C1544.76,-495.56 1538.28,-485.69 1532.37,-476.7"/>
<polygon fill="black" stroke="black" points="1535.14,-474.54 1526.72,-468.1 1529.29,-478.38 1535.14,-474.54"/>
</g>
<!-- [root] provider.aws (close) -->
<g id="node32" class="node">
<title>[root] provider.aws (close)</title>
<ellipse fill="none" stroke="black" cx="1952.48" cy="-378" rx="104.78" ry="18"/>
<text text-anchor="middle" x="1952.48" y="-374.3" font-family="Times,serif" font-size="14.00">[root] provider.aws (close)</text>
</g>
<!-- [root] provider.aws (close)&#45;&gt;[root] aws_s3_bucket_policy.monitoring&#45;storage -->
<g id="edge51" class="edge">
<title>[root] provider.aws (close)&#45;&gt;[root] aws_s3_bucket_policy.monitoring&#45;storage</title>
<path fill="none" stroke="black" d="M1890.2,-363.5C1841.36,-352.92 1772.76,-338.05 1718.18,-326.22"/>
<polygon fill="black" stroke="black" points="1718.68,-322.75 1708.16,-324.05 1717.19,-329.59 1718.68,-322.75"/>
</g>
<!-- [root] provider.aws (close)&#45;&gt;[root] data.aws_eks_cluster.main -->
<g id="edge52" class="edge">
<title>[root] provider.aws (close)&#45;&gt;[root] data.aws_eks_cluster.main</title>
<path fill="none" stroke="black" d="M1934.05,-360.09C1923,-349.82 1908.75,-336.34 1896.48,-324 1850.15,-277.39 1854,-245.91 1795.48,-216 1685.07,-159.57 1639.49,-197.76 1512.94,-180.1"/>
<polygon fill="black" stroke="black" points="1513.28,-176.61 1502.88,-178.6 1512.25,-183.54 1513.28,-176.61"/>
</g>
<!-- [root] provider.aws (close)&#45;&gt;[root] data.aws_eks_cluster_auth.main_cluster_auth -->
<g id="edge53" class="edge">
<title>[root] provider.aws (close)&#45;&gt;[root] data.aws_eks_cluster_auth.main_cluster_auth</title>
<path fill="none" stroke="black" d="M1938.83,-360.12C1931.19,-350.08 1921.94,-336.83 1915.48,-324 1892.87,-279.09 1876.42,-222.57 1867.96,-189.83"/>
<polygon fill="black" stroke="black" points="1871.34,-188.92 1865.49,-180.09 1864.55,-190.64 1871.34,-188.92"/>
</g>
<!-- [root] provider.aws (close)&#45;&gt;[root] data.aws_region.current -->
<g id="edge54" class="edge">
<title>[root] provider.aws (close)&#45;&gt;[root] data.aws_region.current</title>
<path fill="none" stroke="black" d="M1963.37,-360.05C1968.6,-351.92 1974.98,-342 1980.8,-332.94"/>
<polygon fill="black" stroke="black" points="1983.91,-334.58 1986.38,-324.28 1978.02,-330.79 1983.91,-334.58"/>
</g>
<!-- [root] provider.helm (close) -->
<g id="node33" class="node">
<title>[root] provider.helm (close)</title>
<ellipse fill="none" stroke="black" cx="1199.48" cy="-522" rx="109.38" ry="18"/>
<text text-anchor="middle" x="1199.48" y="-518.3" font-family="Times,serif" font-size="14.00">[root] provider.helm (close)</text>
</g>
<!-- [root] provider.helm (close)&#45;&gt;[root] helm_release.stable&#45;prometheus&#45;operator -->
<g id="edge55" class="edge">
<title>[root] provider.helm (close)&#45;&gt;[root] helm_release.stable&#45;prometheus&#45;operator</title>
<path fill="none" stroke="black" d="M1186.09,-503.87C1166.67,-479.03 1130.57,-432.85 1108.13,-404.14"/>
<polygon fill="black" stroke="black" points="1110.83,-401.91 1101.92,-396.19 1105.32,-406.22 1110.83,-401.91"/>
</g>
<!-- [root] provider.template (close) -->
<g id="node34" class="node">
<title>[root] provider.template (close)</title>
<ellipse fill="none" stroke="black" cx="472.48" cy="-306" rx="122.38" ry="18"/>
<text text-anchor="middle" x="472.48" y="-302.3" font-family="Times,serif" font-size="14.00">[root] provider.template (close)</text>
</g>
<!-- [root] provider.template (close)&#45;&gt;[root] data.template_file.helm_prometheus -->
<g id="edge56" class="edge">
<title>[root] provider.template (close)&#45;&gt;[root] data.template_file.helm_prometheus</title>
<path fill="none" stroke="black" d="M537.62,-290.75C585.78,-280.22 651.88,-265.76 704.69,-254.2"/>
<polygon fill="black" stroke="black" points="705.71,-257.56 714.73,-252.01 704.21,-250.73 705.71,-257.56"/>
</g>
<!-- [root] provider.template (close)&#45;&gt;[root] data.template_file.helm_thanos -->
<g id="edge57" class="edge">
<title>[root] provider.template (close)&#45;&gt;[root] data.template_file.helm_thanos</title>
<path fill="none" stroke="black" d="M487.73,-288.05C495.36,-279.58 504.73,-269.17 513.15,-259.82"/>
<polygon fill="black" stroke="black" points="515.85,-262.05 519.93,-252.28 510.64,-257.37 515.85,-262.05"/>
</g>
<!-- [root] provider.template (close)&#45;&gt;[root] data.template_file.monitoring&#45;storage&#45;bucket&#45;policy -->
<g id="edge58" class="edge">
<title>[root] provider.template (close)&#45;&gt;[root] data.template_file.monitoring&#45;storage&#45;bucket&#45;policy</title>
<path fill="none" stroke="black" d="M565.74,-294.37C661.57,-283.44 812.58,-266.23 927.36,-253.14"/>
<polygon fill="black" stroke="black" points="927.76,-256.62 937.3,-252.01 926.97,-249.66 927.76,-256.62"/>
</g>
<!-- [root] root -->
<g id="node35" class="node">
<title>[root] root</title>
<ellipse fill="none" stroke="black" cx="1453.48" cy="-594" rx="47.39" ry="18"/>
<text text-anchor="middle" x="1453.48" y="-590.3" font-family="Times,serif" font-size="14.00">[root] root</text>
</g>
<!-- [root] root&#45;&gt;[root] meta.count&#45;boundary (EachMode fixup) -->
<g id="edge59" class="edge">
<title>[root] root&#45;&gt;[root] meta.count&#45;boundary (EachMode fixup)</title>
<path fill="none" stroke="black" d="M1476.39,-578.15C1490.91,-568.74 1509.99,-556.38 1526.4,-545.74"/>
<polygon fill="black" stroke="black" points="1528.7,-548.42 1535.19,-540.04 1524.9,-542.54 1528.7,-548.42"/>
</g>
<!-- [root] root&#45;&gt;[root] provider.aws (close) -->
<g id="edge60" class="edge">
<title>[root] root&#45;&gt;[root] provider.aws (close)</title>
<path fill="none" stroke="black" d="M1500.69,-591.4C1560.36,-587.85 1665.1,-576.46 1746.48,-540 1821.89,-506.22 1894.23,-439.06 1929.72,-403.08"/>
<polygon fill="black" stroke="black" points="1932.25,-405.51 1936.73,-395.9 1927.24,-400.62 1932.25,-405.51"/>
</g>
<!-- [root] root&#45;&gt;[root] provider.helm (close) -->
<g id="edge61" class="edge">
<title>[root] root&#45;&gt;[root] provider.helm (close)</title>
<path fill="none" stroke="black" d="M1416.28,-582.75C1376.05,-571.66 1311.23,-553.8 1262.93,-540.49"/>
<polygon fill="black" stroke="black" points="1263.77,-537.09 1253.2,-537.8 1261.91,-543.83 1263.77,-537.09"/>
</g>
<!-- [root] root&#45;&gt;[root] provider.template (close) -->
<g id="edge62" class="edge">
<title>[root] root&#45;&gt;[root] provider.template (close)</title>
<path fill="none" stroke="black" d="M1407.31,-589.76C1336.33,-584.04 1196.57,-569.81 1081.48,-540 862.74,-483.34 614.87,-373.39 516.28,-327.69"/>
<polygon fill="black" stroke="black" points="517.48,-324.39 506.93,-323.35 514.52,-330.74 517.48,-324.39"/>
</g>
</g>
</svg>
