<?xml version="1.0" encoding="UTF-8" standalone="no"?>
<!DOCTYPE svg PUBLIC "-//W3C//DTD SVG 1.1//EN"
 "http://www.w3.org/Graphics/SVG/1.1/DTD/svg11.dtd">
<!-- Generated by graphviz version 2.44.1 (20200629.0846)
 -->
<!-- Pages: 1 -->
<svg width="980pt" height="260pt"
 viewBox="0.00 0.00 979.55 260.00" xmlns="http://www.w3.org/2000/svg" xmlns:xlink="http://www.w3.org/1999/xlink">
<g id="graph0" class="graph" transform="scale(1 1) rotate(0) translate(4 256)">
<polygon fill="white" stroke="transparent" points="-4,4 -4,-256 975.55,-256 975.55,4 -4,4"/>
<!-- [root] aws_autoscaling_group.group -->
<g id="node1" class="node">
<title>[root] aws_autoscaling_group.group</title>
<polygon fill="none" stroke="black" points="649.55,-108 470.55,-108 470.55,-72 649.55,-72 649.55,-108"/>
<text text-anchor="middle" x="560.05" y="-86.3" font-family="Times,serif" font-size="14.00">aws_autoscaling_group.group</text>
</g>
<!-- [root] provider.aws -->
<g id="node2" class="node">
<title>[root] provider.aws</title>
<polygon fill="none" stroke="black" points="79.05,-36 -0.05,-18 79.05,0 158.14,-18 79.05,-36"/>
<text text-anchor="middle" x="79.05" y="-14.3" font-family="Times,serif" font-size="14.00">provider.aws</text>
</g>
<!-- [root] aws_autoscaling_group.group&#45;&gt;[root] provider.aws -->
<g id="edge1" class="edge">
<title>[root] aws_autoscaling_group.group&#45;&gt;[root] provider.aws</title>
<path fill="none" stroke="black" d="M470.47,-78.39C390.68,-68.59 270.83,-53.01 167.05,-36 154.45,-33.93 140.88,-31.45 128.27,-29.02"/>
<polygon fill="black" stroke="black" points="128.87,-25.57 118.39,-27.09 127.53,-32.44 128.87,-25.57"/>
</g>
<!-- [root] var.cluster_id -->
<g id="node3" class="node">
<title>[root] var.cluster_id</title>
<polygon fill="none" stroke="black" points="260.05,-36 176.05,-36 176.05,0 266.05,0 266.05,-30 260.05,-36"/>
<polyline fill="none" stroke="black" points="260.05,-36 260.05,-30 "/>
<polyline fill="none" stroke="black" points="266.05,-30 260.05,-30 "/>
<text text-anchor="middle" x="221.05" y="-14.3" font-family="Times,serif" font-size="14.00">var.cluster_id</text>
</g>
<!-- [root] aws_autoscaling_group.group&#45;&gt;[root] var.cluster_id -->
<g id="edge2" class="edge">
<title>[root] aws_autoscaling_group.group&#45;&gt;[root] var.cluster_id</title>
<path fill="none" stroke="black" d="M470.23,-75.16C416.36,-66.19 346.37,-53.35 276.21,-36.14"/>
<polygon fill="black" stroke="black" points="276.86,-32.7 266.31,-33.69 275.17,-39.49 276.86,-32.7"/>
</g>
<!-- [root] var.desired_capacity -->
<g id="node4" class="node">
<title>[root] var.desired_capacity</title>
<polygon fill="none" stroke="black" points="406.05,-36 284.05,-36 284.05,0 412.05,0 412.05,-30 406.05,-36"/>
<polyline fill="none" stroke="black" points="406.05,-36 406.05,-30 "/>
<polyline fill="none" stroke="black" points="412.05,-30 406.05,-30 "/>
<text text-anchor="middle" x="348.05" y="-14.3" font-family="Times,serif" font-size="14.00">var.desired_capacity</text>
</g>
<!-- [root] aws_autoscaling_group.group&#45;&gt;[root] var.desired_capacity -->
<g id="edge3" class="edge">
<title>[root] aws_autoscaling_group.group&#45;&gt;[root] var.desired_capacity</title>
<path fill="none" stroke="black" d="M508.46,-71.97C478.58,-62.1 440.79,-49.62 409.39,-39.25"/>
<polygon fill="black" stroke="black" points="410.46,-35.92 399.87,-36.11 408.27,-42.57 410.46,-35.92"/>
</g>
<!-- [root] var.launch_config_id -->
<g id="node5" class="node">
<title>[root] var.launch_config_id</title>
<polygon fill="none" stroke="black" points="555.55,-36 430.55,-36 430.55,0 561.55,0 561.55,-30 555.55,-36"/>
<polyline fill="none" stroke="black" points="555.55,-36 555.55,-30 "/>
<polyline fill="none" stroke="black" points="561.55,-30 555.55,-30 "/>
<text text-anchor="middle" x="496.05" y="-14.3" font-family="Times,serif" font-size="14.00">var.launch_config_id</text>
</g>
<!-- [root] aws_autoscaling_group.group&#45;&gt;[root] var.launch_config_id -->
<g id="edge4" class="edge">
<title>[root] aws_autoscaling_group.group&#45;&gt;[root] var.launch_config_id</title>
<path fill="none" stroke="black" d="M544.23,-71.7C536.48,-63.22 527.01,-52.86 518.52,-43.58"/>
<polygon fill="black" stroke="black" points="521.02,-41.12 511.69,-36.1 515.85,-45.85 521.02,-41.12"/>
</g>
<!-- [root] var.max_size -->
<g id="node6" class="node">
<title>[root] var.max_size</title>
<polygon fill="none" stroke="black" points="662.55,-36 579.55,-36 579.55,0 668.55,0 668.55,-30 662.55,-36"/>
<polyline fill="none" stroke="black" points="662.55,-36 662.55,-30 "/>
<polyline fill="none" stroke="black" points="668.55,-30 662.55,-30 "/>
<text text-anchor="middle" x="624.05" y="-14.3" font-family="Times,serif" font-size="14.00">var.max_size</text>
</g>
<!-- [root] aws_autoscaling_group.group&#45;&gt;[root] var.max_size -->
<g id="edge5" class="edge">
<title>[root] aws_autoscaling_group.group&#45;&gt;[root] var.max_size</title>
<path fill="none" stroke="black" d="M575.87,-71.7C583.62,-63.22 593.09,-52.86 601.57,-43.58"/>
<polygon fill="black" stroke="black" points="604.24,-45.85 608.41,-36.1 599.08,-41.12 604.24,-45.85"/>
</g>
<!-- [root] var.min_size -->
<g id="node7" class="node">
<title>[root] var.min_size</title>
<polygon fill="none" stroke="black" points="767.05,-36 687.05,-36 687.05,0 773.05,0 773.05,-30 767.05,-36"/>
<polyline fill="none" stroke="black" points="767.05,-36 767.05,-30 "/>
<polyline fill="none" stroke="black" points="773.05,-30 767.05,-30 "/>
<text text-anchor="middle" x="730.05" y="-14.3" font-family="Times,serif" font-size="14.00">var.min_size</text>
</g>
<!-- [root] aws_autoscaling_group.group&#45;&gt;[root] var.min_size -->
<g id="edge6" class="edge">
<title>[root] aws_autoscaling_group.group&#45;&gt;[root] var.min_size</title>
<path fill="none" stroke="black" d="M601.63,-71.88C625.08,-62.22 654.55,-50.09 679.34,-39.88"/>
<polygon fill="black" stroke="black" points="680.68,-43.11 688.6,-36.07 678.02,-36.64 680.68,-43.11"/>
</g>
<!-- [root] var.name -->
<g id="node8" class="node">
<title>[root] var.name</title>
<polygon fill="none" stroke="black" points="852.55,-36 791.55,-36 791.55,0 858.55,0 858.55,-30 852.55,-36"/>
<polyline fill="none" stroke="black" points="852.55,-36 852.55,-30 "/>
<polyline fill="none" stroke="black" points="858.55,-30 852.55,-30 "/>
<text text-anchor="middle" x="825.05" y="-14.3" font-family="Times,serif" font-size="14.00">var.name</text>
</g>
<!-- [root] aws_autoscaling_group.group&#45;&gt;[root] var.name -->
<g id="edge7" class="edge">
<title>[root] aws_autoscaling_group.group&#45;&gt;[root] var.name</title>
<path fill="none" stroke="black" d="M643.83,-71.95C683.19,-63.24 730.81,-51.71 781.56,-35.93"/>
<polygon fill="black" stroke="black" points="782.92,-39.17 791.41,-32.82 780.82,-32.49 782.92,-39.17"/>
</g>
<!-- [root] var.subnet_ids -->
<g id="node9" class="node">
<title>[root] var.subnet_ids</title>
<polygon fill="none" stroke="black" points="965.55,-36 876.55,-36 876.55,0 971.55,0 971.55,-30 965.55,-36"/>
<polyline fill="none" stroke="black" points="965.55,-36 965.55,-30 "/>
<polyline fill="none" stroke="black" points="971.55,-30 965.55,-30 "/>
<text text-anchor="middle" x="924.05" y="-14.3" font-family="Times,serif" font-size="14.00">var.subnet_ids</text>
</g>
<!-- [root] aws_autoscaling_group.group&#45;&gt;[root] var.subnet_ids -->
<g id="edge8" class="edge">
<title>[root] aws_autoscaling_group.group&#45;&gt;[root] var.subnet_ids</title>
<path fill="none" stroke="black" d="M649.6,-76.6C708.84,-67.69 788.35,-54.4 866.48,-36.23"/>
<polygon fill="black" stroke="black" points="867.57,-39.57 876.5,-33.87 865.96,-32.76 867.57,-39.57"/>
</g>
<!-- [root] meta.count&#45;boundary (EachMode fixup) -->
<g id="node10" class="node">
<title>[root] meta.count&#45;boundary (EachMode fixup)</title>
<ellipse fill="none" stroke="black" cx="411.05" cy="-162" rx="176.27" ry="18"/>
<text text-anchor="middle" x="411.05" y="-158.3" font-family="Times,serif" font-size="14.00">[root] meta.count&#45;boundary (EachMode fixup)</text>
</g>
<!-- [root] meta.count&#45;boundary (EachMode fixup)&#45;&gt;[root] aws_autoscaling_group.group -->
<g id="edge9" class="edge">
<title>[root] meta.count&#45;boundary (EachMode fixup)&#45;&gt;[root] aws_autoscaling_group.group</title>
<path fill="none" stroke="black" d="M446.74,-144.23C467.08,-134.68 492.77,-122.61 514.55,-112.38"/>
<polygon fill="black" stroke="black" points="516.05,-115.54 523.61,-108.12 513.08,-109.2 516.05,-115.54"/>
</g>
<!-- [root] provider.aws (close) -->
<g id="node11" class="node">
<title>[root] provider.aws (close)</title>
<ellipse fill="none" stroke="black" cx="710.05" cy="-162" rx="104.78" ry="18"/>
<text text-anchor="middle" x="710.05" y="-158.3" font-family="Times,serif" font-size="14.00">[root] provider.aws (close)</text>
</g>
<!-- [root] provider.aws (close)&#45;&gt;[root] aws_autoscaling_group.group -->
<g id="edge10" class="edge">
<title>[root] provider.aws (close)&#45;&gt;[root] aws_autoscaling_group.group</title>
<path fill="none" stroke="black" d="M675.63,-144.94C654.97,-135.3 628.43,-122.91 605.99,-112.44"/>
<polygon fill="black" stroke="black" points="607.2,-109.14 596.66,-108.08 604.24,-115.48 607.2,-109.14"/>
</g>
<!-- [root] root -->
<g id="node12" class="node">
<title>[root] root</title>
<ellipse fill="none" stroke="black" cx="560.05" cy="-234" rx="47.39" ry="18"/>
<text text-anchor="middle" x="560.05" y="-230.3" font-family="Times,serif" font-size="14.00">[root] root</text>
</g>
<!-- [root] root&#45;&gt;[root] meta.count&#45;boundary (EachMode fixup) -->
<g id="edge11" class="edge">
<title>[root] root&#45;&gt;[root] meta.count&#45;boundary (EachMode fixup)</title>
<path fill="none" stroke="black" d="M531.32,-219.5C509.87,-209.43 480.16,-195.47 455.64,-183.95"/>
<polygon fill="black" stroke="black" points="457.06,-180.75 446.52,-179.67 454.09,-187.09 457.06,-180.75"/>
</g>
<!-- [root] root&#45;&gt;[root] provider.aws (close) -->
<g id="edge12" class="edge">
<title>[root] root&#45;&gt;[root] provider.aws (close)</title>
<path fill="none" stroke="black" d="M588.97,-219.5C610.94,-209.25 641.51,-194.98 666.44,-183.35"/>
<polygon fill="black" stroke="black" points="668.11,-186.43 675.69,-179.03 665.15,-180.09 668.11,-186.43"/>
</g>
</g>
</svg>
