<?xml version="1.0" encoding="UTF-8" standalone="no"?>
<!DOCTYPE svg PUBLIC "-//W3C//DTD SVG 1.1//EN"
 "http://www.w3.org/Graphics/SVG/1.1/DTD/svg11.dtd">
<!-- Generated by graphviz version 2.44.1 (20200629.0846)
 -->
<!-- Pages: 1 -->
<svg width="1401pt" height="404pt"
 viewBox="0.00 0.00 1400.50 404.00" xmlns="http://www.w3.org/2000/svg" xmlns:xlink="http://www.w3.org/1999/xlink">
<g id="graph0" class="graph" transform="scale(1 1) rotate(0) translate(4 400)">
<polygon fill="white" stroke="transparent" points="-4,4 -4,-400 1396.5,-400 1396.5,4 -4,4"/>
<!-- [root] aws_route_table.rt -->
<g id="node1" class="node">
<title>[root] aws_route_table.rt</title>
<polygon fill="none" stroke="black" points="765,-180 648,-180 648,-144 765,-144 765,-180"/>
<text text-anchor="middle" x="706.5" y="-158.3" font-family="Times,serif" font-size="14.00">aws_route_table.rt</text>
</g>
<!-- [root] local.gw -->
<g id="node3" class="node">
<title>[root] local.gw</title>
<polygon fill="none" stroke="black" points="96,-108 39,-108 39,-72 102,-72 102,-102 96,-108"/>
<polyline fill="none" stroke="black" points="96,-108 96,-102 "/>
<polyline fill="none" stroke="black" points="102,-102 96,-102 "/>
<text text-anchor="middle" x="70.5" y="-86.3" font-family="Times,serif" font-size="14.00">local.gw</text>
</g>
<!-- [root] aws_route_table.rt&#45;&gt;[root] local.gw -->
<g id="edge1" class="edge">
<title>[root] aws_route_table.rt&#45;&gt;[root] local.gw</title>
<path fill="none" stroke="black" d="M647.76,-149.14C636.74,-147.2 625.29,-145.38 614.5,-144 395.44,-116.01 331.48,-158.31 112.28,-107.69"/>
<polygon fill="black" stroke="black" points="112.94,-104.25 102.4,-105.37 111.34,-111.06 112.94,-104.25"/>
</g>
<!-- [root] provider.aws -->
<g id="node5" class="node">
<title>[root] provider.aws</title>
<polygon fill="none" stroke="black" points="199.5,-108 120.4,-90 199.5,-72 278.6,-90 199.5,-108"/>
<text text-anchor="middle" x="199.5" y="-86.3" font-family="Times,serif" font-size="14.00">provider.aws</text>
</g>
<!-- [root] aws_route_table.rt&#45;&gt;[root] provider.aws -->
<g id="edge2" class="edge">
<title>[root] aws_route_table.rt&#45;&gt;[root] provider.aws</title>
<path fill="none" stroke="black" d="M647.71,-149.48C636.7,-147.51 625.27,-145.59 614.5,-144 469.85,-122.7 432.06,-129.88 287.5,-108 274.75,-106.07 261.04,-103.61 248.32,-101.16"/>
<polygon fill="black" stroke="black" points="248.86,-97.7 238.37,-99.21 247.51,-104.57 248.86,-97.7"/>
</g>
<!-- [root] var.aws_azs -->
<g id="node6" class="node">
<title>[root] var.aws_azs</title>
<polygon fill="none" stroke="black" points="372.5,-108 296.5,-108 296.5,-72 378.5,-72 378.5,-102 372.5,-108"/>
<polyline fill="none" stroke="black" points="372.5,-108 372.5,-102 "/>
<polyline fill="none" stroke="black" points="378.5,-102 372.5,-102 "/>
<text text-anchor="middle" x="337.5" y="-86.3" font-family="Times,serif" font-size="14.00">var.aws_azs</text>
</g>
<!-- [root] aws_route_table.rt&#45;&gt;[root] var.aws_azs -->
<g id="edge3" class="edge">
<title>[root] aws_route_table.rt&#45;&gt;[root] var.aws_azs</title>
<path fill="none" stroke="black" d="M647.64,-149.89C636.64,-147.88 625.23,-145.84 614.5,-144 516.97,-127.26 488.43,-132.19 388.44,-108"/>
<polygon fill="black" stroke="black" points="389.08,-104.56 378.54,-105.57 387.41,-111.36 389.08,-104.56"/>
</g>
<!-- [root] var.basenamertb -->
<g id="node7" class="node">
<title>[root] var.basenamertb</title>
<polygon fill="none" stroke="black" points="496.5,-108 396.5,-108 396.5,-72 502.5,-72 502.5,-102 496.5,-108"/>
<polyline fill="none" stroke="black" points="496.5,-108 496.5,-102 "/>
<polyline fill="none" stroke="black" points="502.5,-102 496.5,-102 "/>
<text text-anchor="middle" x="449.5" y="-86.3" font-family="Times,serif" font-size="14.00">var.basenamertb</text>
</g>
<!-- [root] aws_route_table.rt&#45;&gt;[root] var.basenamertb -->
<g id="edge4" class="edge">
<title>[root] aws_route_table.rt&#45;&gt;[root] var.basenamertb</title>
<path fill="none" stroke="black" d="M647.61,-145.03C611.26,-135.17 563.41,-122.16 512.48,-108.26"/>
<polygon fill="black" stroke="black" points="513.17,-104.82 502.6,-105.57 511.32,-111.58 513.17,-104.82"/>
</g>
<!-- [root] var.default_tags -->
<g id="node8" class="node">
<title>[root] var.default_tags</title>
<polygon fill="none" stroke="black" points="618,-108 521,-108 521,-72 624,-72 624,-102 618,-108"/>
<polyline fill="none" stroke="black" points="618,-108 618,-102 "/>
<polyline fill="none" stroke="black" points="624,-102 618,-102 "/>
<text text-anchor="middle" x="572.5" y="-86.3" font-family="Times,serif" font-size="14.00">var.default_tags</text>
</g>
<!-- [root] aws_route_table.rt&#45;&gt;[root] var.default_tags -->
<g id="edge5" class="edge">
<title>[root] aws_route_table.rt&#45;&gt;[root] var.default_tags</title>
<path fill="none" stroke="black" d="M673.72,-143.88C655.87,-134.55 633.6,-122.92 614.5,-112.94"/>
<polygon fill="black" stroke="black" points="615.89,-109.72 605.41,-108.19 612.65,-115.92 615.89,-109.72"/>
</g>
<!-- [root] var.igw_connections -->
<g id="node9" class="node">
<title>[root] var.igw_connections</title>
<polygon fill="none" stroke="black" points="764.5,-108 642.5,-108 642.5,-72 770.5,-72 770.5,-102 764.5,-108"/>
<polyline fill="none" stroke="black" points="764.5,-108 764.5,-102 "/>
<polyline fill="none" stroke="black" points="770.5,-102 764.5,-102 "/>
<text text-anchor="middle" x="706.5" y="-86.3" font-family="Times,serif" font-size="14.00">var.igw_connections</text>
</g>
<!-- [root] aws_route_table.rt&#45;&gt;[root] var.igw_connections -->
<g id="edge6" class="edge">
<title>[root] aws_route_table.rt&#45;&gt;[root] var.igw_connections</title>
<path fill="none" stroke="black" d="M706.5,-143.7C706.5,-135.98 706.5,-126.71 706.5,-118.11"/>
<polygon fill="black" stroke="black" points="710,-118.1 706.5,-108.1 703,-118.1 710,-118.1"/>
</g>
<!-- [root] var.object_sequence -->
<g id="node11" class="node">
<title>[root] var.object_sequence</title>
<polygon fill="none" stroke="black" points="908.5,-108 788.5,-108 788.5,-72 914.5,-72 914.5,-102 908.5,-108"/>
<polyline fill="none" stroke="black" points="908.5,-108 908.5,-102 "/>
<polyline fill="none" stroke="black" points="914.5,-102 908.5,-102 "/>
<text text-anchor="middle" x="851.5" y="-86.3" font-family="Times,serif" font-size="14.00">var.object_sequence</text>
</g>
<!-- [root] aws_route_table.rt&#45;&gt;[root] var.object_sequence -->
<g id="edge7" class="edge">
<title>[root] aws_route_table.rt&#45;&gt;[root] var.object_sequence</title>
<path fill="none" stroke="black" d="M741.97,-143.88C761.62,-134.39 786.22,-122.51 807.13,-112.42"/>
<polygon fill="black" stroke="black" points="808.66,-115.57 816.14,-108.07 805.62,-109.26 808.66,-115.57"/>
</g>
<!-- [root] var.peering_connections -->
<g id="node12" class="node">
<title>[root] var.peering_connections</title>
<polygon fill="none" stroke="black" points="1076,-108 933,-108 933,-72 1082,-72 1082,-102 1076,-108"/>
<polyline fill="none" stroke="black" points="1076,-108 1076,-102 "/>
<polyline fill="none" stroke="black" points="1082,-102 1076,-102 "/>
<text text-anchor="middle" x="1007.5" y="-86.3" font-family="Times,serif" font-size="14.00">var.peering_connections</text>
</g>
<!-- [root] aws_route_table.rt&#45;&gt;[root] var.peering_connections -->
<g id="edge8" class="edge">
<title>[root] aws_route_table.rt&#45;&gt;[root] var.peering_connections</title>
<path fill="none" stroke="black" d="M765.25,-147.34C810.56,-136.8 873.82,-122.09 924.33,-110.34"/>
<polygon fill="black" stroke="black" points="925.3,-113.71 934.25,-108.04 923.72,-106.89 925.3,-113.71"/>
</g>
<!-- [root] var.public_rt_tags -->
<g id="node13" class="node">
<title>[root] var.public_rt_tags</title>
<polygon fill="none" stroke="black" points="1208.5,-108 1100.5,-108 1100.5,-72 1214.5,-72 1214.5,-102 1208.5,-108"/>
<polyline fill="none" stroke="black" points="1208.5,-108 1208.5,-102 "/>
<polyline fill="none" stroke="black" points="1214.5,-102 1208.5,-102 "/>
<text text-anchor="middle" x="1157.5" y="-86.3" font-family="Times,serif" font-size="14.00">var.public_rt_tags</text>
</g>
<!-- [root] aws_route_table.rt&#45;&gt;[root] var.public_rt_tags -->
<g id="edge9" class="edge">
<title>[root] aws_route_table.rt&#45;&gt;[root] var.public_rt_tags</title>
<path fill="none" stroke="black" d="M765.22,-155.05C838.95,-147.1 969.43,-131.47 1090.19,-108.14"/>
<polygon fill="black" stroke="black" points="1091.21,-111.5 1100.35,-106.15 1089.87,-104.63 1091.21,-111.5"/>
</g>
<!-- [root] var.vpc_id -->
<g id="node15" class="node">
<title>[root] var.vpc_id</title>
<polygon fill="none" stroke="black" points="1300.5,-108 1232.5,-108 1232.5,-72 1306.5,-72 1306.5,-102 1300.5,-108"/>
<polyline fill="none" stroke="black" points="1300.5,-108 1300.5,-102 "/>
<polyline fill="none" stroke="black" points="1306.5,-102 1300.5,-102 "/>
<text text-anchor="middle" x="1269.5" y="-86.3" font-family="Times,serif" font-size="14.00">var.vpc_id</text>
</g>
<!-- [root] aws_route_table.rt&#45;&gt;[root] var.vpc_id -->
<g id="edge10" class="edge">
<title>[root] aws_route_table.rt&#45;&gt;[root] var.vpc_id</title>
<path fill="none" stroke="black" d="M765.05,-159.78C859.87,-156.76 1052.72,-146.3 1222.47,-107.9"/>
<polygon fill="black" stroke="black" points="1223.37,-111.28 1232.33,-105.63 1221.8,-104.46 1223.37,-111.28"/>
</g>
<!-- [root] var.zones -->
<g id="node16" class="node">
<title>[root] var.zones</title>
<polygon fill="none" stroke="black" points="1386.5,-108 1324.5,-108 1324.5,-72 1392.5,-72 1392.5,-102 1386.5,-108"/>
<polyline fill="none" stroke="black" points="1386.5,-108 1386.5,-102 "/>
<polyline fill="none" stroke="black" points="1392.5,-102 1386.5,-102 "/>
<text text-anchor="middle" x="1358.5" y="-86.3" font-family="Times,serif" font-size="14.00">var.zones</text>
</g>
<!-- [root] aws_route_table.rt&#45;&gt;[root] var.zones -->
<g id="edge11" class="edge">
<title>[root] aws_route_table.rt&#45;&gt;[root] var.zones</title>
<path fill="none" stroke="black" d="M765.33,-161.49C873.27,-161.17 1109.91,-154.87 1314.04,-107.95"/>
<polygon fill="black" stroke="black" points="1315.1,-111.3 1324.04,-105.62 1313.51,-104.48 1315.1,-111.3"/>
</g>
<!-- [root] aws_route_table_association.rta -->
<g id="node2" class="node">
<title>[root] aws_route_table_association.rta</title>
<polygon fill="none" stroke="black" points="652.5,-252 462.5,-252 462.5,-216 652.5,-216 652.5,-252"/>
<text text-anchor="middle" x="557.5" y="-230.3" font-family="Times,serif" font-size="14.00">aws_route_table_association.rta</text>
</g>
<!-- [root] aws_route_table_association.rta&#45;&gt;[root] aws_route_table.rt -->
<g id="edge12" class="edge">
<title>[root] aws_route_table_association.rta&#45;&gt;[root] aws_route_table.rt</title>
<path fill="none" stroke="black" d="M593.95,-215.88C614.14,-206.39 639.42,-194.51 660.91,-184.42"/>
<polygon fill="black" stroke="black" points="662.61,-187.49 670.17,-180.07 659.63,-181.15 662.61,-187.49"/>
</g>
<!-- [root] var.subnets_id -->
<g id="node14" class="node">
<title>[root] var.subnets_id</title>
<polygon fill="none" stroke="black" points="599,-180 510,-180 510,-144 605,-144 605,-174 599,-180"/>
<polyline fill="none" stroke="black" points="599,-180 599,-174 "/>
<polyline fill="none" stroke="black" points="605,-174 599,-174 "/>
<text text-anchor="middle" x="557.5" y="-158.3" font-family="Times,serif" font-size="14.00">var.subnets_id</text>
</g>
<!-- [root] aws_route_table_association.rta&#45;&gt;[root] var.subnets_id -->
<g id="edge13" class="edge">
<title>[root] aws_route_table_association.rta&#45;&gt;[root] var.subnets_id</title>
<path fill="none" stroke="black" d="M557.5,-215.7C557.5,-207.98 557.5,-198.71 557.5,-190.11"/>
<polygon fill="black" stroke="black" points="561,-190.1 557.5,-180.1 554,-190.1 561,-190.1"/>
</g>
<!-- [root] var.natgw_connections -->
<g id="node10" class="node">
<title>[root] var.natgw_connections</title>
<polygon fill="none" stroke="black" points="135,-36 0,-36 0,0 141,0 141,-30 135,-36"/>
<polyline fill="none" stroke="black" points="135,-36 135,-30 "/>
<polyline fill="none" stroke="black" points="141,-30 135,-30 "/>
<text text-anchor="middle" x="70.5" y="-14.3" font-family="Times,serif" font-size="14.00">var.natgw_connections</text>
</g>
<!-- [root] local.gw&#45;&gt;[root] var.natgw_connections -->
<g id="edge14" class="edge">
<title>[root] local.gw&#45;&gt;[root] var.natgw_connections</title>
<path fill="none" stroke="black" d="M70.5,-71.7C70.5,-63.98 70.5,-54.71 70.5,-46.11"/>
<polygon fill="black" stroke="black" points="74,-46.1 70.5,-36.1 67,-46.1 74,-46.1"/>
</g>
<!-- [root] output.route_tables -->
<g id="node4" class="node">
<title>[root] output.route_tables</title>
<polygon fill="none" stroke="black" points="786,-252 671,-252 671,-216 792,-216 792,-246 786,-252"/>
<polyline fill="none" stroke="black" points="786,-252 786,-246 "/>
<polyline fill="none" stroke="black" points="792,-246 786,-246 "/>
<text text-anchor="middle" x="731.5" y="-230.3" font-family="Times,serif" font-size="14.00">output.route_tables</text>
</g>
<!-- [root] output.route_tables&#45;&gt;[root] aws_route_table.rt -->
<g id="edge17" class="edge">
<title>[root] output.route_tables&#45;&gt;[root] aws_route_table.rt</title>
<path fill="none" stroke="black" d="M725.32,-215.7C722.5,-207.81 719.11,-198.3 715.98,-189.55"/>
<polygon fill="black" stroke="black" points="719.27,-188.34 712.61,-180.1 712.68,-190.7 719.27,-188.34"/>
</g>
<!-- [root] meta.count&#45;boundary (EachMode fixup) -->
<g id="node17" class="node">
<title>[root] meta.count&#45;boundary (EachMode fixup)</title>
<ellipse fill="none" stroke="black" cx="731.5" cy="-306" rx="176.27" ry="18"/>
<text text-anchor="middle" x="731.5" y="-302.3" font-family="Times,serif" font-size="14.00">[root] meta.count&#45;boundary (EachMode fixup)</text>
</g>
<!-- [root] meta.count&#45;boundary (EachMode fixup)&#45;&gt;[root] aws_route_table_association.rta -->
<g id="edge15" class="edge">
<title>[root] meta.count&#45;boundary (EachMode fixup)&#45;&gt;[root] aws_route_table_association.rta</title>
<path fill="none" stroke="black" d="M690.26,-288.41C666.01,-278.65 635.12,-266.23 609.24,-255.81"/>
<polygon fill="black" stroke="black" points="610.54,-252.56 599.95,-252.08 607.92,-259.06 610.54,-252.56"/>
</g>
<!-- [root] meta.count&#45;boundary (EachMode fixup)&#45;&gt;[root] output.route_tables -->
<g id="edge16" class="edge">
<title>[root] meta.count&#45;boundary (EachMode fixup)&#45;&gt;[root] output.route_tables</title>
<path fill="none" stroke="black" d="M731.5,-287.7C731.5,-279.98 731.5,-270.71 731.5,-262.11"/>
<polygon fill="black" stroke="black" points="735,-262.1 731.5,-252.1 728,-262.1 735,-262.1"/>
</g>
<!-- [root] provider.aws (close) -->
<g id="node18" class="node">
<title>[root] provider.aws (close)</title>
<ellipse fill="none" stroke="black" cx="432.5" cy="-306" rx="104.78" ry="18"/>
<text text-anchor="middle" x="432.5" y="-302.3" font-family="Times,serif" font-size="14.00">[root] provider.aws (close)</text>
</g>
<!-- [root] provider.aws (close)&#45;&gt;[root] aws_route_table_association.rta -->
<g id="edge18" class="edge">
<title>[root] provider.aws (close)&#45;&gt;[root] aws_route_table_association.rta</title>
<path fill="none" stroke="black" d="M461.81,-288.59C478.52,-279.23 499.7,-267.37 517.88,-257.19"/>
<polygon fill="black" stroke="black" points="520.06,-259.98 527.07,-252.04 516.64,-253.87 520.06,-259.98"/>
</g>
<!-- [root] root -->
<g id="node19" class="node">
<title>[root] root</title>
<ellipse fill="none" stroke="black" cx="581.5" cy="-378" rx="47.39" ry="18"/>
<text text-anchor="middle" x="581.5" y="-374.3" font-family="Times,serif" font-size="14.00">[root] root</text>
</g>
<!-- [root] root&#45;&gt;[root] meta.count&#45;boundary (EachMode fixup) -->
<g id="edge19" class="edge">
<title>[root] root&#45;&gt;[root] meta.count&#45;boundary (EachMode fixup)</title>
<path fill="none" stroke="black" d="M610.42,-363.5C632.01,-353.43 661.92,-339.47 686.61,-327.95"/>
<polygon fill="black" stroke="black" points="688.2,-331.07 695.79,-323.67 685.24,-324.72 688.2,-331.07"/>
</g>
<!-- [root] root&#45;&gt;[root] provider.aws (close) -->
<g id="edge20" class="edge">
<title>[root] root&#45;&gt;[root] provider.aws (close)</title>
<path fill="none" stroke="black" d="M552.77,-363.5C530.95,-353.25 500.58,-338.98 475.81,-327.35"/>
<polygon fill="black" stroke="black" points="477.16,-324.12 466.63,-323.03 474.19,-330.45 477.16,-324.12"/>
</g>
</g>
</svg>
