<?xml version="1.0" encoding="UTF-8" standalone="no"?>
<!DOCTYPE svg PUBLIC "-//W3C//DTD SVG 1.1//EN"
 "http://www.w3.org/Graphics/SVG/1.1/DTD/svg11.dtd">
<!-- Generated by graphviz version 2.44.1 (20200629.0846)
 -->
<!-- Pages: 1 -->
<svg width="1109pt" height="332pt"
 viewBox="0.00 0.00 1108.50 332.00" xmlns="http://www.w3.org/2000/svg" xmlns:xlink="http://www.w3.org/1999/xlink">
<g id="graph0" class="graph" transform="scale(1 1) rotate(0) translate(4 328)">
<polygon fill="white" stroke="transparent" points="-4,4 -4,-328 1104.5,-328 1104.5,4 -4,4"/>
<!-- [root] aws_lb.lb -->
<g id="node1" class="node">
<title>[root] aws_lb.lb</title>
<polygon fill="none" stroke="black" points="430.5,-108 361.5,-108 361.5,-72 430.5,-72 430.5,-108"/>
<text text-anchor="middle" x="396" y="-86.3" font-family="Times,serif" font-size="14.00">aws_lb.lb</text>
</g>
<!-- [root] provider.aws -->
<g id="node11" class="node">
<title>[root] provider.aws</title>
<polygon fill="none" stroke="black" points="556,-36 476.9,-18 556,0 635.1,-18 556,-36"/>
<text text-anchor="middle" x="556" y="-14.3" font-family="Times,serif" font-size="14.00">provider.aws</text>
</g>
<!-- [root] aws_lb.lb&#45;&gt;[root] provider.aws -->
<g id="edge1" class="edge">
<title>[root] aws_lb.lb&#45;&gt;[root] provider.aws</title>
<path fill="none" stroke="black" d="M430.72,-73.81C457.4,-62.14 494.11,-46.08 520.89,-34.36"/>
<polygon fill="black" stroke="black" points="522.52,-37.47 530.27,-30.26 519.71,-31.06 522.52,-37.47"/>
</g>
<!-- [root] var.basenamenlb -->
<g id="node12" class="node">
<title>[root] var.basenamenlb</title>
<polygon fill="none" stroke="black" points="755,-36 653,-36 653,0 761,0 761,-30 755,-36"/>
<polyline fill="none" stroke="black" points="755,-36 755,-30 "/>
<polyline fill="none" stroke="black" points="761,-30 755,-30 "/>
<text text-anchor="middle" x="707" y="-14.3" font-family="Times,serif" font-size="14.00">var.basenamenlb</text>
</g>
<!-- [root] aws_lb.lb&#45;&gt;[root] var.basenamenlb -->
<g id="edge2" class="edge">
<title>[root] aws_lb.lb&#45;&gt;[root] var.basenamenlb</title>
<path fill="none" stroke="black" d="M430.78,-76.92C436.49,-75.14 442.38,-73.43 448,-72 530.82,-50.96 555.87,-55.21 643,-36.12"/>
<polygon fill="black" stroke="black" points="643.78,-39.53 652.77,-33.93 642.25,-32.7 643.78,-39.53"/>
</g>
<!-- [root] var.bucketname -->
<g id="node13" class="node">
<title>[root] var.bucketname</title>
<polygon fill="none" stroke="black" points="101.5,-36 4.5,-36 4.5,0 107.5,0 107.5,-30 101.5,-36"/>
<polyline fill="none" stroke="black" points="101.5,-36 101.5,-30 "/>
<polyline fill="none" stroke="black" points="107.5,-30 101.5,-30 "/>
<text text-anchor="middle" x="56" y="-14.3" font-family="Times,serif" font-size="14.00">var.bucketname</text>
</g>
<!-- [root] aws_lb.lb&#45;&gt;[root] var.bucketname -->
<g id="edge3" class="edge">
<title>[root] aws_lb.lb&#45;&gt;[root] var.bucketname</title>
<path fill="none" stroke="black" d="M361.31,-83.46C310,-75.03 210.73,-57.89 117.51,-36.26"/>
<polygon fill="black" stroke="black" points="118.17,-32.82 107.63,-33.95 116.57,-39.63 118.17,-32.82"/>
</g>
<!-- [root] var.default_tags -->
<g id="node16" class="node">
<title>[root] var.default_tags</title>
<polygon fill="none" stroke="black" points="222.5,-36 125.5,-36 125.5,0 228.5,0 228.5,-30 222.5,-36"/>
<polyline fill="none" stroke="black" points="222.5,-36 222.5,-30 "/>
<polyline fill="none" stroke="black" points="228.5,-30 222.5,-30 "/>
<text text-anchor="middle" x="177" y="-14.3" font-family="Times,serif" font-size="14.00">var.default_tags</text>
</g>
<!-- [root] aws_lb.lb&#45;&gt;[root] var.default_tags -->
<g id="edge4" class="edge">
<title>[root] aws_lb.lb&#45;&gt;[root] var.default_tags</title>
<path fill="none" stroke="black" d="M361.3,-77.91C328.32,-67.37 278,-51.28 238.26,-38.58"/>
<polygon fill="black" stroke="black" points="239.26,-35.23 228.67,-35.51 237.13,-41.89 239.26,-35.23"/>
</g>
<!-- [root] var.object_sequence -->
<g id="node17" class="node">
<title>[root] var.object_sequence</title>
<polygon fill="none" stroke="black" points="899,-36 779,-36 779,0 905,0 905,-30 899,-36"/>
<polyline fill="none" stroke="black" points="899,-36 899,-30 "/>
<polyline fill="none" stroke="black" points="905,-30 899,-30 "/>
<text text-anchor="middle" x="842" y="-14.3" font-family="Times,serif" font-size="14.00">var.object_sequence</text>
</g>
<!-- [root] aws_lb.lb&#45;&gt;[root] var.object_sequence -->
<g id="edge5" class="edge">
<title>[root] aws_lb.lb&#45;&gt;[root] var.object_sequence</title>
<path fill="none" stroke="black" d="M430.69,-76.57C436.42,-74.84 442.34,-73.23 448,-72 585.57,-42.15 626.29,-59.76 768.88,-36.06"/>
<polygon fill="black" stroke="black" points="769.6,-39.49 778.87,-34.36 768.43,-32.59 769.6,-39.49"/>
</g>
<!-- [root] var.securitygroups -->
<g id="node18" class="node">
<title>[root] var.securitygroups</title>
<polygon fill="none" stroke="black" points="357,-36 247,-36 247,0 363,0 363,-30 357,-36"/>
<polyline fill="none" stroke="black" points="357,-36 357,-30 "/>
<polyline fill="none" stroke="black" points="363,-30 357,-30 "/>
<text text-anchor="middle" x="305" y="-14.3" font-family="Times,serif" font-size="14.00">var.securitygroups</text>
</g>
<!-- [root] aws_lb.lb&#45;&gt;[root] var.securitygroups -->
<g id="edge6" class="edge">
<title>[root] aws_lb.lb&#45;&gt;[root] var.securitygroups</title>
<path fill="none" stroke="black" d="M373.51,-71.7C362.04,-62.88 347.94,-52.03 335.52,-42.47"/>
<polygon fill="black" stroke="black" points="337.3,-39.43 327.24,-36.1 333.03,-44.98 337.3,-39.43"/>
</g>
<!-- [root] var.subnets -->
<g id="node19" class="node">
<title>[root] var.subnets</title>
<polygon fill="none" stroke="black" points="452.5,-36 381.5,-36 381.5,0 458.5,0 458.5,-30 452.5,-36"/>
<polyline fill="none" stroke="black" points="452.5,-36 452.5,-30 "/>
<polyline fill="none" stroke="black" points="458.5,-30 452.5,-30 "/>
<text text-anchor="middle" x="420" y="-14.3" font-family="Times,serif" font-size="14.00">var.subnets</text>
</g>
<!-- [root] aws_lb.lb&#45;&gt;[root] var.subnets -->
<g id="edge7" class="edge">
<title>[root] aws_lb.lb&#45;&gt;[root] var.subnets</title>
<path fill="none" stroke="black" d="M401.93,-71.7C404.61,-63.9 407.83,-54.51 410.8,-45.83"/>
<polygon fill="black" stroke="black" points="414.2,-46.7 414.14,-36.1 407.58,-44.43 414.2,-46.7"/>
</g>
<!-- [root] aws_lb_listener.front_end -->
<g id="node2" class="node">
<title>[root] aws_lb_listener.front_end</title>
<polygon fill="none" stroke="black" points="741.5,-180 584.5,-180 584.5,-144 741.5,-144 741.5,-180"/>
<text text-anchor="middle" x="663" y="-158.3" font-family="Times,serif" font-size="14.00">aws_lb_listener.front_end</text>
</g>
<!-- [root] aws_lb_listener.front_end&#45;&gt;[root] aws_lb.lb -->
<g id="edge8" class="edge">
<title>[root] aws_lb_listener.front_end&#45;&gt;[root] aws_lb.lb</title>
<path fill="none" stroke="black" d="M588.01,-143.96C546.54,-134.17 494.2,-121.23 448,-108 445.43,-107.27 442.81,-106.49 440.16,-105.68"/>
<polygon fill="black" stroke="black" points="441.16,-102.33 430.57,-102.7 439.08,-109.01 441.16,-102.33"/>
</g>
<!-- [root] aws_lb_listener.https -->
<g id="node3" class="node">
<title>[root] aws_lb_listener.https</title>
<polygon fill="none" stroke="black" points="967.5,-180 836.5,-180 836.5,-144 967.5,-144 967.5,-180"/>
<text text-anchor="middle" x="902" y="-158.3" font-family="Times,serif" font-size="14.00">aws_lb_listener.https</text>
</g>
<!-- [root] aws_lb_listener.https&#45;&gt;[root] aws_lb.lb -->
<g id="edge9" class="edge">
<title>[root] aws_lb_listener.https&#45;&gt;[root] aws_lb.lb</title>
<path fill="none" stroke="black" d="M836.44,-153.7C715.25,-140.14 466.7,-112.1 448,-108 445.52,-107.46 443,-106.84 440.46,-106.18"/>
<polygon fill="black" stroke="black" points="441.28,-102.77 430.7,-103.4 439.36,-109.5 441.28,-102.77"/>
</g>
<!-- [root] var.certificatearn -->
<g id="node14" class="node">
<title>[root] var.certificatearn</title>
<polygon fill="none" stroke="black" points="883.5,-108 782.5,-108 782.5,-72 889.5,-72 889.5,-102 883.5,-108"/>
<polyline fill="none" stroke="black" points="883.5,-108 883.5,-102 "/>
<polyline fill="none" stroke="black" points="889.5,-102 883.5,-102 "/>
<text text-anchor="middle" x="836" y="-86.3" font-family="Times,serif" font-size="14.00">var.certificatearn</text>
</g>
<!-- [root] aws_lb_listener.https&#45;&gt;[root] var.certificatearn -->
<g id="edge10" class="edge">
<title>[root] aws_lb_listener.https&#45;&gt;[root] var.certificatearn</title>
<path fill="none" stroke="black" d="M885.69,-143.7C877.69,-135.22 867.93,-124.86 859.18,-115.58"/>
<polygon fill="black" stroke="black" points="861.53,-112.98 852.13,-108.1 856.44,-117.78 861.53,-112.98"/>
</g>
<!-- [root] var.certpolicy -->
<g id="node15" class="node">
<title>[root] var.certpolicy</title>
<polygon fill="none" stroke="black" points="758.5,-108 673.5,-108 673.5,-72 764.5,-72 764.5,-102 758.5,-108"/>
<polyline fill="none" stroke="black" points="758.5,-108 758.5,-102 "/>
<polyline fill="none" stroke="black" points="764.5,-102 758.5,-102 "/>
<text text-anchor="middle" x="719" y="-86.3" font-family="Times,serif" font-size="14.00">var.certpolicy</text>
</g>
<!-- [root] aws_lb_listener.https&#45;&gt;[root] var.certpolicy -->
<g id="edge11" class="edge">
<title>[root] aws_lb_listener.https&#45;&gt;[root] var.certpolicy</title>
<path fill="none" stroke="black" d="M857.23,-143.88C831.88,-134.18 799.99,-121.98 773.23,-111.74"/>
<polygon fill="black" stroke="black" points="774.21,-108.37 763.62,-108.07 771.71,-114.91 774.21,-108.37"/>
</g>
<!-- [root] aws_lb_target_group.target_http -->
<g id="node4" class="node">
<title>[root] aws_lb_target_group.target_http</title>
<polygon fill="none" stroke="black" points="1100.5,-108 907.5,-108 907.5,-72 1100.5,-72 1100.5,-108"/>
<text text-anchor="middle" x="1004" y="-86.3" font-family="Times,serif" font-size="14.00">aws_lb_target_group.target_http</text>
</g>
<!-- [root] aws_lb_target_group.target_http&#45;&gt;[root] provider.aws -->
<g id="edge12" class="edge">
<title>[root] aws_lb_target_group.target_http&#45;&gt;[root] provider.aws</title>
<path fill="none" stroke="black" d="M907.25,-73.41C904.13,-72.93 901.04,-72.46 898,-72 785.26,-54.97 756.45,-54.82 644,-36 631.65,-33.93 618.37,-31.49 605.96,-29.1"/>
<polygon fill="black" stroke="black" points="606.27,-25.6 595.79,-27.12 604.94,-32.47 606.27,-25.6"/>
</g>
<!-- [root] aws_lb_target_group.target_http&#45;&gt;[root] var.basenamenlb -->
<g id="edge13" class="edge">
<title>[root] aws_lb_target_group.target_http&#45;&gt;[root] var.basenamenlb</title>
<path fill="none" stroke="black" d="M925.01,-71.95C882.05,-62.48 827.76,-50.19 771.11,-36.23"/>
<polygon fill="black" stroke="black" points="771.81,-32.8 761.26,-33.79 770.13,-39.59 771.81,-32.8"/>
</g>
<!-- [root] aws_lb_target_group.target_http&#45;&gt;[root] var.object_sequence -->
<g id="edge14" class="edge">
<title>[root] aws_lb_target_group.target_http&#45;&gt;[root] var.object_sequence</title>
<path fill="none" stroke="black" d="M964.37,-71.88C942.22,-62.31 914.44,-50.3 890.94,-40.15"/>
<polygon fill="black" stroke="black" points="892.07,-36.82 881.5,-36.07 889.29,-43.25 892.07,-36.82"/>
</g>
<!-- [root] var.vpcid -->
<g id="node20" class="node">
<title>[root] var.vpcid</title>
<polygon fill="none" stroke="black" points="1008.5,-36 947.5,-36 947.5,0 1014.5,0 1014.5,-30 1008.5,-36"/>
<polyline fill="none" stroke="black" points="1008.5,-36 1008.5,-30 "/>
<polyline fill="none" stroke="black" points="1014.5,-30 1008.5,-30 "/>
<text text-anchor="middle" x="981" y="-14.3" font-family="Times,serif" font-size="14.00">var.vpcid</text>
</g>
<!-- [root] aws_lb_target_group.target_http&#45;&gt;[root] var.vpcid -->
<g id="edge15" class="edge">
<title>[root] aws_lb_target_group.target_http&#45;&gt;[root] var.vpcid</title>
<path fill="none" stroke="black" d="M998.31,-71.7C995.75,-63.9 992.67,-54.51 989.82,-45.83"/>
<polygon fill="black" stroke="black" points="993.07,-44.51 986.62,-36.1 986.42,-46.7 993.07,-44.51"/>
</g>
<!-- [root] aws_lb_target_group.target_https -->
<g id="node5" class="node">
<title>[root] aws_lb_target_group.target_https</title>
<polygon fill="none" stroke="black" points="655,-108 457,-108 457,-72 655,-72 655,-108"/>
<text text-anchor="middle" x="556" y="-86.3" font-family="Times,serif" font-size="14.00">aws_lb_target_group.target_https</text>
</g>
<!-- [root] aws_lb_target_group.target_https&#45;&gt;[root] provider.aws -->
<g id="edge16" class="edge">
<title>[root] aws_lb_target_group.target_https&#45;&gt;[root] provider.aws</title>
<path fill="none" stroke="black" d="M556,-71.7C556,-63.98 556,-54.71 556,-46.11"/>
<polygon fill="black" stroke="black" points="559.5,-46.1 556,-36.1 552.5,-46.1 559.5,-46.1"/>
</g>
<!-- [root] aws_lb_target_group.target_https&#45;&gt;[root] var.basenamenlb -->
<g id="edge17" class="edge">
<title>[root] aws_lb_target_group.target_https&#45;&gt;[root] var.basenamenlb</title>
<path fill="none" stroke="black" d="M592.94,-71.88C613.49,-62.35 639.25,-50.41 661.09,-40.28"/>
<polygon fill="black" stroke="black" points="662.58,-43.45 670.18,-36.07 659.64,-37.1 662.58,-43.45"/>
</g>
<!-- [root] aws_lb_target_group.target_https&#45;&gt;[root] var.object_sequence -->
<g id="edge18" class="edge">
<title>[root] aws_lb_target_group.target_https&#45;&gt;[root] var.object_sequence</title>
<path fill="none" stroke="black" d="M625.6,-71.97C669.1,-61.32 725.04,-47.63 769.14,-36.83"/>
<polygon fill="black" stroke="black" points="770.05,-40.21 778.94,-34.44 768.39,-33.41 770.05,-40.21"/>
</g>
<!-- [root] aws_lb_target_group.target_https&#45;&gt;[root] var.vpcid -->
<g id="edge19" class="edge">
<title>[root] aws_lb_target_group.target_https&#45;&gt;[root] var.vpcid</title>
<path fill="none" stroke="black" d="M655.16,-73.34C658.14,-72.89 661.09,-72.44 664,-72 775,-55.27 803.89,-57.83 914,-36 921.7,-34.47 929.83,-32.62 937.68,-30.7"/>
<polygon fill="black" stroke="black" points="938.57,-34.09 947.42,-28.26 936.87,-27.3 938.57,-34.09"/>
</g>
<!-- [root] output.arn -->
<g id="node6" class="node">
<title>[root] output.arn</title>
<polygon fill="none" stroke="black" points="522,-180 456,-180 456,-144 528,-144 528,-174 522,-180"/>
<polyline fill="none" stroke="black" points="522,-180 522,-174 "/>
<polyline fill="none" stroke="black" points="528,-174 522,-174 "/>
<text text-anchor="middle" x="492" y="-158.3" font-family="Times,serif" font-size="14.00">output.arn</text>
</g>
<!-- [root] output.arn&#45;&gt;[root] aws_lb.lb -->
<g id="edge29" class="edge">
<title>[root] output.arn&#45;&gt;[root] aws_lb.lb</title>
<path fill="none" stroke="black" d="M468.27,-143.7C456.06,-134.8 441.01,-123.82 427.82,-114.2"/>
<polygon fill="black" stroke="black" points="429.6,-111.17 419.46,-108.1 425.48,-116.82 429.6,-111.17"/>
</g>
<!-- [root] output.arn_suffix -->
<g id="node7" class="node">
<title>[root] output.arn_suffix</title>
<polygon fill="none" stroke="black" points="104,-180 0,-180 0,-144 110,-144 110,-174 104,-180"/>
<polyline fill="none" stroke="black" points="104,-180 104,-174 "/>
<polyline fill="none" stroke="black" points="110,-174 104,-174 "/>
<text text-anchor="middle" x="55" y="-158.3" font-family="Times,serif" font-size="14.00">output.arn_suffix</text>
</g>
<!-- [root] output.arn_suffix&#45;&gt;[root] aws_lb.lb -->
<g id="edge30" class="edge">
<title>[root] output.arn_suffix&#45;&gt;[root] aws_lb.lb</title>
<path fill="none" stroke="black" d="M110.1,-146.1C113.1,-145.37 116.09,-144.66 119,-144 200.39,-125.43 296.25,-108.08 351.19,-98.57"/>
<polygon fill="black" stroke="black" points="352.03,-101.98 361.29,-96.83 350.84,-95.08 352.03,-101.98"/>
</g>
<!-- [root] output.dns_name -->
<g id="node8" class="node">
<title>[root] output.dns_name</title>
<polygon fill="none" stroke="black" points="232,-180 128,-180 128,-144 238,-144 238,-174 232,-180"/>
<polyline fill="none" stroke="black" points="232,-180 232,-174 "/>
<polyline fill="none" stroke="black" points="238,-174 232,-174 "/>
<text text-anchor="middle" x="183" y="-158.3" font-family="Times,serif" font-size="14.00">output.dns_name</text>
</g>
<!-- [root] output.dns_name&#45;&gt;[root] aws_lb.lb -->
<g id="edge31" class="edge">
<title>[root] output.dns_name&#45;&gt;[root] aws_lb.lb</title>
<path fill="none" stroke="black" d="M234.83,-143.97C270.59,-132.22 317.62,-116.76 351.64,-105.58"/>
<polygon fill="black" stroke="black" points="352.9,-108.85 361.31,-102.4 350.72,-102.2 352.9,-108.85"/>
</g>
<!-- [root] output.id -->
<g id="node9" class="node">
<title>[root] output.id</title>
<polygon fill="none" stroke="black" points="315.5,-180 256.5,-180 256.5,-144 321.5,-144 321.5,-174 315.5,-180"/>
<polyline fill="none" stroke="black" points="315.5,-180 315.5,-174 "/>
<polyline fill="none" stroke="black" points="321.5,-174 315.5,-174 "/>
<text text-anchor="middle" x="289" y="-158.3" font-family="Times,serif" font-size="14.00">output.id</text>
</g>
<!-- [root] output.id&#45;&gt;[root] aws_lb.lb -->
<g id="edge32" class="edge">
<title>[root] output.id&#45;&gt;[root] aws_lb.lb</title>
<path fill="none" stroke="black" d="M315.18,-143.88C329.04,-134.81 346.24,-123.55 361.21,-113.76"/>
<polygon fill="black" stroke="black" points="363.27,-116.59 369.72,-108.19 359.44,-110.74 363.27,-116.59"/>
</g>
<!-- [root] output.zone_id -->
<g id="node10" class="node">
<title>[root] output.zone_id</title>
<polygon fill="none" stroke="black" points="432,-180 340,-180 340,-144 438,-144 438,-174 432,-180"/>
<polyline fill="none" stroke="black" points="432,-180 432,-174 "/>
<polyline fill="none" stroke="black" points="438,-174 432,-174 "/>
<text text-anchor="middle" x="389" y="-158.3" font-family="Times,serif" font-size="14.00">output.zone_id</text>
</g>
<!-- [root] output.zone_id&#45;&gt;[root] aws_lb.lb -->
<g id="edge33" class="edge">
<title>[root] output.zone_id&#45;&gt;[root] aws_lb.lb</title>
<path fill="none" stroke="black" d="M390.73,-143.7C391.5,-135.98 392.43,-126.71 393.29,-118.11"/>
<polygon fill="black" stroke="black" points="396.78,-118.4 394.29,-108.1 389.81,-117.71 396.78,-118.4"/>
</g>
<!-- [root] meta.count&#45;boundary (EachMode fixup) -->
<g id="node21" class="node">
<title>[root] meta.count&#45;boundary (EachMode fixup)</title>
<ellipse fill="none" stroke="black" cx="501" cy="-234" rx="176.27" ry="18"/>
<text text-anchor="middle" x="501" y="-230.3" font-family="Times,serif" font-size="14.00">[root] meta.count&#45;boundary (EachMode fixup)</text>
</g>
<!-- [root] meta.count&#45;boundary (EachMode fixup)&#45;&gt;[root] aws_lb_listener.front_end -->
<g id="edge20" class="edge">
<title>[root] meta.count&#45;boundary (EachMode fixup)&#45;&gt;[root] aws_lb_listener.front_end</title>
<path fill="none" stroke="black" d="M539.39,-216.41C561.78,-206.74 590.23,-194.44 614.19,-184.09"/>
<polygon fill="black" stroke="black" points="615.68,-187.26 623.48,-180.08 612.91,-180.83 615.68,-187.26"/>
</g>
<!-- [root] meta.count&#45;boundary (EachMode fixup)&#45;&gt;[root] aws_lb_listener.https -->
<g id="edge21" class="edge">
<title>[root] meta.count&#45;boundary (EachMode fixup)&#45;&gt;[root] aws_lb_listener.https</title>
<path fill="none" stroke="black" d="M586.04,-218.15C657.26,-205.72 757.95,-188.15 826.39,-176.2"/>
<polygon fill="black" stroke="black" points="827,-179.65 836.25,-174.48 825.79,-172.75 827,-179.65"/>
</g>
<!-- [root] meta.count&#45;boundary (EachMode fixup)&#45;&gt;[root] aws_lb_target_group.target_http -->
<g id="edge22" class="edge">
<title>[root] meta.count&#45;boundary (EachMode fixup)&#45;&gt;[root] aws_lb_target_group.target_http</title>
<path fill="none" stroke="black" d="M592.81,-218.62C640.41,-209.88 699.09,-197.07 750,-180 785.82,-167.99 791.7,-157.45 827,-144 860,-131.42 897.36,-119.86 929.22,-110.76"/>
<polygon fill="black" stroke="black" points="930.25,-114.11 938.92,-108.02 928.35,-107.37 930.25,-114.11"/>
</g>
<!-- [root] meta.count&#45;boundary (EachMode fixup)&#45;&gt;[root] aws_lb_target_group.target_https -->
<g id="edge23" class="edge">
<title>[root] meta.count&#45;boundary (EachMode fixup)&#45;&gt;[root] aws_lb_target_group.target_https</title>
<path fill="none" stroke="black" d="M515.16,-215.85C522.69,-205.93 531.5,-192.89 537,-180 545.41,-160.29 550.24,-136.49 552.93,-118.46"/>
<polygon fill="black" stroke="black" points="556.43,-118.71 554.3,-108.33 549.49,-117.76 556.43,-118.71"/>
</g>
<!-- [root] meta.count&#45;boundary (EachMode fixup)&#45;&gt;[root] output.arn -->
<g id="edge24" class="edge">
<title>[root] meta.count&#45;boundary (EachMode fixup)&#45;&gt;[root] output.arn</title>
<path fill="none" stroke="black" d="M498.78,-215.7C497.78,-207.98 496.59,-198.71 495.49,-190.11"/>
<polygon fill="black" stroke="black" points="498.95,-189.58 494.2,-180.1 492,-190.47 498.95,-189.58"/>
</g>
<!-- [root] meta.count&#45;boundary (EachMode fixup)&#45;&gt;[root] output.arn_suffix -->
<g id="edge25" class="edge">
<title>[root] meta.count&#45;boundary (EachMode fixup)&#45;&gt;[root] output.arn_suffix</title>
<path fill="none" stroke="black" d="M383.77,-220.48C310.46,-211.76 213.98,-198.68 120.02,-180.08"/>
<polygon fill="black" stroke="black" points="120.55,-176.61 110.06,-178.08 119.18,-183.48 120.55,-176.61"/>
</g>
<!-- [root] meta.count&#45;boundary (EachMode fixup)&#45;&gt;[root] output.dns_name -->
<g id="edge26" class="edge">
<title>[root] meta.count&#45;boundary (EachMode fixup)&#45;&gt;[root] output.dns_name</title>
<path fill="none" stroke="black" d="M422.94,-217.84C375.04,-208.28 312.22,-195.26 248.01,-180.18"/>
<polygon fill="black" stroke="black" points="248.65,-176.73 238.11,-177.84 247.04,-183.55 248.65,-176.73"/>
</g>
<!-- [root] meta.count&#45;boundary (EachMode fixup)&#45;&gt;[root] output.id -->
<g id="edge27" class="edge">
<title>[root] meta.count&#45;boundary (EachMode fixup)&#45;&gt;[root] output.id</title>
<path fill="none" stroke="black" d="M445.11,-216.84C414.04,-207.56 374.54,-195.3 331.46,-180.03"/>
<polygon fill="black" stroke="black" points="332.51,-176.69 321.92,-176.62 330.16,-183.28 332.51,-176.69"/>
</g>
<!-- [root] meta.count&#45;boundary (EachMode fixup)&#45;&gt;[root] output.zone_id -->
<g id="edge28" class="edge">
<title>[root] meta.count&#45;boundary (EachMode fixup)&#45;&gt;[root] output.zone_id</title>
<path fill="none" stroke="black" d="M473.89,-216.05C459.14,-206.84 440.71,-195.32 424.79,-185.37"/>
<polygon fill="black" stroke="black" points="426.59,-182.36 416.25,-180.03 422.88,-188.3 426.59,-182.36"/>
</g>
<!-- [root] provider.aws (close) -->
<g id="node22" class="node">
<title>[root] provider.aws (close)</title>
<ellipse fill="none" stroke="black" cx="808" cy="-234" rx="104.78" ry="18"/>
<text text-anchor="middle" x="808" y="-230.3" font-family="Times,serif" font-size="14.00">[root] provider.aws (close)</text>
</g>
<!-- [root] provider.aws (close)&#45;&gt;[root] aws_lb_listener.front_end -->
<g id="edge34" class="edge">
<title>[root] provider.aws (close)&#45;&gt;[root] aws_lb_listener.front_end</title>
<path fill="none" stroke="black" d="M774.37,-216.76C754.47,-207.16 729.03,-194.88 707.49,-184.48"/>
<polygon fill="black" stroke="black" points="708.74,-181.2 698.22,-180 705.7,-187.5 708.74,-181.2"/>
</g>
<!-- [root] provider.aws (close)&#45;&gt;[root] aws_lb_listener.https -->
<g id="edge35" class="edge">
<title>[root] provider.aws (close)&#45;&gt;[root] aws_lb_listener.https</title>
<path fill="none" stroke="black" d="M830.28,-216.41C842.3,-207.46 857.34,-196.25 870.54,-186.42"/>
<polygon fill="black" stroke="black" points="872.97,-188.98 878.9,-180.2 868.79,-183.37 872.97,-188.98"/>
</g>
<!-- [root] provider.aws (close)&#45;&gt;[root] aws_lb_target_group.target_http -->
<g id="edge36" class="edge">
<title>[root] provider.aws (close)&#45;&gt;[root] aws_lb_target_group.target_http</title>
<path fill="none" stroke="black" d="M891.14,-223.04C921.27,-215.59 953.41,-202.61 976,-180 992.33,-163.66 999.15,-137.91 1002,-118.3"/>
<polygon fill="black" stroke="black" points="1005.5,-118.48 1003.2,-108.14 998.55,-117.66 1005.5,-118.48"/>
</g>
<!-- [root] provider.aws (close)&#45;&gt;[root] aws_lb_target_group.target_https -->
<g id="edge37" class="edge">
<title>[root] provider.aws (close)&#45;&gt;[root] aws_lb_target_group.target_https</title>
<path fill="none" stroke="black" d="M801.34,-215.87C792.6,-195.66 775.33,-162.47 750,-144 733.55,-132 691.82,-119.94 651.26,-110.36"/>
<polygon fill="black" stroke="black" points="651.8,-106.89 641.26,-108.04 650.21,-113.71 651.8,-106.89"/>
</g>
<!-- [root] root -->
<g id="node23" class="node">
<title>[root] root</title>
<ellipse fill="none" stroke="black" cx="650" cy="-306" rx="47.39" ry="18"/>
<text text-anchor="middle" x="650" y="-302.3" font-family="Times,serif" font-size="14.00">[root] root</text>
</g>
<!-- [root] root&#45;&gt;[root] meta.count&#45;boundary (EachMode fixup) -->
<g id="edge38" class="edge">
<title>[root] root&#45;&gt;[root] meta.count&#45;boundary (EachMode fixup)</title>
<path fill="none" stroke="black" d="M621.27,-291.5C599.83,-281.43 570.12,-267.47 545.59,-255.95"/>
<polygon fill="black" stroke="black" points="547.02,-252.75 536.48,-251.67 544.04,-259.09 547.02,-252.75"/>
</g>
<!-- [root] root&#45;&gt;[root] provider.aws (close) -->
<g id="edge39" class="edge">
<title>[root] root&#45;&gt;[root] provider.aws (close)</title>
<path fill="none" stroke="black" d="M679.72,-291.83C703.15,-281.45 736.21,-266.81 762.9,-254.98"/>
<polygon fill="black" stroke="black" points="764.32,-258.18 772.04,-250.93 761.48,-251.78 764.32,-258.18"/>
</g>
</g>
</svg>
