<?xml version="1.0" encoding="UTF-8" standalone="no"?>
<!DOCTYPE svg PUBLIC "-//W3C//DTD SVG 1.1//EN"
 "http://www.w3.org/Graphics/SVG/1.1/DTD/svg11.dtd">
<!-- Generated by graphviz version 2.44.1 (20200629.0846)
 -->
<!-- Pages: 1 -->
<svg width="1100pt" height="404pt"
 viewBox="0.00 0.00 1099.98 404.00" xmlns="http://www.w3.org/2000/svg" xmlns:xlink="http://www.w3.org/1999/xlink">
<g id="graph0" class="graph" transform="scale(1 1) rotate(0) translate(4 400)">
<polygon fill="white" stroke="transparent" points="-4,4 -4,-400 1095.98,-400 1095.98,4 -4,4"/>
<!-- [root] data.template_file.helm_sonar -->
<g id="node1" class="node">
<title>[root] data.template_file.helm_sonar</title>
<polygon fill="none" stroke="black" points="888.48,-180 706.48,-180 706.48,-144 888.48,-144 888.48,-180"/>
<text text-anchor="middle" x="797.48" y="-158.3" font-family="Times,serif" font-size="14.00">data.template_file.helm_sonar</text>
</g>
<!-- [root] local.enable_service -->
<g id="node3" class="node">
<title>[root] local.enable_service</title>
<polygon fill="none" stroke="black" points="582.98,-108 461.98,-108 461.98,-72 588.98,-72 588.98,-102 582.98,-108"/>
<polyline fill="none" stroke="black" points="582.98,-108 582.98,-102 "/>
<polyline fill="none" stroke="black" points="588.98,-102 582.98,-102 "/>
<text text-anchor="middle" x="525.48" y="-86.3" font-family="Times,serif" font-size="14.00">local.enable_service</text>
</g>
<!-- [root] data.template_file.helm_sonar&#45;&gt;[root] local.enable_service -->
<g id="edge1" class="edge">
<title>[root] data.template_file.helm_sonar&#45;&gt;[root] local.enable_service</title>
<path fill="none" stroke="black" d="M731.29,-143.97C691.26,-133.66 640.15,-120.51 598.88,-109.89"/>
<polygon fill="black" stroke="black" points="599.71,-106.49 589.15,-107.39 597.97,-113.27 599.71,-106.49"/>
</g>
<!-- [root] provider.template -->
<g id="node5" class="node">
<title>[root] provider.template</title>
<polygon fill="none" stroke="black" points="710.48,-108 606.75,-90 710.48,-72 814.21,-90 710.48,-108"/>
<text text-anchor="middle" x="710.48" y="-86.3" font-family="Times,serif" font-size="14.00">provider.template</text>
</g>
<!-- [root] data.template_file.helm_sonar&#45;&gt;[root] provider.template -->
<g id="edge2" class="edge">
<title>[root] data.template_file.helm_sonar&#45;&gt;[root] provider.template</title>
<path fill="none" stroke="black" d="M775.98,-143.7C763.84,-133.93 748.61,-121.67 735.88,-111.44"/>
<polygon fill="black" stroke="black" points="737.93,-108.59 727.95,-105.05 733.54,-114.05 737.93,-108.59"/>
</g>
<!-- [root] var.default_tags -->
<g id="node6" class="node">
<title>[root] var.default_tags</title>
<polygon fill="none" stroke="black" points="928.98,-108 831.98,-108 831.98,-72 934.98,-72 934.98,-102 928.98,-108"/>
<polyline fill="none" stroke="black" points="928.98,-108 928.98,-102 "/>
<polyline fill="none" stroke="black" points="934.98,-102 928.98,-102 "/>
<text text-anchor="middle" x="883.48" y="-86.3" font-family="Times,serif" font-size="14.00">var.default_tags</text>
</g>
<!-- [root] data.template_file.helm_sonar&#45;&gt;[root] var.default_tags -->
<g id="edge3" class="edge">
<title>[root] data.template_file.helm_sonar&#45;&gt;[root] var.default_tags</title>
<path fill="none" stroke="black" d="M818.74,-143.7C829.57,-134.88 842.9,-124.03 854.64,-114.47"/>
<polygon fill="black" stroke="black" points="856.92,-117.13 862.47,-108.1 852.5,-111.7 856.92,-117.13"/>
</g>
<!-- [root] var.root_infra_domain -->
<g id="node11" class="node">
<title>[root] var.root_infra_domain</title>
<polygon fill="none" stroke="black" points="1085.98,-108 952.98,-108 952.98,-72 1091.98,-72 1091.98,-102 1085.98,-108"/>
<polyline fill="none" stroke="black" points="1085.98,-108 1085.98,-102 "/>
<polyline fill="none" stroke="black" points="1091.98,-102 1085.98,-102 "/>
<text text-anchor="middle" x="1022.48" y="-86.3" font-family="Times,serif" font-size="14.00">var.root_infra_domain</text>
</g>
<!-- [root] data.template_file.helm_sonar&#45;&gt;[root] var.root_infra_domain -->
<g id="edge4" class="edge">
<title>[root] data.template_file.helm_sonar&#45;&gt;[root] var.root_infra_domain</title>
<path fill="none" stroke="black" d="M852.24,-143.97C884.08,-134.06 924.4,-121.51 957.81,-111.12"/>
<polygon fill="black" stroke="black" points="958.97,-114.42 967.48,-108.11 956.89,-107.74 958.97,-114.42"/>
</g>
<!-- [root] helm_release.stable&#45;sonar -->
<g id="node2" class="node">
<title>[root] helm_release.stable&#45;sonar</title>
<polygon fill="none" stroke="black" points="422.48,-252 264.48,-252 264.48,-216 422.48,-216 422.48,-252"/>
<text text-anchor="middle" x="343.48" y="-230.3" font-family="Times,serif" font-size="14.00">helm_release.stable&#45;sonar</text>
</g>
<!-- [root] helm_release.stable&#45;sonar&#45;&gt;[root] data.template_file.helm_sonar -->
<g id="edge5" class="edge">
<title>[root] helm_release.stable&#45;sonar&#45;&gt;[root] data.template_file.helm_sonar</title>
<path fill="none" stroke="black" d="M422.64,-221.61C492.11,-211.5 596.17,-196.11 696.47,-180.15"/>
<polygon fill="black" stroke="black" points="697.15,-183.58 706.48,-178.55 696.05,-176.67 697.15,-183.58"/>
</g>
<!-- [root] provider.helm -->
<g id="node4" class="node">
<title>[root] provider.helm</title>
<polygon fill="none" stroke="black" points="85.48,-180 0.02,-162 85.48,-144 170.94,-162 85.48,-180"/>
<text text-anchor="middle" x="85.48" y="-158.3" font-family="Times,serif" font-size="14.00">provider.helm</text>
</g>
<!-- [root] helm_release.stable&#45;sonar&#45;&gt;[root] provider.helm -->
<g id="edge6" class="edge">
<title>[root] helm_release.stable&#45;sonar&#45;&gt;[root] provider.helm</title>
<path fill="none" stroke="black" d="M280.7,-215.97C234.4,-203.4 172.49,-186.61 130.91,-175.33"/>
<polygon fill="black" stroke="black" points="131.63,-171.89 121.06,-172.65 129.79,-178.65 131.63,-171.89"/>
</g>
<!-- [root] var.kubernetes_helm_sonar_chart_name -->
<g id="node8" class="node">
<title>[root] var.kubernetes_helm_sonar_chart_name</title>
<polygon fill="none" stroke="black" points="418.48,-180 188.48,-180 188.48,-144 424.48,-144 424.48,-174 418.48,-180"/>
<polyline fill="none" stroke="black" points="418.48,-180 418.48,-174 "/>
<polyline fill="none" stroke="black" points="424.48,-174 418.48,-174 "/>
<text text-anchor="middle" x="306.48" y="-158.3" font-family="Times,serif" font-size="14.00">var.kubernetes_helm_sonar_chart_name</text>
</g>
<!-- [root] helm_release.stable&#45;sonar&#45;&gt;[root] var.kubernetes_helm_sonar_chart_name -->
<g id="edge7" class="edge">
<title>[root] helm_release.stable&#45;sonar&#45;&gt;[root] var.kubernetes_helm_sonar_chart_name</title>
<path fill="none" stroke="black" d="M334.34,-215.7C330.08,-207.64 324.93,-197.89 320.22,-188.98"/>
<polygon fill="black" stroke="black" points="323.29,-187.31 315.52,-180.1 317.1,-190.58 323.29,-187.31"/>
</g>
<!-- [root] var.kubernetes_helm_sonar_chart_version -->
<g id="node9" class="node">
<title>[root] var.kubernetes_helm_sonar_chart_version</title>
<polygon fill="none" stroke="black" points="682.48,-180 442.48,-180 442.48,-144 688.48,-144 688.48,-174 682.48,-180"/>
<polyline fill="none" stroke="black" points="682.48,-180 682.48,-174 "/>
<polyline fill="none" stroke="black" points="688.48,-174 682.48,-174 "/>
<text text-anchor="middle" x="565.48" y="-158.3" font-family="Times,serif" font-size="14.00">var.kubernetes_helm_sonar_chart_version</text>
</g>
<!-- [root] helm_release.stable&#45;sonar&#45;&gt;[root] var.kubernetes_helm_sonar_chart_version -->
<g id="edge8" class="edge">
<title>[root] helm_release.stable&#45;sonar&#45;&gt;[root] var.kubernetes_helm_sonar_chart_version</title>
<path fill="none" stroke="black" d="M397.51,-215.97C428.93,-206.06 468.71,-193.51 501.67,-183.12"/>
<polygon fill="black" stroke="black" points="502.73,-186.46 511.22,-180.11 500.63,-179.78 502.73,-186.46"/>
</g>
<!-- [root] var.enable_cicd -->
<g id="node7" class="node">
<title>[root] var.enable_cicd</title>
<polygon fill="none" stroke="black" points="569.98,-36 474.98,-36 474.98,0 575.98,0 575.98,-30 569.98,-36"/>
<polyline fill="none" stroke="black" points="569.98,-36 569.98,-30 "/>
<polyline fill="none" stroke="black" points="575.98,-30 569.98,-30 "/>
<text text-anchor="middle" x="525.48" y="-14.3" font-family="Times,serif" font-size="14.00">var.enable_cicd</text>
</g>
<!-- [root] local.enable_service&#45;&gt;[root] var.enable_cicd -->
<g id="edge9" class="edge">
<title>[root] local.enable_service&#45;&gt;[root] var.enable_cicd</title>
<path fill="none" stroke="black" d="M525.48,-71.7C525.48,-63.98 525.48,-54.71 525.48,-46.11"/>
<polygon fill="black" stroke="black" points="528.98,-46.1 525.48,-36.1 521.98,-46.1 528.98,-46.1"/>
</g>
<!-- [root] var.observability_depends_on -->
<g id="node10" class="node">
<title>[root] var.observability_depends_on</title>
<polygon fill="none" stroke="black" points="650.98,-252 477.98,-252 477.98,-216 656.98,-216 656.98,-246 650.98,-252"/>
<polyline fill="none" stroke="black" points="650.98,-252 650.98,-246 "/>
<polyline fill="none" stroke="black" points="656.98,-246 650.98,-246 "/>
<text text-anchor="middle" x="567.48" y="-230.3" font-family="Times,serif" font-size="14.00">var.observability_depends_on</text>
</g>
<!-- [root] meta.count&#45;boundary (EachMode fixup) -->
<g id="node12" class="node">
<title>[root] meta.count&#45;boundary (EachMode fixup)</title>
<ellipse fill="none" stroke="black" cx="574.48" cy="-306" rx="176.27" ry="18"/>
<text text-anchor="middle" x="574.48" y="-302.3" font-family="Times,serif" font-size="14.00">[root] meta.count&#45;boundary (EachMode fixup)</text>
</g>
<!-- [root] meta.count&#45;boundary (EachMode fixup)&#45;&gt;[root] helm_release.stable&#45;sonar -->
<g id="edge10" class="edge">
<title>[root] meta.count&#45;boundary (EachMode fixup)&#45;&gt;[root] helm_release.stable&#45;sonar</title>
<path fill="none" stroke="black" d="M520.9,-288.76C487.65,-278.69 444.66,-265.66 409.33,-254.95"/>
<polygon fill="black" stroke="black" points="410.17,-251.55 399.58,-252 408.14,-258.25 410.17,-251.55"/>
</g>
<!-- [root] meta.count&#45;boundary (EachMode fixup)&#45;&gt;[root] var.observability_depends_on -->
<g id="edge11" class="edge">
<title>[root] meta.count&#45;boundary (EachMode fixup)&#45;&gt;[root] var.observability_depends_on</title>
<path fill="none" stroke="black" d="M572.75,-287.7C571.98,-279.98 571.05,-270.71 570.19,-262.11"/>
<polygon fill="black" stroke="black" points="573.67,-261.71 569.19,-252.1 566.7,-262.4 573.67,-261.71"/>
</g>
<!-- [root] provider.helm (close) -->
<g id="node13" class="node">
<title>[root] provider.helm (close)</title>
<ellipse fill="none" stroke="black" cx="271.48" cy="-306" rx="109.38" ry="18"/>
<text text-anchor="middle" x="271.48" y="-302.3" font-family="Times,serif" font-size="14.00">[root] provider.helm (close)</text>
</g>
<!-- [root] provider.helm (close)&#45;&gt;[root] helm_release.stable&#45;sonar -->
<g id="edge12" class="edge">
<title>[root] provider.helm (close)&#45;&gt;[root] helm_release.stable&#45;sonar</title>
<path fill="none" stroke="black" d="M288.91,-288.05C297.87,-279.35 308.93,-268.59 318.75,-259.04"/>
<polygon fill="black" stroke="black" points="321.23,-261.51 325.96,-252.03 316.35,-256.49 321.23,-261.51"/>
</g>
<!-- [root] provider.template (close) -->
<g id="node14" class="node">
<title>[root] provider.template (close)</title>
<ellipse fill="none" stroke="black" cx="797.48" cy="-234" rx="122.38" ry="18"/>
<text text-anchor="middle" x="797.48" y="-230.3" font-family="Times,serif" font-size="14.00">[root] provider.template (close)</text>
</g>
<!-- [root] provider.template (close)&#45;&gt;[root] data.template_file.helm_sonar -->
<g id="edge13" class="edge">
<title>[root] provider.template (close)&#45;&gt;[root] data.template_file.helm_sonar</title>
<path fill="none" stroke="black" d="M797.48,-215.7C797.48,-207.98 797.48,-198.71 797.48,-190.11"/>
<polygon fill="black" stroke="black" points="800.98,-190.1 797.48,-180.1 793.98,-190.1 800.98,-190.1"/>
</g>
<!-- [root] root -->
<g id="node15" class="node">
<title>[root] root</title>
<ellipse fill="none" stroke="black" cx="574.48" cy="-378" rx="47.39" ry="18"/>
<text text-anchor="middle" x="574.48" y="-374.3" font-family="Times,serif" font-size="14.00">[root] root</text>
</g>
<!-- [root] root&#45;&gt;[root] meta.count&#45;boundary (EachMode fixup) -->
<g id="edge14" class="edge">
<title>[root] root&#45;&gt;[root] meta.count&#45;boundary (EachMode fixup)</title>
<path fill="none" stroke="black" d="M574.48,-359.7C574.48,-351.98 574.48,-342.71 574.48,-334.11"/>
<polygon fill="black" stroke="black" points="577.98,-334.1 574.48,-324.1 570.98,-334.1 577.98,-334.1"/>
</g>
<!-- [root] root&#45;&gt;[root] provider.helm (close) -->
<g id="edge15" class="edge">
<title>[root] root&#45;&gt;[root] provider.helm (close)</title>
<path fill="none" stroke="black" d="M534.87,-367.85C485.94,-356.54 401.83,-337.11 341.82,-323.25"/>
<polygon fill="black" stroke="black" points="342.57,-319.83 332.04,-320.99 340.99,-326.65 342.57,-319.83"/>
</g>
<!-- [root] root&#45;&gt;[root] provider.template (close) -->
<g id="edge16" class="edge">
<title>[root] root&#45;&gt;[root] provider.template (close)</title>
<path fill="none" stroke="black" d="M621.21,-374.64C662.18,-370.23 721.03,-357.94 759.48,-324 777.53,-308.07 787.27,-282.1 792.36,-262.32"/>
<polygon fill="black" stroke="black" points="795.83,-262.87 794.67,-252.34 789.01,-261.29 795.83,-262.87"/>
</g>
</g>
</svg>
