<?xml version="1.0" encoding="UTF-8" standalone="no"?>
<!DOCTYPE svg PUBLIC "-//W3C//DTD SVG 1.1//EN"
 "http://www.w3.org/Graphics/SVG/1.1/DTD/svg11.dtd">
<!-- Generated by graphviz version 2.44.1 (20200629.0846)
 -->
<!-- Pages: 1 -->
<svg width="1307pt" height="332pt"
 viewBox="0.00 0.00 1306.55 332.00" xmlns="http://www.w3.org/2000/svg" xmlns:xlink="http://www.w3.org/1999/xlink">
<g id="graph0" class="graph" transform="scale(1 1) rotate(0) translate(4 328)">
<polygon fill="white" stroke="transparent" points="-4,4 -4,-328 1302.55,-328 1302.55,4 -4,4"/>
<!-- [root] aws_launch_configuration.config -->
<g id="node1" class="node">
<title>[root] aws_launch_configuration.config</title>
<polygon fill="none" stroke="black" points="815.55,-108 618.55,-108 618.55,-72 815.55,-72 815.55,-108"/>
<text text-anchor="middle" x="717.05" y="-86.3" font-family="Times,serif" font-size="14.00">aws_launch_configuration.config</text>
</g>
<!-- [root] provider.aws -->
<g id="node3" class="node">
<title>[root] provider.aws</title>
<polygon fill="none" stroke="black" points="79.05,-36 -0.05,-18 79.05,0 158.14,-18 79.05,-36"/>
<text text-anchor="middle" x="79.05" y="-14.3" font-family="Times,serif" font-size="14.00">provider.aws</text>
</g>
<!-- [root] aws_launch_configuration.config&#45;&gt;[root] provider.aws -->
<g id="edge1" class="edge">
<title>[root] aws_launch_configuration.config&#45;&gt;[root] provider.aws</title>
<path fill="none" stroke="black" d="M618.35,-82.32C508.01,-74.2 324.18,-58.7 167.05,-36 154.29,-34.16 140.57,-31.73 127.85,-29.28"/>
<polygon fill="black" stroke="black" points="128.39,-25.82 117.9,-27.33 127.04,-32.69 128.39,-25.82"/>
</g>
<!-- [root] var.associate_public_ip_address -->
<g id="node4" class="node">
<title>[root] var.associate_public_ip_address</title>
<polygon fill="none" stroke="black" points="361.55,-36 176.55,-36 176.55,0 367.55,0 367.55,-30 361.55,-36"/>
<polyline fill="none" stroke="black" points="361.55,-36 361.55,-30 "/>
<polyline fill="none" stroke="black" points="367.55,-30 361.55,-30 "/>
<text text-anchor="middle" x="272.05" y="-14.3" font-family="Times,serif" font-size="14.00">var.associate_public_ip_address</text>
</g>
<!-- [root] aws_launch_configuration.config&#45;&gt;[root] var.associate_public_ip_address -->
<g id="edge2" class="edge">
<title>[root] aws_launch_configuration.config&#45;&gt;[root] var.associate_public_ip_address</title>
<path fill="none" stroke="black" d="M618.53,-73.9C552.93,-63.79 464.54,-50.08 377.83,-36.28"/>
<polygon fill="black" stroke="black" points="378.24,-32.8 367.81,-34.68 377.14,-39.71 378.24,-32.8"/>
</g>
<!-- [root] var.iam_instance_profile -->
<g id="node5" class="node">
<title>[root] var.iam_instance_profile</title>
<polygon fill="none" stroke="black" points="530.55,-36 385.55,-36 385.55,0 536.55,0 536.55,-30 530.55,-36"/>
<polyline fill="none" stroke="black" points="530.55,-36 530.55,-30 "/>
<polyline fill="none" stroke="black" points="536.55,-30 530.55,-30 "/>
<text text-anchor="middle" x="461.05" y="-14.3" font-family="Times,serif" font-size="14.00">var.iam_instance_profile</text>
</g>
<!-- [root] aws_launch_configuration.config&#45;&gt;[root] var.iam_instance_profile -->
<g id="edge3" class="edge">
<title>[root] aws_launch_configuration.config&#45;&gt;[root] var.iam_instance_profile</title>
<path fill="none" stroke="black" d="M654.75,-71.97C618.2,-61.97 571.85,-49.3 533.66,-38.85"/>
<polygon fill="black" stroke="black" points="534.19,-35.37 523.62,-36.11 532.35,-42.12 534.19,-35.37"/>
</g>
<!-- [root] var.image_id -->
<g id="node6" class="node">
<title>[root] var.image_id</title>
<polygon fill="none" stroke="black" points="637.05,-36 555.05,-36 555.05,0 643.05,0 643.05,-30 637.05,-36"/>
<polyline fill="none" stroke="black" points="637.05,-36 637.05,-30 "/>
<polyline fill="none" stroke="black" points="643.05,-30 637.05,-30 "/>
<text text-anchor="middle" x="599.05" y="-14.3" font-family="Times,serif" font-size="14.00">var.image_id</text>
</g>
<!-- [root] aws_launch_configuration.config&#45;&gt;[root] var.image_id -->
<g id="edge4" class="edge">
<title>[root] aws_launch_configuration.config&#45;&gt;[root] var.image_id</title>
<path fill="none" stroke="black" d="M688.18,-71.88C672.75,-62.72 653.57,-51.34 636.95,-41.48"/>
<polygon fill="black" stroke="black" points="638.41,-38.28 628.02,-36.19 634.84,-44.3 638.41,-38.28"/>
</g>
<!-- [root] var.instance_type -->
<g id="node7" class="node">
<title>[root] var.instance_type</title>
<polygon fill="none" stroke="black" points="766.55,-36 661.55,-36 661.55,0 772.55,0 772.55,-30 766.55,-36"/>
<polyline fill="none" stroke="black" points="766.55,-36 766.55,-30 "/>
<polyline fill="none" stroke="black" points="772.55,-30 766.55,-30 "/>
<text text-anchor="middle" x="717.05" y="-14.3" font-family="Times,serif" font-size="14.00">var.instance_type</text>
</g>
<!-- [root] aws_launch_configuration.config&#45;&gt;[root] var.instance_type -->
<g id="edge5" class="edge">
<title>[root] aws_launch_configuration.config&#45;&gt;[root] var.instance_type</title>
<path fill="none" stroke="black" d="M717.05,-71.7C717.05,-63.98 717.05,-54.71 717.05,-46.11"/>
<polygon fill="black" stroke="black" points="720.55,-46.1 717.05,-36.1 713.55,-46.1 720.55,-46.1"/>
</g>
<!-- [root] var.key_name -->
<g id="node8" class="node">
<title>[root] var.key_name</title>
<polygon fill="none" stroke="black" points="877.55,-36 790.55,-36 790.55,0 883.55,0 883.55,-30 877.55,-36"/>
<polyline fill="none" stroke="black" points="877.55,-36 877.55,-30 "/>
<polyline fill="none" stroke="black" points="883.55,-30 877.55,-30 "/>
<text text-anchor="middle" x="837.05" y="-14.3" font-family="Times,serif" font-size="14.00">var.key_name</text>
</g>
<!-- [root] aws_launch_configuration.config&#45;&gt;[root] var.key_name -->
<g id="edge6" class="edge">
<title>[root] aws_launch_configuration.config&#45;&gt;[root] var.key_name</title>
<path fill="none" stroke="black" d="M746.4,-71.88C762.09,-62.72 781.6,-51.34 798.5,-41.48"/>
<polygon fill="black" stroke="black" points="800.71,-44.25 807.58,-36.19 797.18,-38.21 800.71,-44.25"/>
</g>
<!-- [root] var.name_prefix -->
<g id="node9" class="node">
<title>[root] var.name_prefix</title>
<polygon fill="none" stroke="black" points="1000.55,-36 901.55,-36 901.55,0 1006.55,0 1006.55,-30 1000.55,-36"/>
<polyline fill="none" stroke="black" points="1000.55,-36 1000.55,-30 "/>
<polyline fill="none" stroke="black" points="1006.55,-30 1000.55,-30 "/>
<text text-anchor="middle" x="954.05" y="-14.3" font-family="Times,serif" font-size="14.00">var.name_prefix</text>
</g>
<!-- [root] aws_launch_configuration.config&#45;&gt;[root] var.name_prefix -->
<g id="edge7" class="edge">
<title>[root] aws_launch_configuration.config&#45;&gt;[root] var.name_prefix</title>
<path fill="none" stroke="black" d="M774.72,-71.97C810.04,-61.53 855.25,-48.18 891.44,-37.49"/>
<polygon fill="black" stroke="black" points="892.79,-40.74 901.39,-34.55 890.81,-34.03 892.79,-40.74"/>
</g>
<!-- [root] var.security_groups -->
<g id="node10" class="node">
<title>[root] var.security_groups</title>
<polygon fill="none" stroke="black" points="1141.55,-36 1024.55,-36 1024.55,0 1147.55,0 1147.55,-30 1141.55,-36"/>
<polyline fill="none" stroke="black" points="1141.55,-36 1141.55,-30 "/>
<polyline fill="none" stroke="black" points="1147.55,-30 1141.55,-30 "/>
<text text-anchor="middle" x="1086.05" y="-14.3" font-family="Times,serif" font-size="14.00">var.security_groups</text>
</g>
<!-- [root] aws_launch_configuration.config&#45;&gt;[root] var.security_groups -->
<g id="edge8" class="edge">
<title>[root] aws_launch_configuration.config&#45;&gt;[root] var.security_groups</title>
<path fill="none" stroke="black" d="M815.65,-73.12C871.46,-63.76 942.75,-51.16 1014.18,-36.34"/>
<polygon fill="black" stroke="black" points="1015.19,-39.7 1024.26,-34.23 1013.75,-32.85 1015.19,-39.7"/>
</g>
<!-- [root] var.user_data_base64 -->
<g id="node11" class="node">
<title>[root] var.user_data_base64</title>
<polygon fill="none" stroke="black" points="1292.55,-36 1165.55,-36 1165.55,0 1298.55,0 1298.55,-30 1292.55,-36"/>
<polyline fill="none" stroke="black" points="1292.55,-36 1292.55,-30 "/>
<polyline fill="none" stroke="black" points="1298.55,-30 1292.55,-30 "/>
<text text-anchor="middle" x="1232.05" y="-14.3" font-family="Times,serif" font-size="14.00">var.user_data_base64</text>
</g>
<!-- [root] aws_launch_configuration.config&#45;&gt;[root] var.user_data_base64 -->
<g id="edge9" class="edge">
<title>[root] aws_launch_configuration.config&#45;&gt;[root] var.user_data_base64</title>
<path fill="none" stroke="black" d="M815.77,-80.04C902.86,-71.47 1033.38,-56.97 1155.56,-36.17"/>
<polygon fill="black" stroke="black" points="1156.2,-39.61 1165.46,-34.47 1155.01,-32.71 1156.2,-39.61"/>
</g>
<!-- [root] output.id -->
<g id="node2" class="node">
<title>[root] output.id</title>
<polygon fill="none" stroke="black" points="666.55,-180 607.55,-180 607.55,-144 672.55,-144 672.55,-174 666.55,-180"/>
<polyline fill="none" stroke="black" points="666.55,-180 666.55,-174 "/>
<polyline fill="none" stroke="black" points="672.55,-174 666.55,-174 "/>
<text text-anchor="middle" x="640.05" y="-158.3" font-family="Times,serif" font-size="14.00">output.id</text>
</g>
<!-- [root] output.id&#45;&gt;[root] aws_launch_configuration.config -->
<g id="edge11" class="edge">
<title>[root] output.id&#45;&gt;[root] aws_launch_configuration.config</title>
<path fill="none" stroke="black" d="M659.08,-143.7C668.59,-135.05 680.25,-124.45 690.62,-115.03"/>
<polygon fill="black" stroke="black" points="693.19,-117.42 698.23,-108.1 688.48,-112.24 693.19,-117.42"/>
</g>
<!-- [root] meta.count&#45;boundary (EachMode fixup) -->
<g id="node12" class="node">
<title>[root] meta.count&#45;boundary (EachMode fixup)</title>
<ellipse fill="none" stroke="black" cx="616.05" cy="-234" rx="176.27" ry="18"/>
<text text-anchor="middle" x="616.05" y="-230.3" font-family="Times,serif" font-size="14.00">[root] meta.count&#45;boundary (EachMode fixup)</text>
</g>
<!-- [root] meta.count&#45;boundary (EachMode fixup)&#45;&gt;[root] output.id -->
<g id="edge10" class="edge">
<title>[root] meta.count&#45;boundary (EachMode fixup)&#45;&gt;[root] output.id</title>
<path fill="none" stroke="black" d="M621.98,-215.7C624.65,-207.9 627.87,-198.51 630.85,-189.83"/>
<polygon fill="black" stroke="black" points="634.25,-190.7 634.18,-180.1 627.63,-188.43 634.25,-190.7"/>
</g>
<!-- [root] provider.aws (close) -->
<g id="node13" class="node">
<title>[root] provider.aws (close)</title>
<ellipse fill="none" stroke="black" cx="807.05" cy="-162" rx="104.78" ry="18"/>
<text text-anchor="middle" x="807.05" y="-158.3" font-family="Times,serif" font-size="14.00">[root] provider.aws (close)</text>
</g>
<!-- [root] provider.aws (close)&#45;&gt;[root] aws_launch_configuration.config -->
<g id="edge12" class="edge">
<title>[root] provider.aws (close)&#45;&gt;[root] aws_launch_configuration.config</title>
<path fill="none" stroke="black" d="M785.26,-144.05C773.74,-135.09 759.42,-123.96 746.88,-114.2"/>
<polygon fill="black" stroke="black" points="748.99,-111.41 738.95,-108.03 744.69,-116.93 748.99,-111.41"/>
</g>
<!-- [root] root -->
<g id="node14" class="node">
<title>[root] root</title>
<ellipse fill="none" stroke="black" cx="718.05" cy="-306" rx="47.39" ry="18"/>
<text text-anchor="middle" x="718.05" y="-302.3" font-family="Times,serif" font-size="14.00">[root] root</text>
</g>
<!-- [root] root&#45;&gt;[root] meta.count&#45;boundary (EachMode fixup) -->
<g id="edge13" class="edge">
<title>[root] root&#45;&gt;[root] meta.count&#45;boundary (EachMode fixup)</title>
<path fill="none" stroke="black" d="M696.17,-289.98C682.44,-280.56 664.47,-268.23 649.03,-257.64"/>
<polygon fill="black" stroke="black" points="650.98,-254.73 640.76,-251.96 647.02,-260.5 650.98,-254.73"/>
</g>
<!-- [root] root&#45;&gt;[root] provider.aws (close) -->
<g id="edge14" class="edge">
<title>[root] root&#45;&gt;[root] provider.aws (close)</title>
<path fill="none" stroke="black" d="M750.76,-292.82C768.82,-284.28 789.8,-270.97 801.05,-252 812.05,-233.43 812.85,-208.69 811.3,-190.01"/>
<polygon fill="black" stroke="black" points="814.77,-189.62 810.2,-180.07 807.82,-190.39 814.77,-189.62"/>
</g>
</g>
</svg>
