<?xml version="1.0" encoding="UTF-8" standalone="no"?>
<!DOCTYPE svg PUBLIC "-//W3C//DTD SVG 1.1//EN"
 "http://www.w3.org/Graphics/SVG/1.1/DTD/svg11.dtd">
<!-- Generated by graphviz version 2.44.1 (20200629.0846)
 -->
<!-- Pages: 1 -->
<svg width="941pt" height="332pt"
 viewBox="0.00 0.00 941.05 332.00" xmlns="http://www.w3.org/2000/svg" xmlns:xlink="http://www.w3.org/1999/xlink">
<g id="graph0" class="graph" transform="scale(1 1) rotate(0) translate(4 328)">
<polygon fill="white" stroke="transparent" points="-4,4 -4,-328 937.05,-328 937.05,4 -4,4"/>
<!-- [root] aws_security_group.sg -->
<g id="node1" class="node">
<title>[root] aws_security_group.sg</title>
<polygon fill="none" stroke="black" points="607.55,-108 466.55,-108 466.55,-72 607.55,-72 607.55,-108"/>
<text text-anchor="middle" x="537.05" y="-86.3" font-family="Times,serif" font-size="14.00">aws_security_group.sg</text>
</g>
<!-- [root] provider.aws -->
<g id="node3" class="node">
<title>[root] provider.aws</title>
<polygon fill="none" stroke="black" points="79.05,-36 -0.05,-18 79.05,0 158.14,-18 79.05,-36"/>
<text text-anchor="middle" x="79.05" y="-14.3" font-family="Times,serif" font-size="14.00">provider.aws</text>
</g>
<!-- [root] aws_security_group.sg&#45;&gt;[root] provider.aws -->
<g id="edge1" class="edge">
<title>[root] aws_security_group.sg&#45;&gt;[root] provider.aws</title>
<path fill="none" stroke="black" d="M466.3,-79.91C391.72,-70.07 270.88,-53.45 167.05,-36 154.7,-33.92 141.42,-31.47 129.01,-29.09"/>
<polygon fill="black" stroke="black" points="129.32,-25.58 118.84,-27.11 127.99,-32.46 129.32,-25.58"/>
</g>
<!-- [root] var.default_tags -->
<g id="node4" class="node">
<title>[root] var.default_tags</title>
<polygon fill="none" stroke="black" points="273.55,-36 176.55,-36 176.55,0 279.55,0 279.55,-30 273.55,-36"/>
<polyline fill="none" stroke="black" points="273.55,-36 273.55,-30 "/>
<polyline fill="none" stroke="black" points="279.55,-30 273.55,-30 "/>
<text text-anchor="middle" x="228.05" y="-14.3" font-family="Times,serif" font-size="14.00">var.default_tags</text>
</g>
<!-- [root] aws_security_group.sg&#45;&gt;[root] var.default_tags -->
<g id="edge2" class="edge">
<title>[root] aws_security_group.sg&#45;&gt;[root] var.default_tags</title>
<path fill="none" stroke="black" d="M466.46,-75.28C418.9,-65.73 354.54,-52.23 289.69,-36.34"/>
<polygon fill="black" stroke="black" points="290.25,-32.87 279.7,-33.87 288.57,-39.66 290.25,-32.87"/>
</g>
<!-- [root] var.es_access_cidr -->
<g id="node5" class="node">
<title>[root] var.es_access_cidr</title>
<polygon fill="none" stroke="black" points="408.55,-36 297.55,-36 297.55,0 414.55,0 414.55,-30 408.55,-36"/>
<polyline fill="none" stroke="black" points="408.55,-36 408.55,-30 "/>
<polyline fill="none" stroke="black" points="414.55,-30 408.55,-30 "/>
<text text-anchor="middle" x="356.05" y="-14.3" font-family="Times,serif" font-size="14.00">var.es_access_cidr</text>
</g>
<!-- [root] aws_security_group.sg&#45;&gt;[root] var.es_access_cidr -->
<g id="edge3" class="edge">
<title>[root] aws_security_group.sg&#45;&gt;[root] var.es_access_cidr</title>
<path fill="none" stroke="black" d="M492.77,-71.88C467.7,-62.18 436.15,-49.98 409.68,-39.74"/>
<polygon fill="black" stroke="black" points="410.77,-36.41 400.18,-36.07 408.25,-42.94 410.77,-36.41"/>
</g>
<!-- [root] var.from_port -->
<g id="node6" class="node">
<title>[root] var.from_port</title>
<polygon fill="none" stroke="black" points="519.05,-36 433.05,-36 433.05,0 525.05,0 525.05,-30 519.05,-36"/>
<polyline fill="none" stroke="black" points="519.05,-36 519.05,-30 "/>
<polyline fill="none" stroke="black" points="525.05,-30 519.05,-30 "/>
<text text-anchor="middle" x="479.05" y="-14.3" font-family="Times,serif" font-size="14.00">var.from_port</text>
</g>
<!-- [root] aws_security_group.sg&#45;&gt;[root] var.from_port -->
<g id="edge4" class="edge">
<title>[root] aws_security_group.sg&#45;&gt;[root] var.from_port</title>
<path fill="none" stroke="black" d="M522.71,-71.7C515.76,-63.3 507.28,-53.07 499.65,-43.86"/>
<polygon fill="black" stroke="black" points="502.29,-41.57 493.22,-36.1 496.9,-46.04 502.29,-41.57"/>
</g>
<!-- [root] var.object_sufix -->
<g id="node7" class="node">
<title>[root] var.object_sufix</title>
<polygon fill="none" stroke="black" points="640.55,-36 543.55,-36 543.55,0 646.55,0 646.55,-30 640.55,-36"/>
<polyline fill="none" stroke="black" points="640.55,-36 640.55,-30 "/>
<polyline fill="none" stroke="black" points="646.55,-30 640.55,-30 "/>
<text text-anchor="middle" x="595.05" y="-14.3" font-family="Times,serif" font-size="14.00">var.object_sufix</text>
</g>
<!-- [root] aws_security_group.sg&#45;&gt;[root] var.object_sufix -->
<g id="edge5" class="edge">
<title>[root] aws_security_group.sg&#45;&gt;[root] var.object_sufix</title>
<path fill="none" stroke="black" d="M551.38,-71.7C558.34,-63.3 566.82,-53.07 574.45,-43.86"/>
<polygon fill="black" stroke="black" points="577.19,-46.04 580.88,-36.1 571.8,-41.57 577.19,-46.04"/>
</g>
<!-- [root] var.protocol -->
<g id="node8" class="node">
<title>[root] var.protocol</title>
<polygon fill="none" stroke="black" points="741.05,-36 665.05,-36 665.05,0 747.05,0 747.05,-30 741.05,-36"/>
<polyline fill="none" stroke="black" points="741.05,-36 741.05,-30 "/>
<polyline fill="none" stroke="black" points="747.05,-30 741.05,-30 "/>
<text text-anchor="middle" x="706.05" y="-14.3" font-family="Times,serif" font-size="14.00">var.protocol</text>
</g>
<!-- [root] aws_security_group.sg&#45;&gt;[root] var.protocol -->
<g id="edge6" class="edge">
<title>[root] aws_security_group.sg&#45;&gt;[root] var.protocol</title>
<path fill="none" stroke="black" d="M578.39,-71.88C601.6,-62.26 630.74,-50.19 655.32,-40.01"/>
<polygon fill="black" stroke="black" points="656.94,-43.13 664.84,-36.07 654.26,-36.66 656.94,-43.13"/>
</g>
<!-- [root] var.to_port -->
<g id="node9" class="node">
<title>[root] var.to_port</title>
<polygon fill="none" stroke="black" points="835.05,-36 765.05,-36 765.05,0 841.05,0 841.05,-30 835.05,-36"/>
<polyline fill="none" stroke="black" points="835.05,-36 835.05,-30 "/>
<polyline fill="none" stroke="black" points="841.05,-30 835.05,-30 "/>
<text text-anchor="middle" x="803.05" y="-14.3" font-family="Times,serif" font-size="14.00">var.to_port</text>
</g>
<!-- [root] aws_security_group.sg&#45;&gt;[root] var.to_port -->
<g id="edge7" class="edge">
<title>[root] aws_security_group.sg&#45;&gt;[root] var.to_port</title>
<path fill="none" stroke="black" d="M607.6,-73.99C648.33,-64.85 700.65,-52.28 755.11,-36.13"/>
<polygon fill="black" stroke="black" points="756.37,-39.4 764.94,-33.18 754.36,-32.7 756.37,-39.4"/>
</g>
<!-- [root] var.vpc_id -->
<g id="node10" class="node">
<title>[root] var.vpc_id</title>
<polygon fill="none" stroke="black" points="927.05,-36 859.05,-36 859.05,0 933.05,0 933.05,-30 927.05,-36"/>
<polyline fill="none" stroke="black" points="927.05,-36 927.05,-30 "/>
<polyline fill="none" stroke="black" points="933.05,-30 927.05,-30 "/>
<text text-anchor="middle" x="896.05" y="-14.3" font-family="Times,serif" font-size="14.00">var.vpc_id</text>
</g>
<!-- [root] aws_security_group.sg&#45;&gt;[root] var.vpc_id -->
<g id="edge8" class="edge">
<title>[root] aws_security_group.sg&#45;&gt;[root] var.vpc_id</title>
<path fill="none" stroke="black" d="M607.78,-80.85C669.44,-72.87 761.25,-58.91 848.98,-36.03"/>
<polygon fill="black" stroke="black" points="850.06,-39.36 858.83,-33.42 848.27,-32.6 850.06,-39.36"/>
</g>
<!-- [root] output.sg_id -->
<g id="node2" class="node">
<title>[root] output.sg_id</title>
<polygon fill="none" stroke="black" points="491.05,-180 413.05,-180 413.05,-144 497.05,-144 497.05,-174 491.05,-180"/>
<polyline fill="none" stroke="black" points="491.05,-180 491.05,-174 "/>
<polyline fill="none" stroke="black" points="497.05,-174 491.05,-174 "/>
<text text-anchor="middle" x="455.05" y="-158.3" font-family="Times,serif" font-size="14.00">output.sg_id</text>
</g>
<!-- [root] output.sg_id&#45;&gt;[root] aws_security_group.sg -->
<g id="edge10" class="edge">
<title>[root] output.sg_id&#45;&gt;[root] aws_security_group.sg</title>
<path fill="none" stroke="black" d="M475.32,-143.7C485.55,-134.97 498.11,-124.24 509.23,-114.75"/>
<polygon fill="black" stroke="black" points="511.68,-117.26 517.01,-108.1 507.13,-111.94 511.68,-117.26"/>
</g>
<!-- [root] meta.count&#45;boundary (EachMode fixup) -->
<g id="node11" class="node">
<title>[root] meta.count&#45;boundary (EachMode fixup)</title>
<ellipse fill="none" stroke="black" cx="436.05" cy="-234" rx="176.27" ry="18"/>
<text text-anchor="middle" x="436.05" y="-230.3" font-family="Times,serif" font-size="14.00">[root] meta.count&#45;boundary (EachMode fixup)</text>
</g>
<!-- [root] meta.count&#45;boundary (EachMode fixup)&#45;&gt;[root] output.sg_id -->
<g id="edge9" class="edge">
<title>[root] meta.count&#45;boundary (EachMode fixup)&#45;&gt;[root] output.sg_id</title>
<path fill="none" stroke="black" d="M440.74,-215.7C442.86,-207.9 445.41,-198.51 447.77,-189.83"/>
<polygon fill="black" stroke="black" points="451.16,-190.67 450.4,-180.1 444.41,-188.84 451.16,-190.67"/>
</g>
<!-- [root] provider.aws (close) -->
<g id="node12" class="node">
<title>[root] provider.aws (close)</title>
<ellipse fill="none" stroke="black" cx="630.05" cy="-162" rx="104.78" ry="18"/>
<text text-anchor="middle" x="630.05" y="-158.3" font-family="Times,serif" font-size="14.00">[root] provider.aws (close)</text>
</g>
<!-- [root] provider.aws (close)&#45;&gt;[root] aws_security_group.sg -->
<g id="edge11" class="edge">
<title>[root] provider.aws (close)&#45;&gt;[root] aws_security_group.sg</title>
<path fill="none" stroke="black" d="M607.53,-144.05C595.63,-135.09 580.83,-123.96 567.88,-114.2"/>
<polygon fill="black" stroke="black" points="569.77,-111.25 559.68,-108.03 565.56,-116.84 569.77,-111.25"/>
</g>
<!-- [root] root -->
<g id="node13" class="node">
<title>[root] root</title>
<ellipse fill="none" stroke="black" cx="538.05" cy="-306" rx="47.39" ry="18"/>
<text text-anchor="middle" x="538.05" y="-302.3" font-family="Times,serif" font-size="14.00">[root] root</text>
</g>
<!-- [root] root&#45;&gt;[root] meta.count&#45;boundary (EachMode fixup) -->
<g id="edge12" class="edge">
<title>[root] root&#45;&gt;[root] meta.count&#45;boundary (EachMode fixup)</title>
<path fill="none" stroke="black" d="M516.17,-289.98C502.44,-280.56 484.47,-268.23 469.03,-257.64"/>
<polygon fill="black" stroke="black" points="470.98,-254.73 460.76,-251.96 467.02,-260.5 470.98,-254.73"/>
</g>
<!-- [root] root&#45;&gt;[root] provider.aws (close) -->
<g id="edge13" class="edge">
<title>[root] root&#45;&gt;[root] provider.aws (close)</title>
<path fill="none" stroke="black" d="M570.53,-292.68C588.5,-284.09 609.49,-270.78 621.05,-252 632.34,-233.65 634.04,-209.04 633.22,-190.35"/>
<polygon fill="black" stroke="black" points="636.69,-189.86 632.5,-180.12 629.71,-190.35 636.69,-189.86"/>
</g>
</g>
</svg>
