<?xml version="1.0" encoding="UTF-8" standalone="no"?>
<!DOCTYPE svg PUBLIC "-//W3C//DTD SVG 1.1//EN"
 "http://www.w3.org/Graphics/SVG/1.1/DTD/svg11.dtd">
<!-- Generated by graphviz version 2.44.1 (20200629.0846)
 -->
<!-- Pages: 1 -->
<svg width="644pt" height="260pt"
 viewBox="0.00 0.00 643.55 260.00" xmlns="http://www.w3.org/2000/svg" xmlns:xlink="http://www.w3.org/1999/xlink">
<g id="graph0" class="graph" transform="scale(1 1) rotate(0) translate(4 256)">
<polygon fill="white" stroke="transparent" points="-4,4 -4,-256 639.55,-256 639.55,4 -4,4"/>
<!-- [root] aws_route.route -->
<g id="node1" class="node">
<title>[root] aws_route.route</title>
<polygon fill="none" stroke="black" points="403.05,-108 299.05,-108 299.05,-72 403.05,-72 403.05,-108"/>
<text text-anchor="middle" x="351.05" y="-86.3" font-family="Times,serif" font-size="14.00">aws_route.route</text>
</g>
<!-- [root] provider.aws -->
<g id="node2" class="node">
<title>[root] provider.aws</title>
<polygon fill="none" stroke="black" points="79.05,-36 -0.05,-18 79.05,0 158.14,-18 79.05,-36"/>
<text text-anchor="middle" x="79.05" y="-14.3" font-family="Times,serif" font-size="14.00">provider.aws</text>
</g>
<!-- [root] aws_route.route&#45;&gt;[root] provider.aws -->
<g id="edge1" class="edge">
<title>[root] aws_route.route&#45;&gt;[root] provider.aws</title>
<path fill="none" stroke="black" d="M298.93,-75.59C248.23,-62.54 172.03,-42.93 123.95,-30.56"/>
<polygon fill="black" stroke="black" points="124.69,-27.13 114.14,-28.03 122.95,-33.91 124.69,-27.13"/>
</g>
<!-- [root] var.aws_azs -->
<g id="node3" class="node">
<title>[root] var.aws_azs</title>
<polygon fill="none" stroke="black" points="252.05,-36 176.05,-36 176.05,0 258.05,0 258.05,-30 252.05,-36"/>
<polyline fill="none" stroke="black" points="252.05,-36 252.05,-30 "/>
<polyline fill="none" stroke="black" points="258.05,-30 252.05,-30 "/>
<text text-anchor="middle" x="217.05" y="-14.3" font-family="Times,serif" font-size="14.00">var.aws_azs</text>
</g>
<!-- [root] aws_route.route&#45;&gt;[root] var.aws_azs -->
<g id="edge2" class="edge">
<title>[root] aws_route.route&#45;&gt;[root] var.aws_azs</title>
<path fill="none" stroke="black" d="M318.27,-71.88C300.42,-62.55 278.15,-50.92 259.04,-40.94"/>
<polygon fill="black" stroke="black" points="260.44,-37.72 249.95,-36.19 257.2,-43.92 260.44,-37.72"/>
</g>
<!-- [root] var.external_global_cidr -->
<g id="node4" class="node">
<title>[root] var.external_global_cidr</title>
<polygon fill="none" stroke="black" points="419.55,-36 276.55,-36 276.55,0 425.55,0 425.55,-30 419.55,-36"/>
<polyline fill="none" stroke="black" points="419.55,-36 419.55,-30 "/>
<polyline fill="none" stroke="black" points="425.55,-30 419.55,-30 "/>
<text text-anchor="middle" x="351.05" y="-14.3" font-family="Times,serif" font-size="14.00">var.external_global_cidr</text>
</g>
<!-- [root] aws_route.route&#45;&gt;[root] var.external_global_cidr -->
<g id="edge3" class="edge">
<title>[root] aws_route.route&#45;&gt;[root] var.external_global_cidr</title>
<path fill="none" stroke="black" d="M351.05,-71.7C351.05,-63.98 351.05,-54.71 351.05,-46.11"/>
<polygon fill="black" stroke="black" points="354.55,-46.1 351.05,-36.1 347.55,-46.1 354.55,-46.1"/>
</g>
<!-- [root] var.gw_id -->
<g id="node5" class="node">
<title>[root] var.gw_id</title>
<polygon fill="none" stroke="black" points="508.55,-36 443.55,-36 443.55,0 514.55,0 514.55,-30 508.55,-36"/>
<polyline fill="none" stroke="black" points="508.55,-36 508.55,-30 "/>
<polyline fill="none" stroke="black" points="514.55,-30 508.55,-30 "/>
<text text-anchor="middle" x="479.05" y="-14.3" font-family="Times,serif" font-size="14.00">var.gw_id</text>
</g>
<!-- [root] aws_route.route&#45;&gt;[root] var.gw_id -->
<g id="edge4" class="edge">
<title>[root] aws_route.route&#45;&gt;[root] var.gw_id</title>
<path fill="none" stroke="black" d="M382.36,-71.88C399.25,-62.64 420.29,-51.13 438.43,-41.21"/>
<polygon fill="black" stroke="black" points="440.52,-44.06 447.61,-36.19 437.16,-37.92 440.52,-44.06"/>
</g>
<!-- [root] var.route_tables -->
<g id="node6" class="node">
<title>[root] var.route_tables</title>
<polygon fill="none" stroke="black" points="629.55,-36 532.55,-36 532.55,0 635.55,0 635.55,-30 629.55,-36"/>
<polyline fill="none" stroke="black" points="629.55,-36 629.55,-30 "/>
<polyline fill="none" stroke="black" points="635.55,-30 629.55,-30 "/>
<text text-anchor="middle" x="584.05" y="-14.3" font-family="Times,serif" font-size="14.00">var.route_tables</text>
</g>
<!-- [root] aws_route.route&#45;&gt;[root] var.route_tables -->
<g id="edge5" class="edge">
<title>[root] aws_route.route&#45;&gt;[root] var.route_tables</title>
<path fill="none" stroke="black" d="M403.34,-73.29C438.69,-62.67 485.5,-48.61 522.63,-37.45"/>
<polygon fill="black" stroke="black" points="523.76,-40.77 532.33,-34.54 521.75,-34.06 523.76,-40.77"/>
</g>
<!-- [root] meta.count&#45;boundary (EachMode fixup) -->
<g id="node7" class="node">
<title>[root] meta.count&#45;boundary (EachMode fixup)</title>
<ellipse fill="none" stroke="black" cx="202.05" cy="-162" rx="176.27" ry="18"/>
<text text-anchor="middle" x="202.05" y="-158.3" font-family="Times,serif" font-size="14.00">[root] meta.count&#45;boundary (EachMode fixup)</text>
</g>
<!-- [root] meta.count&#45;boundary (EachMode fixup)&#45;&gt;[root] aws_route.route -->
<g id="edge6" class="edge">
<title>[root] meta.count&#45;boundary (EachMode fixup)&#45;&gt;[root] aws_route.route</title>
<path fill="none" stroke="black" d="M237.74,-144.23C258.08,-134.68 283.77,-122.61 305.55,-112.38"/>
<polygon fill="black" stroke="black" points="307.05,-115.54 314.61,-108.12 304.08,-109.2 307.05,-115.54"/>
</g>
<!-- [root] provider.aws (close) -->
<g id="node8" class="node">
<title>[root] provider.aws (close)</title>
<ellipse fill="none" stroke="black" cx="501.05" cy="-162" rx="104.78" ry="18"/>
<text text-anchor="middle" x="501.05" y="-158.3" font-family="Times,serif" font-size="14.00">[root] provider.aws (close)</text>
</g>
<!-- [root] provider.aws (close)&#45;&gt;[root] aws_route.route -->
<g id="edge7" class="edge">
<title>[root] provider.aws (close)&#45;&gt;[root] aws_route.route</title>
<path fill="none" stroke="black" d="M466.63,-144.94C445.97,-135.3 419.43,-122.91 396.99,-112.44"/>
<polygon fill="black" stroke="black" points="398.2,-109.14 387.66,-108.08 395.24,-115.48 398.2,-109.14"/>
</g>
<!-- [root] root -->
<g id="node9" class="node">
<title>[root] root</title>
<ellipse fill="none" stroke="black" cx="351.05" cy="-234" rx="47.39" ry="18"/>
<text text-anchor="middle" x="351.05" y="-230.3" font-family="Times,serif" font-size="14.00">[root] root</text>
</g>
<!-- [root] root&#45;&gt;[root] meta.count&#45;boundary (EachMode fixup) -->
<g id="edge8" class="edge">
<title>[root] root&#45;&gt;[root] meta.count&#45;boundary (EachMode fixup)</title>
<path fill="none" stroke="black" d="M322.32,-219.5C300.87,-209.43 271.16,-195.47 246.64,-183.95"/>
<polygon fill="black" stroke="black" points="248.06,-180.75 237.52,-179.67 245.09,-187.09 248.06,-180.75"/>
</g>
<!-- [root] root&#45;&gt;[root] provider.aws (close) -->
<g id="edge9" class="edge">
<title>[root] root&#45;&gt;[root] provider.aws (close)</title>
<path fill="none" stroke="black" d="M379.97,-219.5C401.94,-209.25 432.51,-194.98 457.44,-183.35"/>
<polygon fill="black" stroke="black" points="459.11,-186.43 466.69,-179.03 456.15,-180.09 459.11,-186.43"/>
</g>
</g>
</svg>
