<?xml version="1.0" encoding="UTF-8" standalone="no"?>
<!DOCTYPE svg PUBLIC "-//W3C//DTD SVG 1.1//EN"
 "http://www.w3.org/Graphics/SVG/1.1/DTD/svg11.dtd">
<!-- Generated by graphviz version 2.44.1 (20200629.0846)
 -->
<!-- Pages: 1 -->
<svg width="1168pt" height="260pt"
 viewBox="0.00 0.00 1168.00 260.00" xmlns="http://www.w3.org/2000/svg" xmlns:xlink="http://www.w3.org/1999/xlink">
<g id="graph0" class="graph" transform="scale(1 1) rotate(0) translate(4 256)">
<polygon fill="white" stroke="transparent" points="-4,4 -4,-256 1164,-256 1164,4 -4,4"/>
<!-- [root] null_resource.generate_file -->
<g id="node1" class="node">
<title>[root] null_resource.generate_file</title>
<polygon fill="none" stroke="black" points="710,-108 546,-108 546,-72 710,-72 710,-108"/>
<text text-anchor="middle" x="628" y="-86.3" font-family="Times,serif" font-size="14.00">null_resource.generate_file</text>
</g>
<!-- [root] provider.null -->
<g id="node3" class="node">
<title>[root] provider.null</title>
<polygon fill="none" stroke="black" points="805,-36 725.9,-18 805,0 884.1,-18 805,-36"/>
<text text-anchor="middle" x="805" y="-14.3" font-family="Times,serif" font-size="14.00">provider.null</text>
</g>
<!-- [root] null_resource.generate_file&#45;&gt;[root] provider.null -->
<g id="edge3" class="edge">
<title>[root] null_resource.generate_file&#45;&gt;[root] provider.null</title>
<path fill="none" stroke="black" d="M671.3,-71.88C700.96,-60.15 739.88,-44.75 768.08,-33.6"/>
<polygon fill="black" stroke="black" points="769.56,-36.78 777.57,-29.85 766.98,-30.27 769.56,-36.78"/>
</g>
<!-- [root] var.destination_file_path -->
<g id="node4" class="node">
<title>[root] var.destination_file_path</title>
<polygon fill="none" stroke="black" points="144,-36 0,-36 0,0 150,0 150,-30 144,-36"/>
<polyline fill="none" stroke="black" points="144,-36 144,-30 "/>
<polyline fill="none" stroke="black" points="150,-30 144,-30 "/>
<text text-anchor="middle" x="75" y="-14.3" font-family="Times,serif" font-size="14.00">var.destination_file_path</text>
</g>
<!-- [root] null_resource.generate_file&#45;&gt;[root] var.destination_file_path -->
<g id="edge5" class="edge">
<title>[root] null_resource.generate_file&#45;&gt;[root] var.destination_file_path</title>
<path fill="none" stroke="black" d="M545.95,-81.91C454.3,-73.5 301.35,-57.99 160.19,-36.11"/>
<polygon fill="black" stroke="black" points="160.47,-32.61 150.05,-34.53 159.39,-39.53 160.47,-32.61"/>
</g>
<!-- [root] var.execution_count -->
<g id="node5" class="node">
<title>[root] var.execution_count</title>
<polygon fill="none" stroke="black" points="288,-36 168,-36 168,0 294,0 294,-30 288,-36"/>
<polyline fill="none" stroke="black" points="288,-36 288,-30 "/>
<polyline fill="none" stroke="black" points="294,-30 288,-30 "/>
<text text-anchor="middle" x="231" y="-14.3" font-family="Times,serif" font-size="14.00">var.execution_count</text>
</g>
<!-- [root] null_resource.generate_file&#45;&gt;[root] var.execution_count -->
<g id="edge6" class="edge">
<title>[root] null_resource.generate_file&#45;&gt;[root] var.execution_count</title>
<path fill="none" stroke="black" d="M545.9,-77.24C482.4,-67.77 392.09,-53.48 304.05,-36.14"/>
<polygon fill="black" stroke="black" points="304.65,-32.69 294.16,-34.18 303.29,-39.56 304.65,-32.69"/>
</g>
<!-- [root] var.source_template -->
<g id="node6" class="node">
<title>[root] var.source_template</title>
<polygon fill="none" stroke="black" points="1154,-36 1034,-36 1034,0 1160,0 1160,-30 1154,-36"/>
<polyline fill="none" stroke="black" points="1154,-36 1154,-30 "/>
<polyline fill="none" stroke="black" points="1160,-30 1154,-30 "/>
<text text-anchor="middle" x="1097" y="-14.3" font-family="Times,serif" font-size="14.00">var.source_template</text>
</g>
<!-- [root] null_resource.generate_file&#45;&gt;[root] var.source_template -->
<g id="edge7" class="edge">
<title>[root] null_resource.generate_file&#45;&gt;[root] var.source_template</title>
<path fill="none" stroke="black" d="M710.11,-80.44C788.37,-71.74 909.68,-56.82 1023.89,-36.11"/>
<polygon fill="black" stroke="black" points="1024.65,-39.53 1033.86,-34.28 1023.39,-32.64 1024.65,-39.53"/>
</g>
<!-- [root] var.template_depends_on -->
<g id="node7" class="node">
<title>[root] var.template_depends_on</title>
<polygon fill="none" stroke="black" points="461.5,-36 312.5,-36 312.5,0 467.5,0 467.5,-30 461.5,-36"/>
<polyline fill="none" stroke="black" points="461.5,-36 461.5,-30 "/>
<polyline fill="none" stroke="black" points="467.5,-30 461.5,-30 "/>
<text text-anchor="middle" x="390" y="-14.3" font-family="Times,serif" font-size="14.00">var.template_depends_on</text>
</g>
<!-- [root] null_resource.generate_file&#45;&gt;[root] var.template_depends_on -->
<g id="edge8" class="edge">
<title>[root] null_resource.generate_file&#45;&gt;[root] var.template_depends_on</title>
<path fill="none" stroke="black" d="M570.08,-71.97C536.25,-62.01 493.38,-49.41 457.96,-38.99"/>
<polygon fill="black" stroke="black" points="458.76,-35.57 448.18,-36.11 456.78,-42.29 458.76,-35.57"/>
</g>
<!-- [root] var.template_vars -->
<g id="node8" class="node">
<title>[root] var.template_vars</title>
<polygon fill="none" stroke="black" points="1009.5,-36 902.5,-36 902.5,0 1015.5,0 1015.5,-30 1009.5,-36"/>
<polyline fill="none" stroke="black" points="1009.5,-36 1009.5,-30 "/>
<polyline fill="none" stroke="black" points="1015.5,-30 1009.5,-30 "/>
<text text-anchor="middle" x="959" y="-14.3" font-family="Times,serif" font-size="14.00">var.template_vars</text>
</g>
<!-- [root] null_resource.generate_file&#45;&gt;[root] var.template_vars -->
<g id="edge9" class="edge">
<title>[root] null_resource.generate_file&#45;&gt;[root] var.template_vars</title>
<path fill="none" stroke="black" d="M710.02,-73.8C760.04,-64.24 825.47,-51.25 892.3,-36.1"/>
<polygon fill="black" stroke="black" points="893.19,-39.48 902.17,-33.85 891.64,-32.66 893.19,-39.48"/>
</g>
<!-- [root] provisioner.local&#45;exec -->
<g id="node10" class="node">
<title>[root] provisioner.local&#45;exec</title>
<ellipse fill="none" stroke="black" cx="597" cy="-18" rx="111.28" ry="18"/>
<text text-anchor="middle" x="597" y="-14.3" font-family="Times,serif" font-size="14.00">[root] provisioner.local&#45;exec</text>
</g>
<!-- [root] null_resource.generate_file&#45;&gt;[root] provisioner.local&#45;exec -->
<g id="edge4" class="edge">
<title>[root] null_resource.generate_file&#45;&gt;[root] provisioner.local&#45;exec</title>
<path fill="none" stroke="black" d="M620.34,-71.7C616.81,-63.73 612.54,-54.1 608.63,-45.26"/>
<polygon fill="black" stroke="black" points="611.82,-43.83 604.57,-36.1 605.42,-46.67 611.82,-43.83"/>
</g>
<!-- [root] output.rendered_file -->
<g id="node2" class="node">
<title>[root] output.rendered_file</title>
<polygon fill="none" stroke="black" points="1016,-108 896,-108 896,-72 1022,-72 1022,-102 1016,-108"/>
<polyline fill="none" stroke="black" points="1016,-108 1016,-102 "/>
<polyline fill="none" stroke="black" points="1022,-102 1016,-102 "/>
<text text-anchor="middle" x="959" y="-86.3" font-family="Times,serif" font-size="14.00">output.rendered_file</text>
</g>
<!-- [root] output.rendered_file&#45;&gt;[root] var.source_template -->
<g id="edge10" class="edge">
<title>[root] output.rendered_file&#45;&gt;[root] var.source_template</title>
<path fill="none" stroke="black" d="M992.76,-71.88C1011.22,-62.51 1034.28,-50.81 1054.02,-40.8"/>
<polygon fill="black" stroke="black" points="1055.78,-43.83 1063.11,-36.19 1052.61,-37.59 1055.78,-43.83"/>
</g>
<!-- [root] output.rendered_file&#45;&gt;[root] var.template_vars -->
<g id="edge11" class="edge">
<title>[root] output.rendered_file&#45;&gt;[root] var.template_vars</title>
<path fill="none" stroke="black" d="M959,-71.7C959,-63.98 959,-54.71 959,-46.11"/>
<polygon fill="black" stroke="black" points="962.5,-46.1 959,-36.1 955.5,-46.1 962.5,-46.1"/>
</g>
<!-- [root] meta.count&#45;boundary (EachMode fixup) -->
<g id="node9" class="node">
<title>[root] meta.count&#45;boundary (EachMode fixup)</title>
<ellipse fill="none" stroke="black" cx="943" cy="-162" rx="176.27" ry="18"/>
<text text-anchor="middle" x="943" y="-158.3" font-family="Times,serif" font-size="14.00">[root] meta.count&#45;boundary (EachMode fixup)</text>
</g>
<!-- [root] meta.count&#45;boundary (EachMode fixup)&#45;&gt;[root] null_resource.generate_file -->
<g id="edge1" class="edge">
<title>[root] meta.count&#45;boundary (EachMode fixup)&#45;&gt;[root] null_resource.generate_file</title>
<path fill="none" stroke="black" d="M873.09,-145.46C826.28,-135.06 764.32,-121.29 714.42,-110.2"/>
<polygon fill="black" stroke="black" points="715.13,-106.78 704.61,-108.02 713.61,-113.61 715.13,-106.78"/>
</g>
<!-- [root] meta.count&#45;boundary (EachMode fixup)&#45;&gt;[root] output.rendered_file -->
<g id="edge2" class="edge">
<title>[root] meta.count&#45;boundary (EachMode fixup)&#45;&gt;[root] output.rendered_file</title>
<path fill="none" stroke="black" d="M946.96,-143.7C948.72,-135.98 950.84,-126.71 952.8,-118.11"/>
<polygon fill="black" stroke="black" points="956.27,-118.63 955.09,-108.1 949.45,-117.07 956.27,-118.63"/>
</g>
<!-- [root] provider.null (close) -->
<g id="node11" class="node">
<title>[root] provider.null (close)</title>
<ellipse fill="none" stroke="black" cx="644" cy="-162" rx="104.78" ry="18"/>
<text text-anchor="middle" x="644" y="-158.3" font-family="Times,serif" font-size="14.00">[root] provider.null (close)</text>
</g>
<!-- [root] provider.null (close)&#45;&gt;[root] null_resource.generate_file -->
<g id="edge12" class="edge">
<title>[root] provider.null (close)&#45;&gt;[root] null_resource.generate_file</title>
<path fill="none" stroke="black" d="M640.04,-143.7C638.28,-135.98 636.16,-126.71 634.2,-118.11"/>
<polygon fill="black" stroke="black" points="637.55,-117.07 631.91,-108.1 630.73,-118.63 637.55,-117.07"/>
</g>
<!-- [root] provisioner.local&#45;exec (close) -->
<g id="node12" class="node">
<title>[root] provisioner.local&#45;exec (close)</title>
<ellipse fill="none" stroke="black" cx="384" cy="-162" rx="137.58" ry="18"/>
<text text-anchor="middle" x="384" y="-158.3" font-family="Times,serif" font-size="14.00">[root] provisioner.local&#45;exec (close)</text>
</g>
<!-- [root] provisioner.local&#45;exec (close)&#45;&gt;[root] null_resource.generate_file -->
<g id="edge13" class="edge">
<title>[root] provisioner.local&#45;exec (close)&#45;&gt;[root] null_resource.generate_file</title>
<path fill="none" stroke="black" d="M438.45,-145.38C473.91,-135.21 520.48,-121.85 558.59,-110.91"/>
<polygon fill="black" stroke="black" points="559.94,-114.17 568.59,-108.04 558.01,-107.44 559.94,-114.17"/>
</g>
<!-- [root] root -->
<g id="node13" class="node">
<title>[root] root</title>
<ellipse fill="none" stroke="black" cx="644" cy="-234" rx="47.39" ry="18"/>
<text text-anchor="middle" x="644" y="-230.3" font-family="Times,serif" font-size="14.00">[root] root</text>
</g>
<!-- [root] root&#45;&gt;[root] meta.count&#45;boundary (EachMode fixup) -->
<g id="edge14" class="edge">
<title>[root] root&#45;&gt;[root] meta.count&#45;boundary (EachMode fixup)</title>
<path fill="none" stroke="black" d="M683.4,-223.78C729.72,-212.93 807.68,-194.68 866.11,-181"/>
<polygon fill="black" stroke="black" points="867.1,-184.36 876.04,-178.68 865.51,-177.55 867.1,-184.36"/>
</g>
<!-- [root] root&#45;&gt;[root] provider.null (close) -->
<g id="edge15" class="edge">
<title>[root] root&#45;&gt;[root] provider.null (close)</title>
<path fill="none" stroke="black" d="M644,-215.7C644,-207.98 644,-198.71 644,-190.11"/>
<polygon fill="black" stroke="black" points="647.5,-190.1 644,-180.1 640.5,-190.1 647.5,-190.1"/>
</g>
<!-- [root] root&#45;&gt;[root] provisioner.local&#45;exec (close) -->
<g id="edge16" class="edge">
<title>[root] root&#45;&gt;[root] provisioner.local&#45;exec (close)</title>
<path fill="none" stroke="black" d="M606.47,-222.9C565.86,-211.96 500.3,-194.31 450.85,-181"/>
<polygon fill="black" stroke="black" points="451.75,-177.62 441.18,-178.39 449.93,-184.37 451.75,-177.62"/>
</g>
</g>
</svg>
