<?xml version="1.0" encoding="UTF-8" standalone="no"?>
<!DOCTYPE svg PUBLIC "-//W3C//DTD SVG 1.1//EN"
 "http://www.w3.org/Graphics/SVG/1.1/DTD/svg11.dtd">
<!-- Generated by graphviz version 2.44.1 (20200629.0846)
 -->
<!-- Pages: 1 -->
<svg width="846pt" height="260pt"
 viewBox="0.00 0.00 846.05 260.00" xmlns="http://www.w3.org/2000/svg" xmlns:xlink="http://www.w3.org/1999/xlink">
<g id="graph0" class="graph" transform="scale(1 1) rotate(0) translate(4 256)">
<polygon fill="white" stroke="transparent" points="-4,4 -4,-256 842.05,-256 842.05,4 -4,4"/>
<!-- [root] aws_security_group_rule.rule -->
<g id="node1" class="node">
<title>[root] aws_security_group_rule.rule</title>
<polygon fill="none" stroke="black" points="532.05,-108 354.05,-108 354.05,-72 532.05,-72 532.05,-108"/>
<text text-anchor="middle" x="443.05" y="-86.3" font-family="Times,serif" font-size="14.00">aws_security_group_rule.rule</text>
</g>
<!-- [root] provider.aws -->
<g id="node2" class="node">
<title>[root] provider.aws</title>
<polygon fill="none" stroke="black" points="79.05,-36 -0.05,-18 79.05,0 158.14,-18 79.05,-36"/>
<text text-anchor="middle" x="79.05" y="-14.3" font-family="Times,serif" font-size="14.00">provider.aws</text>
</g>
<!-- [root] aws_security_group_rule.rule&#45;&gt;[root] provider.aws -->
<g id="edge1" class="edge">
<title>[root] aws_security_group_rule.rule&#45;&gt;[root] provider.aws</title>
<path fill="none" stroke="black" d="M354.17,-71.96C300.07,-61.58 229.57,-48.04 167.05,-36 154.99,-33.68 142.01,-31.17 129.81,-28.82"/>
<polygon fill="black" stroke="black" points="130.27,-25.34 119.79,-26.88 128.95,-32.21 130.27,-25.34"/>
</g>
<!-- [root] var.description -->
<g id="node3" class="node">
<title>[root] var.description</title>
<polygon fill="none" stroke="black" points="267.55,-36 176.55,-36 176.55,0 273.55,0 273.55,-30 267.55,-36"/>
<polyline fill="none" stroke="black" points="267.55,-36 267.55,-30 "/>
<polyline fill="none" stroke="black" points="273.55,-30 267.55,-30 "/>
<text text-anchor="middle" x="225.05" y="-14.3" font-family="Times,serif" font-size="14.00">var.description</text>
</g>
<!-- [root] aws_security_group_rule.rule&#45;&gt;[root] var.description -->
<g id="edge2" class="edge">
<title>[root] aws_security_group_rule.rule&#45;&gt;[root] var.description</title>
<path fill="none" stroke="black" d="M390,-71.97C357.76,-61.62 316.57,-48.39 283.42,-37.74"/>
<polygon fill="black" stroke="black" points="284.44,-34.4 273.85,-34.67 282.3,-41.06 284.44,-34.4"/>
</g>
<!-- [root] var.from_port -->
<g id="node4" class="node">
<title>[root] var.from_port</title>
<polygon fill="none" stroke="black" points="378.05,-36 292.05,-36 292.05,0 384.05,0 384.05,-30 378.05,-36"/>
<polyline fill="none" stroke="black" points="378.05,-36 378.05,-30 "/>
<polyline fill="none" stroke="black" points="384.05,-30 378.05,-30 "/>
<text text-anchor="middle" x="338.05" y="-14.3" font-family="Times,serif" font-size="14.00">var.from_port</text>
</g>
<!-- [root] aws_security_group_rule.rule&#45;&gt;[root] var.from_port -->
<g id="edge3" class="edge">
<title>[root] aws_security_group_rule.rule&#45;&gt;[root] var.from_port</title>
<path fill="none" stroke="black" d="M417.36,-71.88C403.76,-62.81 386.88,-51.55 372.19,-41.76"/>
<polygon fill="black" stroke="black" points="374.09,-38.82 363.83,-36.19 370.21,-44.65 374.09,-38.82"/>
</g>
<!-- [root] var.protocol -->
<g id="node5" class="node">
<title>[root] var.protocol</title>
<polygon fill="none" stroke="black" points="478.05,-36 402.05,-36 402.05,0 484.05,0 484.05,-30 478.05,-36"/>
<polyline fill="none" stroke="black" points="478.05,-36 478.05,-30 "/>
<polyline fill="none" stroke="black" points="484.05,-30 478.05,-30 "/>
<text text-anchor="middle" x="443.05" y="-14.3" font-family="Times,serif" font-size="14.00">var.protocol</text>
</g>
<!-- [root] aws_security_group_rule.rule&#45;&gt;[root] var.protocol -->
<g id="edge4" class="edge">
<title>[root] aws_security_group_rule.rule&#45;&gt;[root] var.protocol</title>
<path fill="none" stroke="black" d="M443.05,-71.7C443.05,-63.98 443.05,-54.71 443.05,-46.11"/>
<polygon fill="black" stroke="black" points="446.55,-46.1 443.05,-36.1 439.55,-46.1 446.55,-46.1"/>
</g>
<!-- [root] var.rule_type -->
<g id="node6" class="node">
<title>[root] var.rule_type</title>
<polygon fill="none" stroke="black" points="584.05,-36 502.05,-36 502.05,0 590.05,0 590.05,-30 584.05,-36"/>
<polyline fill="none" stroke="black" points="584.05,-36 584.05,-30 "/>
<polyline fill="none" stroke="black" points="590.05,-30 584.05,-30 "/>
<text text-anchor="middle" x="546.05" y="-14.3" font-family="Times,serif" font-size="14.00">var.rule_type</text>
</g>
<!-- [root] aws_security_group_rule.rule&#45;&gt;[root] var.rule_type -->
<g id="edge5" class="edge">
<title>[root] aws_security_group_rule.rule&#45;&gt;[root] var.rule_type</title>
<path fill="none" stroke="black" d="M468.24,-71.88C481.46,-62.89 497.84,-51.76 512.15,-42.03"/>
<polygon fill="black" stroke="black" points="514.45,-44.71 520.75,-36.19 510.52,-38.92 514.45,-44.71"/>
</g>
<!-- [root] var.security_group_id -->
<g id="node7" class="node">
<title>[root] var.security_group_id</title>
<polygon fill="none" stroke="black" points="737.55,-36 608.55,-36 608.55,0 743.55,0 743.55,-30 737.55,-36"/>
<polyline fill="none" stroke="black" points="737.55,-36 737.55,-30 "/>
<polyline fill="none" stroke="black" points="743.55,-30 737.55,-30 "/>
<text text-anchor="middle" x="676.05" y="-14.3" font-family="Times,serif" font-size="14.00">var.security_group_id</text>
</g>
<!-- [root] aws_security_group_rule.rule&#45;&gt;[root] var.security_group_id -->
<g id="edge6" class="edge">
<title>[root] aws_security_group_rule.rule&#45;&gt;[root] var.security_group_id</title>
<path fill="none" stroke="black" d="M499.75,-71.97C532.73,-62.06 574.48,-49.51 609.07,-39.12"/>
<polygon fill="black" stroke="black" points="610.52,-42.34 619.09,-36.11 608.51,-35.64 610.52,-42.34"/>
</g>
<!-- [root] var.to_port -->
<g id="node8" class="node">
<title>[root] var.to_port</title>
<polygon fill="none" stroke="black" points="832.05,-36 762.05,-36 762.05,0 838.05,0 838.05,-30 832.05,-36"/>
<polyline fill="none" stroke="black" points="832.05,-36 832.05,-30 "/>
<polyline fill="none" stroke="black" points="838.05,-30 832.05,-30 "/>
<text text-anchor="middle" x="800.05" y="-14.3" font-family="Times,serif" font-size="14.00">var.to_port</text>
</g>
<!-- [root] aws_security_group_rule.rule&#45;&gt;[root] var.to_port -->
<g id="edge7" class="edge">
<title>[root] aws_security_group_rule.rule&#45;&gt;[root] var.to_port</title>
<path fill="none" stroke="black" d="M532.13,-78.05C592.02,-69.7 672.73,-56.51 751.86,-36.06"/>
<polygon fill="black" stroke="black" points="753.22,-39.33 762.01,-33.4 751.45,-32.56 753.22,-39.33"/>
</g>
<!-- [root] meta.count&#45;boundary (EachMode fixup) -->
<g id="node9" class="node">
<title>[root] meta.count&#45;boundary (EachMode fixup)</title>
<ellipse fill="none" stroke="black" cx="294.05" cy="-162" rx="176.27" ry="18"/>
<text text-anchor="middle" x="294.05" y="-158.3" font-family="Times,serif" font-size="14.00">[root] meta.count&#45;boundary (EachMode fixup)</text>
</g>
<!-- [root] meta.count&#45;boundary (EachMode fixup)&#45;&gt;[root] aws_security_group_rule.rule -->
<g id="edge8" class="edge">
<title>[root] meta.count&#45;boundary (EachMode fixup)&#45;&gt;[root] aws_security_group_rule.rule</title>
<path fill="none" stroke="black" d="M329.74,-144.23C350.08,-134.68 375.77,-122.61 397.55,-112.38"/>
<polygon fill="black" stroke="black" points="399.05,-115.54 406.61,-108.12 396.08,-109.2 399.05,-115.54"/>
</g>
<!-- [root] provider.aws (close) -->
<g id="node10" class="node">
<title>[root] provider.aws (close)</title>
<ellipse fill="none" stroke="black" cx="593.05" cy="-162" rx="104.78" ry="18"/>
<text text-anchor="middle" x="593.05" y="-158.3" font-family="Times,serif" font-size="14.00">[root] provider.aws (close)</text>
</g>
<!-- [root] provider.aws (close)&#45;&gt;[root] aws_security_group_rule.rule -->
<g id="edge9" class="edge">
<title>[root] provider.aws (close)&#45;&gt;[root] aws_security_group_rule.rule</title>
<path fill="none" stroke="black" d="M558.63,-144.94C537.97,-135.3 511.43,-122.91 488.99,-112.44"/>
<polygon fill="black" stroke="black" points="490.2,-109.14 479.66,-108.08 487.24,-115.48 490.2,-109.14"/>
</g>
<!-- [root] root -->
<g id="node11" class="node">
<title>[root] root</title>
<ellipse fill="none" stroke="black" cx="443.05" cy="-234" rx="47.39" ry="18"/>
<text text-anchor="middle" x="443.05" y="-230.3" font-family="Times,serif" font-size="14.00">[root] root</text>
</g>
<!-- [root] root&#45;&gt;[root] meta.count&#45;boundary (EachMode fixup) -->
<g id="edge10" class="edge">
<title>[root] root&#45;&gt;[root] meta.count&#45;boundary (EachMode fixup)</title>
<path fill="none" stroke="black" d="M414.32,-219.5C392.87,-209.43 363.16,-195.47 338.64,-183.95"/>
<polygon fill="black" stroke="black" points="340.06,-180.75 329.52,-179.67 337.09,-187.09 340.06,-180.75"/>
</g>
<!-- [root] root&#45;&gt;[root] provider.aws (close) -->
<g id="edge11" class="edge">
<title>[root] root&#45;&gt;[root] provider.aws (close)</title>
<path fill="none" stroke="black" d="M471.97,-219.5C493.94,-209.25 524.51,-194.98 549.44,-183.35"/>
<polygon fill="black" stroke="black" points="551.11,-186.43 558.69,-179.03 548.15,-180.09 551.11,-186.43"/>
</g>
</g>
</svg>
