<?xml version="1.0" encoding="UTF-8" standalone="no"?>
<!DOCTYPE svg PUBLIC "-//W3C//DTD SVG 1.1//EN"
 "http://www.w3.org/Graphics/SVG/1.1/DTD/svg11.dtd">
<!-- Generated by graphviz version 2.44.1 (20200629.0846)
 -->
<!-- Pages: 1 -->
<svg width="3915pt" height="332pt"
 viewBox="0.00 0.00 3915.00 332.00" xmlns="http://www.w3.org/2000/svg" xmlns:xlink="http://www.w3.org/1999/xlink">
<g id="graph0" class="graph" transform="scale(1 1) rotate(0) translate(4 328)">
<polygon fill="white" stroke="transparent" points="-4,4 -4,-328 3911,-328 3911,4 -4,4"/>
<!-- [root] data.aws_eks_cluster.main -->
<g id="node1" class="node">
<title>[root] data.aws_eks_cluster.main</title>
<polygon fill="none" stroke="black" points="627.5,-180 465.5,-180 465.5,-144 627.5,-144 627.5,-180"/>
<text text-anchor="middle" x="546.5" y="-158.3" font-family="Times,serif" font-size="14.00">data.aws_eks_cluster.main</text>
</g>
<!-- [root] provider.aws -->
<g id="node12" class="node">
<title>[root] provider.aws</title>
<polygon fill="none" stroke="black" points="653.5,-108 574.4,-90 653.5,-72 732.6,-90 653.5,-108"/>
<text text-anchor="middle" x="653.5" y="-86.3" font-family="Times,serif" font-size="14.00">provider.aws</text>
</g>
<!-- [root] data.aws_eks_cluster.main&#45;&gt;[root] provider.aws -->
<g id="edge1" class="edge">
<title>[root] data.aws_eks_cluster.main&#45;&gt;[root] provider.aws</title>
<path fill="none" stroke="black" d="M572.68,-143.88C588.65,-133.43 609.07,-120.07 625.38,-109.39"/>
<polygon fill="black" stroke="black" points="627.52,-112.18 633.97,-103.78 623.69,-106.32 627.52,-112.18"/>
</g>
<!-- [root] var.default_tags -->
<g id="node14" class="node">
<title>[root] var.default_tags</title>
<polygon fill="none" stroke="black" points="681,-36 584,-36 584,0 687,0 687,-30 681,-36"/>
<polyline fill="none" stroke="black" points="681,-36 681,-30 "/>
<polyline fill="none" stroke="black" points="687,-30 681,-30 "/>
<text text-anchor="middle" x="635.5" y="-14.3" font-family="Times,serif" font-size="14.00">var.default_tags</text>
</g>
<!-- [root] data.aws_eks_cluster.main&#45;&gt;[root] var.default_tags -->
<g id="edge2" class="edge">
<title>[root] data.aws_eks_cluster.main&#45;&gt;[root] var.default_tags</title>
<path fill="none" stroke="black" d="M546.67,-143.94C547.61,-124.98 551.42,-94.13 565.5,-72 573,-60.21 584.1,-50.07 595.26,-41.91"/>
<polygon fill="black" stroke="black" points="597.5,-44.62 603.75,-36.06 593.53,-38.85 597.5,-44.62"/>
</g>
<!-- [root] data.aws_eks_cluster_auth.main_cluster_auth -->
<g id="node2" class="node">
<title>[root] data.aws_eks_cluster_auth.main_cluster_auth</title>
<polygon fill="none" stroke="black" points="911.5,-180 645.5,-180 645.5,-144 911.5,-144 911.5,-180"/>
<text text-anchor="middle" x="778.5" y="-158.3" font-family="Times,serif" font-size="14.00">data.aws_eks_cluster_auth.main_cluster_auth</text>
</g>
<!-- [root] data.aws_eks_cluster_auth.main_cluster_auth&#45;&gt;[root] provider.aws -->
<g id="edge3" class="edge">
<title>[root] data.aws_eks_cluster_auth.main_cluster_auth&#45;&gt;[root] provider.aws</title>
<path fill="none" stroke="black" d="M747.92,-143.88C728.45,-132.97 703.34,-118.91 683.9,-108.03"/>
<polygon fill="black" stroke="black" points="685.58,-104.95 675.14,-103.12 682.16,-111.06 685.58,-104.95"/>
</g>
<!-- [root] data.aws_eks_cluster_auth.main_cluster_auth&#45;&gt;[root] var.default_tags -->
<g id="edge4" class="edge">
<title>[root] data.aws_eks_cluster_auth.main_cluster_auth&#45;&gt;[root] var.default_tags</title>
<path fill="none" stroke="black" d="M775.19,-143.97C770.62,-124.46 760.67,-92.56 741.5,-72 729.18,-58.79 712.85,-48.41 696.7,-40.47"/>
<polygon fill="black" stroke="black" points="697.8,-37.12 687.25,-36.08 694.84,-43.47 697.8,-37.12"/>
</g>
<!-- [root] helm_release.cert&#45;manager -->
<g id="node3" class="node">
<title>[root] helm_release.cert&#45;manager</title>
<polygon fill="none" stroke="black" points="1459.5,-108 1295.5,-108 1295.5,-72 1459.5,-72 1459.5,-108"/>
<text text-anchor="middle" x="1377.5" y="-86.3" font-family="Times,serif" font-size="14.00">helm_release.cert&#45;manager</text>
</g>
<!-- [root] provider.helm -->
<g id="node13" class="node">
<title>[root] provider.helm</title>
<polygon fill="none" stroke="black" points="1542.5,-36 1457.04,-18 1542.5,0 1627.96,-18 1542.5,-36"/>
<text text-anchor="middle" x="1542.5" y="-14.3" font-family="Times,serif" font-size="14.00">provider.helm</text>
</g>
<!-- [root] helm_release.cert&#45;manager&#45;&gt;[root] provider.helm -->
<g id="edge5" class="edge">
<title>[root] helm_release.cert&#45;manager&#45;&gt;[root] provider.helm</title>
<path fill="none" stroke="black" d="M1417.86,-71.88C1444.85,-60.43 1480.06,-45.49 1506.17,-34.41"/>
<polygon fill="black" stroke="black" points="1507.86,-37.5 1515.7,-30.37 1505.12,-31.06 1507.86,-37.5"/>
</g>
<!-- [root] helm_release.cert&#45;manager&#45;&gt;[root] var.default_tags -->
<g id="edge6" class="edge">
<title>[root] helm_release.cert&#45;manager&#45;&gt;[root] var.default_tags</title>
<path fill="none" stroke="black" d="M1295.48,-87.87C1168.67,-84.96 917.48,-74.6 697.19,-36.11"/>
<polygon fill="black" stroke="black" points="697.52,-32.61 687.06,-34.31 696.3,-39.5 697.52,-32.61"/>
</g>
<!-- [root] var.kubernetes_helm_certmanager_chart_name -->
<g id="node16" class="node">
<title>[root] var.kubernetes_helm_certmanager_chart_name</title>
<polygon fill="none" stroke="black" points="1131,-36 862,-36 862,0 1137,0 1137,-30 1131,-36"/>
<polyline fill="none" stroke="black" points="1131,-36 1131,-30 "/>
<polyline fill="none" stroke="black" points="1137,-30 1131,-30 "/>
<text text-anchor="middle" x="999.5" y="-14.3" font-family="Times,serif" font-size="14.00">var.kubernetes_helm_certmanager_chart_name</text>
</g>
<!-- [root] helm_release.cert&#45;manager&#45;&gt;[root] var.kubernetes_helm_certmanager_chart_name -->
<g id="edge7" class="edge">
<title>[root] helm_release.cert&#45;manager&#45;&gt;[root] var.kubernetes_helm_certmanager_chart_name</title>
<path fill="none" stroke="black" d="M1295.48,-73.81C1238.51,-63.26 1162.19,-49.13 1101.32,-37.86"/>
<polygon fill="black" stroke="black" points="1101.78,-34.38 1091.31,-36 1100.5,-41.26 1101.78,-34.38"/>
</g>
<!-- [root] var.kubernetes_helm_certmanager_chart_version -->
<g id="node17" class="node">
<title>[root] var.kubernetes_helm_certmanager_chart_version</title>
<polygon fill="none" stroke="black" points="1433.5,-36 1155.5,-36 1155.5,0 1439.5,0 1439.5,-30 1433.5,-36"/>
<polyline fill="none" stroke="black" points="1433.5,-36 1433.5,-30 "/>
<polyline fill="none" stroke="black" points="1439.5,-30 1433.5,-30 "/>
<text text-anchor="middle" x="1297.5" y="-14.3" font-family="Times,serif" font-size="14.00">var.kubernetes_helm_certmanager_chart_version</text>
</g>
<!-- [root] helm_release.cert&#45;manager&#45;&gt;[root] var.kubernetes_helm_certmanager_chart_version -->
<g id="edge8" class="edge">
<title>[root] helm_release.cert&#45;manager&#45;&gt;[root] var.kubernetes_helm_certmanager_chart_version</title>
<path fill="none" stroke="black" d="M1357.72,-71.7C1347.75,-62.97 1335.49,-52.24 1324.64,-42.75"/>
<polygon fill="black" stroke="black" points="1326.88,-40.06 1317.05,-36.1 1322.27,-45.32 1326.88,-40.06"/>
</g>
<!-- [root] helm_release.dashboard -->
<g id="node4" class="node">
<title>[root] helm_release.dashboard</title>
<polygon fill="none" stroke="black" points="1778.5,-108 1630.5,-108 1630.5,-72 1778.5,-72 1778.5,-108"/>
<text text-anchor="middle" x="1704.5" y="-86.3" font-family="Times,serif" font-size="14.00">helm_release.dashboard</text>
</g>
<!-- [root] helm_release.dashboard&#45;&gt;[root] provider.helm -->
<g id="edge9" class="edge">
<title>[root] helm_release.dashboard&#45;&gt;[root] provider.helm</title>
<path fill="none" stroke="black" d="M1664.87,-71.88C1638.46,-60.46 1604.02,-45.58 1578.41,-34.52"/>
<polygon fill="black" stroke="black" points="1579.63,-31.23 1569.06,-30.48 1576.85,-37.66 1579.63,-31.23"/>
</g>
<!-- [root] helm_release.dashboard&#45;&gt;[root] var.default_tags -->
<g id="edge10" class="edge">
<title>[root] helm_release.dashboard&#45;&gt;[root] var.default_tags</title>
<path fill="none" stroke="black" d="M1630.39,-83.18C1583.91,-79.65 1522.73,-75.22 1468.5,-72 1128.53,-51.84 1036.75,-90.47 697.16,-36.05"/>
<polygon fill="black" stroke="black" points="697.47,-32.56 687.04,-34.41 696.35,-39.47 697.47,-32.56"/>
</g>
<!-- [root] var.kubernetes_helm_dashboard_chart_name -->
<g id="node18" class="node">
<title>[root] var.kubernetes_helm_dashboard_chart_name</title>
<polygon fill="none" stroke="black" points="1903,-36 1646,-36 1646,0 1909,0 1909,-30 1903,-36"/>
<polyline fill="none" stroke="black" points="1903,-36 1903,-30 "/>
<polyline fill="none" stroke="black" points="1909,-30 1903,-30 "/>
<text text-anchor="middle" x="1777.5" y="-14.3" font-family="Times,serif" font-size="14.00">var.kubernetes_helm_dashboard_chart_name</text>
</g>
<!-- [root] helm_release.dashboard&#45;&gt;[root] var.kubernetes_helm_dashboard_chart_name -->
<g id="edge11" class="edge">
<title>[root] helm_release.dashboard&#45;&gt;[root] var.kubernetes_helm_dashboard_chart_name</title>
<path fill="none" stroke="black" d="M1722.54,-71.7C1731.56,-63.05 1742.62,-52.45 1752.44,-43.03"/>
<polygon fill="black" stroke="black" points="1754.87,-45.55 1759.66,-36.1 1750.02,-40.5 1754.87,-45.55"/>
</g>
<!-- [root] var.kubernetes_helm_dashboard_chart_version -->
<g id="node19" class="node">
<title>[root] var.kubernetes_helm_dashboard_chart_version</title>
<polygon fill="none" stroke="black" points="2193.5,-36 1927.5,-36 1927.5,0 2199.5,0 2199.5,-30 2193.5,-36"/>
<polyline fill="none" stroke="black" points="2193.5,-36 2193.5,-30 "/>
<polyline fill="none" stroke="black" points="2199.5,-30 2193.5,-30 "/>
<text text-anchor="middle" x="2063.5" y="-14.3" font-family="Times,serif" font-size="14.00">var.kubernetes_helm_dashboard_chart_version</text>
</g>
<!-- [root] helm_release.dashboard&#45;&gt;[root] var.kubernetes_helm_dashboard_chart_version -->
<g id="edge12" class="edge">
<title>[root] helm_release.dashboard&#45;&gt;[root] var.kubernetes_helm_dashboard_chart_version</title>
<path fill="none" stroke="black" d="M1778.89,-74.5C1833.15,-63.92 1907.2,-49.48 1966.17,-37.98"/>
<polygon fill="black" stroke="black" points="1967.1,-41.36 1976.24,-36.01 1965.76,-34.49 1967.1,-41.36"/>
</g>
<!-- [root] helm_release.external_dns -->
<g id="node5" class="node">
<title>[root] helm_release.external_dns</title>
<polygon fill="none" stroke="black" points="950,-108 789,-108 789,-72 950,-72 950,-108"/>
<text text-anchor="middle" x="869.5" y="-86.3" font-family="Times,serif" font-size="14.00">helm_release.external_dns</text>
</g>
<!-- [root] helm_release.external_dns&#45;&gt;[root] provider.helm -->
<g id="edge13" class="edge">
<title>[root] helm_release.external_dns&#45;&gt;[root] provider.helm</title>
<path fill="none" stroke="black" d="M950.31,-83.85C1062.45,-76.19 1271.46,-60.06 1448.5,-36 1462.25,-34.13 1477.05,-31.67 1490.75,-29.2"/>
<polygon fill="black" stroke="black" points="1491.78,-32.57 1500.98,-27.32 1490.51,-25.68 1491.78,-32.57"/>
</g>
<!-- [root] helm_release.external_dns&#45;&gt;[root] var.default_tags -->
<g id="edge14" class="edge">
<title>[root] helm_release.external_dns&#45;&gt;[root] var.default_tags</title>
<path fill="none" stroke="black" d="M812.56,-71.97C777.56,-61.5 732.73,-48.09 696.94,-37.38"/>
<polygon fill="black" stroke="black" points="697.68,-33.95 687.1,-34.44 695.68,-40.65 697.68,-33.95"/>
</g>
<!-- [root] var.kubernetes_helm_externaldns_chart_name -->
<g id="node20" class="node">
<title>[root] var.kubernetes_helm_externaldns_chart_name</title>
<polygon fill="none" stroke="black" points="263,-36 0,-36 0,0 269,0 269,-30 263,-36"/>
<polyline fill="none" stroke="black" points="263,-36 263,-30 "/>
<polyline fill="none" stroke="black" points="269,-30 263,-30 "/>
<text text-anchor="middle" x="134.5" y="-14.3" font-family="Times,serif" font-size="14.00">var.kubernetes_helm_externaldns_chart_name</text>
</g>
<!-- [root] helm_release.external_dns&#45;&gt;[root] var.kubernetes_helm_externaldns_chart_name -->
<g id="edge15" class="edge">
<title>[root] helm_release.external_dns&#45;&gt;[root] var.kubernetes_helm_externaldns_chart_name</title>
<path fill="none" stroke="black" d="M788.67,-77.58C773.04,-75.57 756.77,-73.61 741.5,-72 539.11,-50.72 485.08,-56.03 279.44,-36.17"/>
<polygon fill="black" stroke="black" points="279.5,-32.66 269.21,-35.17 278.82,-39.62 279.5,-32.66"/>
</g>
<!-- [root] var.kubernetes_helm_externaldns_chart_version -->
<g id="node21" class="node">
<title>[root] var.kubernetes_helm_externaldns_chart_version</title>
<polygon fill="none" stroke="black" points="560,-36 287,-36 287,0 566,0 566,-30 560,-36"/>
<polyline fill="none" stroke="black" points="560,-36 560,-30 "/>
<polyline fill="none" stroke="black" points="566,-30 560,-30 "/>
<text text-anchor="middle" x="426.5" y="-14.3" font-family="Times,serif" font-size="14.00">var.kubernetes_helm_externaldns_chart_version</text>
</g>
<!-- [root] helm_release.external_dns&#45;&gt;[root] var.kubernetes_helm_externaldns_chart_version -->
<g id="edge16" class="edge">
<title>[root] helm_release.external_dns&#45;&gt;[root] var.kubernetes_helm_externaldns_chart_version</title>
<path fill="none" stroke="black" d="M788.76,-76.24C720.45,-65.45 621.65,-49.84 544.48,-37.64"/>
<polygon fill="black" stroke="black" points="544.64,-34.12 534.22,-36.02 543.55,-41.04 544.64,-34.12"/>
</g>
<!-- [root] var.root_infra_domain -->
<g id="node30" class="node">
<title>[root] var.root_infra_domain</title>
<polygon fill="none" stroke="black" points="838,-36 705,-36 705,0 844,0 844,-30 838,-36"/>
<polyline fill="none" stroke="black" points="838,-36 838,-30 "/>
<polyline fill="none" stroke="black" points="844,-30 838,-30 "/>
<text text-anchor="middle" x="774.5" y="-14.3" font-family="Times,serif" font-size="14.00">var.root_infra_domain</text>
</g>
<!-- [root] helm_release.external_dns&#45;&gt;[root] var.root_infra_domain -->
<g id="edge17" class="edge">
<title>[root] helm_release.external_dns&#45;&gt;[root] var.root_infra_domain</title>
<path fill="none" stroke="black" d="M846.02,-71.7C833.94,-62.8 819.05,-51.82 805.98,-42.2"/>
<polygon fill="black" stroke="black" points="807.84,-39.22 797.71,-36.1 803.69,-44.85 807.84,-39.22"/>
</g>
<!-- [root] helm_release.metric&#45;metrics -->
<g id="node6" class="node">
<title>[root] helm_release.metric&#45;metrics</title>
<polygon fill="none" stroke="black" points="2478,-108 2305,-108 2305,-72 2478,-72 2478,-108"/>
<text text-anchor="middle" x="2391.5" y="-86.3" font-family="Times,serif" font-size="14.00">helm_release.metric&#45;metrics</text>
</g>
<!-- [root] helm_release.metric&#45;metrics&#45;&gt;[root] provider.helm -->
<g id="edge18" class="edge">
<title>[root] helm_release.metric&#45;metrics&#45;&gt;[root] provider.helm</title>
<path fill="none" stroke="black" d="M2304.96,-73.18C2301.77,-72.76 2298.61,-72.36 2295.5,-72 2004.55,-38.4 1928.42,-69.86 1637.5,-36 1623.17,-34.33 1607.73,-31.86 1593.55,-29.32"/>
<polygon fill="black" stroke="black" points="1593.96,-25.84 1583.49,-27.47 1592.69,-32.72 1593.96,-25.84"/>
</g>
<!-- [root] var.kubernetes_helm_metrics&#45;server_chart_name -->
<g id="node26" class="node">
<title>[root] var.kubernetes_helm_metrics&#45;server_chart_name</title>
<polygon fill="none" stroke="black" points="3588,-36 3309,-36 3309,0 3594,0 3594,-30 3588,-36"/>
<polyline fill="none" stroke="black" points="3588,-36 3588,-30 "/>
<polyline fill="none" stroke="black" points="3594,-30 3588,-30 "/>
<text text-anchor="middle" x="3451.5" y="-14.3" font-family="Times,serif" font-size="14.00">var.kubernetes_helm_metrics&#45;server_chart_name</text>
</g>
<!-- [root] helm_release.metric&#45;metrics&#45;&gt;[root] var.kubernetes_helm_metrics&#45;server_chart_name -->
<g id="edge19" class="edge">
<title>[root] helm_release.metric&#45;metrics&#45;&gt;[root] var.kubernetes_helm_metrics&#45;server_chart_name</title>
<path fill="none" stroke="black" d="M2478.31,-85.47C2638.31,-78.62 2990.72,-61.97 3298.7,-36.04"/>
<polygon fill="black" stroke="black" points="3299.05,-39.52 3308.72,-35.19 3298.46,-32.55 3299.05,-39.52"/>
</g>
<!-- [root] var.kubernetes_helm_metrics&#45;server_chart_version -->
<g id="node27" class="node">
<title>[root] var.kubernetes_helm_metrics&#45;server_chart_version</title>
<polygon fill="none" stroke="black" points="3901,-36 3612,-36 3612,0 3907,0 3907,-30 3901,-36"/>
<polyline fill="none" stroke="black" points="3901,-36 3901,-30 "/>
<polyline fill="none" stroke="black" points="3907,-30 3901,-30 "/>
<text text-anchor="middle" x="3759.5" y="-14.3" font-family="Times,serif" font-size="14.00">var.kubernetes_helm_metrics&#45;server_chart_version</text>
</g>
<!-- [root] helm_release.metric&#45;metrics&#45;&gt;[root] var.kubernetes_helm_metrics&#45;server_chart_version -->
<g id="edge20" class="edge">
<title>[root] helm_release.metric&#45;metrics&#45;&gt;[root] var.kubernetes_helm_metrics&#45;server_chart_version</title>
<path fill="none" stroke="black" d="M2478.32,-87.14C2675.92,-82.47 3174.56,-68.34 3601.65,-36.11"/>
<polygon fill="black" stroke="black" points="3602.01,-39.6 3611.72,-35.35 3601.48,-32.62 3602.01,-39.6"/>
</g>
<!-- [root] helm_release.state&#45;metrics -->
<g id="node7" class="node">
<title>[root] helm_release.state&#45;metrics</title>
<polygon fill="none" stroke="black" points="2286.5,-108 2124.5,-108 2124.5,-72 2286.5,-72 2286.5,-108"/>
<text text-anchor="middle" x="2205.5" y="-86.3" font-family="Times,serif" font-size="14.00">helm_release.state&#45;metrics</text>
</g>
<!-- [root] helm_release.state&#45;metrics&#45;&gt;[root] provider.helm -->
<g id="edge21" class="edge">
<title>[root] helm_release.state&#45;metrics&#45;&gt;[root] provider.helm</title>
<path fill="none" stroke="black" d="M2124.13,-73.21C2121.22,-72.78 2118.34,-72.37 2115.5,-72 1904.28,-44.19 1848.85,-62.8 1637.5,-36 1623.32,-34.2 1608.05,-31.72 1593.98,-29.2"/>
<polygon fill="black" stroke="black" points="1594.44,-25.73 1583.98,-27.37 1593.19,-32.61 1594.44,-25.73"/>
</g>
<!-- [root] var.kubernetes_helm_kube&#45;sm_chart_name -->
<g id="node24" class="node">
<title>[root] var.kubernetes_helm_kube&#45;sm_chart_name</title>
<polygon fill="none" stroke="black" points="3284.5,-36 3036.5,-36 3036.5,0 3290.5,0 3290.5,-30 3284.5,-36"/>
<polyline fill="none" stroke="black" points="3284.5,-36 3284.5,-30 "/>
<polyline fill="none" stroke="black" points="3290.5,-30 3284.5,-30 "/>
<text text-anchor="middle" x="3163.5" y="-14.3" font-family="Times,serif" font-size="14.00">var.kubernetes_helm_kube&#45;sm_chart_name</text>
</g>
<!-- [root] helm_release.state&#45;metrics&#45;&gt;[root] var.kubernetes_helm_kube&#45;sm_chart_name -->
<g id="edge22" class="edge">
<title>[root] helm_release.state&#45;metrics&#45;&gt;[root] var.kubernetes_helm_kube&#45;sm_chart_name</title>
<path fill="none" stroke="black" d="M2286.78,-73.25C2290.06,-72.8 2293.31,-72.38 2296.5,-72 2616.25,-34.44 2701.7,-63.58 3026.32,-36.06"/>
<polygon fill="black" stroke="black" points="3026.82,-39.53 3036.48,-35.18 3026.22,-32.55 3026.82,-39.53"/>
</g>
<!-- [root] var.kubernetes_helm_kube&#45;sm_chart_version -->
<g id="node25" class="node">
<title>[root] var.kubernetes_helm_kube&#45;sm_chart_version</title>
<polygon fill="none" stroke="black" points="3012.5,-36 2754.5,-36 2754.5,0 3018.5,0 3018.5,-30 3012.5,-36"/>
<polyline fill="none" stroke="black" points="3012.5,-36 3012.5,-30 "/>
<polyline fill="none" stroke="black" points="3018.5,-30 3012.5,-30 "/>
<text text-anchor="middle" x="2886.5" y="-14.3" font-family="Times,serif" font-size="14.00">var.kubernetes_helm_kube&#45;sm_chart_version</text>
</g>
<!-- [root] helm_release.state&#45;metrics&#45;&gt;[root] var.kubernetes_helm_kube&#45;sm_chart_version -->
<g id="edge23" class="edge">
<title>[root] helm_release.state&#45;metrics&#45;&gt;[root] var.kubernetes_helm_kube&#45;sm_chart_version</title>
<path fill="none" stroke="black" d="M2286.8,-73.38C2290.07,-72.89 2293.31,-72.42 2296.5,-72 2491.65,-46.02 2544.56,-55.65 2744.19,-36.1"/>
<polygon fill="black" stroke="black" points="2744.82,-39.56 2754.42,-35.09 2744.13,-32.59 2744.82,-39.56"/>
</g>
<!-- [root] local.options -->
<g id="node8" class="node">
<title>[root] local.options</title>
<polygon fill="none" stroke="black" points="2100.5,-108 2020.5,-108 2020.5,-72 2106.5,-72 2106.5,-102 2100.5,-108"/>
<polyline fill="none" stroke="black" points="2100.5,-108 2100.5,-102 "/>
<polyline fill="none" stroke="black" points="2106.5,-102 2100.5,-102 "/>
<text text-anchor="middle" x="2063.5" y="-86.3" font-family="Times,serif" font-size="14.00">local.options</text>
</g>
<!-- [root] local.options&#45;&gt;[root] var.default_tags -->
<g id="edge24" class="edge">
<title>[root] local.options&#45;&gt;[root] var.default_tags</title>
<path fill="none" stroke="black" d="M2020.49,-85.97C1966.22,-82.23 1869.98,-75.9 1787.5,-72 1548.17,-60.69 951.41,-73.04 697.04,-35.97"/>
<polygon fill="black" stroke="black" points="697.44,-32.49 687.03,-34.46 696.4,-39.41 697.44,-32.49"/>
</g>
<!-- [root] local.options&#45;&gt;[root] var.kubernetes_helm_dashboard_chart_name -->
<g id="edge25" class="edge">
<title>[root] local.options&#45;&gt;[root] var.kubernetes_helm_dashboard_chart_name</title>
<path fill="none" stroke="black" d="M2020.37,-78.44C1977.27,-67.9 1910,-51.43 1857.17,-38.5"/>
<polygon fill="black" stroke="black" points="1857.69,-35.02 1847.14,-36.05 1856.03,-41.82 1857.69,-35.02"/>
</g>
<!-- [root] local.options&#45;&gt;[root] var.kubernetes_helm_dashboard_chart_version -->
<g id="edge26" class="edge">
<title>[root] local.options&#45;&gt;[root] var.kubernetes_helm_dashboard_chart_version</title>
<path fill="none" stroke="black" d="M2063.5,-71.7C2063.5,-63.98 2063.5,-54.71 2063.5,-46.11"/>
<polygon fill="black" stroke="black" points="2067,-46.1 2063.5,-36.1 2060,-46.1 2067,-46.1"/>
</g>
<!-- [root] var.kubernetes_helm_ingress_chart_name -->
<g id="node22" class="node">
<title>[root] var.kubernetes_helm_ingress_chart_name</title>
<polygon fill="none" stroke="black" points="2457,-36 2218,-36 2218,0 2463,0 2463,-30 2457,-36"/>
<polyline fill="none" stroke="black" points="2457,-36 2457,-30 "/>
<polyline fill="none" stroke="black" points="2463,-30 2457,-30 "/>
<text text-anchor="middle" x="2340.5" y="-14.3" font-family="Times,serif" font-size="14.00">var.kubernetes_helm_ingress_chart_name</text>
</g>
<!-- [root] local.options&#45;&gt;[root] var.kubernetes_helm_ingress_chart_name -->
<g id="edge27" class="edge">
<title>[root] local.options&#45;&gt;[root] var.kubernetes_helm_ingress_chart_name</title>
<path fill="none" stroke="black" d="M2106.54,-74.62C2109.57,-73.7 2112.57,-72.82 2115.5,-72 2159.86,-59.55 2209.67,-47.61 2251.14,-38.22"/>
<polygon fill="black" stroke="black" points="2251.96,-41.63 2260.94,-36.02 2250.42,-34.8 2251.96,-41.63"/>
</g>
<!-- [root] var.kubernetes_helm_ingress_chart_version -->
<g id="node23" class="node">
<title>[root] var.kubernetes_helm_ingress_chart_version</title>
<polygon fill="none" stroke="black" points="2730,-36 2481,-36 2481,0 2736,0 2736,-30 2730,-36"/>
<polyline fill="none" stroke="black" points="2730,-36 2730,-30 "/>
<polyline fill="none" stroke="black" points="2736,-30 2730,-30 "/>
<text text-anchor="middle" x="2608.5" y="-14.3" font-family="Times,serif" font-size="14.00">var.kubernetes_helm_ingress_chart_version</text>
</g>
<!-- [root] local.options&#45;&gt;[root] var.kubernetes_helm_ingress_chart_version -->
<g id="edge28" class="edge">
<title>[root] local.options&#45;&gt;[root] var.kubernetes_helm_ingress_chart_version</title>
<path fill="none" stroke="black" d="M2106.72,-74.1C2109.67,-73.32 2112.62,-72.61 2115.5,-72 2268.33,-39.71 2312.24,-53.3 2470.64,-36.18"/>
<polygon fill="black" stroke="black" points="2471.18,-39.64 2480.74,-35.06 2470.42,-32.68 2471.18,-39.64"/>
</g>
<!-- [root] local.options&#45;&gt;[root] var.kubernetes_helm_kube&#45;sm_chart_name -->
<g id="edge29" class="edge">
<title>[root] local.options&#45;&gt;[root] var.kubernetes_helm_kube&#45;sm_chart_name</title>
<path fill="none" stroke="black" d="M2106.68,-73.89C2109.64,-73.16 2112.6,-72.52 2115.5,-72 2511.45,-0.89 2621.39,-68.05 3026.26,-36.05"/>
<polygon fill="black" stroke="black" points="3026.8,-39.51 3036.49,-35.22 3026.24,-32.54 3026.8,-39.51"/>
</g>
<!-- [root] local.options&#45;&gt;[root] var.kubernetes_helm_kube&#45;sm_chart_version -->
<g id="edge30" class="edge">
<title>[root] local.options&#45;&gt;[root] var.kubernetes_helm_kube&#45;sm_chart_version</title>
<path fill="none" stroke="black" d="M2106.69,-73.95C2109.65,-73.21 2112.61,-72.55 2115.5,-72 2387.86,-20.6 2464.36,-59.85 2744.38,-36.05"/>
<polygon fill="black" stroke="black" points="2744.77,-39.53 2754.43,-35.18 2744.17,-32.56 2744.77,-39.53"/>
</g>
<!-- [root] local.options&#45;&gt;[root] var.kubernetes_helm_metrics&#45;server_chart_name -->
<g id="edge31" class="edge">
<title>[root] local.options&#45;&gt;[root] var.kubernetes_helm_metrics&#45;server_chart_name</title>
<path fill="none" stroke="black" d="M2106.68,-73.86C2109.64,-73.14 2112.6,-72.51 2115.5,-72 2371.63,-27.19 3020.82,-53.97 3298.6,-36"/>
<polygon fill="black" stroke="black" points="3298.99,-39.48 3308.73,-35.31 3298.51,-32.49 3298.99,-39.48"/>
</g>
<!-- [root] local.options&#45;&gt;[root] var.kubernetes_helm_metrics&#45;server_chart_version -->
<g id="edge32" class="edge">
<title>[root] local.options&#45;&gt;[root] var.kubernetes_helm_metrics&#45;server_chart_version</title>
<path fill="none" stroke="black" d="M2106.67,-73.84C2109.64,-73.13 2112.6,-72.5 2115.5,-72 2438.31,-16.56 3257.26,-57.13 3601.68,-36.06"/>
<polygon fill="black" stroke="black" points="3601.97,-39.55 3611.73,-35.42 3601.52,-32.57 3601.97,-39.55"/>
</g>
<!-- [root] local.options&#45;&gt;[root] var.root_infra_domain -->
<g id="edge33" class="edge">
<title>[root] local.options&#45;&gt;[root] var.root_infra_domain</title>
<path fill="none" stroke="black" d="M2020.49,-86.04C1966.21,-82.38 1869.97,-76.13 1787.5,-72 1375.5,-51.38 1266.78,-87.89 854.25,-36.09"/>
<polygon fill="black" stroke="black" points="854.5,-32.6 844.14,-34.81 853.62,-39.54 854.5,-32.6"/>
</g>
<!-- [root] output.certmanager -->
<g id="node9" class="node">
<title>[root] output.certmanager</title>
<polygon fill="none" stroke="black" points="1597.5,-180 1481.5,-180 1481.5,-144 1603.5,-144 1603.5,-174 1597.5,-180"/>
<polyline fill="none" stroke="black" points="1597.5,-180 1597.5,-174 "/>
<polyline fill="none" stroke="black" points="1603.5,-174 1597.5,-174 "/>
<text text-anchor="middle" x="1542.5" y="-158.3" font-family="Times,serif" font-size="14.00">output.certmanager</text>
</g>
<!-- [root] output.certmanager&#45;&gt;[root] helm_release.cert&#45;manager -->
<g id="edge45" class="edge">
<title>[root] output.certmanager&#45;&gt;[root] helm_release.cert&#45;manager</title>
<path fill="none" stroke="black" d="M1502.14,-143.88C1479.48,-134.26 1451.03,-122.19 1427.03,-112.01"/>
<polygon fill="black" stroke="black" points="1428.31,-108.75 1417.73,-108.07 1425.57,-115.2 1428.31,-108.75"/>
</g>
<!-- [root] output.external_dns -->
<g id="node10" class="node">
<title>[root] output.external_dns</title>
<polygon fill="none" stroke="black" points="1047.5,-180 929.5,-180 929.5,-144 1053.5,-144 1053.5,-174 1047.5,-180"/>
<polyline fill="none" stroke="black" points="1047.5,-180 1047.5,-174 "/>
<polyline fill="none" stroke="black" points="1053.5,-174 1047.5,-174 "/>
<text text-anchor="middle" x="991.5" y="-158.3" font-family="Times,serif" font-size="14.00">output.external_dns</text>
</g>
<!-- [root] output.external_dns&#45;&gt;[root] helm_release.external_dns -->
<g id="edge46" class="edge">
<title>[root] output.external_dns&#45;&gt;[root] helm_release.external_dns</title>
<path fill="none" stroke="black" d="M961.66,-143.88C945.56,-134.64 925.5,-123.13 908.21,-113.21"/>
<polygon fill="black" stroke="black" points="909.87,-110.13 899.46,-108.19 906.39,-116.2 909.87,-110.13"/>
</g>
<!-- [root] output.toString -->
<g id="node11" class="node">
<title>[root] output.toString</title>
<polygon fill="none" stroke="black" points="1751.5,-180 1659.5,-180 1659.5,-144 1757.5,-144 1757.5,-174 1751.5,-180"/>
<polyline fill="none" stroke="black" points="1751.5,-180 1751.5,-174 "/>
<polyline fill="none" stroke="black" points="1757.5,-174 1751.5,-174 "/>
<text text-anchor="middle" x="1708.5" y="-158.3" font-family="Times,serif" font-size="14.00">output.toString</text>
</g>
<!-- [root] output.toString&#45;&gt;[root] local.options -->
<g id="edge47" class="edge">
<title>[root] output.toString&#45;&gt;[root] local.options</title>
<path fill="none" stroke="black" d="M1757.76,-146.17C1760.71,-145.4 1763.64,-144.67 1766.5,-144 1851.09,-124.12 1950.77,-107.75 2010.46,-98.69"/>
<polygon fill="black" stroke="black" points="2011.04,-102.14 2020.41,-97.19 2010,-95.22 2011.04,-102.14"/>
</g>
<!-- [root] var.enable_k8s_security -->
<g id="node15" class="node">
<title>[root] var.enable_k8s_security</title>
<polygon fill="none" stroke="black" points="1213,-180 1072,-180 1072,-144 1219,-144 1219,-174 1213,-180"/>
<polyline fill="none" stroke="black" points="1213,-180 1213,-174 "/>
<polyline fill="none" stroke="black" points="1219,-174 1213,-174 "/>
<text text-anchor="middle" x="1145.5" y="-158.3" font-family="Times,serif" font-size="14.00">var.enable_k8s_security</text>
</g>
<!-- [root] var.login_depends_on -->
<g id="node28" class="node">
<title>[root] var.login_depends_on</title>
<polygon fill="none" stroke="black" points="1367.5,-180 1237.5,-180 1237.5,-144 1373.5,-144 1373.5,-174 1367.5,-180"/>
<polyline fill="none" stroke="black" points="1367.5,-180 1367.5,-174 "/>
<polyline fill="none" stroke="black" points="1373.5,-174 1367.5,-174 "/>
<text text-anchor="middle" x="1305.5" y="-158.3" font-family="Times,serif" font-size="14.00">var.login_depends_on</text>
</g>
<!-- [root] var.region -->
<g id="node29" class="node">
<title>[root] var.region</title>
<polygon fill="none" stroke="black" points="1457,-180 1392,-180 1392,-144 1463,-144 1463,-174 1457,-180"/>
<polyline fill="none" stroke="black" points="1457,-180 1457,-174 "/>
<polyline fill="none" stroke="black" points="1463,-174 1457,-174 "/>
<text text-anchor="middle" x="1427.5" y="-158.3" font-family="Times,serif" font-size="14.00">var.region</text>
</g>
<!-- [root] meta.count&#45;boundary (EachMode fixup) -->
<g id="node31" class="node">
<title>[root] meta.count&#45;boundary (EachMode fixup)</title>
<ellipse fill="none" stroke="black" cx="1427.5" cy="-234" rx="176.27" ry="18"/>
<text text-anchor="middle" x="1427.5" y="-230.3" font-family="Times,serif" font-size="14.00">[root] meta.count&#45;boundary (EachMode fixup)</text>
</g>
<!-- [root] meta.count&#45;boundary (EachMode fixup)&#45;&gt;[root] data.aws_eks_cluster.main -->
<g id="edge34" class="edge">
<title>[root] meta.count&#45;boundary (EachMode fixup)&#45;&gt;[root] data.aws_eks_cluster.main</title>
<path fill="none" stroke="black" d="M1262.19,-227.69C1104.2,-221.28 859.25,-207.85 638.05,-180.11"/>
<polygon fill="black" stroke="black" points="638.23,-176.61 627.87,-178.82 637.35,-183.55 638.23,-176.61"/>
</g>
<!-- [root] meta.count&#45;boundary (EachMode fixup)&#45;&gt;[root] data.aws_eks_cluster_auth.main_cluster_auth -->
<g id="edge35" class="edge">
<title>[root] meta.count&#45;boundary (EachMode fixup)&#45;&gt;[root] data.aws_eks_cluster_auth.main_cluster_auth</title>
<path fill="none" stroke="black" d="M1306.57,-220.87C1206.32,-210.7 1059.79,-195.55 921.86,-180.14"/>
<polygon fill="black" stroke="black" points="921.85,-176.62 911.52,-178.99 921.07,-183.58 921.85,-176.62"/>
</g>
<!-- [root] meta.count&#45;boundary (EachMode fixup)&#45;&gt;[root] helm_release.dashboard -->
<g id="edge36" class="edge">
<title>[root] meta.count&#45;boundary (EachMode fixup)&#45;&gt;[root] helm_release.dashboard</title>
<path fill="none" stroke="black" d="M1511.57,-218.1C1544.5,-209.96 1581.69,-197.8 1612.5,-180 1614.5,-178.84 1652.84,-141.52 1679.39,-115.58"/>
<polygon fill="black" stroke="black" points="1682.16,-117.77 1686.86,-108.27 1677.26,-112.76 1682.16,-117.77"/>
</g>
<!-- [root] meta.count&#45;boundary (EachMode fixup)&#45;&gt;[root] helm_release.metric&#45;metrics -->
<g id="edge37" class="edge">
<title>[root] meta.count&#45;boundary (EachMode fixup)&#45;&gt;[root] helm_release.metric&#45;metrics</title>
<path fill="none" stroke="black" d="M1592.21,-227.56C1721.45,-221.3 1905.48,-208.01 2064.5,-180 2158.88,-163.37 2265.55,-131.87 2330.65,-111.16"/>
<polygon fill="black" stroke="black" points="2331.88,-114.44 2340.34,-108.06 2329.75,-107.77 2331.88,-114.44"/>
</g>
<!-- [root] meta.count&#45;boundary (EachMode fixup)&#45;&gt;[root] helm_release.state&#45;metrics -->
<g id="edge38" class="edge">
<title>[root] meta.count&#45;boundary (EachMode fixup)&#45;&gt;[root] helm_release.state&#45;metrics</title>
<path fill="none" stroke="black" d="M1602.02,-231.4C1717.31,-226.83 1870.85,-213.97 2002.5,-180 2061.96,-164.66 2126.16,-133.86 2166.1,-112.84"/>
<polygon fill="black" stroke="black" points="2167.79,-115.9 2174.97,-108.12 2164.5,-109.72 2167.79,-115.9"/>
</g>
<!-- [root] meta.count&#45;boundary (EachMode fixup)&#45;&gt;[root] output.certmanager -->
<g id="edge39" class="edge">
<title>[root] meta.count&#45;boundary (EachMode fixup)&#45;&gt;[root] output.certmanager</title>
<path fill="none" stroke="black" d="M1455.34,-216.05C1470.48,-206.84 1489.41,-195.32 1505.75,-185.37"/>
<polygon fill="black" stroke="black" points="1507.8,-188.22 1514.52,-180.03 1504.16,-182.24 1507.8,-188.22"/>
</g>
<!-- [root] meta.count&#45;boundary (EachMode fixup)&#45;&gt;[root] output.external_dns -->
<g id="edge40" class="edge">
<title>[root] meta.count&#45;boundary (EachMode fixup)&#45;&gt;[root] output.external_dns</title>
<path fill="none" stroke="black" d="M1318.46,-219.8C1248.25,-210.68 1154.86,-197.39 1063.72,-180.15"/>
<polygon fill="black" stroke="black" points="1064.25,-176.69 1053.77,-178.25 1062.93,-183.56 1064.25,-176.69"/>
</g>
<!-- [root] meta.count&#45;boundary (EachMode fixup)&#45;&gt;[root] output.toString -->
<g id="edge41" class="edge">
<title>[root] meta.count&#45;boundary (EachMode fixup)&#45;&gt;[root] output.toString</title>
<path fill="none" stroke="black" d="M1493.91,-217.31C1537.16,-206.98 1594.75,-193.01 1645.5,-180 1646.77,-179.68 1648.04,-179.35 1649.33,-179.01"/>
<polygon fill="black" stroke="black" points="1650.56,-182.31 1659.35,-176.39 1648.79,-175.54 1650.56,-182.31"/>
</g>
<!-- [root] meta.count&#45;boundary (EachMode fixup)&#45;&gt;[root] var.enable_k8s_security -->
<g id="edge42" class="edge">
<title>[root] meta.count&#45;boundary (EachMode fixup)&#45;&gt;[root] var.enable_k8s_security</title>
<path fill="none" stroke="black" d="M1363.86,-217.2C1322.48,-206.93 1268.22,-193.46 1224.15,-182.52"/>
<polygon fill="black" stroke="black" points="1224.88,-179.1 1214.33,-180.09 1223.19,-185.89 1224.88,-179.1"/>
</g>
<!-- [root] meta.count&#45;boundary (EachMode fixup)&#45;&gt;[root] var.login_depends_on -->
<g id="edge43" class="edge">
<title>[root] meta.count&#45;boundary (EachMode fixup)&#45;&gt;[root] var.login_depends_on</title>
<path fill="none" stroke="black" d="M1398.28,-216.23C1382.07,-206.93 1361.71,-195.25 1344.19,-185.2"/>
<polygon fill="black" stroke="black" points="1345.75,-182.06 1335.33,-180.12 1342.26,-188.13 1345.75,-182.06"/>
</g>
<!-- [root] meta.count&#45;boundary (EachMode fixup)&#45;&gt;[root] var.region -->
<g id="edge44" class="edge">
<title>[root] meta.count&#45;boundary (EachMode fixup)&#45;&gt;[root] var.region</title>
<path fill="none" stroke="black" d="M1427.5,-215.7C1427.5,-207.98 1427.5,-198.71 1427.5,-190.11"/>
<polygon fill="black" stroke="black" points="1431,-190.1 1427.5,-180.1 1424,-190.1 1431,-190.1"/>
</g>
<!-- [root] provider.aws (close) -->
<g id="node32" class="node">
<title>[root] provider.aws (close)</title>
<ellipse fill="none" stroke="black" cx="778.5" cy="-234" rx="104.78" ry="18"/>
<text text-anchor="middle" x="778.5" y="-230.3" font-family="Times,serif" font-size="14.00">[root] provider.aws (close)</text>
</g>
<!-- [root] provider.aws (close)&#45;&gt;[root] data.aws_eks_cluster.main -->
<g id="edge48" class="edge">
<title>[root] provider.aws (close)&#45;&gt;[root] data.aws_eks_cluster.main</title>
<path fill="none" stroke="black" d="M729.01,-218.07C695.18,-207.86 649.93,-194.21 612.96,-183.05"/>
<polygon fill="black" stroke="black" points="613.84,-179.66 603.26,-180.12 611.82,-186.36 613.84,-179.66"/>
</g>
<!-- [root] provider.aws (close)&#45;&gt;[root] data.aws_eks_cluster_auth.main_cluster_auth -->
<g id="edge49" class="edge">
<title>[root] provider.aws (close)&#45;&gt;[root] data.aws_eks_cluster_auth.main_cluster_auth</title>
<path fill="none" stroke="black" d="M778.5,-215.7C778.5,-207.98 778.5,-198.71 778.5,-190.11"/>
<polygon fill="black" stroke="black" points="782,-190.1 778.5,-180.1 775,-190.1 782,-190.1"/>
</g>
<!-- [root] provider.helm (close) -->
<g id="node33" class="node">
<title>[root] provider.helm (close)</title>
<ellipse fill="none" stroke="black" cx="1884.5" cy="-162" rx="109.38" ry="18"/>
<text text-anchor="middle" x="1884.5" y="-158.3" font-family="Times,serif" font-size="14.00">[root] provider.helm (close)</text>
</g>
<!-- [root] provider.helm (close)&#45;&gt;[root] helm_release.cert&#45;manager -->
<g id="edge50" class="edge">
<title>[root] provider.helm (close)&#45;&gt;[root] helm_release.cert&#45;manager</title>
<path fill="none" stroke="black" d="M1805.49,-149.53C1792.47,-147.67 1779.11,-145.77 1766.5,-144 1665.24,-129.81 1549.08,-114.05 1470.25,-103.43"/>
<polygon fill="black" stroke="black" points="1470.24,-99.9 1459.86,-102.04 1469.31,-106.84 1470.24,-99.9"/>
</g>
<!-- [root] provider.helm (close)&#45;&gt;[root] helm_release.dashboard -->
<g id="edge51" class="edge">
<title>[root] provider.helm (close)&#45;&gt;[root] helm_release.dashboard</title>
<path fill="none" stroke="black" d="M1843.66,-145.12C1818.23,-135.23 1785.26,-122.41 1757.79,-111.72"/>
<polygon fill="black" stroke="black" points="1758.92,-108.41 1748.33,-108.04 1756.38,-114.93 1758.92,-108.41"/>
</g>
<!-- [root] provider.helm (close)&#45;&gt;[root] helm_release.external_dns -->
<g id="edge52" class="edge">
<title>[root] provider.helm (close)&#45;&gt;[root] helm_release.external_dns</title>
<path fill="none" stroke="black" d="M1808.44,-149.08C1794.52,-147.18 1780.09,-145.38 1766.5,-144 1472.63,-114.2 1122.77,-99.49 960.5,-93.85"/>
<polygon fill="black" stroke="black" points="960.2,-90.34 950.09,-93.49 959.96,-97.33 960.2,-90.34"/>
</g>
<!-- [root] provider.helm (close)&#45;&gt;[root] helm_release.metric&#45;metrics -->
<g id="edge53" class="edge">
<title>[root] provider.helm (close)&#45;&gt;[root] helm_release.metric&#45;metrics</title>
<path fill="none" stroke="black" d="M1971.26,-151.01C2052.28,-141.41 2176.81,-125.95 2294.97,-108.04"/>
<polygon fill="black" stroke="black" points="2295.57,-111.49 2304.92,-106.52 2294.51,-104.57 2295.57,-111.49"/>
</g>
<!-- [root] provider.helm (close)&#45;&gt;[root] helm_release.state&#45;metrics -->
<g id="edge54" class="edge">
<title>[root] provider.helm (close)&#45;&gt;[root] helm_release.state&#45;metrics</title>
<path fill="none" stroke="black" d="M1947.54,-147.25C1996.01,-136.68 2063.57,-121.95 2117.39,-110.21"/>
<polygon fill="black" stroke="black" points="2118.25,-113.61 2127.27,-108.06 2116.76,-106.77 2118.25,-113.61"/>
</g>
<!-- [root] root -->
<g id="node34" class="node">
<title>[root] root</title>
<ellipse fill="none" stroke="black" cx="1427.5" cy="-306" rx="47.39" ry="18"/>
<text text-anchor="middle" x="1427.5" y="-302.3" font-family="Times,serif" font-size="14.00">[root] root</text>
</g>
<!-- [root] root&#45;&gt;[root] meta.count&#45;boundary (EachMode fixup) -->
<g id="edge55" class="edge">
<title>[root] root&#45;&gt;[root] meta.count&#45;boundary (EachMode fixup)</title>
<path fill="none" stroke="black" d="M1427.5,-287.7C1427.5,-279.98 1427.5,-270.71 1427.5,-262.11"/>
<polygon fill="black" stroke="black" points="1431,-262.1 1427.5,-252.1 1424,-262.1 1431,-262.1"/>
</g>
<!-- [root] root&#45;&gt;[root] provider.aws (close) -->
<g id="edge56" class="edge">
<title>[root] root&#45;&gt;[root] provider.aws (close)</title>
<path fill="none" stroke="black" d="M1382.38,-300.13C1277.81,-288.85 1017,-260.72 874.75,-245.38"/>
<polygon fill="black" stroke="black" points="875.03,-241.89 864.71,-244.3 874.28,-248.85 875.03,-241.89"/>
</g>
<!-- [root] root&#45;&gt;[root] provider.helm (close) -->
<g id="edge57" class="edge">
<title>[root] root&#45;&gt;[root] provider.helm (close)</title>
<path fill="none" stroke="black" d="M1464.83,-294.75C1502.28,-284.36 1561.55,-267.63 1612.5,-252 1688.01,-228.84 1774.61,-200.13 1829.43,-181.69"/>
<polygon fill="black" stroke="black" points="1830.59,-184.99 1838.94,-178.48 1828.35,-178.36 1830.59,-184.99"/>
</g>
</g>
</svg>
