<?xml version="1.0" encoding="UTF-8" standalone="no"?>
<!DOCTYPE svg PUBLIC "-//W3C//DTD SVG 1.1//EN"
 "http://www.w3.org/Graphics/SVG/1.1/DTD/svg11.dtd">
<!-- Generated by graphviz version 2.44.1 (20200629.0846)
 -->
<!-- Pages: 1 -->
<svg width="1044pt" height="332pt"
 viewBox="0.00 0.00 1043.55 332.00" xmlns="http://www.w3.org/2000/svg" xmlns:xlink="http://www.w3.org/1999/xlink">
<g id="graph0" class="graph" transform="scale(1 1) rotate(0) translate(4 328)">
<polygon fill="white" stroke="transparent" points="-4,4 -4,-328 1039.55,-328 1039.55,4 -4,4"/>
<!-- [root] aws_vpc.vpc -->
<g id="node1" class="node">
<title>[root] aws_vpc.vpc</title>
<polygon fill="none" stroke="black" points="550.55,-108 463.55,-108 463.55,-72 550.55,-72 550.55,-108"/>
<text text-anchor="middle" x="507.05" y="-86.3" font-family="Times,serif" font-size="14.00">aws_vpc.vpc</text>
</g>
<!-- [root] provider.aws -->
<g id="node5" class="node">
<title>[root] provider.aws</title>
<polygon fill="none" stroke="black" points="79.05,-36 -0.05,-18 79.05,0 158.14,-18 79.05,-36"/>
<text text-anchor="middle" x="79.05" y="-14.3" font-family="Times,serif" font-size="14.00">provider.aws</text>
</g>
<!-- [root] aws_vpc.vpc&#45;&gt;[root] provider.aws -->
<g id="edge1" class="edge">
<title>[root] aws_vpc.vpc&#45;&gt;[root] provider.aws</title>
<path fill="none" stroke="black" d="M463.49,-82.73C398.73,-73.28 273.27,-54.53 167.05,-36 154.71,-33.85 141.44,-31.37 129.03,-28.98"/>
<polygon fill="black" stroke="black" points="129.34,-25.48 118.86,-27.01 128.01,-32.35 129.34,-25.48"/>
</g>
<!-- [root] var.basenamevpc -->
<g id="node6" class="node">
<title>[root] var.basenamevpc</title>
<polygon fill="none" stroke="black" points="280.05,-36 176.05,-36 176.05,0 286.05,0 286.05,-30 280.05,-36"/>
<polyline fill="none" stroke="black" points="280.05,-36 280.05,-30 "/>
<polyline fill="none" stroke="black" points="286.05,-30 280.05,-30 "/>
<text text-anchor="middle" x="231.05" y="-14.3" font-family="Times,serif" font-size="14.00">var.basenamevpc</text>
</g>
<!-- [root] aws_vpc.vpc&#45;&gt;[root] var.basenamevpc -->
<g id="edge2" class="edge">
<title>[root] aws_vpc.vpc&#45;&gt;[root] var.basenamevpc</title>
<path fill="none" stroke="black" d="M463.15,-78.22C422.34,-68.16 359.59,-52.58 295.99,-36.23"/>
<polygon fill="black" stroke="black" points="296.75,-32.81 286.19,-33.7 295,-39.59 296.75,-32.81"/>
</g>
<!-- [root] var.default_tags -->
<g id="node7" class="node">
<title>[root] var.default_tags</title>
<polygon fill="none" stroke="black" points="401.55,-36 304.55,-36 304.55,0 407.55,0 407.55,-30 401.55,-36"/>
<polyline fill="none" stroke="black" points="401.55,-36 401.55,-30 "/>
<polyline fill="none" stroke="black" points="407.55,-30 401.55,-30 "/>
<text text-anchor="middle" x="356.05" y="-14.3" font-family="Times,serif" font-size="14.00">var.default_tags</text>
</g>
<!-- [root] aws_vpc.vpc&#45;&gt;[root] var.default_tags -->
<g id="edge3" class="edge">
<title>[root] aws_vpc.vpc&#45;&gt;[root] var.default_tags</title>
<path fill="none" stroke="black" d="M470.11,-71.88C449.56,-62.35 423.8,-50.41 401.96,-40.28"/>
<polygon fill="black" stroke="black" points="403.41,-37.1 392.87,-36.07 400.47,-43.45 403.41,-37.1"/>
</g>
<!-- [root] var.enable_dns_hostnames -->
<g id="node8" class="node">
<title>[root] var.enable_dns_hostnames</title>
<polygon fill="none" stroke="black" points="582.05,-36 426.05,-36 426.05,0 588.05,0 588.05,-30 582.05,-36"/>
<polyline fill="none" stroke="black" points="582.05,-36 582.05,-30 "/>
<polyline fill="none" stroke="black" points="588.05,-30 582.05,-30 "/>
<text text-anchor="middle" x="507.05" y="-14.3" font-family="Times,serif" font-size="14.00">var.enable_dns_hostnames</text>
</g>
<!-- [root] aws_vpc.vpc&#45;&gt;[root] var.enable_dns_hostnames -->
<g id="edge4" class="edge">
<title>[root] aws_vpc.vpc&#45;&gt;[root] var.enable_dns_hostnames</title>
<path fill="none" stroke="black" d="M507.05,-71.7C507.05,-63.98 507.05,-54.71 507.05,-46.11"/>
<polygon fill="black" stroke="black" points="510.55,-46.1 507.05,-36.1 503.55,-46.1 510.55,-46.1"/>
</g>
<!-- [root] var.enable_dns_support -->
<g id="node9" class="node">
<title>[root] var.enable_dns_support</title>
<polygon fill="none" stroke="black" points="745.55,-36 606.55,-36 606.55,0 751.55,0 751.55,-30 745.55,-36"/>
<polyline fill="none" stroke="black" points="745.55,-36 745.55,-30 "/>
<polyline fill="none" stroke="black" points="751.55,-30 745.55,-30 "/>
<text text-anchor="middle" x="679.05" y="-14.3" font-family="Times,serif" font-size="14.00">var.enable_dns_support</text>
</g>
<!-- [root] aws_vpc.vpc&#45;&gt;[root] var.enable_dns_support -->
<g id="edge5" class="edge">
<title>[root] aws_vpc.vpc&#45;&gt;[root] var.enable_dns_support</title>
<path fill="none" stroke="black" d="M549.12,-71.88C572.85,-62.22 602.66,-50.09 627.75,-39.88"/>
<polygon fill="black" stroke="black" points="629.17,-43.08 637.11,-36.07 626.53,-36.6 629.17,-43.08"/>
</g>
<!-- [root] var.object_sequence -->
<g id="node10" class="node">
<title>[root] var.object_sequence</title>
<polygon fill="none" stroke="black" points="890.05,-36 770.05,-36 770.05,0 896.05,0 896.05,-30 890.05,-36"/>
<polyline fill="none" stroke="black" points="890.05,-36 890.05,-30 "/>
<polyline fill="none" stroke="black" points="896.05,-30 890.05,-30 "/>
<text text-anchor="middle" x="833.05" y="-14.3" font-family="Times,serif" font-size="14.00">var.object_sequence</text>
</g>
<!-- [root] aws_vpc.vpc&#45;&gt;[root] var.object_sequence -->
<g id="edge6" class="edge">
<title>[root] aws_vpc.vpc&#45;&gt;[root] var.object_sequence</title>
<path fill="none" stroke="black" d="M550.99,-80.1C599.43,-70.23 679.93,-53.62 759.55,-36.08"/>
<polygon fill="black" stroke="black" points="760.75,-39.4 769.76,-33.83 759.24,-32.57 760.75,-39.4"/>
</g>
<!-- [root] var.vpc_cidr_block -->
<g id="node11" class="node">
<title>[root] var.vpc_cidr_block</title>
<polygon fill="none" stroke="black" points="1029.55,-36 914.55,-36 914.55,0 1035.55,0 1035.55,-30 1029.55,-36"/>
<polyline fill="none" stroke="black" points="1029.55,-36 1029.55,-30 "/>
<polyline fill="none" stroke="black" points="1035.55,-30 1029.55,-30 "/>
<text text-anchor="middle" x="975.05" y="-14.3" font-family="Times,serif" font-size="14.00">var.vpc_cidr_block</text>
</g>
<!-- [root] aws_vpc.vpc&#45;&gt;[root] var.vpc_cidr_block -->
<g id="edge7" class="edge">
<title>[root] aws_vpc.vpc&#45;&gt;[root] var.vpc_cidr_block</title>
<path fill="none" stroke="black" d="M550.57,-84.73C622.23,-77.37 769.67,-60.82 904.34,-36.02"/>
<polygon fill="black" stroke="black" points="905.24,-39.41 914.43,-34.14 903.95,-32.53 905.24,-39.41"/>
</g>
<!-- [root] output.arn -->
<g id="node2" class="node">
<title>[root] output.arn</title>
<polygon fill="none" stroke="black" points="375.05,-180 309.05,-180 309.05,-144 381.05,-144 381.05,-174 375.05,-180"/>
<polyline fill="none" stroke="black" points="375.05,-180 375.05,-174 "/>
<polyline fill="none" stroke="black" points="381.05,-174 375.05,-174 "/>
<text text-anchor="middle" x="345.05" y="-158.3" font-family="Times,serif" font-size="14.00">output.arn</text>
</g>
<!-- [root] output.arn&#45;&gt;[root] aws_vpc.vpc -->
<g id="edge11" class="edge">
<title>[root] output.arn&#45;&gt;[root] aws_vpc.vpc</title>
<path fill="none" stroke="black" d="M381.4,-145.29C404.15,-135.46 433.73,-122.68 458.47,-111.99"/>
<polygon fill="black" stroke="black" points="459.91,-115.18 467.7,-108 457.13,-108.76 459.91,-115.18"/>
</g>
<!-- [root] output.vpc_cidr -->
<g id="node3" class="node">
<title>[root] output.vpc_cidr</title>
<polygon fill="none" stroke="black" points="495.05,-180 399.05,-180 399.05,-144 501.05,-144 501.05,-174 495.05,-180"/>
<polyline fill="none" stroke="black" points="495.05,-180 495.05,-174 "/>
<polyline fill="none" stroke="black" points="501.05,-174 495.05,-174 "/>
<text text-anchor="middle" x="450.05" y="-158.3" font-family="Times,serif" font-size="14.00">output.vpc_cidr</text>
</g>
<!-- [root] output.vpc_cidr&#45;&gt;[root] aws_vpc.vpc -->
<g id="edge12" class="edge">
<title>[root] output.vpc_cidr&#45;&gt;[root] aws_vpc.vpc</title>
<path fill="none" stroke="black" d="M464.14,-143.7C470.97,-135.3 479.3,-125.07 486.8,-115.86"/>
<polygon fill="black" stroke="black" points="489.52,-118.07 493.12,-108.1 484.09,-113.65 489.52,-118.07"/>
</g>
<!-- [root] output.vpc_id -->
<g id="node4" class="node">
<title>[root] output.vpc_id</title>
<polygon fill="none" stroke="black" points="605.05,-180 519.05,-180 519.05,-144 611.05,-144 611.05,-174 605.05,-180"/>
<polyline fill="none" stroke="black" points="605.05,-180 605.05,-174 "/>
<polyline fill="none" stroke="black" points="611.05,-174 605.05,-174 "/>
<text text-anchor="middle" x="565.05" y="-158.3" font-family="Times,serif" font-size="14.00">output.vpc_id</text>
</g>
<!-- [root] output.vpc_id&#45;&gt;[root] aws_vpc.vpc -->
<g id="edge13" class="edge">
<title>[root] output.vpc_id&#45;&gt;[root] aws_vpc.vpc</title>
<path fill="none" stroke="black" d="M550.71,-143.7C543.76,-135.3 535.28,-125.07 527.65,-115.86"/>
<polygon fill="black" stroke="black" points="530.29,-113.57 521.22,-108.1 524.9,-118.04 530.29,-113.57"/>
</g>
<!-- [root] meta.count&#45;boundary (EachMode fixup) -->
<g id="node12" class="node">
<title>[root] meta.count&#45;boundary (EachMode fixup)</title>
<ellipse fill="none" stroke="black" cx="397.05" cy="-234" rx="176.27" ry="18"/>
<text text-anchor="middle" x="397.05" y="-230.3" font-family="Times,serif" font-size="14.00">[root] meta.count&#45;boundary (EachMode fixup)</text>
</g>
<!-- [root] meta.count&#45;boundary (EachMode fixup)&#45;&gt;[root] output.arn -->
<g id="edge8" class="edge">
<title>[root] meta.count&#45;boundary (EachMode fixup)&#45;&gt;[root] output.arn</title>
<path fill="none" stroke="black" d="M384.19,-215.7C378.02,-207.39 370.51,-197.28 363.72,-188.14"/>
<polygon fill="black" stroke="black" points="366.53,-186.04 357.75,-180.1 360.91,-190.22 366.53,-186.04"/>
</g>
<!-- [root] meta.count&#45;boundary (EachMode fixup)&#45;&gt;[root] output.vpc_cidr -->
<g id="edge9" class="edge">
<title>[root] meta.count&#45;boundary (EachMode fixup)&#45;&gt;[root] output.vpc_cidr</title>
<path fill="none" stroke="black" d="M410.15,-215.7C416.44,-207.39 424.09,-197.28 431.01,-188.14"/>
<polygon fill="black" stroke="black" points="433.85,-190.19 437.1,-180.1 428.27,-185.96 433.85,-190.19"/>
</g>
<!-- [root] meta.count&#45;boundary (EachMode fixup)&#45;&gt;[root] output.vpc_id -->
<g id="edge10" class="edge">
<title>[root] meta.count&#45;boundary (EachMode fixup)&#45;&gt;[root] output.vpc_id</title>
<path fill="none" stroke="black" d="M436.86,-216.41C460.18,-206.7 489.84,-194.33 514.76,-183.95"/>
<polygon fill="black" stroke="black" points="516.17,-187.16 524.06,-180.08 513.48,-180.69 516.17,-187.16"/>
</g>
<!-- [root] provider.aws (close) -->
<g id="node13" class="node">
<title>[root] provider.aws (close)</title>
<ellipse fill="none" stroke="black" cx="696.05" cy="-234" rx="104.78" ry="18"/>
<text text-anchor="middle" x="696.05" y="-230.3" font-family="Times,serif" font-size="14.00">[root] provider.aws (close)</text>
</g>
<!-- [root] provider.aws (close)&#45;&gt;[root] aws_vpc.vpc -->
<g id="edge14" class="edge">
<title>[root] provider.aws (close)&#45;&gt;[root] aws_vpc.vpc</title>
<path fill="none" stroke="black" d="M684.9,-216.02C671.44,-196.56 647.2,-164.69 620.05,-144 602.05,-130.28 579.92,-118.93 560.04,-110.3"/>
<polygon fill="black" stroke="black" points="561.36,-107.06 550.78,-106.41 558.64,-113.51 561.36,-107.06"/>
</g>
<!-- [root] root -->
<g id="node14" class="node">
<title>[root] root</title>
<ellipse fill="none" stroke="black" cx="546.05" cy="-306" rx="47.39" ry="18"/>
<text text-anchor="middle" x="546.05" y="-302.3" font-family="Times,serif" font-size="14.00">[root] root</text>
</g>
<!-- [root] root&#45;&gt;[root] meta.count&#45;boundary (EachMode fixup) -->
<g id="edge15" class="edge">
<title>[root] root&#45;&gt;[root] meta.count&#45;boundary (EachMode fixup)</title>
<path fill="none" stroke="black" d="M517.32,-291.5C495.87,-281.43 466.16,-267.47 441.64,-255.95"/>
<polygon fill="black" stroke="black" points="443.06,-252.75 432.52,-251.67 440.09,-259.09 443.06,-252.75"/>
</g>
<!-- [root] root&#45;&gt;[root] provider.aws (close) -->
<g id="edge16" class="edge">
<title>[root] root&#45;&gt;[root] provider.aws (close)</title>
<path fill="none" stroke="black" d="M574.97,-291.5C596.94,-281.25 627.51,-266.98 652.44,-255.35"/>
<polygon fill="black" stroke="black" points="654.11,-258.43 661.69,-251.03 651.15,-252.09 654.11,-258.43"/>
</g>
</g>
</svg>
