<?xml version="1.0" encoding="UTF-8" standalone="no"?>
<!DOCTYPE svg PUBLIC "-//W3C//DTD SVG 1.1//EN"
 "http://www.w3.org/Graphics/SVG/1.1/DTD/svg11.dtd">
<!-- Generated by graphviz version 2.44.1 (20200629.0846)
 -->
<!-- Pages: 1 -->
<svg width="2514pt" height="404pt"
 viewBox="0.00 0.00 2514.00 404.00" xmlns="http://www.w3.org/2000/svg" xmlns:xlink="http://www.w3.org/1999/xlink">
<g id="graph0" class="graph" transform="scale(1 1) rotate(0) translate(4 400)">
<polygon fill="white" stroke="transparent" points="-4,4 -4,-400 2510,-400 2510,4 -4,4"/>
<!-- [root] data.aws_caller_identity.current -->
<g id="node1" class="node">
<title>[root] data.aws_caller_identity.current</title>
<polygon fill="none" stroke="black" points="198,-252 8,-252 8,-216 198,-216 198,-252"/>
<text text-anchor="middle" x="103" y="-230.3" font-family="Times,serif" font-size="14.00">data.aws_caller_identity.current</text>
</g>
<!-- [root] local.count_k8s_security -->
<g id="node3" class="node">
<title>[root] local.count_k8s_security</title>
<polygon fill="none" stroke="black" points="146,-108 0,-108 0,-72 152,-72 152,-102 146,-108"/>
<polyline fill="none" stroke="black" points="146,-108 146,-102 "/>
<polyline fill="none" stroke="black" points="152,-102 146,-102 "/>
<text text-anchor="middle" x="76" y="-86.3" font-family="Times,serif" font-size="14.00">local.count_k8s_security</text>
</g>
<!-- [root] data.aws_caller_identity.current&#45;&gt;[root] local.count_k8s_security -->
<g id="edge1" class="edge">
<title>[root] data.aws_caller_identity.current&#45;&gt;[root] local.count_k8s_security</title>
<path fill="none" stroke="black" d="M99.74,-215.87C95.14,-191.67 86.69,-147.21 81.21,-118.39"/>
<polygon fill="black" stroke="black" points="84.57,-117.36 79.27,-108.19 77.7,-118.67 84.57,-117.36"/>
</g>
<!-- [root] provider.aws -->
<g id="node13" class="node">
<title>[root] provider.aws</title>
<polygon fill="none" stroke="black" points="183,-180 103.9,-162 183,-144 262.1,-162 183,-180"/>
<text text-anchor="middle" x="183" y="-158.3" font-family="Times,serif" font-size="14.00">provider.aws</text>
</g>
<!-- [root] data.aws_caller_identity.current&#45;&gt;[root] provider.aws -->
<g id="edge2" class="edge">
<title>[root] data.aws_caller_identity.current&#45;&gt;[root] provider.aws</title>
<path fill="none" stroke="black" d="M122.78,-215.7C133.98,-205.89 148.05,-193.58 159.78,-183.32"/>
<polygon fill="black" stroke="black" points="162.24,-185.82 167.46,-176.6 157.63,-180.55 162.24,-185.82"/>
</g>
<!-- [root] data.aws_region.current -->
<g id="node2" class="node">
<title>[root] data.aws_region.current</title>
<polygon fill="none" stroke="black" points="363.5,-252 216.5,-252 216.5,-216 363.5,-216 363.5,-252"/>
<text text-anchor="middle" x="290" y="-230.3" font-family="Times,serif" font-size="14.00">data.aws_region.current</text>
</g>
<!-- [root] data.aws_region.current&#45;&gt;[root] local.count_k8s_security -->
<g id="edge3" class="edge">
<title>[root] data.aws_region.current&#45;&gt;[root] local.count_k8s_security</title>
<path fill="none" stroke="black" d="M291.27,-215.87C291.76,-195.97 289.35,-163.39 271,-144 262.98,-135.52 210.6,-121.54 162.15,-110.06"/>
<polygon fill="black" stroke="black" points="162.74,-106.6 152.21,-107.73 161.14,-113.42 162.74,-106.6"/>
</g>
<!-- [root] data.aws_region.current&#45;&gt;[root] provider.aws -->
<g id="edge4" class="edge">
<title>[root] data.aws_region.current&#45;&gt;[root] provider.aws</title>
<path fill="none" stroke="black" d="M263.82,-215.88C247.85,-205.43 227.43,-192.07 211.12,-181.39"/>
<polygon fill="black" stroke="black" points="212.81,-178.32 202.53,-175.78 208.98,-184.18 212.81,-178.32"/>
</g>
<!-- [root] var.enable_k8s_security -->
<g id="node18" class="node">
<title>[root] var.enable_k8s_security</title>
<polygon fill="none" stroke="black" points="143.5,-36 2.5,-36 2.5,0 149.5,0 149.5,-30 143.5,-36"/>
<polyline fill="none" stroke="black" points="143.5,-36 143.5,-30 "/>
<polyline fill="none" stroke="black" points="149.5,-30 143.5,-30 "/>
<text text-anchor="middle" x="76" y="-14.3" font-family="Times,serif" font-size="14.00">var.enable_k8s_security</text>
</g>
<!-- [root] local.count_k8s_security&#45;&gt;[root] var.enable_k8s_security -->
<g id="edge5" class="edge">
<title>[root] local.count_k8s_security&#45;&gt;[root] var.enable_k8s_security</title>
<path fill="none" stroke="black" d="M76,-71.7C76,-63.98 76,-54.71 76,-46.11"/>
<polygon fill="black" stroke="black" points="79.5,-46.1 76,-36.1 72.5,-46.1 79.5,-46.1"/>
</g>
<!-- [root] module.file_certificate_wildcard.null_resource.generate_file -->
<g id="node4" class="node">
<title>[root] module.file_certificate_wildcard.null_resource.generate_file</title>
<polygon fill="none" stroke="black" points="1496,-180 1152,-180 1152,-144 1496,-144 1496,-180"/>
<text text-anchor="middle" x="1324" y="-158.3" font-family="Times,serif" font-size="14.00">module.file_certificate_wildcard.null_resource.generate_file</text>
</g>
<!-- [root] module.file_certificate_wildcard.var.destination_file_path -->
<g id="node6" class="node">
<title>[root] module.file_certificate_wildcard.var.destination_file_path</title>
<polygon fill="none" stroke="black" points="494,-108 170,-108 170,-72 500,-72 500,-102 494,-108"/>
<polyline fill="none" stroke="black" points="494,-108 494,-102 "/>
<polyline fill="none" stroke="black" points="500,-102 494,-102 "/>
<text text-anchor="middle" x="335" y="-86.3" font-family="Times,serif" font-size="14.00">module.file_certificate_wildcard.var.destination_file_path</text>
</g>
<!-- [root] module.file_certificate_wildcard.null_resource.generate_file&#45;&gt;[root] module.file_certificate_wildcard.var.destination_file_path -->
<g id="edge14" class="edge">
<title>[root] module.file_certificate_wildcard.null_resource.generate_file&#45;&gt;[root] module.file_certificate_wildcard.var.destination_file_path</title>
<path fill="none" stroke="black" d="M1151.77,-151.43C989.15,-142.01 738.19,-126.5 510.45,-108.1"/>
<polygon fill="black" stroke="black" points="510.56,-104.6 500.31,-107.28 509.99,-111.58 510.56,-104.6"/>
</g>
<!-- [root] module.file_certificate_wildcard.var.execution_count -->
<g id="node7" class="node">
<title>[root] module.file_certificate_wildcard.var.execution_count</title>
<polygon fill="none" stroke="black" points="818,-108 518,-108 518,-72 824,-72 824,-102 818,-108"/>
<polyline fill="none" stroke="black" points="818,-108 818,-102 "/>
<polyline fill="none" stroke="black" points="824,-102 818,-102 "/>
<text text-anchor="middle" x="671" y="-86.3" font-family="Times,serif" font-size="14.00">module.file_certificate_wildcard.var.execution_count</text>
</g>
<!-- [root] module.file_certificate_wildcard.null_resource.generate_file&#45;&gt;[root] module.file_certificate_wildcard.var.execution_count -->
<g id="edge15" class="edge">
<title>[root] module.file_certificate_wildcard.null_resource.generate_file&#45;&gt;[root] module.file_certificate_wildcard.var.execution_count</title>
<path fill="none" stroke="black" d="M1165.09,-143.97C1064.71,-133.21 935.34,-119.34 834.15,-108.49"/>
<polygon fill="black" stroke="black" points="834.46,-105 824.14,-107.42 833.71,-111.96 834.46,-105"/>
</g>
<!-- [root] module.file_certificate_wildcard.var.source_template -->
<g id="node8" class="node">
<title>[root] module.file_certificate_wildcard.var.source_template</title>
<polygon fill="none" stroke="black" points="1496,-108 1196,-108 1196,-72 1502,-72 1502,-102 1496,-108"/>
<polyline fill="none" stroke="black" points="1496,-108 1496,-102 "/>
<polyline fill="none" stroke="black" points="1502,-102 1496,-102 "/>
<text text-anchor="middle" x="1349" y="-86.3" font-family="Times,serif" font-size="14.00">module.file_certificate_wildcard.var.source_template</text>
</g>
<!-- [root] module.file_certificate_wildcard.null_resource.generate_file&#45;&gt;[root] module.file_certificate_wildcard.var.source_template -->
<g id="edge16" class="edge">
<title>[root] module.file_certificate_wildcard.null_resource.generate_file&#45;&gt;[root] module.file_certificate_wildcard.var.source_template</title>
<path fill="none" stroke="black" d="M1330.18,-143.7C1333,-135.81 1336.39,-126.3 1339.52,-117.55"/>
<polygon fill="black" stroke="black" points="1342.82,-118.7 1342.89,-108.1 1336.23,-116.34 1342.82,-118.7"/>
</g>
<!-- [root] module.file_certificate_wildcard.var.template_depends_on -->
<g id="node9" class="node">
<title>[root] module.file_certificate_wildcard.var.template_depends_on</title>
<polygon fill="none" stroke="black" points="1171.5,-108 842.5,-108 842.5,-72 1177.5,-72 1177.5,-102 1171.5,-108"/>
<polyline fill="none" stroke="black" points="1171.5,-108 1171.5,-102 "/>
<polyline fill="none" stroke="black" points="1177.5,-102 1171.5,-102 "/>
<text text-anchor="middle" x="1010" y="-86.3" font-family="Times,serif" font-size="14.00">module.file_certificate_wildcard.var.template_depends_on</text>
</g>
<!-- [root] module.file_certificate_wildcard.null_resource.generate_file&#45;&gt;[root] module.file_certificate_wildcard.var.template_depends_on -->
<g id="edge17" class="edge">
<title>[root] module.file_certificate_wildcard.null_resource.generate_file&#45;&gt;[root] module.file_certificate_wildcard.var.template_depends_on</title>
<path fill="none" stroke="black" d="M1247.59,-143.97C1201.91,-133.78 1143.76,-120.82 1096.41,-110.26"/>
<polygon fill="black" stroke="black" points="1097,-106.81 1086.48,-108.05 1095.48,-113.64 1097,-106.81"/>
</g>
<!-- [root] module.file_certificate_wildcard.var.template_vars -->
<g id="node10" class="node">
<title>[root] module.file_certificate_wildcard.var.template_vars</title>
<polygon fill="none" stroke="black" points="1807.5,-108 1520.5,-108 1520.5,-72 1813.5,-72 1813.5,-102 1807.5,-108"/>
<polyline fill="none" stroke="black" points="1807.5,-108 1807.5,-102 "/>
<polyline fill="none" stroke="black" points="1813.5,-102 1807.5,-102 "/>
<text text-anchor="middle" x="1667" y="-86.3" font-family="Times,serif" font-size="14.00">module.file_certificate_wildcard.var.template_vars</text>
</g>
<!-- [root] module.file_certificate_wildcard.null_resource.generate_file&#45;&gt;[root] module.file_certificate_wildcard.var.template_vars -->
<g id="edge18" class="edge">
<title>[root] module.file_certificate_wildcard.null_resource.generate_file&#45;&gt;[root] module.file_certificate_wildcard.var.template_vars</title>
<path fill="none" stroke="black" d="M1407.47,-143.97C1457.67,-133.72 1521.69,-120.66 1573.58,-110.07"/>
<polygon fill="black" stroke="black" points="1574.36,-113.48 1583.45,-108.05 1572.96,-106.62 1574.36,-113.48"/>
</g>
<!-- [root] provider.null -->
<g id="node14" class="node">
<title>[root] provider.null</title>
<polygon fill="none" stroke="black" points="1911,-108 1831.9,-90 1911,-72 1990.1,-90 1911,-108"/>
<text text-anchor="middle" x="1911" y="-86.3" font-family="Times,serif" font-size="14.00">provider.null</text>
</g>
<!-- [root] module.file_certificate_wildcard.null_resource.generate_file&#45;&gt;[root] provider.null -->
<g id="edge19" class="edge">
<title>[root] module.file_certificate_wildcard.null_resource.generate_file&#45;&gt;[root] provider.null</title>
<path fill="none" stroke="black" d="M1496.02,-144.3C1614.73,-132.48 1761.77,-117.15 1823,-108 1835.75,-106.09 1849.46,-103.64 1862.18,-101.2"/>
<polygon fill="black" stroke="black" points="1862.99,-104.6 1872.13,-99.25 1861.65,-97.73 1862.99,-104.6"/>
</g>
<!-- [root] provisioner.local&#45;exec -->
<g id="node26" class="node">
<title>[root] provisioner.local&#45;exec</title>
<ellipse fill="none" stroke="black" cx="2119" cy="-90" rx="111.28" ry="18"/>
<text text-anchor="middle" x="2119" y="-86.3" font-family="Times,serif" font-size="14.00">[root] provisioner.local&#45;exec</text>
</g>
<!-- [root] module.file_certificate_wildcard.null_resource.generate_file&#45;&gt;[root] provisioner.local&#45;exec -->
<g id="edge20" class="edge">
<title>[root] module.file_certificate_wildcard.null_resource.generate_file&#45;&gt;[root] provisioner.local&#45;exec</title>
<path fill="none" stroke="black" d="M1496.44,-144.72C1499.31,-144.48 1502.17,-144.24 1505,-144 1724.38,-125.71 1780.12,-131.45 1999,-108 2009.31,-106.9 2020.09,-105.59 2030.78,-104.19"/>
<polygon fill="black" stroke="black" points="2031.54,-107.62 2040.99,-102.84 2030.62,-100.68 2031.54,-107.62"/>
</g>
<!-- [root] module.file_certificate_wildcard.output.rendered_file -->
<g id="node5" class="node">
<title>[root] module.file_certificate_wildcard.output.rendered_file</title>
<polygon fill="none" stroke="black" points="1814,-180 1514,-180 1514,-144 1820,-144 1820,-174 1814,-180"/>
<polyline fill="none" stroke="black" points="1814,-180 1814,-174 "/>
<polyline fill="none" stroke="black" points="1820,-174 1814,-174 "/>
<text text-anchor="middle" x="1667" y="-158.3" font-family="Times,serif" font-size="14.00">module.file_certificate_wildcard.output.rendered_file</text>
</g>
<!-- [root] module.file_certificate_wildcard.output.rendered_file&#45;&gt;[root] module.file_certificate_wildcard.var.source_template -->
<g id="edge21" class="edge">
<title>[root] module.file_certificate_wildcard.output.rendered_file&#45;&gt;[root] module.file_certificate_wildcard.var.source_template</title>
<path fill="none" stroke="black" d="M1589.62,-143.97C1543.36,-133.78 1484.46,-120.82 1436.51,-110.26"/>
<polygon fill="black" stroke="black" points="1436.97,-106.78 1426.46,-108.05 1435.47,-113.62 1436.97,-106.78"/>
</g>
<!-- [root] module.file_certificate_wildcard.output.rendered_file&#45;&gt;[root] module.file_certificate_wildcard.var.template_vars -->
<g id="edge22" class="edge">
<title>[root] module.file_certificate_wildcard.output.rendered_file&#45;&gt;[root] module.file_certificate_wildcard.var.template_vars</title>
<path fill="none" stroke="black" d="M1667,-143.7C1667,-135.98 1667,-126.71 1667,-118.11"/>
<polygon fill="black" stroke="black" points="1670.5,-118.1 1667,-108.1 1663.5,-118.1 1670.5,-118.1"/>
</g>
<!-- [root] var.certficate_name -->
<g id="node15" class="node">
<title>[root] var.certficate_name</title>
<polygon fill="none" stroke="black" points="1584.5,-36 1467.5,-36 1467.5,0 1590.5,0 1590.5,-30 1584.5,-36"/>
<polyline fill="none" stroke="black" points="1584.5,-36 1584.5,-30 "/>
<polyline fill="none" stroke="black" points="1590.5,-30 1584.5,-30 "/>
<text text-anchor="middle" x="1529" y="-14.3" font-family="Times,serif" font-size="14.00">var.certficate_name</text>
</g>
<!-- [root] module.file_certificate_wildcard.var.template_vars&#45;&gt;[root] var.certficate_name -->
<g id="edge23" class="edge">
<title>[root] module.file_certificate_wildcard.var.template_vars&#45;&gt;[root] var.certficate_name</title>
<path fill="none" stroke="black" d="M1633.24,-71.88C1614.78,-62.51 1591.72,-50.81 1571.98,-40.8"/>
<polygon fill="black" stroke="black" points="1573.39,-37.59 1562.89,-36.19 1570.22,-43.83 1573.39,-37.59"/>
</g>
<!-- [root] var.commonname -->
<g id="node16" class="node">
<title>[root] var.commonname</title>
<polygon fill="none" stroke="black" points="1719,-36 1609,-36 1609,0 1725,0 1725,-30 1719,-36"/>
<polyline fill="none" stroke="black" points="1719,-36 1719,-30 "/>
<polyline fill="none" stroke="black" points="1725,-30 1719,-30 "/>
<text text-anchor="middle" x="1667" y="-14.3" font-family="Times,serif" font-size="14.00">var.commonname</text>
</g>
<!-- [root] module.file_certificate_wildcard.var.template_vars&#45;&gt;[root] var.commonname -->
<g id="edge24" class="edge">
<title>[root] module.file_certificate_wildcard.var.template_vars&#45;&gt;[root] var.commonname</title>
<path fill="none" stroke="black" d="M1667,-71.7C1667,-63.98 1667,-54.71 1667,-46.11"/>
<polygon fill="black" stroke="black" points="1670.5,-46.1 1667,-36.1 1663.5,-46.1 1670.5,-46.1"/>
</g>
<!-- [root] var.issuername -->
<g id="node19" class="node">
<title>[root] var.issuername</title>
<polygon fill="none" stroke="black" points="1835,-36 1743,-36 1743,0 1841,0 1841,-30 1835,-36"/>
<polyline fill="none" stroke="black" points="1835,-36 1835,-30 "/>
<polyline fill="none" stroke="black" points="1841,-30 1835,-30 "/>
<text text-anchor="middle" x="1792" y="-14.3" font-family="Times,serif" font-size="14.00">var.issuername</text>
</g>
<!-- [root] module.file_certificate_wildcard.var.template_vars&#45;&gt;[root] var.issuername -->
<g id="edge25" class="edge">
<title>[root] module.file_certificate_wildcard.var.template_vars&#45;&gt;[root] var.issuername</title>
<path fill="none" stroke="black" d="M1697.58,-71.88C1714.07,-62.64 1734.62,-51.13 1752.34,-41.21"/>
<polygon fill="black" stroke="black" points="1754.29,-44.13 1761.3,-36.19 1750.87,-38.02 1754.29,-44.13"/>
</g>
<!-- [root] null_resource.kubectl_create_cert_wildcard -->
<g id="node11" class="node">
<title>[root] null_resource.kubectl_create_cert_wildcard</title>
<polygon fill="none" stroke="black" points="1617,-252 1363,-252 1363,-216 1617,-216 1617,-252"/>
<text text-anchor="middle" x="1490" y="-230.3" font-family="Times,serif" font-size="14.00">null_resource.kubectl_create_cert_wildcard</text>
</g>
<!-- [root] null_resource.kubectl_create_cert_wildcard&#45;&gt;[root] module.file_certificate_wildcard.output.rendered_file -->
<g id="edge26" class="edge">
<title>[root] null_resource.kubectl_create_cert_wildcard&#45;&gt;[root] module.file_certificate_wildcard.output.rendered_file</title>
<path fill="none" stroke="black" d="M1533.3,-215.88C1557.71,-206.22 1588.4,-194.09 1614.21,-183.88"/>
<polygon fill="black" stroke="black" points="1615.83,-187 1623.84,-180.07 1613.26,-180.49 1615.83,-187"/>
</g>
<!-- [root] null_resource.login&#45;security -->
<g id="node12" class="node">
<title>[root] null_resource.login&#45;security</title>
<polygon fill="none" stroke="black" points="2105.5,-180 1936.5,-180 1936.5,-144 2105.5,-144 2105.5,-180"/>
<text text-anchor="middle" x="2021" y="-158.3" font-family="Times,serif" font-size="14.00">null_resource.login&#45;security</text>
</g>
<!-- [root] null_resource.kubectl_create_cert_wildcard&#45;&gt;[root] null_resource.login&#45;security -->
<g id="edge27" class="edge">
<title>[root] null_resource.kubectl_create_cert_wildcard&#45;&gt;[root] null_resource.login&#45;security</title>
<path fill="none" stroke="black" d="M1617.19,-216.23C1712.22,-203.71 1840.06,-186.85 1926.23,-175.49"/>
<polygon fill="black" stroke="black" points="1926.8,-178.95 1936.26,-174.17 1925.89,-172.01 1926.8,-178.95"/>
</g>
<!-- [root] null_resource.login&#45;security&#45;&gt;[root] local.count_k8s_security -->
<g id="edge28" class="edge">
<title>[root] null_resource.login&#45;security&#45;&gt;[root] local.count_k8s_security</title>
<path fill="none" stroke="black" d="M1936.5,-152.29C1903.06,-149.17 1864.25,-145.94 1829,-144 1462.06,-123.82 545.82,-148.08 162.43,-108.01"/>
<polygon fill="black" stroke="black" points="162.67,-104.52 152.36,-106.93 161.93,-111.48 162.67,-104.52"/>
</g>
<!-- [root] null_resource.login&#45;security&#45;&gt;[root] provider.null -->
<g id="edge29" class="edge">
<title>[root] null_resource.login&#45;security&#45;&gt;[root] provider.null</title>
<path fill="none" stroke="black" d="M1994.09,-143.88C1977.56,-133.36 1956.41,-119.89 1939.58,-109.19"/>
<polygon fill="black" stroke="black" points="1941.05,-105.97 1930.73,-103.56 1937.29,-111.88 1941.05,-105.97"/>
</g>
<!-- [root] var.default_tags -->
<g id="node17" class="node">
<title>[root] var.default_tags</title>
<polygon fill="none" stroke="black" points="2345.5,-108 2248.5,-108 2248.5,-72 2351.5,-72 2351.5,-102 2345.5,-108"/>
<polyline fill="none" stroke="black" points="2345.5,-108 2345.5,-102 "/>
<polyline fill="none" stroke="black" points="2351.5,-102 2345.5,-102 "/>
<text text-anchor="middle" x="2300" y="-86.3" font-family="Times,serif" font-size="14.00">var.default_tags</text>
</g>
<!-- [root] null_resource.login&#45;security&#45;&gt;[root] var.default_tags -->
<g id="edge31" class="edge">
<title>[root] null_resource.login&#45;security&#45;&gt;[root] var.default_tags</title>
<path fill="none" stroke="black" d="M2093.82,-143.94C2133.85,-134.41 2184.62,-122.07 2238.68,-108.04"/>
<polygon fill="black" stroke="black" points="2239.65,-111.41 2248.45,-105.5 2237.89,-104.63 2239.65,-111.41"/>
</g>
<!-- [root] var.login_depends_on -->
<g id="node22" class="node">
<title>[root] var.login_depends_on</title>
<polygon fill="none" stroke="black" points="2500,-108 2370,-108 2370,-72 2506,-72 2506,-102 2500,-108"/>
<polyline fill="none" stroke="black" points="2500,-108 2500,-102 "/>
<polyline fill="none" stroke="black" points="2506,-102 2500,-102 "/>
<text text-anchor="middle" x="2438" y="-86.3" font-family="Times,serif" font-size="14.00">var.login_depends_on</text>
</g>
<!-- [root] null_resource.login&#45;security&#45;&gt;[root] var.login_depends_on -->
<g id="edge32" class="edge">
<title>[root] null_resource.login&#45;security&#45;&gt;[root] var.login_depends_on</title>
<path fill="none" stroke="black" d="M2105.79,-149.29C2172.3,-139.75 2267.43,-125.35 2359.56,-108.22"/>
<polygon fill="black" stroke="black" points="2360.43,-111.61 2369.61,-106.33 2359.14,-104.73 2360.43,-111.61"/>
</g>
<!-- [root] null_resource.login&#45;security&#45;&gt;[root] provisioner.local&#45;exec -->
<g id="edge30" class="edge">
<title>[root] null_resource.login&#45;security&#45;&gt;[root] provisioner.local&#45;exec</title>
<path fill="none" stroke="black" d="M2044.97,-143.88C2057.74,-134.76 2073.6,-123.43 2087.36,-113.6"/>
<polygon fill="black" stroke="black" points="2089.51,-116.37 2095.61,-107.71 2085.44,-110.67 2089.51,-116.37"/>
</g>
<!-- [root] var.kubernetes_helm_vault_chart_name -->
<g id="node20" class="node">
<title>[root] var.kubernetes_helm_vault_chart_name</title>
<polygon fill="none" stroke="black" points="610,-252 382,-252 382,-216 616,-216 616,-246 610,-252"/>
<polyline fill="none" stroke="black" points="610,-252 610,-246 "/>
<polyline fill="none" stroke="black" points="616,-246 610,-246 "/>
<text text-anchor="middle" x="499" y="-230.3" font-family="Times,serif" font-size="14.00">var.kubernetes_helm_vault_chart_name</text>
</g>
<!-- [root] var.kubernetes_helm_vault_chart_version -->
<g id="node21" class="node">
<title>[root] var.kubernetes_helm_vault_chart_version</title>
<polygon fill="none" stroke="black" points="872,-252 634,-252 634,-216 878,-216 878,-246 872,-252"/>
<polyline fill="none" stroke="black" points="872,-252 872,-246 "/>
<polyline fill="none" stroke="black" points="878,-246 872,-246 "/>
<text text-anchor="middle" x="756" y="-230.3" font-family="Times,serif" font-size="14.00">var.kubernetes_helm_vault_chart_version</text>
</g>
<!-- [root] var.naming_convention_definition -->
<g id="node23" class="node">
<title>[root] var.naming_convention_definition</title>
<polygon fill="none" stroke="black" points="1093.5,-252 896.5,-252 896.5,-216 1099.5,-216 1099.5,-246 1093.5,-252"/>
<polyline fill="none" stroke="black" points="1093.5,-252 1093.5,-246 "/>
<polyline fill="none" stroke="black" points="1099.5,-246 1093.5,-246 "/>
<text text-anchor="middle" x="998" y="-230.3" font-family="Times,serif" font-size="14.00">var.naming_convention_definition</text>
</g>
<!-- [root] var.security_depends_on -->
<g id="node24" class="node">
<title>[root] var.security_depends_on</title>
<polygon fill="none" stroke="black" points="1262.5,-252 1117.5,-252 1117.5,-216 1268.5,-216 1268.5,-246 1262.5,-252"/>
<polyline fill="none" stroke="black" points="1262.5,-252 1262.5,-246 "/>
<polyline fill="none" stroke="black" points="1268.5,-246 1262.5,-246 "/>
<text text-anchor="middle" x="1193" y="-230.3" font-family="Times,serif" font-size="14.00">var.security_depends_on</text>
</g>
<!-- [root] meta.count&#45;boundary (EachMode fixup) -->
<g id="node25" class="node">
<title>[root] meta.count&#45;boundary (EachMode fixup)</title>
<ellipse fill="none" stroke="black" cx="998" cy="-306" rx="176.27" ry="18"/>
<text text-anchor="middle" x="998" y="-302.3" font-family="Times,serif" font-size="14.00">[root] meta.count&#45;boundary (EachMode fixup)</text>
</g>
<!-- [root] meta.count&#45;boundary (EachMode fixup)&#45;&gt;[root] data.aws_caller_identity.current -->
<g id="edge6" class="edge">
<title>[root] meta.count&#45;boundary (EachMode fixup)&#45;&gt;[root] data.aws_caller_identity.current</title>
<path fill="none" stroke="black" d="M836.63,-298.69C678.84,-291.47 431.61,-277.4 208.12,-252.06"/>
<polygon fill="black" stroke="black" points="208.5,-248.59 198.16,-250.93 207.7,-255.54 208.5,-248.59"/>
</g>
<!-- [root] meta.count&#45;boundary (EachMode fixup)&#45;&gt;[root] data.aws_region.current -->
<g id="edge7" class="edge">
<title>[root] meta.count&#45;boundary (EachMode fixup)&#45;&gt;[root] data.aws_region.current</title>
<path fill="none" stroke="black" d="M844.92,-297.05C720.52,-289.41 540.39,-275.67 373.64,-251.99"/>
<polygon fill="black" stroke="black" points="374.08,-248.52 363.69,-250.56 373.09,-255.44 374.08,-248.52"/>
</g>
<!-- [root] meta.count&#45;boundary (EachMode fixup)&#45;&gt;[root] module.file_certificate_wildcard.null_resource.generate_file -->
<g id="edge8" class="edge">
<title>[root] meta.count&#45;boundary (EachMode fixup)&#45;&gt;[root] module.file_certificate_wildcard.null_resource.generate_file</title>
<path fill="none" stroke="black" d="M1117.35,-292.71C1181.05,-284.16 1251.47,-270.86 1277,-252 1297.56,-236.81 1309.97,-209.92 1316.83,-189.66"/>
<polygon fill="black" stroke="black" points="1320.19,-190.64 1319.84,-180.05 1313.51,-188.54 1320.19,-190.64"/>
</g>
<!-- [root] meta.count&#45;boundary (EachMode fixup)&#45;&gt;[root] null_resource.kubectl_create_cert_wildcard -->
<g id="edge9" class="edge">
<title>[root] meta.count&#45;boundary (EachMode fixup)&#45;&gt;[root] null_resource.kubectl_create_cert_wildcard</title>
<path fill="none" stroke="black" d="M1096.09,-291.04C1171.92,-280.26 1277.57,-265.22 1360.37,-253.44"/>
<polygon fill="black" stroke="black" points="1360.95,-256.9 1370.36,-252.02 1359.96,-249.97 1360.95,-256.9"/>
</g>
<!-- [root] meta.count&#45;boundary (EachMode fixup)&#45;&gt;[root] var.kubernetes_helm_vault_chart_name -->
<g id="edge10" class="edge">
<title>[root] meta.count&#45;boundary (EachMode fixup)&#45;&gt;[root] var.kubernetes_helm_vault_chart_name</title>
<path fill="none" stroke="black" d="M898.82,-291.09C820.62,-280.12 711.03,-264.74 626.35,-252.87"/>
<polygon fill="black" stroke="black" points="626.8,-249.39 616.41,-251.47 625.83,-256.33 626.8,-249.39"/>
</g>
<!-- [root] meta.count&#45;boundary (EachMode fixup)&#45;&gt;[root] var.kubernetes_helm_vault_chart_version -->
<g id="edge11" class="edge">
<title>[root] meta.count&#45;boundary (EachMode fixup)&#45;&gt;[root] var.kubernetes_helm_vault_chart_version</title>
<path fill="none" stroke="black" d="M942.18,-288.85C907.2,-278.73 861.85,-265.62 824.68,-254.87"/>
<polygon fill="black" stroke="black" points="825.5,-251.46 814.92,-252.04 823.55,-258.18 825.5,-251.46"/>
</g>
<!-- [root] meta.count&#45;boundary (EachMode fixup)&#45;&gt;[root] var.naming_convention_definition -->
<g id="edge12" class="edge">
<title>[root] meta.count&#45;boundary (EachMode fixup)&#45;&gt;[root] var.naming_convention_definition</title>
<path fill="none" stroke="black" d="M998,-287.7C998,-279.98 998,-270.71 998,-262.11"/>
<polygon fill="black" stroke="black" points="1001.5,-262.1 998,-252.1 994.5,-262.1 1001.5,-262.1"/>
</g>
<!-- [root] meta.count&#45;boundary (EachMode fixup)&#45;&gt;[root] var.security_depends_on -->
<g id="edge13" class="edge">
<title>[root] meta.count&#45;boundary (EachMode fixup)&#45;&gt;[root] var.security_depends_on</title>
<path fill="none" stroke="black" d="M1043.72,-288.59C1071.23,-278.71 1106.49,-266.06 1135.83,-255.52"/>
<polygon fill="black" stroke="black" points="1137.3,-258.71 1145.53,-252.04 1134.94,-252.12 1137.3,-258.71"/>
</g>
<!-- [root] provider.aws (close) -->
<g id="node27" class="node">
<title>[root] provider.aws (close)</title>
<ellipse fill="none" stroke="black" cx="290" cy="-306" rx="104.78" ry="18"/>
<text text-anchor="middle" x="290" y="-302.3" font-family="Times,serif" font-size="14.00">[root] provider.aws (close)</text>
</g>
<!-- [root] provider.aws (close)&#45;&gt;[root] data.aws_caller_identity.current -->
<g id="edge33" class="edge">
<title>[root] provider.aws (close)&#45;&gt;[root] data.aws_caller_identity.current</title>
<path fill="none" stroke="black" d="M248.5,-289.46C221.91,-279.51 187.1,-266.48 158.2,-255.66"/>
<polygon fill="black" stroke="black" points="159.24,-252.31 148.64,-252.09 156.78,-258.87 159.24,-252.31"/>
</g>
<!-- [root] provider.aws (close)&#45;&gt;[root] data.aws_region.current -->
<g id="edge34" class="edge">
<title>[root] provider.aws (close)&#45;&gt;[root] data.aws_region.current</title>
<path fill="none" stroke="black" d="M290,-287.7C290,-279.98 290,-270.71 290,-262.11"/>
<polygon fill="black" stroke="black" points="293.5,-262.1 290,-252.1 286.5,-262.1 293.5,-262.1"/>
</g>
<!-- [root] provider.null (close) -->
<g id="node28" class="node">
<title>[root] provider.null (close)</title>
<ellipse fill="none" stroke="black" cx="1316" cy="-306" rx="104.78" ry="18"/>
<text text-anchor="middle" x="1316" y="-302.3" font-family="Times,serif" font-size="14.00">[root] provider.null (close)</text>
</g>
<!-- [root] provider.null (close)&#45;&gt;[root] module.file_certificate_wildcard.null_resource.generate_file -->
<g id="edge35" class="edge">
<title>[root] provider.null (close)&#45;&gt;[root] module.file_certificate_wildcard.null_resource.generate_file</title>
<path fill="none" stroke="black" d="M1316.96,-287.87C1318.33,-263.67 1320.83,-219.21 1322.46,-190.39"/>
<polygon fill="black" stroke="black" points="1325.96,-190.37 1323.03,-180.19 1318.97,-189.98 1325.96,-190.37"/>
</g>
<!-- [root] provider.null (close)&#45;&gt;[root] null_resource.kubectl_create_cert_wildcard -->
<g id="edge36" class="edge">
<title>[root] provider.null (close)&#45;&gt;[root] null_resource.kubectl_create_cert_wildcard</title>
<path fill="none" stroke="black" d="M1355.05,-289.29C1379.59,-279.42 1411.53,-266.57 1438.18,-255.85"/>
<polygon fill="black" stroke="black" points="1439.76,-258.98 1447.73,-252 1437.15,-252.49 1439.76,-258.98"/>
</g>
<!-- [root] provisioner.local&#45;exec (close) -->
<g id="node29" class="node">
<title>[root] provisioner.local&#45;exec (close)</title>
<ellipse fill="none" stroke="black" cx="1576" cy="-306" rx="137.58" ry="18"/>
<text text-anchor="middle" x="1576" y="-302.3" font-family="Times,serif" font-size="14.00">[root] provisioner.local&#45;exec (close)</text>
</g>
<!-- [root] provisioner.local&#45;exec (close)&#45;&gt;[root] module.file_certificate_wildcard.null_resource.generate_file -->
<g id="edge37" class="edge">
<title>[root] provisioner.local&#45;exec (close)&#45;&gt;[root] module.file_certificate_wildcard.null_resource.generate_file</title>
<path fill="none" stroke="black" d="M1597.21,-288.09C1618.28,-269.26 1644.92,-238.53 1626,-216 1615.66,-203.69 1547.83,-191.19 1479.06,-181.43"/>
<polygon fill="black" stroke="black" points="1479.31,-177.93 1468.92,-180.01 1478.33,-184.86 1479.31,-177.93"/>
</g>
<!-- [root] provisioner.local&#45;exec (close)&#45;&gt;[root] null_resource.kubectl_create_cert_wildcard -->
<g id="edge38" class="edge">
<title>[root] provisioner.local&#45;exec (close)&#45;&gt;[root] null_resource.kubectl_create_cert_wildcard</title>
<path fill="none" stroke="black" d="M1555.18,-288.05C1544.28,-279.18 1530.75,-268.17 1518.85,-258.48"/>
<polygon fill="black" stroke="black" points="1520.89,-255.63 1510.92,-252.03 1516.47,-261.06 1520.89,-255.63"/>
</g>
<!-- [root] root -->
<g id="node30" class="node">
<title>[root] root</title>
<ellipse fill="none" stroke="black" cx="1147" cy="-378" rx="47.39" ry="18"/>
<text text-anchor="middle" x="1147" y="-374.3" font-family="Times,serif" font-size="14.00">[root] root</text>
</g>
<!-- [root] root&#45;&gt;[root] meta.count&#45;boundary (EachMode fixup) -->
<g id="edge39" class="edge">
<title>[root] root&#45;&gt;[root] meta.count&#45;boundary (EachMode fixup)</title>
<path fill="none" stroke="black" d="M1118.27,-363.5C1096.83,-353.43 1067.12,-339.47 1042.59,-327.95"/>
<polygon fill="black" stroke="black" points="1044.02,-324.75 1033.48,-323.67 1041.04,-331.09 1044.02,-324.75"/>
</g>
<!-- [root] root&#45;&gt;[root] provider.aws (close) -->
<g id="edge40" class="edge">
<title>[root] root&#45;&gt;[root] provider.aws (close)</title>
<path fill="none" stroke="black" d="M1101.23,-373.26C968.23,-362.4 579.44,-330.64 392.59,-315.38"/>
<polygon fill="black" stroke="black" points="392.74,-311.88 382.48,-314.55 392.17,-318.86 392.74,-311.88"/>
</g>
<!-- [root] root&#45;&gt;[root] provider.null (close) -->
<g id="edge41" class="edge">
<title>[root] root&#45;&gt;[root] provider.null (close)</title>
<path fill="none" stroke="black" d="M1178,-364.16C1203.25,-353.7 1239.34,-338.75 1268.28,-326.77"/>
<polygon fill="black" stroke="black" points="1269.89,-329.89 1277.79,-322.83 1267.21,-323.42 1269.89,-329.89"/>
</g>
<!-- [root] root&#45;&gt;[root] provisioner.local&#45;exec (close) -->
<g id="edge42" class="edge">
<title>[root] root&#45;&gt;[root] provisioner.local&#45;exec (close)</title>
<path fill="none" stroke="black" d="M1189.7,-370.03C1257.83,-358.92 1392.68,-336.91 1483.62,-322.07"/>
<polygon fill="black" stroke="black" points="1484.35,-325.5 1493.65,-320.44 1483.22,-318.59 1484.35,-325.5"/>
</g>
</g>
</svg>
