<?xml version="1.0" encoding="UTF-8" standalone="no"?>
<!DOCTYPE svg PUBLIC "-//W3C//DTD SVG 1.1//EN"
 "http://www.w3.org/Graphics/SVG/1.1/DTD/svg11.dtd">
<!-- Generated by graphviz version 2.44.1 (20200629.0846)
 -->
<!-- Pages: 1 -->
<svg width="1627pt" height="620pt"
 viewBox="0.00 0.00 1627.03 620.00" xmlns="http://www.w3.org/2000/svg" xmlns:xlink="http://www.w3.org/1999/xlink">
<g id="graph0" class="graph" transform="scale(1 1) rotate(0) translate(4 616)">
<polygon fill="white" stroke="transparent" points="-4,4 -4,-616 1623.03,-616 1623.03,4 -4,4"/>
<!-- [root] aws_iam_policy.limited -->
<g id="node1" class="node">
<title>[root] aws_iam_policy.limited</title>
<polygon fill="none" stroke="black" points="991.03,-324 843.03,-324 843.03,-288 991.03,-288 991.03,-324"/>
<text text-anchor="middle" x="917.03" y="-302.3" font-family="Times,serif" font-size="14.00">aws_iam_policy.limited</text>
</g>
<!-- [root] provider.aws -->
<g id="node16" class="node">
<title>[root] provider.aws</title>
<polygon fill="none" stroke="black" points="817.03,-108 737.94,-90 817.03,-72 896.13,-90 817.03,-108"/>
<text text-anchor="middle" x="817.03" y="-86.3" font-family="Times,serif" font-size="14.00">provider.aws</text>
</g>
<!-- [root] aws_iam_policy.limited&#45;&gt;[root] provider.aws -->
<g id="edge1" class="edge">
<title>[root] aws_iam_policy.limited&#45;&gt;[root] provider.aws</title>
<path fill="none" stroke="black" d="M918.99,-287.67C920.4,-269.28 920.75,-239.67 912.03,-216 896.63,-174.18 862.14,-134.78 839.24,-111.78"/>
<polygon fill="black" stroke="black" points="841.55,-109.14 831.96,-104.63 836.64,-114.13 841.55,-109.14"/>
</g>
<!-- [root] var.default_tags -->
<g id="node18" class="node">
<title>[root] var.default_tags</title>
<polygon fill="none" stroke="black" points="696.53,-252 599.53,-252 599.53,-216 702.53,-216 702.53,-246 696.53,-252"/>
<polyline fill="none" stroke="black" points="696.53,-252 696.53,-246 "/>
<polyline fill="none" stroke="black" points="702.53,-246 696.53,-246 "/>
<text text-anchor="middle" x="651.03" y="-230.3" font-family="Times,serif" font-size="14.00">var.default_tags</text>
</g>
<!-- [root] aws_iam_policy.limited&#45;&gt;[root] var.default_tags -->
<g id="edge2" class="edge">
<title>[root] aws_iam_policy.limited&#45;&gt;[root] var.default_tags</title>
<path fill="none" stroke="black" d="M849.55,-287.89C811.87,-278.26 763.85,-265.86 712.27,-252.04"/>
<polygon fill="black" stroke="black" points="713.17,-248.66 702.6,-249.44 711.35,-255.42 713.17,-248.66"/>
</g>
<!-- [root] aws_iam_policy.readonly&#45;billing -->
<g id="node2" class="node">
<title>[root] aws_iam_policy.readonly&#45;billing</title>
<polygon fill="none" stroke="black" points="1205.03,-324 1009.03,-324 1009.03,-288 1205.03,-288 1205.03,-324"/>
<text text-anchor="middle" x="1107.03" y="-302.3" font-family="Times,serif" font-size="14.00">aws_iam_policy.readonly&#45;billing</text>
</g>
<!-- [root] aws_iam_policy.readonly&#45;billing&#45;&gt;[root] provider.aws -->
<g id="edge3" class="edge">
<title>[root] aws_iam_policy.readonly&#45;billing&#45;&gt;[root] provider.aws</title>
<path fill="none" stroke="black" d="M1085.34,-287.93C1047.28,-258.1 965.78,-194.84 895.03,-144 878.59,-132.18 859.82,-119.4 844.81,-109.36"/>
<polygon fill="black" stroke="black" points="846.72,-106.43 836.46,-103.79 842.84,-112.25 846.72,-106.43"/>
</g>
<!-- [root] aws_iam_policy.readonly&#45;billing&#45;&gt;[root] var.default_tags -->
<g id="edge4" class="edge">
<title>[root] aws_iam_policy.readonly&#45;billing&#45;&gt;[root] var.default_tags</title>
<path fill="none" stroke="black" d="M1008.81,-289.26C1005.85,-288.83 1002.92,-288.41 1000.03,-288 875.56,-270.34 840.29,-277.02 712.96,-252.01"/>
<polygon fill="black" stroke="black" points="713.31,-248.51 702.82,-249.99 711.95,-255.38 713.31,-248.51"/>
</g>
<!-- [root] aws_iam_role.administrator -->
<g id="node3" class="node">
<title>[root] aws_iam_role.administrator</title>
<polygon fill="none" stroke="black" points="453.03,-324 283.03,-324 283.03,-288 453.03,-288 453.03,-324"/>
<text text-anchor="middle" x="368.03" y="-302.3" font-family="Times,serif" font-size="14.00">aws_iam_role.administrator</text>
</g>
<!-- [root] data.template_file.trust&#45;policy -->
<g id="node13" class="node">
<title>[root] data.template_file.trust&#45;policy</title>
<polygon fill="none" stroke="black" points="581.03,-252 401.03,-252 401.03,-216 581.03,-216 581.03,-252"/>
<text text-anchor="middle" x="491.03" y="-230.3" font-family="Times,serif" font-size="14.00">data.template_file.trust&#45;policy</text>
</g>
<!-- [root] aws_iam_role.administrator&#45;&gt;[root] data.template_file.trust&#45;policy -->
<g id="edge5" class="edge">
<title>[root] aws_iam_role.administrator&#45;&gt;[root] data.template_file.trust&#45;policy</title>
<path fill="none" stroke="black" d="M398.12,-287.88C414.35,-278.64 434.58,-267.13 452,-257.21"/>
<polygon fill="black" stroke="black" points="453.87,-260.18 460.83,-252.19 450.41,-254.09 453.87,-260.18"/>
</g>
<!-- [root] aws_iam_role.administrator&#45;&gt;[root] var.default_tags -->
<g id="edge6" class="edge">
<title>[root] aws_iam_role.administrator&#45;&gt;[root] var.default_tags</title>
<path fill="none" stroke="black" d="M442.46,-287.97C483.2,-278.47 534.79,-266.16 589.58,-252.07"/>
<polygon fill="black" stroke="black" points="590.68,-255.4 599.49,-249.51 588.93,-248.62 590.68,-255.4"/>
</g>
<!-- [root] aws_iam_role.limited -->
<g id="node4" class="node">
<title>[root] aws_iam_role.limited</title>
<polygon fill="none" stroke="black" points="607.03,-324 471.03,-324 471.03,-288 607.03,-288 607.03,-324"/>
<text text-anchor="middle" x="539.03" y="-302.3" font-family="Times,serif" font-size="14.00">aws_iam_role.limited</text>
</g>
<!-- [root] aws_iam_role.limited&#45;&gt;[root] data.template_file.trust&#45;policy -->
<g id="edge7" class="edge">
<title>[root] aws_iam_role.limited&#45;&gt;[root] data.template_file.trust&#45;policy</title>
<path fill="none" stroke="black" d="M527.17,-287.7C521.53,-279.47 514.68,-269.48 508.46,-260.42"/>
<polygon fill="black" stroke="black" points="511.3,-258.37 502.76,-252.1 505.53,-262.33 511.3,-258.37"/>
</g>
<!-- [root] aws_iam_role.limited&#45;&gt;[root] var.default_tags -->
<g id="edge8" class="edge">
<title>[root] aws_iam_role.limited&#45;&gt;[root] var.default_tags</title>
<path fill="none" stroke="black" d="M566.43,-287.88C580.94,-278.81 598.95,-267.55 614.62,-257.76"/>
<polygon fill="black" stroke="black" points="616.91,-260.46 623.53,-252.19 613.2,-254.52 616.91,-260.46"/>
</g>
<!-- [root] aws_iam_role.readonly -->
<g id="node5" class="node">
<title>[root] aws_iam_role.readonly</title>
<polygon fill="none" stroke="black" points="769.03,-324 625.03,-324 625.03,-288 769.03,-288 769.03,-324"/>
<text text-anchor="middle" x="697.03" y="-302.3" font-family="Times,serif" font-size="14.00">aws_iam_role.readonly</text>
</g>
<!-- [root] aws_iam_role.readonly&#45;&gt;[root] data.template_file.trust&#45;policy -->
<g id="edge9" class="edge">
<title>[root] aws_iam_role.readonly&#45;&gt;[root] data.template_file.trust&#45;policy</title>
<path fill="none" stroke="black" d="M646.9,-287.97C618,-278.14 581.46,-265.73 551.04,-255.39"/>
<polygon fill="black" stroke="black" points="551.98,-252.01 541.39,-252.11 549.73,-258.64 551.98,-252.01"/>
</g>
<!-- [root] aws_iam_role.readonly&#45;&gt;[root] var.default_tags -->
<g id="edge10" class="edge">
<title>[root] aws_iam_role.readonly&#45;&gt;[root] var.default_tags</title>
<path fill="none" stroke="black" d="M685.66,-287.7C680.32,-279.56 673.83,-269.69 667.92,-260.7"/>
<polygon fill="black" stroke="black" points="670.69,-258.54 662.27,-252.1 664.84,-262.38 670.69,-258.54"/>
</g>
<!-- [root] aws_iam_role_policy_attachment.administrator&#45;role&#45;policy&#45;attach -->
<g id="node6" class="node">
<title>[root] aws_iam_role_policy_attachment.administrator&#45;role&#45;policy&#45;attach</title>
<polygon fill="none" stroke="black" points="398.53,-396 21.53,-396 21.53,-360 398.53,-360 398.53,-396"/>
<text text-anchor="middle" x="210.03" y="-374.3" font-family="Times,serif" font-size="14.00">aws_iam_role_policy_attachment.administrator&#45;role&#45;policy&#45;attach</text>
</g>
<!-- [root] aws_iam_role_policy_attachment.administrator&#45;role&#45;policy&#45;attach&#45;&gt;[root] aws_iam_role.administrator -->
<g id="edge11" class="edge">
<title>[root] aws_iam_role_policy_attachment.administrator&#45;role&#45;policy&#45;attach&#45;&gt;[root] aws_iam_role.administrator</title>
<path fill="none" stroke="black" d="M248.68,-359.88C270.28,-350.31 297.38,-338.3 320.3,-328.15"/>
<polygon fill="black" stroke="black" points="321.78,-331.32 329.51,-324.07 318.95,-324.92 321.78,-331.32"/>
</g>
<!-- [root] data.aws_iam_policy.administrator -->
<g id="node11" class="node">
<title>[root] data.aws_iam_policy.administrator</title>
<polygon fill="none" stroke="black" points="314.03,-252 106.03,-252 106.03,-216 314.03,-216 314.03,-252"/>
<text text-anchor="middle" x="210.03" y="-230.3" font-family="Times,serif" font-size="14.00">data.aws_iam_policy.administrator</text>
</g>
<!-- [root] aws_iam_role_policy_attachment.administrator&#45;role&#45;policy&#45;attach&#45;&gt;[root] data.aws_iam_policy.administrator -->
<g id="edge12" class="edge">
<title>[root] aws_iam_role_policy_attachment.administrator&#45;role&#45;policy&#45;attach&#45;&gt;[root] data.aws_iam_policy.administrator</title>
<path fill="none" stroke="black" d="M210.03,-359.87C210.03,-335.67 210.03,-291.21 210.03,-262.39"/>
<polygon fill="black" stroke="black" points="213.53,-262.19 210.03,-252.19 206.53,-262.19 213.53,-262.19"/>
</g>
<!-- [root] aws_iam_role_policy_attachment.limited&#45;role&#45;policy&#45;attach -->
<g id="node7" class="node">
<title>[root] aws_iam_role_policy_attachment.limited&#45;role&#45;policy&#45;attach</title>
<polygon fill="none" stroke="black" points="1235.03,-396 891.03,-396 891.03,-360 1235.03,-360 1235.03,-396"/>
<text text-anchor="middle" x="1063.03" y="-374.3" font-family="Times,serif" font-size="14.00">aws_iam_role_policy_attachment.limited&#45;role&#45;policy&#45;attach</text>
</g>
<!-- [root] aws_iam_role_policy_attachment.limited&#45;role&#45;policy&#45;attach&#45;&gt;[root] aws_iam_policy.limited -->
<g id="edge13" class="edge">
<title>[root] aws_iam_role_policy_attachment.limited&#45;role&#45;policy&#45;attach&#45;&gt;[root] aws_iam_policy.limited</title>
<path fill="none" stroke="black" d="M1027.32,-359.88C1007.54,-350.39 982.76,-338.51 961.71,-328.42"/>
<polygon fill="black" stroke="black" points="963.16,-325.24 952.63,-324.07 960.14,-331.55 963.16,-325.24"/>
</g>
<!-- [root] aws_iam_role_policy_attachment.limited&#45;role&#45;policy&#45;attach&#45;&gt;[root] aws_iam_role.limited -->
<g id="edge14" class="edge">
<title>[root] aws_iam_role_policy_attachment.limited&#45;role&#45;policy&#45;attach&#45;&gt;[root] aws_iam_role.limited</title>
<path fill="none" stroke="black" d="M890.79,-360.62C810.36,-351.97 713.18,-340.12 617.55,-324.17"/>
<polygon fill="black" stroke="black" points="617.84,-320.67 607.4,-322.46 616.68,-327.57 617.84,-320.67"/>
</g>
<!-- [root] aws_iam_role_policy_attachment.readonly&#45;billing&#45;policy&#45;attach -->
<g id="node8" class="node">
<title>[root] aws_iam_role_policy_attachment.readonly&#45;billing&#45;policy&#45;attach</title>
<polygon fill="none" stroke="black" points="1619.03,-396 1253.03,-396 1253.03,-360 1619.03,-360 1619.03,-396"/>
<text text-anchor="middle" x="1436.03" y="-374.3" font-family="Times,serif" font-size="14.00">aws_iam_role_policy_attachment.readonly&#45;billing&#45;policy&#45;attach</text>
</g>
<!-- [root] aws_iam_role_policy_attachment.readonly&#45;billing&#45;policy&#45;attach&#45;&gt;[root] aws_iam_policy.readonly&#45;billing -->
<g id="edge15" class="edge">
<title>[root] aws_iam_role_policy_attachment.readonly&#45;billing&#45;policy&#45;attach&#45;&gt;[root] aws_iam_policy.readonly&#45;billing</title>
<path fill="none" stroke="black" d="M1355.97,-359.97C1307.92,-349.74 1246.67,-336.71 1196.95,-326.13"/>
<polygon fill="black" stroke="black" points="1197.68,-322.71 1187.17,-324.05 1196.22,-329.55 1197.68,-322.71"/>
</g>
<!-- [root] aws_iam_role_policy_attachment.readonly&#45;billing&#45;policy&#45;attach&#45;&gt;[root] aws_iam_role.readonly -->
<g id="edge16" class="edge">
<title>[root] aws_iam_role_policy_attachment.readonly&#45;billing&#45;policy&#45;attach&#45;&gt;[root] aws_iam_role.readonly</title>
<path fill="none" stroke="black" d="M1252.85,-360.78C1249.89,-360.52 1246.95,-360.26 1244.03,-360 1061.82,-343.93 1015.94,-343.27 834.03,-324 816.24,-322.12 797.17,-319.88 779.08,-317.67"/>
<polygon fill="black" stroke="black" points="779.5,-314.19 769.15,-316.44 778.64,-321.14 779.5,-314.19"/>
</g>
<!-- [root] aws_iam_role_policy_attachment.readonly&#45;role&#45;policy&#45;attach -->
<g id="node9" class="node">
<title>[root] aws_iam_role_policy_attachment.readonly&#45;role&#45;policy&#45;attach</title>
<polygon fill="none" stroke="black" points="873.03,-396 521.03,-396 521.03,-360 873.03,-360 873.03,-396"/>
<text text-anchor="middle" x="697.03" y="-374.3" font-family="Times,serif" font-size="14.00">aws_iam_role_policy_attachment.readonly&#45;role&#45;policy&#45;attach</text>
</g>
<!-- [root] aws_iam_role_policy_attachment.readonly&#45;role&#45;policy&#45;attach&#45;&gt;[root] aws_iam_role.readonly -->
<g id="edge17" class="edge">
<title>[root] aws_iam_role_policy_attachment.readonly&#45;role&#45;policy&#45;attach&#45;&gt;[root] aws_iam_role.readonly</title>
<path fill="none" stroke="black" d="M697.03,-359.7C697.03,-351.98 697.03,-342.71 697.03,-334.11"/>
<polygon fill="black" stroke="black" points="700.53,-334.1 697.03,-324.1 693.53,-334.1 700.53,-334.1"/>
</g>
<!-- [root] data.aws_iam_policy.readonly -->
<g id="node12" class="node">
<title>[root] data.aws_iam_policy.readonly</title>
<polygon fill="none" stroke="black" points="903.03,-252 721.03,-252 721.03,-216 903.03,-216 903.03,-252"/>
<text text-anchor="middle" x="812.03" y="-230.3" font-family="Times,serif" font-size="14.00">data.aws_iam_policy.readonly</text>
</g>
<!-- [root] aws_iam_role_policy_attachment.readonly&#45;role&#45;policy&#45;attach&#45;&gt;[root] data.aws_iam_policy.readonly -->
<g id="edge18" class="edge">
<title>[root] aws_iam_role_policy_attachment.readonly&#45;role&#45;policy&#45;attach&#45;&gt;[root] data.aws_iam_policy.readonly</title>
<path fill="none" stroke="black" d="M733.06,-359.94C748.64,-351.06 766.01,-338.92 778.03,-324 792.57,-305.96 801.38,-281.02 806.37,-262.13"/>
<polygon fill="black" stroke="black" points="809.79,-262.88 808.77,-252.34 802.99,-261.22 809.79,-262.88"/>
</g>
<!-- [root] data.aws_caller_identity.current -->
<g id="node10" class="node">
<title>[root] data.aws_caller_identity.current</title>
<polygon fill="none" stroke="black" points="428.03,-180 238.03,-180 238.03,-144 428.03,-144 428.03,-180"/>
<text text-anchor="middle" x="333.03" y="-158.3" font-family="Times,serif" font-size="14.00">data.aws_caller_identity.current</text>
</g>
<!-- [root] data.aws_caller_identity.current&#45;&gt;[root] provider.aws -->
<g id="edge19" class="edge">
<title>[root] data.aws_caller_identity.current&#45;&gt;[root] provider.aws</title>
<path fill="none" stroke="black" d="M428.31,-145.48C431.59,-144.98 434.84,-144.48 438.03,-144 551.91,-126.82 685.35,-108.61 759.64,-98.63"/>
<polygon fill="black" stroke="black" points="760.27,-102.08 769.72,-97.28 759.34,-95.14 760.27,-102.08"/>
</g>
<!-- [root] data.aws_iam_policy.administrator&#45;&gt;[root] provider.aws -->
<g id="edge20" class="edge">
<title>[root] data.aws_iam_policy.administrator&#45;&gt;[root] provider.aws</title>
<path fill="none" stroke="black" d="M208.22,-215.65C207.15,-195.22 208.93,-161.81 229.03,-144 266.43,-110.85 588.08,-97.45 739.2,-92.95"/>
<polygon fill="black" stroke="black" points="739.45,-96.44 749.34,-92.65 739.24,-89.44 739.45,-96.44"/>
</g>
<!-- [root] data.aws_iam_policy.readonly&#45;&gt;[root] provider.aws -->
<g id="edge21" class="edge">
<title>[root] data.aws_iam_policy.readonly&#45;&gt;[root] provider.aws</title>
<path fill="none" stroke="black" d="M812.64,-215.87C813.49,-191.67 815.05,-147.21 816.07,-118.39"/>
<polygon fill="black" stroke="black" points="819.57,-118.31 816.43,-108.19 812.58,-118.06 819.57,-118.31"/>
</g>
<!-- [root] data.template_file.trust&#45;policy&#45;&gt;[root] data.aws_caller_identity.current -->
<g id="edge22" class="edge">
<title>[root] data.template_file.trust&#45;policy&#45;&gt;[root] data.aws_caller_identity.current</title>
<path fill="none" stroke="black" d="M452.38,-215.88C430.78,-206.31 403.68,-194.3 380.77,-184.15"/>
<polygon fill="black" stroke="black" points="382.12,-180.92 371.56,-180.07 379.28,-187.32 382.12,-180.92"/>
</g>
<!-- [root] provider.template -->
<g id="node17" class="node">
<title>[root] provider.template</title>
<polygon fill="none" stroke="black" points="685.03,-180 581.3,-162 685.03,-144 788.76,-162 685.03,-180"/>
<text text-anchor="middle" x="685.03" y="-158.3" font-family="Times,serif" font-size="14.00">provider.template</text>
</g>
<!-- [root] data.template_file.trust&#45;policy&#45;&gt;[root] provider.template -->
<g id="edge23" class="edge">
<title>[root] data.template_file.trust&#45;policy&#45;&gt;[root] provider.template</title>
<path fill="none" stroke="black" d="M538.49,-215.88C570.58,-204.3 612.55,-189.15 643.35,-178.04"/>
<polygon fill="black" stroke="black" points="644.71,-181.27 652.93,-174.58 642.34,-174.69 644.71,-181.27"/>
</g>
<!-- [root] var.vault_user_arn -->
<g id="node20" class="node">
<title>[root] var.vault_user_arn</title>
<polygon fill="none" stroke="black" points="557.53,-180 446.53,-180 446.53,-144 563.53,-144 563.53,-174 557.53,-180"/>
<polyline fill="none" stroke="black" points="557.53,-180 557.53,-174 "/>
<polyline fill="none" stroke="black" points="563.53,-174 557.53,-174 "/>
<text text-anchor="middle" x="505.03" y="-158.3" font-family="Times,serif" font-size="14.00">var.vault_user_arn</text>
</g>
<!-- [root] data.template_file.trust&#45;policy&#45;&gt;[root] var.vault_user_arn -->
<g id="edge24" class="edge">
<title>[root] data.template_file.trust&#45;policy&#45;&gt;[root] var.vault_user_arn</title>
<path fill="none" stroke="black" d="M494.49,-215.7C496.04,-207.98 497.89,-198.71 499.61,-190.11"/>
<polygon fill="black" stroke="black" points="503.08,-190.6 501.61,-180.1 496.22,-189.22 503.08,-190.6"/>
</g>
<!-- [root] local.options -->
<g id="node14" class="node">
<title>[root] local.options</title>
<polygon fill="none" stroke="black" points="497.03,-396 417.03,-396 417.03,-360 503.03,-360 503.03,-390 497.03,-396"/>
<polyline fill="none" stroke="black" points="497.03,-396 497.03,-390 "/>
<polyline fill="none" stroke="black" points="503.03,-390 497.03,-390 "/>
<text text-anchor="middle" x="460.03" y="-374.3" font-family="Times,serif" font-size="14.00">local.options</text>
</g>
<!-- [root] local.options&#45;&gt;[root] aws_iam_role.administrator -->
<g id="edge25" class="edge">
<title>[root] local.options&#45;&gt;[root] aws_iam_role.administrator</title>
<path fill="none" stroke="black" d="M437.29,-359.7C425.59,-350.8 411.17,-339.82 398.52,-330.2"/>
<polygon fill="black" stroke="black" points="400.59,-327.37 390.51,-324.1 396.35,-332.94 400.59,-327.37"/>
</g>
<!-- [root] local.options&#45;&gt;[root] aws_iam_role.limited -->
<g id="edge26" class="edge">
<title>[root] local.options&#45;&gt;[root] aws_iam_role.limited</title>
<path fill="none" stroke="black" d="M479.56,-359.7C489.42,-350.97 501.52,-340.24 512.23,-330.75"/>
<polygon fill="black" stroke="black" points="514.57,-333.36 519.73,-324.1 509.92,-328.12 514.57,-333.36"/>
</g>
<!-- [root] local.options&#45;&gt;[root] aws_iam_role.readonly -->
<g id="edge27" class="edge">
<title>[root] local.options&#45;&gt;[root] aws_iam_role.readonly</title>
<path fill="none" stroke="black" d="M503.12,-362.78C506.14,-361.82 509.13,-360.89 512.03,-360 549.25,-348.59 590.9,-336.59 625.25,-326.9"/>
<polygon fill="black" stroke="black" points="626.52,-330.18 635.2,-324.1 624.62,-323.44 626.52,-330.18"/>
</g>
<!-- [root] output.toString -->
<g id="node15" class="node">
<title>[root] output.toString</title>
<polygon fill="none" stroke="black" points="543.03,-468 451.03,-468 451.03,-432 549.03,-432 549.03,-462 543.03,-468"/>
<polyline fill="none" stroke="black" points="543.03,-468 543.03,-462 "/>
<polyline fill="none" stroke="black" points="549.03,-462 543.03,-462 "/>
<text text-anchor="middle" x="500.03" y="-446.3" font-family="Times,serif" font-size="14.00">output.toString</text>
</g>
<!-- [root] output.toString&#45;&gt;[root] local.options -->
<g id="edge33" class="edge">
<title>[root] output.toString&#45;&gt;[root] local.options</title>
<path fill="none" stroke="black" d="M490.15,-431.7C485.54,-423.64 479.97,-413.89 474.88,-404.98"/>
<polygon fill="black" stroke="black" points="477.81,-403.05 469.81,-396.1 471.73,-406.52 477.81,-403.05"/>
</g>
<!-- [root] var.region -->
<g id="node19" class="node">
<title>[root] var.region</title>
<polygon fill="none" stroke="black" points="846.53,-36 781.53,-36 781.53,0 852.53,0 852.53,-30 846.53,-36"/>
<polyline fill="none" stroke="black" points="846.53,-36 846.53,-30 "/>
<polyline fill="none" stroke="black" points="852.53,-30 846.53,-30 "/>
<text text-anchor="middle" x="817.03" y="-14.3" font-family="Times,serif" font-size="14.00">var.region</text>
</g>
<!-- [root] provider.aws&#45;&gt;[root] var.region -->
<g id="edge38" class="edge">
<title>[root] provider.aws&#45;&gt;[root] var.region</title>
<path fill="none" stroke="black" d="M817.03,-71.7C817.03,-63.98 817.03,-54.71 817.03,-46.11"/>
<polygon fill="black" stroke="black" points="820.53,-46.1 817.03,-36.1 813.53,-46.1 820.53,-46.1"/>
</g>
<!-- [root] meta.count&#45;boundary (EachMode fixup) -->
<g id="node21" class="node">
<title>[root] meta.count&#45;boundary (EachMode fixup)</title>
<ellipse fill="none" stroke="black" cx="648.03" cy="-522" rx="176.27" ry="18"/>
<text text-anchor="middle" x="648.03" y="-518.3" font-family="Times,serif" font-size="14.00">[root] meta.count&#45;boundary (EachMode fixup)</text>
</g>
<!-- [root] meta.count&#45;boundary (EachMode fixup)&#45;&gt;[root] aws_iam_role_policy_attachment.administrator&#45;role&#45;policy&#45;attach -->
<g id="edge28" class="edge">
<title>[root] meta.count&#45;boundary (EachMode fixup)&#45;&gt;[root] aws_iam_role_policy_attachment.administrator&#45;role&#45;policy&#45;attach</title>
<path fill="none" stroke="black" d="M579.28,-505.4C538.97,-495.73 487.24,-482.43 442.03,-468 378.02,-447.56 306.01,-419.04 259.44,-399.85"/>
<polygon fill="black" stroke="black" points="260.76,-396.61 250.19,-396.02 258.09,-403.08 260.76,-396.61"/>
</g>
<!-- [root] meta.count&#45;boundary (EachMode fixup)&#45;&gt;[root] aws_iam_role_policy_attachment.limited&#45;role&#45;policy&#45;attach -->
<g id="edge29" class="edge">
<title>[root] meta.count&#45;boundary (EachMode fixup)&#45;&gt;[root] aws_iam_role_policy_attachment.limited&#45;role&#45;policy&#45;attach</title>
<path fill="none" stroke="black" d="M660.13,-503.72C675.64,-483.03 704.54,-449.04 738.03,-432 765.78,-417.88 828.75,-406.18 891.95,-397.4"/>
<polygon fill="black" stroke="black" points="892.66,-400.83 902.09,-396.01 891.71,-393.9 892.66,-400.83"/>
</g>
<!-- [root] meta.count&#45;boundary (EachMode fixup)&#45;&gt;[root] aws_iam_role_policy_attachment.readonly&#45;billing&#45;policy&#45;attach -->
<g id="edge30" class="edge">
<title>[root] meta.count&#45;boundary (EachMode fixup)&#45;&gt;[root] aws_iam_role_policy_attachment.readonly&#45;billing&#45;policy&#45;attach</title>
<path fill="none" stroke="black" d="M738.25,-506.51C801.96,-496.14 889.3,-481.66 966.03,-468 1095.34,-444.98 1244.26,-416.44 1339.21,-397.98"/>
<polygon fill="black" stroke="black" points="1339.93,-401.4 1349.08,-396.06 1338.6,-394.53 1339.93,-401.4"/>
</g>
<!-- [root] meta.count&#45;boundary (EachMode fixup)&#45;&gt;[root] aws_iam_role_policy_attachment.readonly&#45;role&#45;policy&#45;attach -->
<g id="edge31" class="edge">
<title>[root] meta.count&#45;boundary (EachMode fixup)&#45;&gt;[root] aws_iam_role_policy_attachment.readonly&#45;role&#45;policy&#45;attach</title>
<path fill="none" stroke="black" d="M653.94,-503.87C662.33,-479.56 677.77,-434.82 687.71,-406.01"/>
<polygon fill="black" stroke="black" points="691.15,-406.78 691.1,-396.19 684.53,-404.5 691.15,-406.78"/>
</g>
<!-- [root] meta.count&#45;boundary (EachMode fixup)&#45;&gt;[root] output.toString -->
<g id="edge32" class="edge">
<title>[root] meta.count&#45;boundary (EachMode fixup)&#45;&gt;[root] output.toString</title>
<path fill="none" stroke="black" d="M612.58,-504.23C592.47,-494.72 567.09,-482.71 545.52,-472.51"/>
<polygon fill="black" stroke="black" points="546.76,-469.23 536.22,-468.12 543.77,-475.56 546.76,-469.23"/>
</g>
<!-- [root] provider.aws (close) -->
<g id="node22" class="node">
<title>[root] provider.aws (close)</title>
<ellipse fill="none" stroke="black" cx="852.03" cy="-450" rx="104.78" ry="18"/>
<text text-anchor="middle" x="852.03" y="-446.3" font-family="Times,serif" font-size="14.00">[root] provider.aws (close)</text>
</g>
<!-- [root] provider.aws (close)&#45;&gt;[root] aws_iam_role_policy_attachment.administrator&#45;role&#45;policy&#45;attach -->
<g id="edge34" class="edge">
<title>[root] provider.aws (close)&#45;&gt;[root] aws_iam_role_policy_attachment.administrator&#45;role&#45;policy&#45;attach</title>
<path fill="none" stroke="black" d="M766.12,-439.63C666.73,-428.8 500.79,-410.7 376,-397.1"/>
<polygon fill="black" stroke="black" points="376.27,-393.61 365.95,-396 375.51,-400.56 376.27,-393.61"/>
</g>
<!-- [root] provider.aws (close)&#45;&gt;[root] aws_iam_role_policy_attachment.limited&#45;role&#45;policy&#45;attach -->
<g id="edge35" class="edge">
<title>[root] provider.aws (close)&#45;&gt;[root] aws_iam_role_policy_attachment.limited&#45;role&#45;policy&#45;attach</title>
<path fill="none" stroke="black" d="M897.82,-433.81C928.37,-423.67 968.9,-410.23 1002.16,-399.19"/>
<polygon fill="black" stroke="black" points="1003.4,-402.47 1011.79,-396 1001.19,-395.83 1003.4,-402.47"/>
</g>
<!-- [root] provider.aws (close)&#45;&gt;[root] aws_iam_role_policy_attachment.readonly&#45;billing&#45;policy&#45;attach -->
<g id="edge36" class="edge">
<title>[root] provider.aws (close)&#45;&gt;[root] aws_iam_role_policy_attachment.readonly&#45;billing&#45;policy&#45;attach</title>
<path fill="none" stroke="black" d="M935.09,-439.05C1025.72,-428.18 1172.76,-410.56 1284.14,-397.21"/>
<polygon fill="black" stroke="black" points="1284.61,-400.67 1294.13,-396.01 1283.78,-393.72 1284.61,-400.67"/>
</g>
<!-- [root] provider.aws (close)&#45;&gt;[root] aws_iam_role_policy_attachment.readonly&#45;role&#45;policy&#45;attach -->
<g id="edge37" class="edge">
<title>[root] provider.aws (close)&#45;&gt;[root] aws_iam_role_policy_attachment.readonly&#45;role&#45;policy&#45;attach</title>
<path fill="none" stroke="black" d="M816.47,-432.94C795.03,-423.26 767.45,-410.8 744.2,-400.3"/>
<polygon fill="black" stroke="black" points="745.42,-397.01 734.86,-396.08 742.54,-403.39 745.42,-397.01"/>
</g>
<!-- [root] provider.template (close) -->
<g id="node23" class="node">
<title>[root] provider.template (close)</title>
<ellipse fill="none" stroke="black" cx="235.03" cy="-522" rx="122.38" ry="18"/>
<text text-anchor="middle" x="235.03" y="-518.3" font-family="Times,serif" font-size="14.00">[root] provider.template (close)</text>
</g>
<!-- [root] provider.template (close)&#45;&gt;[root] data.template_file.trust&#45;policy -->
<g id="edge39" class="edge">
<title>[root] provider.template (close)&#45;&gt;[root] data.template_file.trust&#45;policy</title>
<path fill="none" stroke="black" d="M177.72,-506.05C95.4,-481.76 -40.87,-429.4 12.03,-360 57.56,-300.27 264.17,-263.84 390.7,-246.73"/>
<polygon fill="black" stroke="black" points="391.35,-250.17 400.8,-245.38 390.43,-243.23 391.35,-250.17"/>
</g>
<!-- [root] root -->
<g id="node24" class="node">
<title>[root] root</title>
<ellipse fill="none" stroke="black" cx="648.03" cy="-594" rx="47.39" ry="18"/>
<text text-anchor="middle" x="648.03" y="-590.3" font-family="Times,serif" font-size="14.00">[root] root</text>
</g>
<!-- [root] root&#45;&gt;[root] meta.count&#45;boundary (EachMode fixup) -->
<g id="edge40" class="edge">
<title>[root] root&#45;&gt;[root] meta.count&#45;boundary (EachMode fixup)</title>
<path fill="none" stroke="black" d="M648.03,-575.7C648.03,-567.98 648.03,-558.71 648.03,-550.11"/>
<polygon fill="black" stroke="black" points="651.53,-550.1 648.03,-540.1 644.53,-550.1 651.53,-550.1"/>
</g>
<!-- [root] root&#45;&gt;[root] provider.aws (close) -->
<g id="edge41" class="edge">
<title>[root] root&#45;&gt;[root] provider.aws (close)</title>
<path fill="none" stroke="black" d="M695.61,-592.41C737.72,-589.22 797.81,-577.73 833.03,-540 848.41,-523.53 852.55,-497.8 853.2,-478.23"/>
<polygon fill="black" stroke="black" points="856.7,-478.11 853.26,-468.09 849.7,-478.07 856.7,-478.11"/>
</g>
<!-- [root] root&#45;&gt;[root] provider.template (close) -->
<g id="edge42" class="edge">
<title>[root] root&#45;&gt;[root] provider.template (close)</title>
<path fill="none" stroke="black" d="M605.39,-585.77C538.88,-574.5 409.07,-552.5 322.19,-537.77"/>
<polygon fill="black" stroke="black" points="322.52,-534.28 312.07,-536.06 321.35,-541.18 322.52,-534.28"/>
</g>
</g>
</svg>
