<?xml version="1.0" encoding="UTF-8" standalone="no"?>
<!DOCTYPE svg PUBLIC "-//W3C//DTD SVG 1.1//EN"
 "http://www.w3.org/Graphics/SVG/1.1/DTD/svg11.dtd">
<!-- Generated by graphviz version 2.44.1 (20200629.0846)
 -->
<!-- Pages: 1 -->
<svg width="486pt" height="332pt"
 viewBox="0.00 0.00 485.78 332.00" xmlns="http://www.w3.org/2000/svg" xmlns:xlink="http://www.w3.org/1999/xlink">
<g id="graph0" class="graph" transform="scale(1 1) rotate(0) translate(4 328)">
<polygon fill="white" stroke="transparent" points="-4,4 -4,-328 481.78,-328 481.78,4 -4,4"/>
<!-- [root] aws_key_pair.key -->
<g id="node1" class="node">
<title>[root] aws_key_pair.key</title>
<polygon fill="none" stroke="black" points="335.13,-108 221.13,-108 221.13,-72 335.13,-72 335.13,-108"/>
<text text-anchor="middle" x="278.13" y="-86.3" font-family="Times,serif" font-size="14.00">aws_key_pair.key</text>
</g>
<!-- [root] provider.aws -->
<g id="node3" class="node">
<title>[root] provider.aws</title>
<polygon fill="none" stroke="black" points="147.13,-36 68.04,-18 147.13,0 226.23,-18 147.13,-36"/>
<text text-anchor="middle" x="147.13" y="-14.3" font-family="Times,serif" font-size="14.00">provider.aws</text>
</g>
<!-- [root] aws_key_pair.key&#45;&gt;[root] provider.aws -->
<g id="edge1" class="edge">
<title>[root] aws_key_pair.key&#45;&gt;[root] provider.aws</title>
<path fill="none" stroke="black" d="M246.09,-71.88C225.59,-60.92 199.13,-46.78 178.72,-35.88"/>
<polygon fill="black" stroke="black" points="180.29,-32.75 169.82,-31.12 176.99,-38.92 180.29,-32.75"/>
</g>
<!-- [root] var.name -->
<g id="node4" class="node">
<title>[root] var.name</title>
<polygon fill="none" stroke="black" points="305.63,-36 244.63,-36 244.63,0 311.63,0 311.63,-30 305.63,-36"/>
<polyline fill="none" stroke="black" points="305.63,-36 305.63,-30 "/>
<polyline fill="none" stroke="black" points="311.63,-30 305.63,-30 "/>
<text text-anchor="middle" x="278.13" y="-14.3" font-family="Times,serif" font-size="14.00">var.name</text>
</g>
<!-- [root] aws_key_pair.key&#45;&gt;[root] var.name -->
<g id="edge2" class="edge">
<title>[root] aws_key_pair.key&#45;&gt;[root] var.name</title>
<path fill="none" stroke="black" d="M278.13,-71.7C278.13,-63.98 278.13,-54.71 278.13,-46.11"/>
<polygon fill="black" stroke="black" points="281.63,-46.1 278.13,-36.1 274.63,-46.1 281.63,-46.1"/>
</g>
<!-- [root] var.path -->
<g id="node5" class="node">
<title>[root] var.path</title>
<polygon fill="none" stroke="black" points="384.13,-36 330.13,-36 330.13,0 390.13,0 390.13,-30 384.13,-36"/>
<polyline fill="none" stroke="black" points="384.13,-36 384.13,-30 "/>
<polyline fill="none" stroke="black" points="390.13,-30 384.13,-30 "/>
<text text-anchor="middle" x="360.13" y="-14.3" font-family="Times,serif" font-size="14.00">var.path</text>
</g>
<!-- [root] aws_key_pair.key&#45;&gt;[root] var.path -->
<g id="edge3" class="edge">
<title>[root] aws_key_pair.key&#45;&gt;[root] var.path</title>
<path fill="none" stroke="black" d="M298.4,-71.7C308.63,-62.97 321.2,-52.24 332.31,-42.75"/>
<polygon fill="black" stroke="black" points="334.76,-45.26 340.1,-36.1 330.22,-39.94 334.76,-45.26"/>
</g>
<!-- [root] output.key_name -->
<g id="node2" class="node">
<title>[root] output.key_name</title>
<polygon fill="none" stroke="black" points="238.63,-180 133.63,-180 133.63,-144 244.63,-144 244.63,-174 238.63,-180"/>
<polyline fill="none" stroke="black" points="238.63,-180 238.63,-174 "/>
<polyline fill="none" stroke="black" points="244.63,-174 238.63,-174 "/>
<text text-anchor="middle" x="189.13" y="-158.3" font-family="Times,serif" font-size="14.00">output.key_name</text>
</g>
<!-- [root] output.key_name&#45;&gt;[root] aws_key_pair.key -->
<g id="edge5" class="edge">
<title>[root] output.key_name&#45;&gt;[root] aws_key_pair.key</title>
<path fill="none" stroke="black" d="M211.13,-143.7C222.34,-134.88 236.14,-124.03 248.29,-114.47"/>
<polygon fill="black" stroke="black" points="250.69,-117.04 256.39,-108.1 246.36,-111.54 250.69,-117.04"/>
</g>
<!-- [root] meta.count&#45;boundary (EachMode fixup) -->
<g id="node6" class="node">
<title>[root] meta.count&#45;boundary (EachMode fixup)</title>
<ellipse fill="none" stroke="black" cx="176.13" cy="-234" rx="176.27" ry="18"/>
<text text-anchor="middle" x="176.13" y="-230.3" font-family="Times,serif" font-size="14.00">[root] meta.count&#45;boundary (EachMode fixup)</text>
</g>
<!-- [root] meta.count&#45;boundary (EachMode fixup)&#45;&gt;[root] output.key_name -->
<g id="edge4" class="edge">
<title>[root] meta.count&#45;boundary (EachMode fixup)&#45;&gt;[root] output.key_name</title>
<path fill="none" stroke="black" d="M179.35,-215.7C180.78,-207.98 182.5,-198.71 184.1,-190.11"/>
<polygon fill="black" stroke="black" points="187.57,-190.58 185.96,-180.1 180.69,-189.3 187.57,-190.58"/>
</g>
<!-- [root] provider.aws (close) -->
<g id="node7" class="node">
<title>[root] provider.aws (close)</title>
<ellipse fill="none" stroke="black" cx="373.13" cy="-162" rx="104.78" ry="18"/>
<text text-anchor="middle" x="373.13" y="-158.3" font-family="Times,serif" font-size="14.00">[root] provider.aws (close)</text>
</g>
<!-- [root] provider.aws (close)&#45;&gt;[root] aws_key_pair.key -->
<g id="edge6" class="edge">
<title>[root] provider.aws (close)&#45;&gt;[root] aws_key_pair.key</title>
<path fill="none" stroke="black" d="M350.62,-144.41C338.35,-135.37 322.98,-124.04 309.54,-114.14"/>
<polygon fill="black" stroke="black" points="311.61,-111.32 301.48,-108.2 307.45,-116.95 311.61,-111.32"/>
</g>
<!-- [root] root -->
<g id="node8" class="node">
<title>[root] root</title>
<ellipse fill="none" stroke="black" cx="278.13" cy="-306" rx="47.39" ry="18"/>
<text text-anchor="middle" x="278.13" y="-302.3" font-family="Times,serif" font-size="14.00">[root] root</text>
</g>
<!-- [root] root&#45;&gt;[root] meta.count&#45;boundary (EachMode fixup) -->
<g id="edge7" class="edge">
<title>[root] root&#45;&gt;[root] meta.count&#45;boundary (EachMode fixup)</title>
<path fill="none" stroke="black" d="M256.25,-289.98C242.52,-280.56 224.56,-268.23 209.12,-257.64"/>
<polygon fill="black" stroke="black" points="211.07,-254.73 200.85,-251.96 207.11,-260.5 211.07,-254.73"/>
</g>
<!-- [root] root&#45;&gt;[root] provider.aws (close) -->
<g id="edge8" class="edge">
<title>[root] root&#45;&gt;[root] provider.aws (close)</title>
<path fill="none" stroke="black" d="M310.38,-292.54C328.28,-283.9 349.26,-270.59 361.13,-252 372.78,-233.77 375.32,-209.15 375.21,-190.43"/>
<polygon fill="black" stroke="black" points="378.71,-190.06 374.89,-180.18 371.71,-190.28 378.71,-190.06"/>
</g>
</g>
</svg>
