<?xml version="1.0" encoding="UTF-8" standalone="no"?>
<!DOCTYPE svg PUBLIC "-//W3C//DTD SVG 1.1//EN"
 "http://www.w3.org/Graphics/SVG/1.1/DTD/svg11.dtd">
<!-- Generated by graphviz version 2.44.1 (20200629.0846)
 -->
<!-- Pages: 1 -->
<svg width="390pt" height="116pt"
 viewBox="0.00 0.00 390.13 116.00" xmlns="http://www.w3.org/2000/svg" xmlns:xlink="http://www.w3.org/1999/xlink">
<g id="graph0" class="graph" transform="scale(1 1) rotate(0) translate(4 112)">
<polygon fill="white" stroke="transparent" points="-4,4 -4,-112 386.13,-112 386.13,4 -4,4"/>
<!-- [root] output.login -->
<g id="node1" class="node">
<title>[root] output.login</title>
<polygon fill="none" stroke="black" points="100.63,-36 23.63,-36 23.63,0 106.63,0 106.63,-30 100.63,-36"/>
<polyline fill="none" stroke="black" points="100.63,-36 100.63,-30 "/>
<polyline fill="none" stroke="black" points="106.63,-30 100.63,-30 "/>
<text text-anchor="middle" x="65.13" y="-14.3" font-family="Times,serif" font-size="14.00">output.login</text>
</g>
<!-- [root] var.default_tags -->
<g id="node2" class="node">
<title>[root] var.default_tags</title>
<polygon fill="none" stroke="black" points="221.63,-36 124.63,-36 124.63,0 227.63,0 227.63,-30 221.63,-36"/>
<polyline fill="none" stroke="black" points="221.63,-36 221.63,-30 "/>
<polyline fill="none" stroke="black" points="227.63,-30 221.63,-30 "/>
<text text-anchor="middle" x="176.13" y="-14.3" font-family="Times,serif" font-size="14.00">var.default_tags</text>
</g>
<!-- [root] var.login_depends_on -->
<g id="node3" class="node">
<title>[root] var.login_depends_on</title>
<polygon fill="none" stroke="black" points="376.13,-36 246.13,-36 246.13,0 382.13,0 382.13,-30 376.13,-36"/>
<polyline fill="none" stroke="black" points="376.13,-36 376.13,-30 "/>
<polyline fill="none" stroke="black" points="382.13,-30 376.13,-30 "/>
<text text-anchor="middle" x="314.13" y="-14.3" font-family="Times,serif" font-size="14.00">var.login_depends_on</text>
</g>
<!-- [root] meta.count&#45;boundary (EachMode fixup) -->
<g id="node4" class="node">
<title>[root] meta.count&#45;boundary (EachMode fixup)</title>
<ellipse fill="none" stroke="black" cx="176.13" cy="-90" rx="176.27" ry="18"/>
<text text-anchor="middle" x="176.13" y="-86.3" font-family="Times,serif" font-size="14.00">[root] meta.count&#45;boundary (EachMode fixup)</text>
</g>
<!-- [root] meta.count&#45;boundary (EachMode fixup)&#45;&gt;[root] output.login -->
<g id="edge1" class="edge">
<title>[root] meta.count&#45;boundary (EachMode fixup)&#45;&gt;[root] output.login</title>
<path fill="none" stroke="black" d="M149.26,-72.05C134.65,-62.84 116.38,-51.32 100.61,-41.37"/>
<polygon fill="black" stroke="black" points="102.47,-38.41 92.14,-36.03 98.73,-44.33 102.47,-38.41"/>
</g>
<!-- [root] meta.count&#45;boundary (EachMode fixup)&#45;&gt;[root] var.default_tags -->
<g id="edge2" class="edge">
<title>[root] meta.count&#45;boundary (EachMode fixup)&#45;&gt;[root] var.default_tags</title>
<path fill="none" stroke="black" d="M176.13,-71.7C176.13,-63.98 176.13,-54.71 176.13,-46.11"/>
<polygon fill="black" stroke="black" points="179.63,-46.1 176.13,-36.1 172.63,-46.1 179.63,-46.1"/>
</g>
<!-- [root] meta.count&#45;boundary (EachMode fixup)&#45;&gt;[root] var.login_depends_on -->
<g id="edge3" class="edge">
<title>[root] meta.count&#45;boundary (EachMode fixup)&#45;&gt;[root] var.login_depends_on</title>
<path fill="none" stroke="black" d="M209.19,-72.23C227.86,-62.76 251.4,-50.82 271.45,-40.65"/>
<polygon fill="black" stroke="black" points="273.06,-43.76 280.39,-36.12 269.89,-37.52 273.06,-43.76"/>
</g>
</g>
</svg>
