<?xml version="1.0" encoding="UTF-8" standalone="no"?>
<!DOCTYPE svg PUBLIC "-//W3C//DTD SVG 1.1//EN"
 "http://www.w3.org/Graphics/SVG/1.1/DTD/svg11.dtd">
<!-- Generated by graphviz version 2.44.1 (20200629.0846)
 -->
<!-- Pages: 1 -->
<svg width="1107pt" height="404pt"
 viewBox="0.00 0.00 1106.98 404.00" xmlns="http://www.w3.org/2000/svg" xmlns:xlink="http://www.w3.org/1999/xlink">
<g id="graph0" class="graph" transform="scale(1 1) rotate(0) translate(4 400)">
<polygon fill="white" stroke="transparent" points="-4,4 -4,-400 1102.98,-400 1102.98,4 -4,4"/>
<!-- [root] data.template_file.helm_nexus -->
<g id="node1" class="node">
<title>[root] data.template_file.helm_nexus</title>
<polygon fill="none" stroke="black" points="896.48,-180 712.48,-180 712.48,-144 896.48,-144 896.48,-180"/>
<text text-anchor="middle" x="804.48" y="-158.3" font-family="Times,serif" font-size="14.00">data.template_file.helm_nexus</text>
</g>
<!-- [root] local.enable_service -->
<g id="node3" class="node">
<title>[root] local.enable_service</title>
<polygon fill="none" stroke="black" points="589.98,-108 468.98,-108 468.98,-72 595.98,-72 595.98,-102 589.98,-108"/>
<polyline fill="none" stroke="black" points="589.98,-108 589.98,-102 "/>
<polyline fill="none" stroke="black" points="595.98,-102 589.98,-102 "/>
<text text-anchor="middle" x="532.48" y="-86.3" font-family="Times,serif" font-size="14.00">local.enable_service</text>
</g>
<!-- [root] data.template_file.helm_nexus&#45;&gt;[root] local.enable_service -->
<g id="edge1" class="edge">
<title>[root] data.template_file.helm_nexus&#45;&gt;[root] local.enable_service</title>
<path fill="none" stroke="black" d="M738.29,-143.97C698.26,-133.66 647.15,-120.51 605.88,-109.89"/>
<polygon fill="black" stroke="black" points="606.71,-106.49 596.15,-107.39 604.97,-113.27 606.71,-106.49"/>
</g>
<!-- [root] provider.template -->
<g id="node5" class="node">
<title>[root] provider.template</title>
<polygon fill="none" stroke="black" points="717.48,-108 613.75,-90 717.48,-72 821.21,-90 717.48,-108"/>
<text text-anchor="middle" x="717.48" y="-86.3" font-family="Times,serif" font-size="14.00">provider.template</text>
</g>
<!-- [root] data.template_file.helm_nexus&#45;&gt;[root] provider.template -->
<g id="edge2" class="edge">
<title>[root] data.template_file.helm_nexus&#45;&gt;[root] provider.template</title>
<path fill="none" stroke="black" d="M782.98,-143.7C770.84,-133.93 755.61,-121.67 742.88,-111.44"/>
<polygon fill="black" stroke="black" points="744.93,-108.59 734.95,-105.05 740.54,-114.05 744.93,-108.59"/>
</g>
<!-- [root] var.default_tags -->
<g id="node6" class="node">
<title>[root] var.default_tags</title>
<polygon fill="none" stroke="black" points="935.98,-108 838.98,-108 838.98,-72 941.98,-72 941.98,-102 935.98,-108"/>
<polyline fill="none" stroke="black" points="935.98,-108 935.98,-102 "/>
<polyline fill="none" stroke="black" points="941.98,-102 935.98,-102 "/>
<text text-anchor="middle" x="890.48" y="-86.3" font-family="Times,serif" font-size="14.00">var.default_tags</text>
</g>
<!-- [root] data.template_file.helm_nexus&#45;&gt;[root] var.default_tags -->
<g id="edge3" class="edge">
<title>[root] data.template_file.helm_nexus&#45;&gt;[root] var.default_tags</title>
<path fill="none" stroke="black" d="M825.74,-143.7C836.57,-134.88 849.9,-124.03 861.64,-114.47"/>
<polygon fill="black" stroke="black" points="863.92,-117.13 869.47,-108.1 859.5,-111.7 863.92,-117.13"/>
</g>
<!-- [root] var.root_infra_domain -->
<g id="node11" class="node">
<title>[root] var.root_infra_domain</title>
<polygon fill="none" stroke="black" points="1092.98,-108 959.98,-108 959.98,-72 1098.98,-72 1098.98,-102 1092.98,-108"/>
<polyline fill="none" stroke="black" points="1092.98,-108 1092.98,-102 "/>
<polyline fill="none" stroke="black" points="1098.98,-102 1092.98,-102 "/>
<text text-anchor="middle" x="1029.48" y="-86.3" font-family="Times,serif" font-size="14.00">var.root_infra_domain</text>
</g>
<!-- [root] data.template_file.helm_nexus&#45;&gt;[root] var.root_infra_domain -->
<g id="edge4" class="edge">
<title>[root] data.template_file.helm_nexus&#45;&gt;[root] var.root_infra_domain</title>
<path fill="none" stroke="black" d="M859.24,-143.97C891.08,-134.06 931.4,-121.51 964.81,-111.12"/>
<polygon fill="black" stroke="black" points="965.97,-114.42 974.48,-108.11 963.89,-107.74 965.97,-114.42"/>
</g>
<!-- [root] helm_release.stable&#45;nexus -->
<g id="node2" class="node">
<title>[root] helm_release.stable&#45;nexus</title>
<polygon fill="none" stroke="black" points="427.48,-252 267.48,-252 267.48,-216 427.48,-216 427.48,-252"/>
<text text-anchor="middle" x="347.48" y="-230.3" font-family="Times,serif" font-size="14.00">helm_release.stable&#45;nexus</text>
</g>
<!-- [root] helm_release.stable&#45;nexus&#45;&gt;[root] data.template_file.helm_nexus -->
<g id="edge5" class="edge">
<title>[root] helm_release.stable&#45;nexus&#45;&gt;[root] data.template_file.helm_nexus</title>
<path fill="none" stroke="black" d="M427.79,-221.49C497.66,-211.37 601.92,-196.03 702.28,-180.18"/>
<polygon fill="black" stroke="black" points="702.97,-183.61 712.29,-178.59 701.87,-176.7 702.97,-183.61"/>
</g>
<!-- [root] provider.helm -->
<g id="node4" class="node">
<title>[root] provider.helm</title>
<polygon fill="none" stroke="black" points="85.48,-180 0.02,-162 85.48,-144 170.94,-162 85.48,-180"/>
<text text-anchor="middle" x="85.48" y="-158.3" font-family="Times,serif" font-size="14.00">provider.helm</text>
</g>
<!-- [root] helm_release.stable&#45;nexus&#45;&gt;[root] provider.helm -->
<g id="edge6" class="edge">
<title>[root] helm_release.stable&#45;nexus&#45;&gt;[root] provider.helm</title>
<path fill="none" stroke="black" d="M283.72,-215.97C236.47,-203.34 173.19,-186.43 130.97,-175.15"/>
<polygon fill="black" stroke="black" points="131.8,-171.75 121.24,-172.55 130,-178.52 131.8,-171.75"/>
</g>
<!-- [root] var.kubernetes_helm_nexus_chart_name -->
<g id="node8" class="node">
<title>[root] var.kubernetes_helm_nexus_chart_name</title>
<polygon fill="none" stroke="black" points="421.98,-180 188.98,-180 188.98,-144 427.98,-144 427.98,-174 421.98,-180"/>
<polyline fill="none" stroke="black" points="421.98,-180 421.98,-174 "/>
<polyline fill="none" stroke="black" points="427.98,-174 421.98,-174 "/>
<text text-anchor="middle" x="308.48" y="-158.3" font-family="Times,serif" font-size="14.00">var.kubernetes_helm_nexus_chart_name</text>
</g>
<!-- [root] helm_release.stable&#45;nexus&#45;&gt;[root] var.kubernetes_helm_nexus_chart_name -->
<g id="edge7" class="edge">
<title>[root] helm_release.stable&#45;nexus&#45;&gt;[root] var.kubernetes_helm_nexus_chart_name</title>
<path fill="none" stroke="black" d="M337.84,-215.7C333.35,-207.64 327.92,-197.89 322.96,-188.98"/>
<polygon fill="black" stroke="black" points="325.94,-187.14 318.01,-180.1 319.82,-190.54 325.94,-187.14"/>
</g>
<!-- [root] var.kubernetes_helm_nexus_chart_version -->
<g id="node9" class="node">
<title>[root] var.kubernetes_helm_nexus_chart_version</title>
<polygon fill="none" stroke="black" points="688.48,-180 446.48,-180 446.48,-144 694.48,-144 694.48,-174 688.48,-180"/>
<polyline fill="none" stroke="black" points="688.48,-180 688.48,-174 "/>
<polyline fill="none" stroke="black" points="694.48,-174 688.48,-174 "/>
<text text-anchor="middle" x="570.48" y="-158.3" font-family="Times,serif" font-size="14.00">var.kubernetes_helm_nexus_chart_version</text>
</g>
<!-- [root] helm_release.stable&#45;nexus&#45;&gt;[root] var.kubernetes_helm_nexus_chart_version -->
<g id="edge8" class="edge">
<title>[root] helm_release.stable&#45;nexus&#45;&gt;[root] var.kubernetes_helm_nexus_chart_version</title>
<path fill="none" stroke="black" d="M401.75,-215.97C433.31,-206.06 473.27,-193.51 506.38,-183.12"/>
<polygon fill="black" stroke="black" points="507.48,-186.45 515.97,-180.11 505.38,-179.77 507.48,-186.45"/>
</g>
<!-- [root] var.enable_cicd -->
<g id="node7" class="node">
<title>[root] var.enable_cicd</title>
<polygon fill="none" stroke="black" points="576.98,-36 481.98,-36 481.98,0 582.98,0 582.98,-30 576.98,-36"/>
<polyline fill="none" stroke="black" points="576.98,-36 576.98,-30 "/>
<polyline fill="none" stroke="black" points="582.98,-30 576.98,-30 "/>
<text text-anchor="middle" x="532.48" y="-14.3" font-family="Times,serif" font-size="14.00">var.enable_cicd</text>
</g>
<!-- [root] local.enable_service&#45;&gt;[root] var.enable_cicd -->
<g id="edge9" class="edge">
<title>[root] local.enable_service&#45;&gt;[root] var.enable_cicd</title>
<path fill="none" stroke="black" d="M532.48,-71.7C532.48,-63.98 532.48,-54.71 532.48,-46.11"/>
<polygon fill="black" stroke="black" points="535.98,-46.1 532.48,-36.1 528.98,-46.1 535.98,-46.1"/>
</g>
<!-- [root] var.observability_depends_on -->
<g id="node10" class="node">
<title>[root] var.observability_depends_on</title>
<polygon fill="none" stroke="black" points="657.98,-252 484.98,-252 484.98,-216 663.98,-216 663.98,-246 657.98,-252"/>
<polyline fill="none" stroke="black" points="657.98,-252 657.98,-246 "/>
<polyline fill="none" stroke="black" points="663.98,-246 657.98,-246 "/>
<text text-anchor="middle" x="574.48" y="-230.3" font-family="Times,serif" font-size="14.00">var.observability_depends_on</text>
</g>
<!-- [root] meta.count&#45;boundary (EachMode fixup) -->
<g id="node12" class="node">
<title>[root] meta.count&#45;boundary (EachMode fixup)</title>
<ellipse fill="none" stroke="black" cx="581.48" cy="-306" rx="176.27" ry="18"/>
<text text-anchor="middle" x="581.48" y="-302.3" font-family="Times,serif" font-size="14.00">[root] meta.count&#45;boundary (EachMode fixup)</text>
</g>
<!-- [root] meta.count&#45;boundary (EachMode fixup)&#45;&gt;[root] helm_release.stable&#45;nexus -->
<g id="edge10" class="edge">
<title>[root] meta.count&#45;boundary (EachMode fixup)&#45;&gt;[root] helm_release.stable&#45;nexus</title>
<path fill="none" stroke="black" d="M527.5,-288.85C493.82,-278.78 450.21,-265.73 414.35,-255"/>
<polygon fill="black" stroke="black" points="415.04,-251.56 404.45,-252.04 413.03,-258.26 415.04,-251.56"/>
</g>
<!-- [root] meta.count&#45;boundary (EachMode fixup)&#45;&gt;[root] var.observability_depends_on -->
<g id="edge11" class="edge">
<title>[root] meta.count&#45;boundary (EachMode fixup)&#45;&gt;[root] var.observability_depends_on</title>
<path fill="none" stroke="black" d="M579.75,-287.7C578.98,-279.98 578.05,-270.71 577.19,-262.11"/>
<polygon fill="black" stroke="black" points="580.67,-261.71 576.19,-252.1 573.7,-262.4 580.67,-261.71"/>
</g>
<!-- [root] provider.helm (close) -->
<g id="node13" class="node">
<title>[root] provider.helm (close)</title>
<ellipse fill="none" stroke="black" cx="278.48" cy="-306" rx="109.38" ry="18"/>
<text text-anchor="middle" x="278.48" y="-302.3" font-family="Times,serif" font-size="14.00">[root] provider.helm (close)</text>
</g>
<!-- [root] provider.helm (close)&#45;&gt;[root] helm_release.stable&#45;nexus -->
<g id="edge12" class="edge">
<title>[root] provider.helm (close)&#45;&gt;[root] helm_release.stable&#45;nexus</title>
<path fill="none" stroke="black" d="M295.18,-288.05C303.62,-279.5 314.01,-268.96 323.3,-259.54"/>
<polygon fill="black" stroke="black" points="325.93,-261.85 330.45,-252.28 320.94,-256.94 325.93,-261.85"/>
</g>
<!-- [root] provider.template (close) -->
<g id="node14" class="node">
<title>[root] provider.template (close)</title>
<ellipse fill="none" stroke="black" cx="804.48" cy="-234" rx="122.38" ry="18"/>
<text text-anchor="middle" x="804.48" y="-230.3" font-family="Times,serif" font-size="14.00">[root] provider.template (close)</text>
</g>
<!-- [root] provider.template (close)&#45;&gt;[root] data.template_file.helm_nexus -->
<g id="edge13" class="edge">
<title>[root] provider.template (close)&#45;&gt;[root] data.template_file.helm_nexus</title>
<path fill="none" stroke="black" d="M804.48,-215.7C804.48,-207.98 804.48,-198.71 804.48,-190.11"/>
<polygon fill="black" stroke="black" points="807.98,-190.1 804.48,-180.1 800.98,-190.1 807.98,-190.1"/>
</g>
<!-- [root] root -->
<g id="node15" class="node">
<title>[root] root</title>
<ellipse fill="none" stroke="black" cx="581.48" cy="-378" rx="47.39" ry="18"/>
<text text-anchor="middle" x="581.48" y="-374.3" font-family="Times,serif" font-size="14.00">[root] root</text>
</g>
<!-- [root] root&#45;&gt;[root] meta.count&#45;boundary (EachMode fixup) -->
<g id="edge14" class="edge">
<title>[root] root&#45;&gt;[root] meta.count&#45;boundary (EachMode fixup)</title>
<path fill="none" stroke="black" d="M581.48,-359.7C581.48,-351.98 581.48,-342.71 581.48,-334.11"/>
<polygon fill="black" stroke="black" points="584.98,-334.1 581.48,-324.1 577.98,-334.1 584.98,-334.1"/>
</g>
<!-- [root] root&#45;&gt;[root] provider.helm (close) -->
<g id="edge15" class="edge">
<title>[root] root&#45;&gt;[root] provider.helm (close)</title>
<path fill="none" stroke="black" d="M541.87,-367.85C492.94,-356.54 408.83,-337.11 348.82,-323.25"/>
<polygon fill="black" stroke="black" points="349.57,-319.83 339.04,-320.99 347.99,-326.65 349.57,-319.83"/>
</g>
<!-- [root] root&#45;&gt;[root] provider.template (close) -->
<g id="edge16" class="edge">
<title>[root] root&#45;&gt;[root] provider.template (close)</title>
<path fill="none" stroke="black" d="M628.21,-374.64C669.18,-370.23 728.03,-357.94 766.48,-324 784.53,-308.07 794.27,-282.1 799.36,-262.32"/>
<polygon fill="black" stroke="black" points="802.83,-262.87 801.67,-252.34 796.01,-261.29 802.83,-262.87"/>
</g>
</g>
</svg>
