<?xml version="1.0" encoding="UTF-8" standalone="no"?>
<!DOCTYPE svg PUBLIC "-//W3C//DTD SVG 1.1//EN"
 "http://www.w3.org/Graphics/SVG/1.1/DTD/svg11.dtd">
<!-- Generated by graphviz version 2.44.1 (20200629.0846)
 -->
<!-- Pages: 1 -->
<svg width="1877pt" height="404pt"
 viewBox="0.00 0.00 1876.72 404.00" xmlns="http://www.w3.org/2000/svg" xmlns:xlink="http://www.w3.org/1999/xlink">
<g id="graph0" class="graph" transform="scale(1 1) rotate(0) translate(4 400)">
<polygon fill="white" stroke="transparent" points="-4,4 -4,-400 1872.72,-400 1872.72,4 -4,4"/>
<!-- [root] aws_db_subnet_group.default -->
<g id="node1" class="node">
<title>[root] aws_db_subnet_group.default</title>
<polygon fill="none" stroke="black" points="518.5,-108 339.5,-108 339.5,-72 518.5,-72 518.5,-108"/>
<text text-anchor="middle" x="429" y="-86.3" font-family="Times,serif" font-size="14.00">aws_db_subnet_group.default</text>
</g>
<!-- [root] provider.aws -->
<g id="node8" class="node">
<title>[root] provider.aws</title>
<polygon fill="none" stroke="black" points="643,-36 563.9,-18 643,0 722.1,-18 643,-36"/>
<text text-anchor="middle" x="643" y="-14.3" font-family="Times,serif" font-size="14.00">provider.aws</text>
</g>
<!-- [root] aws_db_subnet_group.default&#45;&gt;[root] provider.aws -->
<g id="edge1" class="edge">
<title>[root] aws_db_subnet_group.default&#45;&gt;[root] provider.aws</title>
<path fill="none" stroke="black" d="M481.08,-71.97C518.46,-59.74 568.12,-43.49 602.54,-32.23"/>
<polygon fill="black" stroke="black" points="603.85,-35.49 612.26,-29.05 601.67,-28.84 603.85,-35.49"/>
</g>
<!-- [root] var.baserdsname -->
<g id="node10" class="node">
<title>[root] var.baserdsname</title>
<polygon fill="none" stroke="black" points="1353.5,-36 1252.5,-36 1252.5,0 1359.5,0 1359.5,-30 1353.5,-36"/>
<polyline fill="none" stroke="black" points="1353.5,-36 1353.5,-30 "/>
<polyline fill="none" stroke="black" points="1359.5,-30 1353.5,-30 "/>
<text text-anchor="middle" x="1306" y="-14.3" font-family="Times,serif" font-size="14.00">var.baserdsname</text>
</g>
<!-- [root] aws_db_subnet_group.default&#45;&gt;[root] var.baserdsname -->
<g id="edge2" class="edge">
<title>[root] aws_db_subnet_group.default&#45;&gt;[root] var.baserdsname</title>
<path fill="none" stroke="black" d="M518.52,-73.21C521.72,-72.78 524.88,-72.37 528,-72 791.99,-40.43 1108.79,-26.1 1242.02,-21.15"/>
<polygon fill="black" stroke="black" points="1242.19,-24.64 1252.06,-20.78 1241.94,-17.65 1242.19,-24.64"/>
</g>
<!-- [root] var.default_tags -->
<g id="node13" class="node">
<title>[root] var.default_tags</title>
<polygon fill="none" stroke="black" points="269.5,-36 172.5,-36 172.5,0 275.5,0 275.5,-30 269.5,-36"/>
<polyline fill="none" stroke="black" points="269.5,-36 269.5,-30 "/>
<polyline fill="none" stroke="black" points="275.5,-30 269.5,-30 "/>
<text text-anchor="middle" x="224" y="-14.3" font-family="Times,serif" font-size="14.00">var.default_tags</text>
</g>
<!-- [root] aws_db_subnet_group.default&#45;&gt;[root] var.default_tags -->
<g id="edge3" class="edge">
<title>[root] aws_db_subnet_group.default&#45;&gt;[root] var.default_tags</title>
<path fill="none" stroke="black" d="M379.11,-71.97C350.35,-62.14 313.99,-49.73 283.71,-39.39"/>
<polygon fill="black" stroke="black" points="284.7,-36.03 274.11,-36.11 282.44,-42.65 284.7,-36.03"/>
</g>
<!-- [root] var.object_sequence -->
<g id="node20" class="node">
<title>[root] var.object_sequence</title>
<polygon fill="none" stroke="black" points="1754,-36 1634,-36 1634,0 1760,0 1760,-30 1754,-36"/>
<polyline fill="none" stroke="black" points="1754,-36 1754,-30 "/>
<polyline fill="none" stroke="black" points="1760,-30 1754,-30 "/>
<text text-anchor="middle" x="1697" y="-14.3" font-family="Times,serif" font-size="14.00">var.object_sequence</text>
</g>
<!-- [root] aws_db_subnet_group.default&#45;&gt;[root] var.object_sequence -->
<g id="edge4" class="edge">
<title>[root] aws_db_subnet_group.default&#45;&gt;[root] var.object_sequence</title>
<path fill="none" stroke="black" d="M518.51,-73.1C521.71,-72.7 524.88,-72.33 528,-72 900,-32.26 995.3,-53.68 1369,-36 1456.45,-31.86 1556.99,-26.57 1623.45,-23"/>
<polygon fill="black" stroke="black" points="1624.03,-26.48 1633.82,-22.44 1623.65,-19.49 1624.03,-26.48"/>
</g>
<!-- [root] var.subnetgroupname -->
<g id="node23" class="node">
<title>[root] var.subnetgroupname</title>
<polygon fill="none" stroke="black" points="422,-36 294,-36 294,0 428,0 428,-30 422,-36"/>
<polyline fill="none" stroke="black" points="422,-36 422,-30 "/>
<polyline fill="none" stroke="black" points="428,-30 422,-30 "/>
<text text-anchor="middle" x="361" y="-14.3" font-family="Times,serif" font-size="14.00">var.subnetgroupname</text>
</g>
<!-- [root] aws_db_subnet_group.default&#45;&gt;[root] var.subnetgroupname -->
<g id="edge5" class="edge">
<title>[root] aws_db_subnet_group.default&#45;&gt;[root] var.subnetgroupname</title>
<path fill="none" stroke="black" d="M412.19,-71.7C403.87,-63.14 393.69,-52.66 384.61,-43.3"/>
<polygon fill="black" stroke="black" points="387.09,-40.84 377.62,-36.1 382.07,-45.72 387.09,-40.84"/>
</g>
<!-- [root] var.subnets_ids -->
<g id="node24" class="node">
<title>[root] var.subnets_ids</title>
<polygon fill="none" stroke="black" points="540,-36 446,-36 446,0 546,0 546,-30 540,-36"/>
<polyline fill="none" stroke="black" points="540,-36 540,-30 "/>
<polyline fill="none" stroke="black" points="546,-30 540,-30 "/>
<text text-anchor="middle" x="496" y="-14.3" font-family="Times,serif" font-size="14.00">var.subnets_ids</text>
</g>
<!-- [root] aws_db_subnet_group.default&#45;&gt;[root] var.subnets_ids -->
<g id="edge6" class="edge">
<title>[root] aws_db_subnet_group.default&#45;&gt;[root] var.subnets_ids</title>
<path fill="none" stroke="black" d="M445.56,-71.7C453.68,-63.22 463.59,-52.86 472.47,-43.58"/>
<polygon fill="black" stroke="black" points="475.24,-45.75 479.63,-36.1 470.19,-40.91 475.24,-45.75"/>
</g>
<!-- [root] aws_docdb_cluster.cluster -->
<g id="node2" class="node">
<title>[root] aws_docdb_cluster.cluster</title>
<polygon fill="none" stroke="black" points="1020.5,-180 861.5,-180 861.5,-144 1020.5,-144 1020.5,-180"/>
<text text-anchor="middle" x="941" y="-158.3" font-family="Times,serif" font-size="14.00">aws_docdb_cluster.cluster</text>
</g>
<!-- [root] aws_docdb_cluster.cluster&#45;&gt;[root] aws_db_subnet_group.default -->
<g id="edge7" class="edge">
<title>[root] aws_docdb_cluster.cluster&#45;&gt;[root] aws_db_subnet_group.default</title>
<path fill="none" stroke="black" d="M861.3,-151.79C780.22,-142.19 650.69,-126.21 528.46,-108.03"/>
<polygon fill="black" stroke="black" points="528.96,-104.57 518.55,-106.55 527.92,-111.49 528.96,-104.57"/>
</g>
<!-- [root] var.aws_azs -->
<g id="node9" class="node">
<title>[root] var.aws_azs</title>
<polygon fill="none" stroke="black" points="613,-108 537,-108 537,-72 619,-72 619,-102 613,-108"/>
<polyline fill="none" stroke="black" points="613,-108 613,-102 "/>
<polyline fill="none" stroke="black" points="619,-102 613,-102 "/>
<text text-anchor="middle" x="578" y="-86.3" font-family="Times,serif" font-size="14.00">var.aws_azs</text>
</g>
<!-- [root] aws_docdb_cluster.cluster&#45;&gt;[root] var.aws_azs -->
<g id="edge8" class="edge">
<title>[root] aws_docdb_cluster.cluster&#45;&gt;[root] var.aws_azs</title>
<path fill="none" stroke="black" d="M861.48,-151.12C800.14,-142.67 713.15,-128.9 628.79,-107.99"/>
<polygon fill="black" stroke="black" points="629.6,-104.58 619.04,-105.54 627.89,-111.37 629.6,-104.58"/>
</g>
<!-- [root] var.database_name -->
<g id="node11" class="node">
<title>[root] var.database_name</title>
<polygon fill="none" stroke="black" points="1814,-108 1700,-108 1700,-72 1820,-72 1820,-102 1814,-108"/>
<polyline fill="none" stroke="black" points="1814,-108 1814,-102 "/>
<polyline fill="none" stroke="black" points="1820,-102 1814,-102 "/>
<text text-anchor="middle" x="1760" y="-86.3" font-family="Times,serif" font-size="14.00">var.database_name</text>
</g>
<!-- [root] aws_docdb_cluster.cluster&#45;&gt;[root] var.database_name -->
<g id="edge9" class="edge">
<title>[root] aws_docdb_cluster.cluster&#45;&gt;[root] var.database_name</title>
<path fill="none" stroke="black" d="M1020.65,-157.1C1182.53,-148.9 1546.1,-129 1689.94,-107.96"/>
<polygon fill="black" stroke="black" points="1690.55,-111.41 1699.91,-106.45 1689.5,-104.49 1690.55,-111.41"/>
</g>
<!-- [root] var.dbclustername -->
<g id="node12" class="node">
<title>[root] var.dbclustername</title>
<polygon fill="none" stroke="black" points="1676,-108 1566,-108 1566,-72 1682,-72 1682,-102 1676,-108"/>
<polyline fill="none" stroke="black" points="1676,-108 1676,-102 "/>
<polyline fill="none" stroke="black" points="1682,-102 1676,-102 "/>
<text text-anchor="middle" x="1624" y="-86.3" font-family="Times,serif" font-size="14.00">var.dbclustername</text>
</g>
<!-- [root] aws_docdb_cluster.cluster&#45;&gt;[root] var.dbclustername -->
<g id="edge10" class="edge">
<title>[root] aws_docdb_cluster.cluster&#45;&gt;[root] var.dbclustername</title>
<path fill="none" stroke="black" d="M1020.77,-158.28C1136.75,-153.41 1358.69,-140.63 1555.7,-108.07"/>
<polygon fill="black" stroke="black" points="1556.37,-111.5 1565.65,-106.4 1555.21,-104.6 1556.37,-111.5"/>
</g>
<!-- [root] var.deletion_protection -->
<g id="node14" class="node">
<title>[root] var.deletion_protection</title>
<polygon fill="none" stroke="black" points="773,-108 637,-108 637,-72 779,-72 779,-102 773,-108"/>
<polyline fill="none" stroke="black" points="773,-108 773,-102 "/>
<polyline fill="none" stroke="black" points="779,-102 773,-102 "/>
<text text-anchor="middle" x="708" y="-86.3" font-family="Times,serif" font-size="14.00">var.deletion_protection</text>
</g>
<!-- [root] aws_docdb_cluster.cluster&#45;&gt;[root] var.deletion_protection -->
<g id="edge11" class="edge">
<title>[root] aws_docdb_cluster.cluster&#45;&gt;[root] var.deletion_protection</title>
<path fill="none" stroke="black" d="M884.3,-143.97C851.32,-134.06 809.57,-121.51 774.97,-111.12"/>
<polygon fill="black" stroke="black" points="775.54,-107.64 764.95,-108.11 773.52,-114.34 775.54,-107.64"/>
</g>
<!-- [root] var.engine -->
<g id="node15" class="node">
<title>[root] var.engine</title>
<polygon fill="none" stroke="black" points="864.5,-108 797.5,-108 797.5,-72 870.5,-72 870.5,-102 864.5,-108"/>
<polyline fill="none" stroke="black" points="864.5,-108 864.5,-102 "/>
<polyline fill="none" stroke="black" points="870.5,-102 864.5,-102 "/>
<text text-anchor="middle" x="834" y="-86.3" font-family="Times,serif" font-size="14.00">var.engine</text>
</g>
<!-- [root] aws_docdb_cluster.cluster&#45;&gt;[root] var.engine -->
<g id="edge12" class="edge">
<title>[root] aws_docdb_cluster.cluster&#45;&gt;[root] var.engine</title>
<path fill="none" stroke="black" d="M914.82,-143.88C900.96,-134.81 883.76,-123.55 868.79,-113.76"/>
<polygon fill="black" stroke="black" points="870.56,-110.74 860.28,-108.19 866.73,-116.59 870.56,-110.74"/>
</g>
<!-- [root] var.kms_key_id -->
<g id="node17" class="node">
<title>[root] var.kms_key_id</title>
<polygon fill="none" stroke="black" points="987,-108 889,-108 889,-72 993,-72 993,-102 987,-108"/>
<polyline fill="none" stroke="black" points="987,-108 987,-102 "/>
<polyline fill="none" stroke="black" points="993,-102 987,-102 "/>
<text text-anchor="middle" x="941" y="-86.3" font-family="Times,serif" font-size="14.00">var.kms_key_id</text>
</g>
<!-- [root] aws_docdb_cluster.cluster&#45;&gt;[root] var.kms_key_id -->
<g id="edge13" class="edge">
<title>[root] aws_docdb_cluster.cluster&#45;&gt;[root] var.kms_key_id</title>
<path fill="none" stroke="black" d="M941,-143.7C941,-135.98 941,-126.71 941,-118.11"/>
<polygon fill="black" stroke="black" points="944.5,-118.1 941,-108.1 937.5,-118.1 944.5,-118.1"/>
</g>
<!-- [root] var.master_password -->
<g id="node18" class="node">
<title>[root] var.master_password</title>
<polygon fill="none" stroke="black" points="1136.5,-108 1011.5,-108 1011.5,-72 1142.5,-72 1142.5,-102 1136.5,-108"/>
<polyline fill="none" stroke="black" points="1136.5,-108 1136.5,-102 "/>
<polyline fill="none" stroke="black" points="1142.5,-102 1136.5,-102 "/>
<text text-anchor="middle" x="1077" y="-86.3" font-family="Times,serif" font-size="14.00">var.master_password</text>
</g>
<!-- [root] aws_docdb_cluster.cluster&#45;&gt;[root] var.master_password -->
<g id="edge14" class="edge">
<title>[root] aws_docdb_cluster.cluster&#45;&gt;[root] var.master_password</title>
<path fill="none" stroke="black" d="M974.27,-143.88C992.46,-134.51 1015.19,-122.81 1034.64,-112.8"/>
<polygon fill="black" stroke="black" points="1036.31,-115.88 1043.6,-108.19 1033.11,-109.65 1036.31,-115.88"/>
</g>
<!-- [root] var.master_username -->
<g id="node19" class="node">
<title>[root] var.master_username</title>
<polygon fill="none" stroke="black" points="1287.5,-108 1160.5,-108 1160.5,-72 1293.5,-72 1293.5,-102 1287.5,-108"/>
<polyline fill="none" stroke="black" points="1287.5,-108 1287.5,-102 "/>
<polyline fill="none" stroke="black" points="1293.5,-102 1287.5,-102 "/>
<text text-anchor="middle" x="1227" y="-86.3" font-family="Times,serif" font-size="14.00">var.master_username</text>
</g>
<!-- [root] aws_docdb_cluster.cluster&#45;&gt;[root] var.master_username -->
<g id="edge15" class="edge">
<title>[root] aws_docdb_cluster.cluster&#45;&gt;[root] var.master_username</title>
<path fill="none" stroke="black" d="M1010.6,-143.97C1052.78,-133.64 1106.66,-120.45 1150.1,-109.82"/>
<polygon fill="black" stroke="black" points="1151.17,-113.16 1160.05,-107.39 1149.51,-106.36 1151.17,-113.16"/>
</g>
<!-- [root] var.rds_preferred_maintenance_window -->
<g id="node21" class="node">
<title>[root] var.rds_preferred_maintenance_window</title>
<polygon fill="none" stroke="black" points="1542,-108 1312,-108 1312,-72 1548,-72 1548,-102 1542,-108"/>
<polyline fill="none" stroke="black" points="1542,-108 1542,-102 "/>
<polyline fill="none" stroke="black" points="1548,-102 1542,-102 "/>
<text text-anchor="middle" x="1430" y="-86.3" font-family="Times,serif" font-size="14.00">var.rds_preferred_maintenance_window</text>
</g>
<!-- [root] aws_docdb_cluster.cluster&#45;&gt;[root] var.rds_preferred_maintenance_window -->
<g id="edge16" class="edge">
<title>[root] aws_docdb_cluster.cluster&#45;&gt;[root] var.rds_preferred_maintenance_window</title>
<path fill="none" stroke="black" d="M1020.65,-149.6C1096.82,-138.69 1212.95,-122.07 1302.08,-109.31"/>
<polygon fill="black" stroke="black" points="1302.58,-112.78 1311.99,-107.89 1301.59,-105.85 1302.58,-112.78"/>
</g>
<!-- [root] var.storage_encrypted -->
<g id="node22" class="node">
<title>[root] var.storage_encrypted</title>
<polygon fill="none" stroke="black" points="130,-108 0,-108 0,-72 136,-72 136,-102 130,-108"/>
<polyline fill="none" stroke="black" points="130,-108 130,-102 "/>
<polyline fill="none" stroke="black" points="136,-102 130,-102 "/>
<text text-anchor="middle" x="68" y="-86.3" font-family="Times,serif" font-size="14.00">var.storage_encrypted</text>
</g>
<!-- [root] aws_docdb_cluster.cluster&#45;&gt;[root] var.storage_encrypted -->
<g id="edge17" class="edge">
<title>[root] aws_docdb_cluster.cluster&#45;&gt;[root] var.storage_encrypted</title>
<path fill="none" stroke="black" d="M861.22,-159.66C719.21,-156.41 413.23,-145.47 146.6,-108.1"/>
<polygon fill="black" stroke="black" points="146.73,-104.59 136.34,-106.65 145.75,-111.52 146.73,-104.59"/>
</g>
<!-- [root] var.vpc_security_group_ids -->
<g id="node25" class="node">
<title>[root] var.vpc_security_group_ids</title>
<polygon fill="none" stroke="black" points="315.5,-108 154.5,-108 154.5,-72 321.5,-72 321.5,-102 315.5,-108"/>
<polyline fill="none" stroke="black" points="315.5,-108 315.5,-102 "/>
<polyline fill="none" stroke="black" points="321.5,-102 315.5,-102 "/>
<text text-anchor="middle" x="238" y="-86.3" font-family="Times,serif" font-size="14.00">var.vpc_security_group_ids</text>
</g>
<!-- [root] aws_docdb_cluster.cluster&#45;&gt;[root] var.vpc_security_group_ids -->
<g id="edge18" class="edge">
<title>[root] aws_docdb_cluster.cluster&#45;&gt;[root] var.vpc_security_group_ids</title>
<path fill="none" stroke="black" d="M861.15,-156.53C746.21,-149.55 527.3,-134.22 331.85,-108.18"/>
<polygon fill="black" stroke="black" points="332.06,-104.68 321.68,-106.82 331.13,-111.62 332.06,-104.68"/>
</g>
<!-- [root] aws_docdb_cluster_instance.cluster_instances -->
<g id="node3" class="node">
<title>[root] aws_docdb_cluster_instance.cluster_instances</title>
<polygon fill="none" stroke="black" points="1533.5,-252 1266.5,-252 1266.5,-216 1533.5,-216 1533.5,-252"/>
<text text-anchor="middle" x="1400" y="-230.3" font-family="Times,serif" font-size="14.00">aws_docdb_cluster_instance.cluster_instances</text>
</g>
<!-- [root] aws_docdb_cluster_instance.cluster_instances&#45;&gt;[root] aws_docdb_cluster.cluster -->
<g id="edge19" class="edge">
<title>[root] aws_docdb_cluster_instance.cluster_instances&#45;&gt;[root] aws_docdb_cluster.cluster</title>
<path fill="none" stroke="black" d="M1288.3,-215.97C1209.23,-203.91 1104.56,-187.94 1030.87,-176.71"/>
<polygon fill="black" stroke="black" points="1031.09,-173.2 1020.68,-175.15 1030.04,-180.12 1031.09,-173.2"/>
</g>
<!-- [root] local.databasename -->
<g id="node4" class="node">
<title>[root] local.databasename</title>
<polygon fill="none" stroke="black" points="1815.5,-180 1698.5,-180 1698.5,-144 1821.5,-144 1821.5,-174 1815.5,-180"/>
<polyline fill="none" stroke="black" points="1815.5,-180 1815.5,-174 "/>
<polyline fill="none" stroke="black" points="1821.5,-174 1815.5,-174 "/>
<text text-anchor="middle" x="1760" y="-158.3" font-family="Times,serif" font-size="14.00">local.databasename</text>
</g>
<!-- [root] aws_docdb_cluster_instance.cluster_instances&#45;&gt;[root] local.databasename -->
<g id="edge20" class="edge">
<title>[root] aws_docdb_cluster_instance.cluster_instances&#45;&gt;[root] local.databasename</title>
<path fill="none" stroke="black" d="M1487.61,-215.97C1549.16,-204 1630.49,-188.18 1688.21,-176.96"/>
<polygon fill="black" stroke="black" points="1689.19,-180.33 1698.34,-174.99 1687.86,-173.46 1689.19,-180.33"/>
</g>
<!-- [root] var.instance_type -->
<g id="node16" class="node">
<title>[root] var.instance_type</title>
<polygon fill="none" stroke="black" points="1449.5,-180 1344.5,-180 1344.5,-144 1455.5,-144 1455.5,-174 1449.5,-180"/>
<polyline fill="none" stroke="black" points="1449.5,-180 1449.5,-174 "/>
<polyline fill="none" stroke="black" points="1455.5,-174 1449.5,-174 "/>
<text text-anchor="middle" x="1400" y="-158.3" font-family="Times,serif" font-size="14.00">var.instance_type</text>
</g>
<!-- [root] aws_docdb_cluster_instance.cluster_instances&#45;&gt;[root] var.instance_type -->
<g id="edge21" class="edge">
<title>[root] aws_docdb_cluster_instance.cluster_instances&#45;&gt;[root] var.instance_type</title>
<path fill="none" stroke="black" d="M1400,-215.7C1400,-207.98 1400,-198.71 1400,-190.11"/>
<polygon fill="black" stroke="black" points="1403.5,-190.1 1400,-180.1 1396.5,-190.1 1403.5,-190.1"/>
</g>
<!-- [root] local.databasename&#45;&gt;[root] var.baserdsname -->
<g id="edge22" class="edge">
<title>[root] local.databasename&#45;&gt;[root] var.baserdsname</title>
<path fill="none" stroke="black" d="M1793.84,-143.96C1807.38,-135.22 1821.52,-123.17 1829,-108 1836.07,-93.65 1839.73,-83.87 1829,-72 1813.77,-55.15 1505.99,-32.46 1369.84,-23.2"/>
<polygon fill="black" stroke="black" points="1369.77,-19.69 1359.56,-22.5 1369.3,-26.67 1369.77,-19.69"/>
</g>
<!-- [root] local.databasename&#45;&gt;[root] var.database_name -->
<g id="edge23" class="edge">
<title>[root] local.databasename&#45;&gt;[root] var.database_name</title>
<path fill="none" stroke="black" d="M1760,-143.7C1760,-135.98 1760,-126.71 1760,-118.11"/>
<polygon fill="black" stroke="black" points="1763.5,-118.1 1760,-108.1 1756.5,-118.1 1763.5,-118.1"/>
</g>
<!-- [root] local.databasename&#45;&gt;[root] var.dbclustername -->
<g id="edge24" class="edge">
<title>[root] local.databasename&#45;&gt;[root] var.dbclustername</title>
<path fill="none" stroke="black" d="M1726.73,-143.88C1708.54,-134.51 1685.81,-122.81 1666.36,-112.8"/>
<polygon fill="black" stroke="black" points="1667.89,-109.65 1657.4,-108.19 1664.69,-115.88 1667.89,-109.65"/>
</g>
<!-- [root] local.databasename&#45;&gt;[root] var.object_sequence -->
<g id="edge25" class="edge">
<title>[root] local.databasename&#45;&gt;[root] var.object_sequence</title>
<path fill="none" stroke="black" d="M1818.07,-143.96C1835.23,-135.92 1852.06,-124.37 1862,-108 1870.31,-94.32 1871.43,-84.93 1862,-72 1841.04,-43.25 1804.23,-29.75 1770.69,-23.55"/>
<polygon fill="black" stroke="black" points="1770.84,-20.03 1760.41,-21.85 1769.7,-26.93 1770.84,-20.03"/>
</g>
<!-- [root] output.cluster_identifier -->
<g id="node5" class="node">
<title>[root] output.cluster_identifier</title>
<polygon fill="none" stroke="black" points="818,-252 678,-252 678,-216 824,-216 824,-246 818,-252"/>
<polyline fill="none" stroke="black" points="818,-252 818,-246 "/>
<polyline fill="none" stroke="black" points="824,-246 818,-246 "/>
<text text-anchor="middle" x="751" y="-230.3" font-family="Times,serif" font-size="14.00">output.cluster_identifier</text>
</g>
<!-- [root] output.cluster_identifier&#45;&gt;[root] aws_docdb_cluster.cluster -->
<g id="edge30" class="edge">
<title>[root] output.cluster_identifier&#45;&gt;[root] aws_docdb_cluster.cluster</title>
<path fill="none" stroke="black" d="M797.48,-215.88C823.92,-206.14 857.2,-193.87 885.06,-183.61"/>
<polygon fill="black" stroke="black" points="886.5,-186.81 894.67,-180.07 884.08,-180.24 886.5,-186.81"/>
</g>
<!-- [root] output.endpoint_reader_endpoint -->
<g id="node6" class="node">
<title>[root] output.endpoint_reader_endpoint</title>
<polygon fill="none" stroke="black" points="1033.5,-252 842.5,-252 842.5,-216 1039.5,-216 1039.5,-246 1033.5,-252"/>
<polyline fill="none" stroke="black" points="1033.5,-252 1033.5,-246 "/>
<polyline fill="none" stroke="black" points="1039.5,-246 1033.5,-246 "/>
<text text-anchor="middle" x="941" y="-230.3" font-family="Times,serif" font-size="14.00">output.endpoint_reader_endpoint</text>
</g>
<!-- [root] output.endpoint_reader_endpoint&#45;&gt;[root] aws_docdb_cluster.cluster -->
<g id="edge31" class="edge">
<title>[root] output.endpoint_reader_endpoint&#45;&gt;[root] aws_docdb_cluster.cluster</title>
<path fill="none" stroke="black" d="M941,-215.7C941,-207.98 941,-198.71 941,-190.11"/>
<polygon fill="black" stroke="black" points="944.5,-190.1 941,-180.1 937.5,-190.1 944.5,-190.1"/>
</g>
<!-- [root] output.endpoint_static_endpoint -->
<g id="node7" class="node">
<title>[root] output.endpoint_static_endpoint</title>
<polygon fill="none" stroke="black" points="1242.5,-252 1057.5,-252 1057.5,-216 1248.5,-216 1248.5,-246 1242.5,-252"/>
<polyline fill="none" stroke="black" points="1242.5,-252 1242.5,-246 "/>
<polyline fill="none" stroke="black" points="1248.5,-246 1242.5,-246 "/>
<text text-anchor="middle" x="1153" y="-230.3" font-family="Times,serif" font-size="14.00">output.endpoint_static_endpoint</text>
</g>
<!-- [root] output.endpoint_static_endpoint&#45;&gt;[root] aws_docdb_cluster.cluster -->
<g id="edge32" class="edge">
<title>[root] output.endpoint_static_endpoint&#45;&gt;[root] aws_docdb_cluster.cluster</title>
<path fill="none" stroke="black" d="M1101.41,-215.97C1071.53,-206.1 1033.74,-193.62 1002.34,-183.25"/>
<polygon fill="black" stroke="black" points="1003.41,-179.92 992.82,-180.11 1001.22,-186.57 1003.41,-179.92"/>
</g>
<!-- [root] meta.count&#45;boundary (EachMode fixup) -->
<g id="node26" class="node">
<title>[root] meta.count&#45;boundary (EachMode fixup)</title>
<ellipse fill="none" stroke="black" cx="1101" cy="-306" rx="176.27" ry="18"/>
<text text-anchor="middle" x="1101" y="-302.3" font-family="Times,serif" font-size="14.00">[root] meta.count&#45;boundary (EachMode fixup)</text>
</g>
<!-- [root] meta.count&#45;boundary (EachMode fixup)&#45;&gt;[root] aws_docdb_cluster_instance.cluster_instances -->
<g id="edge26" class="edge">
<title>[root] meta.count&#45;boundary (EachMode fixup)&#45;&gt;[root] aws_docdb_cluster_instance.cluster_instances</title>
<path fill="none" stroke="black" d="M1168.1,-289.29C1212.31,-278.94 1270.49,-265.32 1317.51,-254.31"/>
<polygon fill="black" stroke="black" points="1318.43,-257.69 1327.37,-252 1316.84,-250.88 1318.43,-257.69"/>
</g>
<!-- [root] meta.count&#45;boundary (EachMode fixup)&#45;&gt;[root] output.cluster_identifier -->
<g id="edge27" class="edge">
<title>[root] meta.count&#45;boundary (EachMode fixup)&#45;&gt;[root] output.cluster_identifier</title>
<path fill="none" stroke="black" d="M1023.27,-289.82C972.26,-279.82 903.81,-266.31 834.54,-252.3"/>
<polygon fill="black" stroke="black" points="834.81,-248.79 824.31,-250.23 833.42,-255.65 834.81,-248.79"/>
</g>
<!-- [root] meta.count&#45;boundary (EachMode fixup)&#45;&gt;[root] output.endpoint_reader_endpoint -->
<g id="edge28" class="edge">
<title>[root] meta.count&#45;boundary (EachMode fixup)&#45;&gt;[root] output.endpoint_reader_endpoint</title>
<path fill="none" stroke="black" d="M1063.08,-288.41C1040.97,-278.74 1012.87,-266.44 989.2,-256.09"/>
<polygon fill="black" stroke="black" points="990.6,-252.88 980.04,-252.08 987.8,-259.29 990.6,-252.88"/>
</g>
<!-- [root] meta.count&#45;boundary (EachMode fixup)&#45;&gt;[root] output.endpoint_static_endpoint -->
<g id="edge29" class="edge">
<title>[root] meta.count&#45;boundary (EachMode fixup)&#45;&gt;[root] output.endpoint_static_endpoint</title>
<path fill="none" stroke="black" d="M1113.85,-287.7C1120.03,-279.39 1127.54,-269.28 1134.32,-260.14"/>
<polygon fill="black" stroke="black" points="1137.14,-262.22 1140.29,-252.1 1131.52,-258.04 1137.14,-262.22"/>
</g>
<!-- [root] provider.aws (close) -->
<g id="node27" class="node">
<title>[root] provider.aws (close)</title>
<ellipse fill="none" stroke="black" cx="1400" cy="-306" rx="104.78" ry="18"/>
<text text-anchor="middle" x="1400" y="-302.3" font-family="Times,serif" font-size="14.00">[root] provider.aws (close)</text>
</g>
<!-- [root] provider.aws (close)&#45;&gt;[root] aws_docdb_cluster_instance.cluster_instances -->
<g id="edge33" class="edge">
<title>[root] provider.aws (close)&#45;&gt;[root] aws_docdb_cluster_instance.cluster_instances</title>
<path fill="none" stroke="black" d="M1400,-287.7C1400,-279.98 1400,-270.71 1400,-262.11"/>
<polygon fill="black" stroke="black" points="1403.5,-262.1 1400,-252.1 1396.5,-262.1 1403.5,-262.1"/>
</g>
<!-- [root] root -->
<g id="node28" class="node">
<title>[root] root</title>
<ellipse fill="none" stroke="black" cx="1250" cy="-378" rx="47.39" ry="18"/>
<text text-anchor="middle" x="1250" y="-374.3" font-family="Times,serif" font-size="14.00">[root] root</text>
</g>
<!-- [root] root&#45;&gt;[root] meta.count&#45;boundary (EachMode fixup) -->
<g id="edge34" class="edge">
<title>[root] root&#45;&gt;[root] meta.count&#45;boundary (EachMode fixup)</title>
<path fill="none" stroke="black" d="M1221.27,-363.5C1199.83,-353.43 1170.12,-339.47 1145.59,-327.95"/>
<polygon fill="black" stroke="black" points="1147.02,-324.75 1136.48,-323.67 1144.04,-331.09 1147.02,-324.75"/>
</g>
<!-- [root] root&#45;&gt;[root] provider.aws (close) -->
<g id="edge35" class="edge">
<title>[root] root&#45;&gt;[root] provider.aws (close)</title>
<path fill="none" stroke="black" d="M1278.92,-363.5C1300.89,-353.25 1331.47,-338.98 1356.4,-327.35"/>
<polygon fill="black" stroke="black" points="1358.06,-330.43 1365.65,-323.03 1355.1,-324.09 1358.06,-330.43"/>
</g>
</g>
</svg>
