<?xml version="1.0" encoding="UTF-8" standalone="no"?>
<!DOCTYPE svg PUBLIC "-//W3C//DTD SVG 1.1//EN"
 "http://www.w3.org/Graphics/SVG/1.1/DTD/svg11.dtd">
<!-- Generated by graphviz version 2.44.1 (20200629.0846)
 -->
<!-- Pages: 1 -->
<svg width="607pt" height="260pt"
 viewBox="0.00 0.00 607.13 260.00" xmlns="http://www.w3.org/2000/svg" xmlns:xlink="http://www.w3.org/1999/xlink">
<g id="graph0" class="graph" transform="scale(1 1) rotate(0) translate(4 256)">
<polygon fill="white" stroke="transparent" points="-4,4 -4,-256 603.13,-256 603.13,4 -4,4"/>
<!-- [root] aws_vpc_endpoint.s3 -->
<g id="node1" class="node">
<title>[root] aws_vpc_endpoint.s3</title>
<polygon fill="none" stroke="black" points="392.13,-108 258.13,-108 258.13,-72 392.13,-72 392.13,-108"/>
<text text-anchor="middle" x="325.13" y="-86.3" font-family="Times,serif" font-size="14.00">aws_vpc_endpoint.s3</text>
</g>
<!-- [root] provider.aws -->
<g id="node2" class="node">
<title>[root] provider.aws</title>
<polygon fill="none" stroke="black" points="87.13,-36 8.04,-18 87.13,0 166.23,-18 87.13,-36"/>
<text text-anchor="middle" x="87.13" y="-14.3" font-family="Times,serif" font-size="14.00">provider.aws</text>
</g>
<!-- [root] aws_vpc_endpoint.s3&#45;&gt;[root] provider.aws -->
<g id="edge1" class="edge">
<title>[root] aws_vpc_endpoint.s3&#45;&gt;[root] provider.aws</title>
<path fill="none" stroke="black" d="M267.22,-71.97C224.78,-59.48 168.12,-42.82 129.77,-31.54"/>
<polygon fill="black" stroke="black" points="130.54,-28.12 119.95,-28.65 128.56,-34.83 130.54,-28.12"/>
</g>
<!-- [root] var.policy -->
<g id="node3" class="node">
<title>[root] var.policy</title>
<polygon fill="none" stroke="black" points="249.63,-36 184.63,-36 184.63,0 255.63,0 255.63,-30 249.63,-36"/>
<polyline fill="none" stroke="black" points="249.63,-36 249.63,-30 "/>
<polyline fill="none" stroke="black" points="255.63,-30 249.63,-30 "/>
<text text-anchor="middle" x="220.13" y="-14.3" font-family="Times,serif" font-size="14.00">var.policy</text>
</g>
<!-- [root] aws_vpc_endpoint.s3&#45;&gt;[root] var.policy -->
<g id="edge2" class="edge">
<title>[root] aws_vpc_endpoint.s3&#45;&gt;[root] var.policy</title>
<path fill="none" stroke="black" d="M299.45,-71.88C285.85,-62.81 268.96,-51.55 254.27,-41.76"/>
<polygon fill="black" stroke="black" points="256.18,-38.82 245.92,-36.19 252.3,-44.65 256.18,-38.82"/>
</g>
<!-- [root] var.route_tables -->
<g id="node4" class="node">
<title>[root] var.route_tables</title>
<polygon fill="none" stroke="black" points="370.63,-36 273.63,-36 273.63,0 376.63,0 376.63,-30 370.63,-36"/>
<polyline fill="none" stroke="black" points="370.63,-36 370.63,-30 "/>
<polyline fill="none" stroke="black" points="376.63,-30 370.63,-30 "/>
<text text-anchor="middle" x="325.13" y="-14.3" font-family="Times,serif" font-size="14.00">var.route_tables</text>
</g>
<!-- [root] aws_vpc_endpoint.s3&#45;&gt;[root] var.route_tables -->
<g id="edge3" class="edge">
<title>[root] aws_vpc_endpoint.s3&#45;&gt;[root] var.route_tables</title>
<path fill="none" stroke="black" d="M325.13,-71.7C325.13,-63.98 325.13,-54.71 325.13,-46.11"/>
<polygon fill="black" stroke="black" points="328.63,-46.1 325.13,-36.1 321.63,-46.1 328.63,-46.1"/>
</g>
<!-- [root] var.service_name -->
<g id="node5" class="node">
<title>[root] var.service_name</title>
<polygon fill="none" stroke="black" points="501.13,-36 395.13,-36 395.13,0 507.13,0 507.13,-30 501.13,-36"/>
<polyline fill="none" stroke="black" points="501.13,-36 501.13,-30 "/>
<polyline fill="none" stroke="black" points="507.13,-30 501.13,-30 "/>
<text text-anchor="middle" x="451.13" y="-14.3" font-family="Times,serif" font-size="14.00">var.service_name</text>
</g>
<!-- [root] aws_vpc_endpoint.s3&#45;&gt;[root] var.service_name -->
<g id="edge4" class="edge">
<title>[root] aws_vpc_endpoint.s3&#45;&gt;[root] var.service_name</title>
<path fill="none" stroke="black" d="M355.96,-71.88C372.58,-62.64 393.3,-51.13 411.15,-41.21"/>
<polygon fill="black" stroke="black" points="413.15,-44.11 420.19,-36.19 409.75,-37.99 413.15,-44.11"/>
</g>
<!-- [root] var.vpc_id -->
<g id="node6" class="node">
<title>[root] var.vpc_id</title>
<polygon fill="none" stroke="black" points="593.13,-36 525.13,-36 525.13,0 599.13,0 599.13,-30 593.13,-36"/>
<polyline fill="none" stroke="black" points="593.13,-36 593.13,-30 "/>
<polyline fill="none" stroke="black" points="599.13,-30 593.13,-30 "/>
<text text-anchor="middle" x="562.13" y="-14.3" font-family="Times,serif" font-size="14.00">var.vpc_id</text>
</g>
<!-- [root] aws_vpc_endpoint.s3&#45;&gt;[root] var.vpc_id -->
<g id="edge5" class="edge">
<title>[root] aws_vpc_endpoint.s3&#45;&gt;[root] var.vpc_id</title>
<path fill="none" stroke="black" d="M391.83,-71.95C426.33,-62.79 469.25,-50.87 515.47,-36.09"/>
<polygon fill="black" stroke="black" points="516.63,-39.4 525.07,-33 514.48,-32.74 516.63,-39.4"/>
</g>
<!-- [root] meta.count&#45;boundary (EachMode fixup) -->
<g id="node7" class="node">
<title>[root] meta.count&#45;boundary (EachMode fixup)</title>
<ellipse fill="none" stroke="black" cx="176.13" cy="-162" rx="176.27" ry="18"/>
<text text-anchor="middle" x="176.13" y="-158.3" font-family="Times,serif" font-size="14.00">[root] meta.count&#45;boundary (EachMode fixup)</text>
</g>
<!-- [root] meta.count&#45;boundary (EachMode fixup)&#45;&gt;[root] aws_vpc_endpoint.s3 -->
<g id="edge6" class="edge">
<title>[root] meta.count&#45;boundary (EachMode fixup)&#45;&gt;[root] aws_vpc_endpoint.s3</title>
<path fill="none" stroke="black" d="M211.82,-144.23C232.16,-134.68 257.86,-122.61 279.64,-112.38"/>
<polygon fill="black" stroke="black" points="281.14,-115.54 288.7,-108.12 278.16,-109.2 281.14,-115.54"/>
</g>
<!-- [root] provider.aws (close) -->
<g id="node8" class="node">
<title>[root] provider.aws (close)</title>
<ellipse fill="none" stroke="black" cx="475.13" cy="-162" rx="104.78" ry="18"/>
<text text-anchor="middle" x="475.13" y="-158.3" font-family="Times,serif" font-size="14.00">[root] provider.aws (close)</text>
</g>
<!-- [root] provider.aws (close)&#45;&gt;[root] aws_vpc_endpoint.s3 -->
<g id="edge7" class="edge">
<title>[root] provider.aws (close)&#45;&gt;[root] aws_vpc_endpoint.s3</title>
<path fill="none" stroke="black" d="M440.72,-144.94C420.06,-135.3 393.52,-122.91 371.08,-112.44"/>
<polygon fill="black" stroke="black" points="372.29,-109.14 361.74,-108.08 369.33,-115.48 372.29,-109.14"/>
</g>
<!-- [root] root -->
<g id="node9" class="node">
<title>[root] root</title>
<ellipse fill="none" stroke="black" cx="325.13" cy="-234" rx="47.39" ry="18"/>
<text text-anchor="middle" x="325.13" y="-230.3" font-family="Times,serif" font-size="14.00">[root] root</text>
</g>
<!-- [root] root&#45;&gt;[root] meta.count&#45;boundary (EachMode fixup) -->
<g id="edge8" class="edge">
<title>[root] root&#45;&gt;[root] meta.count&#45;boundary (EachMode fixup)</title>
<path fill="none" stroke="black" d="M296.41,-219.5C274.96,-209.43 245.25,-195.47 220.73,-183.95"/>
<polygon fill="black" stroke="black" points="222.15,-180.75 211.61,-179.67 219.17,-187.09 222.15,-180.75"/>
</g>
<!-- [root] root&#45;&gt;[root] provider.aws (close) -->
<g id="edge9" class="edge">
<title>[root] root&#45;&gt;[root] provider.aws (close)</title>
<path fill="none" stroke="black" d="M354.06,-219.5C376.02,-209.25 406.6,-194.98 431.53,-183.35"/>
<polygon fill="black" stroke="black" points="433.2,-186.43 440.78,-179.03 430.24,-180.09 433.2,-186.43"/>
</g>
</g>
</svg>
