<?xml version="1.0" encoding="UTF-8" standalone="no"?>
<!DOCTYPE svg PUBLIC "-//W3C//DTD SVG 1.1//EN"
 "http://www.w3.org/Graphics/SVG/1.1/DTD/svg11.dtd">
<!-- Generated by graphviz version 2.44.1 (20200629.0846)
 -->
<!-- Pages: 1 -->
<svg width="653pt" height="332pt"
 viewBox="0.00 0.00 653.05 332.00" xmlns="http://www.w3.org/2000/svg" xmlns:xlink="http://www.w3.org/1999/xlink">
<g id="graph0" class="graph" transform="scale(1 1) rotate(0) translate(4 328)">
<polygon fill="white" stroke="transparent" points="-4,4 -4,-328 649.05,-328 649.05,4 -4,4"/>
<!-- [root] aws_internet_gateway.igw -->
<g id="node1" class="node">
<title>[root] aws_internet_gateway.igw</title>
<polygon fill="none" stroke="black" points="437.55,-108 276.55,-108 276.55,-72 437.55,-72 437.55,-108"/>
<text text-anchor="middle" x="357.05" y="-86.3" font-family="Times,serif" font-size="14.00">aws_internet_gateway.igw</text>
</g>
<!-- [root] provider.aws -->
<g id="node3" class="node">
<title>[root] provider.aws</title>
<polygon fill="none" stroke="black" points="79.05,-36 -0.05,-18 79.05,0 158.14,-18 79.05,-36"/>
<text text-anchor="middle" x="79.05" y="-14.3" font-family="Times,serif" font-size="14.00">provider.aws</text>
</g>
<!-- [root] aws_internet_gateway.igw&#45;&gt;[root] provider.aws -->
<g id="edge1" class="edge">
<title>[root] aws_internet_gateway.igw&#45;&gt;[root] provider.aws</title>
<path fill="none" stroke="black" d="M289.4,-71.97C238.15,-59.06 169.14,-41.69 124.38,-30.41"/>
<polygon fill="black" stroke="black" points="125.21,-27.01 114.65,-27.97 123.5,-33.8 125.21,-27.01"/>
</g>
<!-- [root] var.basenameigw -->
<g id="node4" class="node">
<title>[root] var.basenameigw</title>
<polygon fill="none" stroke="black" points="281.55,-36 176.55,-36 176.55,0 287.55,0 287.55,-30 281.55,-36"/>
<polyline fill="none" stroke="black" points="281.55,-36 281.55,-30 "/>
<polyline fill="none" stroke="black" points="287.55,-30 281.55,-30 "/>
<text text-anchor="middle" x="232.05" y="-14.3" font-family="Times,serif" font-size="14.00">var.basenameigw</text>
</g>
<!-- [root] aws_internet_gateway.igw&#45;&gt;[root] var.basenameigw -->
<g id="edge2" class="edge">
<title>[root] aws_internet_gateway.igw&#45;&gt;[root] var.basenameigw</title>
<path fill="none" stroke="black" d="M326.47,-71.88C309.97,-62.64 289.42,-51.13 271.71,-41.21"/>
<polygon fill="black" stroke="black" points="273.18,-38.02 262.74,-36.19 269.76,-44.13 273.18,-38.02"/>
</g>
<!-- [root] var.default_tags -->
<g id="node5" class="node">
<title>[root] var.default_tags</title>
<polygon fill="none" stroke="black" points="402.55,-36 305.55,-36 305.55,0 408.55,0 408.55,-30 402.55,-36"/>
<polyline fill="none" stroke="black" points="402.55,-36 402.55,-30 "/>
<polyline fill="none" stroke="black" points="408.55,-30 402.55,-30 "/>
<text text-anchor="middle" x="357.05" y="-14.3" font-family="Times,serif" font-size="14.00">var.default_tags</text>
</g>
<!-- [root] aws_internet_gateway.igw&#45;&gt;[root] var.default_tags -->
<g id="edge3" class="edge">
<title>[root] aws_internet_gateway.igw&#45;&gt;[root] var.default_tags</title>
<path fill="none" stroke="black" d="M357.05,-71.7C357.05,-63.98 357.05,-54.71 357.05,-46.11"/>
<polygon fill="black" stroke="black" points="360.55,-46.1 357.05,-36.1 353.55,-46.1 360.55,-46.1"/>
</g>
<!-- [root] var.object_sequence -->
<g id="node6" class="node">
<title>[root] var.object_sequence</title>
<polygon fill="none" stroke="black" points="547.05,-36 427.05,-36 427.05,0 553.05,0 553.05,-30 547.05,-36"/>
<polyline fill="none" stroke="black" points="547.05,-36 547.05,-30 "/>
<polyline fill="none" stroke="black" points="553.05,-30 547.05,-30 "/>
<text text-anchor="middle" x="490.05" y="-14.3" font-family="Times,serif" font-size="14.00">var.object_sequence</text>
</g>
<!-- [root] aws_internet_gateway.igw&#45;&gt;[root] var.object_sequence -->
<g id="edge4" class="edge">
<title>[root] aws_internet_gateway.igw&#45;&gt;[root] var.object_sequence</title>
<path fill="none" stroke="black" d="M389.58,-71.88C407.29,-62.55 429.4,-50.92 448.36,-40.94"/>
<polygon fill="black" stroke="black" points="450.17,-43.94 457.39,-36.19 446.91,-37.75 450.17,-43.94"/>
</g>
<!-- [root] var.vpc_id -->
<g id="node7" class="node">
<title>[root] var.vpc_id</title>
<polygon fill="none" stroke="black" points="639.05,-36 571.05,-36 571.05,0 645.05,0 645.05,-30 639.05,-36"/>
<polyline fill="none" stroke="black" points="639.05,-36 639.05,-30 "/>
<polyline fill="none" stroke="black" points="645.05,-30 639.05,-30 "/>
<text text-anchor="middle" x="608.05" y="-14.3" font-family="Times,serif" font-size="14.00">var.vpc_id</text>
</g>
<!-- [root] aws_internet_gateway.igw&#45;&gt;[root] var.vpc_id -->
<g id="edge5" class="edge">
<title>[root] aws_internet_gateway.igw&#45;&gt;[root] var.vpc_id</title>
<path fill="none" stroke="black" d="M430.61,-71.89C467.43,-62.88 512.81,-51.1 561.27,-36.1"/>
<polygon fill="black" stroke="black" points="562.5,-39.38 571,-33.06 560.41,-32.7 562.5,-39.38"/>
</g>
<!-- [root] output.vpc_igw_id -->
<g id="node2" class="node">
<title>[root] output.vpc_igw_id</title>
<polygon fill="none" stroke="black" points="319.55,-180 206.55,-180 206.55,-144 325.55,-144 325.55,-174 319.55,-180"/>
<polyline fill="none" stroke="black" points="319.55,-180 319.55,-174 "/>
<polyline fill="none" stroke="black" points="325.55,-174 319.55,-174 "/>
<text text-anchor="middle" x="266.05" y="-158.3" font-family="Times,serif" font-size="14.00">output.vpc_igw_id</text>
</g>
<!-- [root] output.vpc_igw_id&#45;&gt;[root] aws_internet_gateway.igw -->
<g id="edge7" class="edge">
<title>[root] output.vpc_igw_id&#45;&gt;[root] aws_internet_gateway.igw</title>
<path fill="none" stroke="black" d="M288.54,-143.7C300,-134.88 314.11,-124.03 326.53,-114.47"/>
<polygon fill="black" stroke="black" points="329.02,-116.98 334.81,-108.1 324.75,-111.43 329.02,-116.98"/>
</g>
<!-- [root] meta.count&#45;boundary (EachMode fixup) -->
<g id="node8" class="node">
<title>[root] meta.count&#45;boundary (EachMode fixup)</title>
<ellipse fill="none" stroke="black" cx="255.05" cy="-234" rx="176.27" ry="18"/>
<text text-anchor="middle" x="255.05" y="-230.3" font-family="Times,serif" font-size="14.00">[root] meta.count&#45;boundary (EachMode fixup)</text>
</g>
<!-- [root] meta.count&#45;boundary (EachMode fixup)&#45;&gt;[root] output.vpc_igw_id -->
<g id="edge6" class="edge">
<title>[root] meta.count&#45;boundary (EachMode fixup)&#45;&gt;[root] output.vpc_igw_id</title>
<path fill="none" stroke="black" d="M257.77,-215.7C258.98,-207.98 260.44,-198.71 261.79,-190.11"/>
<polygon fill="black" stroke="black" points="265.26,-190.53 263.36,-180.1 258.35,-189.44 265.26,-190.53"/>
</g>
<!-- [root] provider.aws (close) -->
<g id="node9" class="node">
<title>[root] provider.aws (close)</title>
<ellipse fill="none" stroke="black" cx="453.05" cy="-162" rx="104.78" ry="18"/>
<text text-anchor="middle" x="453.05" y="-158.3" font-family="Times,serif" font-size="14.00">[root] provider.aws (close)</text>
</g>
<!-- [root] provider.aws (close)&#45;&gt;[root] aws_internet_gateway.igw -->
<g id="edge8" class="edge">
<title>[root] provider.aws (close)&#45;&gt;[root] aws_internet_gateway.igw</title>
<path fill="none" stroke="black" d="M430.3,-144.41C417.9,-135.37 402.36,-124.04 388.79,-114.14"/>
<polygon fill="black" stroke="black" points="390.78,-111.26 380.64,-108.2 386.66,-116.92 390.78,-111.26"/>
</g>
<!-- [root] root -->
<g id="node10" class="node">
<title>[root] root</title>
<ellipse fill="none" stroke="black" cx="357.05" cy="-306" rx="47.39" ry="18"/>
<text text-anchor="middle" x="357.05" y="-302.3" font-family="Times,serif" font-size="14.00">[root] root</text>
</g>
<!-- [root] root&#45;&gt;[root] meta.count&#45;boundary (EachMode fixup) -->
<g id="edge9" class="edge">
<title>[root] root&#45;&gt;[root] meta.count&#45;boundary (EachMode fixup)</title>
<path fill="none" stroke="black" d="M335.17,-289.98C321.44,-280.56 303.47,-268.23 288.03,-257.64"/>
<polygon fill="black" stroke="black" points="289.98,-254.73 279.76,-251.96 286.02,-260.5 289.98,-254.73"/>
</g>
<!-- [root] root&#45;&gt;[root] provider.aws (close) -->
<g id="edge10" class="edge">
<title>[root] root&#45;&gt;[root] provider.aws (close)</title>
<path fill="none" stroke="black" d="M389.22,-292.49C407.09,-283.84 428.08,-270.52 440.05,-252 451.81,-233.8 454.64,-209.18 454.77,-190.45"/>
<polygon fill="black" stroke="black" points="458.26,-190.13 454.57,-180.19 451.26,-190.26 458.26,-190.13"/>
</g>
</g>
</svg>
