<?xml version="1.0" encoding="UTF-8" standalone="no"?>
<!DOCTYPE svg PUBLIC "-//W3C//DTD SVG 1.1//EN"
 "http://www.w3.org/Graphics/SVG/1.1/DTD/svg11.dtd">
<!-- Generated by graphviz version 2.44.1 (20200629.0846)
 -->
<!-- Pages: 1 -->
<svg width="997pt" height="404pt"
 viewBox="0.00 0.00 997.00 404.00" xmlns="http://www.w3.org/2000/svg" xmlns:xlink="http://www.w3.org/1999/xlink">
<g id="graph0" class="graph" transform="scale(1 1) rotate(0) translate(4 400)">
<polygon fill="white" stroke="transparent" points="-4,4 -4,-400 993,-400 993,4 -4,4"/>
<!-- [root] aws_route53_zone.domain -->
<g id="node1" class="node">
<title>[root] aws_route53_zone.domain</title>
<polygon fill="none" stroke="black" points="650.5,-180 487.5,-180 487.5,-144 650.5,-144 650.5,-180"/>
<text text-anchor="middle" x="569" y="-158.3" font-family="Times,serif" font-size="14.00">aws_route53_zone.domain</text>
</g>
<!-- [root] local.domain_name -->
<g id="node2" class="node">
<title>[root] local.domain_name</title>
<polygon fill="none" stroke="black" points="188.5,-108 69.5,-108 69.5,-72 194.5,-72 194.5,-102 188.5,-108"/>
<polyline fill="none" stroke="black" points="188.5,-108 188.5,-102 "/>
<polyline fill="none" stroke="black" points="194.5,-102 188.5,-102 "/>
<text text-anchor="middle" x="132" y="-86.3" font-family="Times,serif" font-size="14.00">local.domain_name</text>
</g>
<!-- [root] aws_route53_zone.domain&#45;&gt;[root] local.domain_name -->
<g id="edge1" class="edge">
<title>[root] aws_route53_zone.domain&#45;&gt;[root] local.domain_name</title>
<path fill="none" stroke="black" d="M487.48,-151.24C415.6,-142.16 307.86,-127.39 204.72,-108.05"/>
<polygon fill="black" stroke="black" points="205.24,-104.58 194.76,-106.16 203.93,-111.46 205.24,-104.58"/>
</g>
<!-- [root] provider.aws -->
<g id="node5" class="node">
<title>[root] provider.aws</title>
<polygon fill="none" stroke="black" points="292,-108 212.9,-90 292,-72 371.1,-90 292,-108"/>
<text text-anchor="middle" x="292" y="-86.3" font-family="Times,serif" font-size="14.00">provider.aws</text>
</g>
<!-- [root] aws_route53_zone.domain&#45;&gt;[root] provider.aws -->
<g id="edge2" class="edge">
<title>[root] aws_route53_zone.domain&#45;&gt;[root] provider.aws</title>
<path fill="none" stroke="black" d="M501.59,-143.97C450.63,-131.09 382.06,-113.76 337.45,-102.48"/>
<polygon fill="black" stroke="black" points="338.03,-99.02 327.48,-99.97 336.32,-105.81 338.03,-99.02"/>
</g>
<!-- [root] var.basenamedns -->
<g id="node6" class="node">
<title>[root] var.basenamedns</title>
<polygon fill="none" stroke="black" points="493,-108 389,-108 389,-72 499,-72 499,-102 493,-108"/>
<polyline fill="none" stroke="black" points="493,-108 493,-102 "/>
<polyline fill="none" stroke="black" points="499,-102 493,-102 "/>
<text text-anchor="middle" x="444" y="-86.3" font-family="Times,serif" font-size="14.00">var.basenamedns</text>
</g>
<!-- [root] aws_route53_zone.domain&#45;&gt;[root] var.basenamedns -->
<g id="edge3" class="edge">
<title>[root] aws_route53_zone.domain&#45;&gt;[root] var.basenamedns</title>
<path fill="none" stroke="black" d="M538.42,-143.88C521.93,-134.64 501.38,-123.13 483.66,-113.21"/>
<polygon fill="black" stroke="black" points="485.13,-110.02 474.7,-108.19 481.71,-116.13 485.13,-110.02"/>
</g>
<!-- [root] var.default_tags -->
<g id="node7" class="node">
<title>[root] var.default_tags</title>
<polygon fill="none" stroke="black" points="614.5,-108 517.5,-108 517.5,-72 620.5,-72 620.5,-102 614.5,-108"/>
<polyline fill="none" stroke="black" points="614.5,-108 614.5,-102 "/>
<polyline fill="none" stroke="black" points="620.5,-102 614.5,-102 "/>
<text text-anchor="middle" x="569" y="-86.3" font-family="Times,serif" font-size="14.00">var.default_tags</text>
</g>
<!-- [root] aws_route53_zone.domain&#45;&gt;[root] var.default_tags -->
<g id="edge4" class="edge">
<title>[root] aws_route53_zone.domain&#45;&gt;[root] var.default_tags</title>
<path fill="none" stroke="black" d="M569,-143.7C569,-135.98 569,-126.71 569,-118.11"/>
<polygon fill="black" stroke="black" points="572.5,-118.1 569,-108.1 565.5,-118.1 572.5,-118.1"/>
</g>
<!-- [root] var.object_sequence -->
<g id="node9" class="node">
<title>[root] var.object_sequence</title>
<polygon fill="none" stroke="black" points="759,-108 639,-108 639,-72 765,-72 765,-102 759,-108"/>
<polyline fill="none" stroke="black" points="759,-108 759,-102 "/>
<polyline fill="none" stroke="black" points="765,-102 759,-102 "/>
<text text-anchor="middle" x="702" y="-86.3" font-family="Times,serif" font-size="14.00">var.object_sequence</text>
</g>
<!-- [root] aws_route53_zone.domain&#45;&gt;[root] var.object_sequence -->
<g id="edge5" class="edge">
<title>[root] aws_route53_zone.domain&#45;&gt;[root] var.object_sequence</title>
<path fill="none" stroke="black" d="M601.54,-143.88C619.25,-134.55 641.35,-122.92 660.32,-112.94"/>
<polygon fill="black" stroke="black" points="662.12,-115.94 669.34,-108.19 658.86,-109.75 662.12,-115.94"/>
</g>
<!-- [root] var.tag_infra_unit -->
<g id="node11" class="node">
<title>[root] var.tag_infra_unit</title>
<polygon fill="none" stroke="black" points="890.5,-108 783.5,-108 783.5,-72 896.5,-72 896.5,-102 890.5,-108"/>
<polyline fill="none" stroke="black" points="890.5,-108 890.5,-102 "/>
<polyline fill="none" stroke="black" points="896.5,-102 890.5,-102 "/>
<text text-anchor="middle" x="840" y="-86.3" font-family="Times,serif" font-size="14.00">var.tag_infra_unit</text>
</g>
<!-- [root] aws_route53_zone.domain&#45;&gt;[root] var.tag_infra_unit -->
<g id="edge6" class="edge">
<title>[root] aws_route53_zone.domain&#45;&gt;[root] var.tag_infra_unit</title>
<path fill="none" stroke="black" d="M634.95,-143.97C677.01,-133.1 731.34,-119.07 773.51,-108.17"/>
<polygon fill="black" stroke="black" points="774.6,-111.51 783.4,-105.62 772.85,-104.73 774.6,-111.51"/>
</g>
<!-- [root] var.vpc_id -->
<g id="node13" class="node">
<title>[root] var.vpc_id</title>
<polygon fill="none" stroke="black" points="983,-108 915,-108 915,-72 989,-72 989,-102 983,-108"/>
<polyline fill="none" stroke="black" points="983,-108 983,-102 "/>
<polyline fill="none" stroke="black" points="989,-102 983,-102 "/>
<text text-anchor="middle" x="952" y="-86.3" font-family="Times,serif" font-size="14.00">var.vpc_id</text>
</g>
<!-- [root] aws_route53_zone.domain&#45;&gt;[root] var.vpc_id -->
<g id="edge7" class="edge">
<title>[root] aws_route53_zone.domain&#45;&gt;[root] var.vpc_id</title>
<path fill="none" stroke="black" d="M650.61,-152.75C717.09,-144.98 813.33,-131.34 905.07,-107.97"/>
<polygon fill="black" stroke="black" points="905.99,-111.35 914.79,-105.45 904.23,-104.57 905.99,-111.35"/>
</g>
<!-- [root] var.domain_prefix -->
<g id="node8" class="node">
<title>[root] var.domain_prefix</title>
<polygon fill="none" stroke="black" points="110,-36 0,-36 0,0 116,0 116,-30 110,-36"/>
<polyline fill="none" stroke="black" points="110,-36 110,-30 "/>
<polyline fill="none" stroke="black" points="116,-30 110,-30 "/>
<text text-anchor="middle" x="58" y="-14.3" font-family="Times,serif" font-size="14.00">var.domain_prefix</text>
</g>
<!-- [root] local.domain_name&#45;&gt;[root] var.domain_prefix -->
<g id="edge8" class="edge">
<title>[root] local.domain_name&#45;&gt;[root] var.domain_prefix</title>
<path fill="none" stroke="black" d="M113.71,-71.7C104.57,-63.05 93.36,-52.45 83.4,-43.03"/>
<polygon fill="black" stroke="black" points="85.75,-40.43 76.08,-36.1 80.94,-45.52 85.75,-40.43"/>
</g>
<!-- [root] var.root_domain_name -->
<g id="node10" class="node">
<title>[root] var.root_domain_name</title>
<polygon fill="none" stroke="black" points="271.5,-36 134.5,-36 134.5,0 277.5,0 277.5,-30 271.5,-36"/>
<polyline fill="none" stroke="black" points="271.5,-36 271.5,-30 "/>
<polyline fill="none" stroke="black" points="277.5,-30 271.5,-30 "/>
<text text-anchor="middle" x="206" y="-14.3" font-family="Times,serif" font-size="14.00">var.root_domain_name</text>
</g>
<!-- [root] local.domain_name&#45;&gt;[root] var.root_domain_name -->
<g id="edge9" class="edge">
<title>[root] local.domain_name&#45;&gt;[root] var.root_domain_name</title>
<path fill="none" stroke="black" d="M150.29,-71.7C159.43,-63.05 170.64,-52.45 180.6,-43.03"/>
<polygon fill="black" stroke="black" points="183.06,-45.52 187.92,-36.1 178.25,-40.43 183.06,-45.52"/>
</g>
<!-- [root] output.subdomain_name -->
<g id="node3" class="node">
<title>[root] output.subdomain_name</title>
<polygon fill="none" stroke="black" points="463,-252 317,-252 317,-216 469,-216 469,-246 463,-252"/>
<polyline fill="none" stroke="black" points="463,-252 463,-246 "/>
<polyline fill="none" stroke="black" points="469,-246 463,-246 "/>
<text text-anchor="middle" x="393" y="-230.3" font-family="Times,serif" font-size="14.00">output.subdomain_name</text>
</g>
<!-- [root] output.subdomain_name&#45;&gt;[root] aws_route53_zone.domain -->
<g id="edge13" class="edge">
<title>[root] output.subdomain_name&#45;&gt;[root] aws_route53_zone.domain</title>
<path fill="none" stroke="black" d="M436.05,-215.88C460.33,-206.22 490.84,-194.09 516.51,-183.88"/>
<polygon fill="black" stroke="black" points="518.09,-187.02 526.09,-180.07 515.5,-180.51 518.09,-187.02"/>
</g>
<!-- [root] output.subdomain_zone_id -->
<g id="node4" class="node">
<title>[root] output.subdomain_zone_id</title>
<polygon fill="none" stroke="black" points="645,-252 487,-252 487,-216 651,-216 651,-246 645,-252"/>
<polyline fill="none" stroke="black" points="645,-252 645,-246 "/>
<polyline fill="none" stroke="black" points="651,-246 645,-246 "/>
<text text-anchor="middle" x="569" y="-230.3" font-family="Times,serif" font-size="14.00">output.subdomain_zone_id</text>
</g>
<!-- [root] output.subdomain_zone_id&#45;&gt;[root] aws_route53_zone.domain -->
<g id="edge14" class="edge">
<title>[root] output.subdomain_zone_id&#45;&gt;[root] aws_route53_zone.domain</title>
<path fill="none" stroke="black" d="M569,-215.7C569,-207.98 569,-198.71 569,-190.11"/>
<polygon fill="black" stroke="black" points="572.5,-190.1 569,-180.1 565.5,-190.1 572.5,-190.1"/>
</g>
<!-- [root] var.tag_zone_type -->
<g id="node12" class="node">
<title>[root] var.tag_zone_type</title>
<polygon fill="none" stroke="black" points="779,-252 669,-252 669,-216 785,-216 785,-246 779,-252"/>
<polyline fill="none" stroke="black" points="779,-252 779,-246 "/>
<polyline fill="none" stroke="black" points="785,-246 779,-246 "/>
<text text-anchor="middle" x="727" y="-230.3" font-family="Times,serif" font-size="14.00">var.tag_zone_type</text>
</g>
<!-- [root] meta.count&#45;boundary (EachMode fixup) -->
<g id="node14" class="node">
<title>[root] meta.count&#45;boundary (EachMode fixup)</title>
<ellipse fill="none" stroke="black" cx="555" cy="-306" rx="176.27" ry="18"/>
<text text-anchor="middle" x="555" y="-302.3" font-family="Times,serif" font-size="14.00">[root] meta.count&#45;boundary (EachMode fixup)</text>
</g>
<!-- [root] meta.count&#45;boundary (EachMode fixup)&#45;&gt;[root] output.subdomain_name -->
<g id="edge10" class="edge">
<title>[root] meta.count&#45;boundary (EachMode fixup)&#45;&gt;[root] output.subdomain_name</title>
<path fill="none" stroke="black" d="M516.61,-288.41C494.22,-278.74 465.77,-266.44 441.81,-256.09"/>
<polygon fill="black" stroke="black" points="443.09,-252.83 432.52,-252.08 440.32,-259.26 443.09,-252.83"/>
</g>
<!-- [root] meta.count&#45;boundary (EachMode fixup)&#45;&gt;[root] output.subdomain_zone_id -->
<g id="edge11" class="edge">
<title>[root] meta.count&#45;boundary (EachMode fixup)&#45;&gt;[root] output.subdomain_zone_id</title>
<path fill="none" stroke="black" d="M558.46,-287.7C560,-279.98 561.86,-270.71 563.58,-262.11"/>
<polygon fill="black" stroke="black" points="567.05,-262.6 565.58,-252.1 560.19,-261.22 567.05,-262.6"/>
</g>
<!-- [root] meta.count&#45;boundary (EachMode fixup)&#45;&gt;[root] var.tag_zone_type -->
<g id="edge12" class="edge">
<title>[root] meta.count&#45;boundary (EachMode fixup)&#45;&gt;[root] var.tag_zone_type</title>
<path fill="none" stroke="black" d="M595.76,-288.41C619.63,-278.7 650.01,-266.33 675.52,-255.95"/>
<polygon fill="black" stroke="black" points="677.09,-259.09 685.04,-252.08 674.45,-252.61 677.09,-259.09"/>
</g>
<!-- [root] provider.aws (close) -->
<g id="node15" class="node">
<title>[root] provider.aws (close)</title>
<ellipse fill="none" stroke="black" cx="854" cy="-306" rx="104.78" ry="18"/>
<text text-anchor="middle" x="854" y="-302.3" font-family="Times,serif" font-size="14.00">[root] provider.aws (close)</text>
</g>
<!-- [root] provider.aws (close)&#45;&gt;[root] aws_route53_zone.domain -->
<g id="edge15" class="edge">
<title>[root] provider.aws (close)&#45;&gt;[root] aws_route53_zone.domain</title>
<path fill="none" stroke="black" d="M847.06,-287.71C837.97,-267.34 820.07,-234 794,-216 755.02,-189.07 704.14,-175.71 660.63,-169.13"/>
<polygon fill="black" stroke="black" points="661,-165.64 650.6,-167.71 660.02,-172.58 661,-165.64"/>
</g>
<!-- [root] root -->
<g id="node16" class="node">
<title>[root] root</title>
<ellipse fill="none" stroke="black" cx="704" cy="-378" rx="47.39" ry="18"/>
<text text-anchor="middle" x="704" y="-374.3" font-family="Times,serif" font-size="14.00">[root] root</text>
</g>
<!-- [root] root&#45;&gt;[root] meta.count&#45;boundary (EachMode fixup) -->
<g id="edge16" class="edge">
<title>[root] root&#45;&gt;[root] meta.count&#45;boundary (EachMode fixup)</title>
<path fill="none" stroke="black" d="M675.27,-363.5C653.83,-353.43 624.12,-339.47 599.59,-327.95"/>
<polygon fill="black" stroke="black" points="601.02,-324.75 590.48,-323.67 598.04,-331.09 601.02,-324.75"/>
</g>
<!-- [root] root&#45;&gt;[root] provider.aws (close) -->
<g id="edge17" class="edge">
<title>[root] root&#45;&gt;[root] provider.aws (close)</title>
<path fill="none" stroke="black" d="M732.92,-363.5C754.89,-353.25 785.47,-338.98 810.4,-327.35"/>
<polygon fill="black" stroke="black" points="812.06,-330.43 819.65,-323.03 809.1,-324.09 812.06,-330.43"/>
</g>
</g>
</svg>
