<?xml version="1.0" encoding="UTF-8" standalone="no"?>
<!DOCTYPE svg PUBLIC "-//W3C//DTD SVG 1.1//EN"
 "http://www.w3.org/Graphics/SVG/1.1/DTD/svg11.dtd">
<!-- Generated by graphviz version 2.44.1 (20200629.0846)
 -->
<!-- Pages: 1 -->
<svg width="779pt" height="404pt"
 viewBox="0.00 0.00 778.69 404.00" xmlns="http://www.w3.org/2000/svg" xmlns:xlink="http://www.w3.org/1999/xlink">
<g id="graph0" class="graph" transform="scale(1 1) rotate(0) translate(4 400)">
<polygon fill="white" stroke="transparent" points="-4,4 -4,-400 774.69,-400 774.69,4 -4,4"/>
<!-- [root] aws_eip.eip -->
<g id="node1" class="node">
<title>[root] aws_eip.eip</title>
<polygon fill="none" stroke="black" points="431.55,-108 350.55,-108 350.55,-72 431.55,-72 431.55,-108"/>
<text text-anchor="middle" x="391.05" y="-86.3" font-family="Times,serif" font-size="14.00">aws_eip.eip</text>
</g>
<!-- [root] provider.aws -->
<g id="node5" class="node">
<title>[root] provider.aws</title>
<polygon fill="none" stroke="black" points="79.05,-36 -0.05,-18 79.05,0 158.14,-18 79.05,-36"/>
<text text-anchor="middle" x="79.05" y="-14.3" font-family="Times,serif" font-size="14.00">provider.aws</text>
</g>
<!-- [root] aws_eip.eip&#45;&gt;[root] provider.aws -->
<g id="edge1" class="edge">
<title>[root] aws_eip.eip&#45;&gt;[root] provider.aws</title>
<path fill="none" stroke="black" d="M350.26,-79.85C292.68,-66.93 187.78,-43.4 126.69,-29.69"/>
<polygon fill="black" stroke="black" points="127.44,-26.27 116.92,-27.5 125.91,-33.1 127.44,-26.27"/>
</g>
<!-- [root] var.aws_azs -->
<g id="node6" class="node">
<title>[root] var.aws_azs</title>
<polygon fill="none" stroke="black" points="252.05,-36 176.05,-36 176.05,0 258.05,0 258.05,-30 252.05,-36"/>
<polyline fill="none" stroke="black" points="252.05,-36 252.05,-30 "/>
<polyline fill="none" stroke="black" points="258.05,-30 252.05,-30 "/>
<text text-anchor="middle" x="217.05" y="-14.3" font-family="Times,serif" font-size="14.00">var.aws_azs</text>
</g>
<!-- [root] aws_eip.eip&#45;&gt;[root] var.aws_azs -->
<g id="edge2" class="edge">
<title>[root] aws_eip.eip&#45;&gt;[root] var.aws_azs</title>
<path fill="none" stroke="black" d="M350.25,-72.59C325.56,-62.65 293.87,-49.91 267.6,-39.34"/>
<polygon fill="black" stroke="black" points="268.77,-36.04 258.19,-35.55 266.16,-42.53 268.77,-36.04"/>
</g>
<!-- [root] var.basenameeip -->
<g id="node7" class="node">
<title>[root] var.basenameeip</title>
<polygon fill="none" stroke="black" points="377.55,-36 276.55,-36 276.55,0 383.55,0 383.55,-30 377.55,-36"/>
<polyline fill="none" stroke="black" points="377.55,-36 377.55,-30 "/>
<polyline fill="none" stroke="black" points="383.55,-30 377.55,-30 "/>
<text text-anchor="middle" x="330.05" y="-14.3" font-family="Times,serif" font-size="14.00">var.basenameeip</text>
</g>
<!-- [root] aws_eip.eip&#45;&gt;[root] var.basenameeip -->
<g id="edge3" class="edge">
<title>[root] aws_eip.eip&#45;&gt;[root] var.basenameeip</title>
<path fill="none" stroke="black" d="M375.97,-71.7C368.66,-63.3 359.74,-53.07 351.71,-43.86"/>
<polygon fill="black" stroke="black" points="354.16,-41.34 344.95,-36.1 348.88,-45.94 354.16,-41.34"/>
</g>
<!-- [root] var.default_tags -->
<g id="node9" class="node">
<title>[root] var.default_tags</title>
<polygon fill="none" stroke="black" points="498.55,-36 401.55,-36 401.55,0 504.55,0 504.55,-30 498.55,-36"/>
<polyline fill="none" stroke="black" points="498.55,-36 498.55,-30 "/>
<polyline fill="none" stroke="black" points="504.55,-30 498.55,-30 "/>
<text text-anchor="middle" x="453.05" y="-14.3" font-family="Times,serif" font-size="14.00">var.default_tags</text>
</g>
<!-- [root] aws_eip.eip&#45;&gt;[root] var.default_tags -->
<g id="edge4" class="edge">
<title>[root] aws_eip.eip&#45;&gt;[root] var.default_tags</title>
<path fill="none" stroke="black" d="M406.37,-71.7C413.81,-63.3 422.87,-53.07 431.03,-43.86"/>
<polygon fill="black" stroke="black" points="433.89,-45.91 437.9,-36.1 428.65,-41.27 433.89,-45.91"/>
</g>
<!-- [root] var.object_sequence -->
<g id="node10" class="node">
<title>[root] var.object_sequence</title>
<polygon fill="none" stroke="black" points="643.05,-36 523.05,-36 523.05,0 649.05,0 649.05,-30 643.05,-36"/>
<polyline fill="none" stroke="black" points="643.05,-36 643.05,-30 "/>
<polyline fill="none" stroke="black" points="649.05,-30 643.05,-30 "/>
<text text-anchor="middle" x="586.05" y="-14.3" font-family="Times,serif" font-size="14.00">var.object_sequence</text>
</g>
<!-- [root] aws_eip.eip&#45;&gt;[root] var.object_sequence -->
<g id="edge5" class="edge">
<title>[root] aws_eip.eip&#45;&gt;[root] var.object_sequence</title>
<path fill="none" stroke="black" d="M431.93,-74.33C460.06,-64.23 497.83,-50.67 528.93,-39.5"/>
<polygon fill="black" stroke="black" points="530.12,-42.79 538.35,-36.12 527.76,-36.21 530.12,-42.79"/>
</g>
<!-- [root] var.zones -->
<g id="node12" class="node">
<title>[root] var.zones</title>
<polygon fill="none" stroke="black" points="729.05,-36 667.05,-36 667.05,0 735.05,0 735.05,-30 729.05,-36"/>
<polyline fill="none" stroke="black" points="729.05,-36 729.05,-30 "/>
<polyline fill="none" stroke="black" points="735.05,-30 729.05,-30 "/>
<text text-anchor="middle" x="701.05" y="-14.3" font-family="Times,serif" font-size="14.00">var.zones</text>
</g>
<!-- [root] aws_eip.eip&#45;&gt;[root] var.zones -->
<g id="edge6" class="edge">
<title>[root] aws_eip.eip&#45;&gt;[root] var.zones</title>
<path fill="none" stroke="black" d="M431.81,-74.53C434.92,-73.62 438.02,-72.76 441.05,-72 532.81,-48.95 561.97,-61.26 657.26,-35.88"/>
<polygon fill="black" stroke="black" points="658.28,-39.23 667,-33.21 656.43,-32.48 658.28,-39.23"/>
</g>
<!-- [root] aws_nat_gateway.ngw -->
<g id="node2" class="node">
<title>[root] aws_nat_gateway.ngw</title>
<polygon fill="none" stroke="black" points="576.55,-180 437.55,-180 437.55,-144 576.55,-144 576.55,-180"/>
<text text-anchor="middle" x="507.05" y="-158.3" font-family="Times,serif" font-size="14.00">aws_nat_gateway.ngw</text>
</g>
<!-- [root] aws_nat_gateway.ngw&#45;&gt;[root] aws_eip.eip -->
<g id="edge7" class="edge">
<title>[root] aws_nat_gateway.ngw&#45;&gt;[root] aws_eip.eip</title>
<path fill="none" stroke="black" d="M478.67,-143.88C463.5,-134.72 444.64,-123.34 428.31,-113.48"/>
<polygon fill="black" stroke="black" points="429.9,-110.36 419.53,-108.19 426.29,-116.35 429.9,-110.36"/>
</g>
<!-- [root] var.basenamengw -->
<g id="node8" class="node">
<title>[root] var.basenamengw</title>
<polygon fill="none" stroke="black" points="558.05,-108 450.05,-108 450.05,-72 564.05,-72 564.05,-102 558.05,-108"/>
<polyline fill="none" stroke="black" points="558.05,-108 558.05,-102 "/>
<polyline fill="none" stroke="black" points="564.05,-102 558.05,-102 "/>
<text text-anchor="middle" x="507.05" y="-86.3" font-family="Times,serif" font-size="14.00">var.basenamengw</text>
</g>
<!-- [root] aws_nat_gateway.ngw&#45;&gt;[root] var.basenamengw -->
<g id="edge8" class="edge">
<title>[root] aws_nat_gateway.ngw&#45;&gt;[root] var.basenamengw</title>
<path fill="none" stroke="black" d="M507.05,-143.7C507.05,-135.98 507.05,-126.71 507.05,-118.11"/>
<polygon fill="black" stroke="black" points="510.55,-118.1 507.05,-108.1 503.55,-118.1 510.55,-118.1"/>
</g>
<!-- [root] var.subnets_id -->
<g id="node11" class="node">
<title>[root] var.subnets_id</title>
<polygon fill="none" stroke="black" points="671.55,-108 582.55,-108 582.55,-72 677.55,-72 677.55,-102 671.55,-108"/>
<polyline fill="none" stroke="black" points="671.55,-108 671.55,-102 "/>
<polyline fill="none" stroke="black" points="677.55,-102 671.55,-102 "/>
<text text-anchor="middle" x="630.05" y="-86.3" font-family="Times,serif" font-size="14.00">var.subnets_id</text>
</g>
<!-- [root] aws_nat_gateway.ngw&#45;&gt;[root] var.subnets_id -->
<g id="edge9" class="edge">
<title>[root] aws_nat_gateway.ngw&#45;&gt;[root] var.subnets_id</title>
<path fill="none" stroke="black" d="M537.14,-143.88C553.37,-134.64 573.59,-123.13 591.02,-113.21"/>
<polygon fill="black" stroke="black" points="592.88,-116.18 599.84,-108.19 589.42,-110.09 592.88,-116.18"/>
</g>
<!-- [root] output.vpc_ngw_id -->
<g id="node3" class="node">
<title>[root] output.vpc_ngw_id</title>
<polygon fill="none" stroke="black" points="422.05,-252 306.05,-252 306.05,-216 428.05,-216 428.05,-246 422.05,-252"/>
<polyline fill="none" stroke="black" points="422.05,-252 422.05,-246 "/>
<polyline fill="none" stroke="black" points="428.05,-246 422.05,-246 "/>
<text text-anchor="middle" x="367.05" y="-230.3" font-family="Times,serif" font-size="14.00">output.vpc_ngw_id</text>
</g>
<!-- [root] output.vpc_ngw_id&#45;&gt;[root] aws_nat_gateway.ngw -->
<g id="edge12" class="edge">
<title>[root] output.vpc_ngw_id&#45;&gt;[root] aws_nat_gateway.ngw</title>
<path fill="none" stroke="black" d="M401.3,-215.88C420.11,-206.47 443.63,-194.71 463.71,-184.67"/>
<polygon fill="black" stroke="black" points="465.29,-187.79 472.67,-180.19 462.16,-181.53 465.29,-187.79"/>
</g>
<!-- [root] output.vpc_ngw_ip -->
<g id="node4" class="node">
<title>[root] output.vpc_ngw_ip</title>
<polygon fill="none" stroke="black" points="562.05,-252 446.05,-252 446.05,-216 568.05,-216 568.05,-246 562.05,-252"/>
<polyline fill="none" stroke="black" points="562.05,-252 562.05,-246 "/>
<polyline fill="none" stroke="black" points="568.05,-246 562.05,-246 "/>
<text text-anchor="middle" x="507.05" y="-230.3" font-family="Times,serif" font-size="14.00">output.vpc_ngw_ip</text>
</g>
<!-- [root] output.vpc_ngw_ip&#45;&gt;[root] aws_nat_gateway.ngw -->
<g id="edge13" class="edge">
<title>[root] output.vpc_ngw_ip&#45;&gt;[root] aws_nat_gateway.ngw</title>
<path fill="none" stroke="black" d="M507.05,-215.7C507.05,-207.98 507.05,-198.71 507.05,-190.11"/>
<polygon fill="black" stroke="black" points="510.55,-190.1 507.05,-180.1 503.55,-190.1 510.55,-190.1"/>
</g>
<!-- [root] meta.count&#45;boundary (EachMode fixup) -->
<g id="node13" class="node">
<title>[root] meta.count&#45;boundary (EachMode fixup)</title>
<ellipse fill="none" stroke="black" cx="367.05" cy="-306" rx="176.27" ry="18"/>
<text text-anchor="middle" x="367.05" y="-302.3" font-family="Times,serif" font-size="14.00">[root] meta.count&#45;boundary (EachMode fixup)</text>
</g>
<!-- [root] meta.count&#45;boundary (EachMode fixup)&#45;&gt;[root] output.vpc_ngw_id -->
<g id="edge10" class="edge">
<title>[root] meta.count&#45;boundary (EachMode fixup)&#45;&gt;[root] output.vpc_ngw_id</title>
<path fill="none" stroke="black" d="M367.05,-287.7C367.05,-279.98 367.05,-270.71 367.05,-262.11"/>
<polygon fill="black" stroke="black" points="370.55,-262.1 367.05,-252.1 363.55,-262.1 370.55,-262.1"/>
</g>
<!-- [root] meta.count&#45;boundary (EachMode fixup)&#45;&gt;[root] output.vpc_ngw_ip -->
<g id="edge11" class="edge">
<title>[root] meta.count&#45;boundary (EachMode fixup)&#45;&gt;[root] output.vpc_ngw_ip</title>
<path fill="none" stroke="black" d="M400.58,-288.23C419.52,-278.76 443.4,-266.82 463.75,-256.65"/>
<polygon fill="black" stroke="black" points="465.44,-259.72 472.82,-252.12 462.31,-253.46 465.44,-259.72"/>
</g>
<!-- [root] provider.aws (close) -->
<g id="node14" class="node">
<title>[root] provider.aws (close)</title>
<ellipse fill="none" stroke="black" cx="666.05" cy="-306" rx="104.78" ry="18"/>
<text text-anchor="middle" x="666.05" y="-302.3" font-family="Times,serif" font-size="14.00">[root] provider.aws (close)</text>
</g>
<!-- [root] provider.aws (close)&#45;&gt;[root] aws_nat_gateway.ngw -->
<g id="edge14" class="edge">
<title>[root] provider.aws (close)&#45;&gt;[root] aws_nat_gateway.ngw</title>
<path fill="none" stroke="black" d="M650.29,-287.9C632.99,-269.45 604.07,-239.54 577.05,-216 565.19,-205.67 551.52,-195.05 539.42,-186.06"/>
<polygon fill="black" stroke="black" points="541.47,-183.23 531.34,-180.12 537.32,-188.87 541.47,-183.23"/>
</g>
<!-- [root] root -->
<g id="node15" class="node">
<title>[root] root</title>
<ellipse fill="none" stroke="black" cx="516.05" cy="-378" rx="47.39" ry="18"/>
<text text-anchor="middle" x="516.05" y="-374.3" font-family="Times,serif" font-size="14.00">[root] root</text>
</g>
<!-- [root] root&#45;&gt;[root] meta.count&#45;boundary (EachMode fixup) -->
<g id="edge15" class="edge">
<title>[root] root&#45;&gt;[root] meta.count&#45;boundary (EachMode fixup)</title>
<path fill="none" stroke="black" d="M487.32,-363.5C465.87,-353.43 436.16,-339.47 411.64,-327.95"/>
<polygon fill="black" stroke="black" points="413.06,-324.75 402.52,-323.67 410.09,-331.09 413.06,-324.75"/>
</g>
<!-- [root] root&#45;&gt;[root] provider.aws (close) -->
<g id="edge16" class="edge">
<title>[root] root&#45;&gt;[root] provider.aws (close)</title>
<path fill="none" stroke="black" d="M544.97,-363.5C566.94,-353.25 597.51,-338.98 622.44,-327.35"/>
<polygon fill="black" stroke="black" points="624.11,-330.43 631.69,-323.03 621.15,-324.09 624.11,-330.43"/>
</g>
</g>
</svg>
