<?xml version="1.0" encoding="UTF-8" standalone="no"?>
<!DOCTYPE svg PUBLIC "-//W3C//DTD SVG 1.1//EN"
 "http://www.w3.org/Graphics/SVG/1.1/DTD/svg11.dtd">
<!-- Generated by graphviz version 2.44.1 (20200629.0846)
 -->
<!-- Pages: 1 -->
<svg width="1905pt" height="404pt"
 viewBox="0.00 0.00 1904.50 404.00" xmlns="http://www.w3.org/2000/svg" xmlns:xlink="http://www.w3.org/1999/xlink">
<g id="graph0" class="graph" transform="scale(1 1) rotate(0) translate(4 400)">
<polygon fill="white" stroke="transparent" points="-4,4 -4,-400 1900.5,-400 1900.5,4 -4,4"/>
<!-- [root] local.count_k8s_security -->
<g id="node1" class="node">
<title>[root] local.count_k8s_security</title>
<polygon fill="none" stroke="black" points="1014.5,-108 868.5,-108 868.5,-72 1020.5,-72 1020.5,-102 1014.5,-108"/>
<polyline fill="none" stroke="black" points="1014.5,-108 1014.5,-102 "/>
<polyline fill="none" stroke="black" points="1020.5,-102 1014.5,-102 "/>
<text text-anchor="middle" x="944.5" y="-86.3" font-family="Times,serif" font-size="14.00">local.count_k8s_security</text>
</g>
<!-- [root] var.enable_k8s_security -->
<g id="node13" class="node">
<title>[root] var.enable_k8s_security</title>
<polygon fill="none" stroke="black" points="1012,-36 871,-36 871,0 1018,0 1018,-30 1012,-36"/>
<polyline fill="none" stroke="black" points="1012,-36 1012,-30 "/>
<polyline fill="none" stroke="black" points="1018,-30 1012,-30 "/>
<text text-anchor="middle" x="944.5" y="-14.3" font-family="Times,serif" font-size="14.00">var.enable_k8s_security</text>
</g>
<!-- [root] local.count_k8s_security&#45;&gt;[root] var.enable_k8s_security -->
<g id="edge1" class="edge">
<title>[root] local.count_k8s_security&#45;&gt;[root] var.enable_k8s_security</title>
<path fill="none" stroke="black" d="M944.5,-71.7C944.5,-63.98 944.5,-54.71 944.5,-46.11"/>
<polygon fill="black" stroke="black" points="948,-46.1 944.5,-36.1 941,-46.1 948,-46.1"/>
</g>
<!-- [root] module.file_issuer_vault.null_resource.generate_file -->
<g id="node2" class="node">
<title>[root] module.file_issuer_vault.null_resource.generate_file</title>
<polygon fill="none" stroke="black" points="991.5,-252 689.5,-252 689.5,-216 991.5,-216 991.5,-252"/>
<text text-anchor="middle" x="840.5" y="-230.3" font-family="Times,serif" font-size="14.00">module.file_issuer_vault.null_resource.generate_file</text>
</g>
<!-- [root] module.file_issuer_vault.var.destination_file_path -->
<g id="node4" class="node">
<title>[root] module.file_issuer_vault.var.destination_file_path</title>
<polygon fill="none" stroke="black" points="1262.5,-180 980.5,-180 980.5,-144 1268.5,-144 1268.5,-174 1262.5,-180"/>
<polyline fill="none" stroke="black" points="1262.5,-180 1262.5,-174 "/>
<polyline fill="none" stroke="black" points="1268.5,-174 1262.5,-174 "/>
<text text-anchor="middle" x="1124.5" y="-158.3" font-family="Times,serif" font-size="14.00">module.file_issuer_vault.var.destination_file_path</text>
</g>
<!-- [root] module.file_issuer_vault.null_resource.generate_file&#45;&gt;[root] module.file_issuer_vault.var.destination_file_path -->
<g id="edge8" class="edge">
<title>[root] module.file_issuer_vault.null_resource.generate_file&#45;&gt;[root] module.file_issuer_vault.var.destination_file_path</title>
<path fill="none" stroke="black" d="M909.61,-215.97C950.59,-205.87 1002.67,-193.03 1045.3,-182.52"/>
<polygon fill="black" stroke="black" points="1046.21,-185.9 1055.08,-180.11 1044.53,-179.11 1046.21,-185.9"/>
</g>
<!-- [root] module.file_issuer_vault.var.execution_count -->
<g id="node5" class="node">
<title>[root] module.file_issuer_vault.var.execution_count</title>
<polygon fill="none" stroke="black" points="1544.5,-180 1286.5,-180 1286.5,-144 1550.5,-144 1550.5,-174 1544.5,-180"/>
<polyline fill="none" stroke="black" points="1544.5,-180 1544.5,-174 "/>
<polyline fill="none" stroke="black" points="1550.5,-174 1544.5,-174 "/>
<text text-anchor="middle" x="1418.5" y="-158.3" font-family="Times,serif" font-size="14.00">module.file_issuer_vault.var.execution_count</text>
</g>
<!-- [root] module.file_issuer_vault.null_resource.generate_file&#45;&gt;[root] module.file_issuer_vault.var.execution_count -->
<g id="edge9" class="edge">
<title>[root] module.file_issuer_vault.null_resource.generate_file&#45;&gt;[root] module.file_issuer_vault.var.execution_count</title>
<path fill="none" stroke="black" d="M981.16,-215.97C1070.7,-205.12 1186.3,-191.12 1276.16,-180.24"/>
<polygon fill="black" stroke="black" points="1276.65,-183.7 1286.16,-179.03 1275.81,-176.76 1276.65,-183.7"/>
</g>
<!-- [root] module.file_issuer_vault.var.source_template -->
<g id="node6" class="node">
<title>[root] module.file_issuer_vault.var.source_template</title>
<polygon fill="none" stroke="black" points="527.5,-108 269.5,-108 269.5,-72 533.5,-72 533.5,-102 527.5,-108"/>
<polyline fill="none" stroke="black" points="527.5,-108 527.5,-102 "/>
<polyline fill="none" stroke="black" points="533.5,-102 527.5,-102 "/>
<text text-anchor="middle" x="401.5" y="-86.3" font-family="Times,serif" font-size="14.00">module.file_issuer_vault.var.source_template</text>
</g>
<!-- [root] module.file_issuer_vault.null_resource.generate_file&#45;&gt;[root] module.file_issuer_vault.var.source_template -->
<g id="edge10" class="edge">
<title>[root] module.file_issuer_vault.null_resource.generate_file&#45;&gt;[root] module.file_issuer_vault.var.source_template</title>
<path fill="none" stroke="black" d="M689.25,-216.42C596.8,-205.36 492.7,-190.92 473.5,-180 447.73,-165.35 427.55,-137.56 415.19,-116.91"/>
<polygon fill="black" stroke="black" points="418.09,-114.93 410.07,-108 412.02,-118.42 418.09,-114.93"/>
</g>
<!-- [root] module.file_issuer_vault.var.template_depends_on -->
<g id="node7" class="node">
<title>[root] module.file_issuer_vault.var.template_depends_on</title>
<polygon fill="none" stroke="black" points="956,-180 669,-180 669,-144 962,-144 962,-174 956,-180"/>
<polyline fill="none" stroke="black" points="956,-180 956,-174 "/>
<polyline fill="none" stroke="black" points="962,-174 956,-174 "/>
<text text-anchor="middle" x="815.5" y="-158.3" font-family="Times,serif" font-size="14.00">module.file_issuer_vault.var.template_depends_on</text>
</g>
<!-- [root] module.file_issuer_vault.null_resource.generate_file&#45;&gt;[root] module.file_issuer_vault.var.template_depends_on -->
<g id="edge11" class="edge">
<title>[root] module.file_issuer_vault.null_resource.generate_file&#45;&gt;[root] module.file_issuer_vault.var.template_depends_on</title>
<path fill="none" stroke="black" d="M834.32,-215.7C831.5,-207.81 828.11,-198.3 824.98,-189.55"/>
<polygon fill="black" stroke="black" points="828.27,-188.34 821.61,-180.1 821.68,-190.7 828.27,-188.34"/>
</g>
<!-- [root] module.file_issuer_vault.var.template_vars -->
<g id="node8" class="node">
<title>[root] module.file_issuer_vault.var.template_vars</title>
<polygon fill="none" stroke="black" points="245,-108 0,-108 0,-72 251,-72 251,-102 245,-108"/>
<polyline fill="none" stroke="black" points="245,-108 245,-102 "/>
<polyline fill="none" stroke="black" points="251,-102 245,-102 "/>
<text text-anchor="middle" x="125.5" y="-86.3" font-family="Times,serif" font-size="14.00">module.file_issuer_vault.var.template_vars</text>
</g>
<!-- [root] module.file_issuer_vault.null_resource.generate_file&#45;&gt;[root] module.file_issuer_vault.var.template_vars -->
<g id="edge12" class="edge">
<title>[root] module.file_issuer_vault.null_resource.generate_file&#45;&gt;[root] module.file_issuer_vault.var.template_vars</title>
<path fill="none" stroke="black" d="M690.32,-215.98C578.2,-202.89 442.36,-186.04 430.5,-180 410.89,-170.01 415.78,-154.62 396.5,-144 372.58,-130.82 316.3,-118.88 261.18,-109.68"/>
<polygon fill="black" stroke="black" points="261.71,-106.22 251.27,-108.05 260.57,-113.13 261.71,-106.22"/>
</g>
<!-- [root] provider.null -->
<g id="node11" class="node">
<title>[root] provider.null</title>
<polygon fill="none" stroke="black" points="1236.5,-108 1157.4,-90 1236.5,-72 1315.6,-90 1236.5,-108"/>
<text text-anchor="middle" x="1236.5" y="-86.3" font-family="Times,serif" font-size="14.00">provider.null</text>
</g>
<!-- [root] module.file_issuer_vault.null_resource.generate_file&#45;&gt;[root] provider.null -->
<g id="edge13" class="edge">
<title>[root] module.file_issuer_vault.null_resource.generate_file&#45;&gt;[root] provider.null</title>
<path fill="none" stroke="black" d="M991.74,-216.85C995.02,-216.56 998.28,-216.27 1001.5,-216 1063.41,-210.74 1517.01,-225.32 1559.5,-180 1570.44,-168.33 1569.86,-156.2 1559.5,-144 1550.97,-133.95 1385.03,-110.62 1294.41,-98.54"/>
<polygon fill="black" stroke="black" points="1294.66,-95.04 1284.29,-97.2 1293.74,-101.98 1294.66,-95.04"/>
</g>
<!-- [root] provisioner.local&#45;exec -->
<g id="node21" class="node">
<title>[root] provisioner.local&#45;exec</title>
<ellipse fill="none" stroke="black" cx="1504.5" cy="-90" rx="111.28" ry="18"/>
<text text-anchor="middle" x="1504.5" y="-86.3" font-family="Times,serif" font-size="14.00">[root] provisioner.local&#45;exec</text>
</g>
<!-- [root] module.file_issuer_vault.null_resource.generate_file&#45;&gt;[root] provisioner.local&#45;exec -->
<g id="edge14" class="edge">
<title>[root] module.file_issuer_vault.null_resource.generate_file&#45;&gt;[root] provisioner.local&#45;exec</title>
<path fill="none" stroke="black" d="M991.74,-216.84C995.02,-216.55 998.28,-216.27 1001.5,-216 1065.29,-210.64 1532.67,-226.66 1576.5,-180 1587.45,-168.34 1583.72,-158.28 1576.5,-144 1570.08,-131.29 1559.01,-120.89 1547.45,-112.77"/>
<polygon fill="black" stroke="black" points="1549.3,-109.79 1539.01,-107.25 1545.47,-115.65 1549.3,-109.79"/>
</g>
<!-- [root] module.file_issuer_vault.output.rendered_file -->
<g id="node3" class="node">
<title>[root] module.file_issuer_vault.output.rendered_file</title>
<polygon fill="none" stroke="black" points="381.5,-180 123.5,-180 123.5,-144 387.5,-144 387.5,-174 381.5,-180"/>
<polyline fill="none" stroke="black" points="381.5,-180 381.5,-174 "/>
<polyline fill="none" stroke="black" points="387.5,-174 381.5,-174 "/>
<text text-anchor="middle" x="255.5" y="-158.3" font-family="Times,serif" font-size="14.00">module.file_issuer_vault.output.rendered_file</text>
</g>
<!-- [root] module.file_issuer_vault.output.rendered_file&#45;&gt;[root] module.file_issuer_vault.var.source_template -->
<g id="edge15" class="edge">
<title>[root] module.file_issuer_vault.output.rendered_file&#45;&gt;[root] module.file_issuer_vault.var.source_template</title>
<path fill="none" stroke="black" d="M291.22,-143.88C311,-134.39 335.77,-122.51 356.83,-112.42"/>
<polygon fill="black" stroke="black" points="358.4,-115.55 365.9,-108.07 355.37,-109.24 358.4,-115.55"/>
</g>
<!-- [root] module.file_issuer_vault.output.rendered_file&#45;&gt;[root] module.file_issuer_vault.var.template_vars -->
<g id="edge16" class="edge">
<title>[root] module.file_issuer_vault.output.rendered_file&#45;&gt;[root] module.file_issuer_vault.var.template_vars</title>
<path fill="none" stroke="black" d="M223.7,-143.88C206.39,-134.55 184.78,-122.92 166.24,-112.94"/>
<polygon fill="black" stroke="black" points="167.89,-109.85 157.42,-108.19 164.57,-116.01 167.89,-109.85"/>
</g>
<!-- [root] module.file_issuer_vault.var.execution_count&#45;&gt;[root] local.count_k8s_security -->
<g id="edge17" class="edge">
<title>[root] module.file_issuer_vault.var.execution_count&#45;&gt;[root] local.count_k8s_security</title>
<path fill="none" stroke="black" d="M1303.15,-143.97C1219.1,-131.55 1107.04,-115 1030.69,-103.73"/>
<polygon fill="black" stroke="black" points="1031.03,-100.24 1020.63,-102.24 1030.01,-107.17 1031.03,-100.24"/>
</g>
<!-- [root] var.default_tags -->
<g id="node12" class="node">
<title>[root] var.default_tags</title>
<polygon fill="none" stroke="black" points="636,-36 539,-36 539,0 642,0 642,-30 636,-36"/>
<polyline fill="none" stroke="black" points="636,-36 636,-30 "/>
<polyline fill="none" stroke="black" points="642,-30 636,-30 "/>
<text text-anchor="middle" x="590.5" y="-14.3" font-family="Times,serif" font-size="14.00">var.default_tags</text>
</g>
<!-- [root] module.file_issuer_vault.var.template_vars&#45;&gt;[root] var.default_tags -->
<g id="edge18" class="edge">
<title>[root] module.file_issuer_vault.var.template_vars&#45;&gt;[root] var.default_tags</title>
<path fill="none" stroke="black" d="M238.66,-71.97C329.93,-58.23 454.88,-39.42 528.7,-28.3"/>
<polygon fill="black" stroke="black" points="529.4,-31.74 538.76,-26.79 528.36,-24.82 529.4,-31.74"/>
</g>
<!-- [root] var.pki_vault_path -->
<g id="node18" class="node">
<title>[root] var.pki_vault_path</title>
<polygon fill="none" stroke="black" points="178.5,-36 66.5,-36 66.5,0 184.5,0 184.5,-30 178.5,-36"/>
<polyline fill="none" stroke="black" points="178.5,-36 178.5,-30 "/>
<polyline fill="none" stroke="black" points="184.5,-30 178.5,-30 "/>
<text text-anchor="middle" x="125.5" y="-14.3" font-family="Times,serif" font-size="14.00">var.pki_vault_path</text>
</g>
<!-- [root] module.file_issuer_vault.var.template_vars&#45;&gt;[root] var.pki_vault_path -->
<g id="edge19" class="edge">
<title>[root] module.file_issuer_vault.var.template_vars&#45;&gt;[root] var.pki_vault_path</title>
<path fill="none" stroke="black" d="M125.5,-71.7C125.5,-63.98 125.5,-54.71 125.5,-46.11"/>
<polygon fill="black" stroke="black" points="129,-46.1 125.5,-36.1 122,-46.1 129,-46.1"/>
</g>
<!-- [root] null_resource.kubectl_apply_issuer -->
<g id="node9" class="node">
<title>[root] null_resource.kubectl_apply_issuer</title>
<polygon fill="none" stroke="black" points="671,-252 462,-252 462,-216 671,-216 671,-252"/>
<text text-anchor="middle" x="566.5" y="-230.3" font-family="Times,serif" font-size="14.00">null_resource.kubectl_apply_issuer</text>
</g>
<!-- [root] null_resource.kubectl_apply_issuer&#45;&gt;[root] module.file_issuer_vault.output.rendered_file -->
<g id="edge20" class="edge">
<title>[root] null_resource.kubectl_apply_issuer&#45;&gt;[root] module.file_issuer_vault.output.rendered_file</title>
<path fill="none" stroke="black" d="M490.82,-215.97C445.58,-205.78 387.98,-192.82 341.09,-182.26"/>
<polygon fill="black" stroke="black" points="341.78,-178.83 331.25,-180.05 340.24,-185.66 341.78,-178.83"/>
</g>
<!-- [root] null_resource.login&#45;security -->
<g id="node10" class="node">
<title>[root] null_resource.login&#45;security</title>
<polygon fill="none" stroke="black" points="651,-180 482,-180 482,-144 651,-144 651,-180"/>
<text text-anchor="middle" x="566.5" y="-158.3" font-family="Times,serif" font-size="14.00">null_resource.login&#45;security</text>
</g>
<!-- [root] null_resource.kubectl_apply_issuer&#45;&gt;[root] null_resource.login&#45;security -->
<g id="edge21" class="edge">
<title>[root] null_resource.kubectl_apply_issuer&#45;&gt;[root] null_resource.login&#45;security</title>
<path fill="none" stroke="black" d="M566.5,-215.7C566.5,-207.98 566.5,-198.71 566.5,-190.11"/>
<polygon fill="black" stroke="black" points="570,-190.1 566.5,-180.1 563,-190.1 570,-190.1"/>
</g>
<!-- [root] null_resource.login&#45;security&#45;&gt;[root] local.count_k8s_security -->
<g id="edge22" class="edge">
<title>[root] null_resource.login&#45;security&#45;&gt;[root] local.count_k8s_security</title>
<path fill="none" stroke="black" d="M651.33,-145.29C712.98,-133.87 796.14,-118.47 858.14,-106.99"/>
<polygon fill="black" stroke="black" points="859.1,-110.38 868.29,-105.11 857.82,-103.49 859.1,-110.38"/>
</g>
<!-- [root] null_resource.login&#45;security&#45;&gt;[root] provider.null -->
<g id="edge23" class="edge">
<title>[root] null_resource.login&#45;security&#45;&gt;[root] provider.null</title>
<path fill="none" stroke="black" d="M651.25,-145.32C654.37,-144.86 657.46,-144.41 660.5,-144 757.62,-130.77 1041.56,-106.9 1170.92,-96.31"/>
<polygon fill="black" stroke="black" points="1171.4,-99.78 1181.09,-95.48 1170.83,-92.8 1171.4,-99.78"/>
</g>
<!-- [root] null_resource.login&#45;security&#45;&gt;[root] var.default_tags -->
<g id="edge25" class="edge">
<title>[root] null_resource.login&#45;security&#45;&gt;[root] var.default_tags</title>
<path fill="none" stroke="black" d="M649.24,-143.96C667.79,-136.12 685.28,-124.69 696.5,-108 705.43,-94.72 704.91,-85.61 696.5,-72 686.32,-55.53 669.31,-44.01 651.86,-36.03"/>
<polygon fill="black" stroke="black" points="652.74,-32.6 642.16,-31.94 650.02,-39.05 652.74,-32.6"/>
</g>
<!-- [root] var.login_depends_on -->
<g id="node16" class="node">
<title>[root] var.login_depends_on</title>
<polygon fill="none" stroke="black" points="681.5,-108 551.5,-108 551.5,-72 687.5,-72 687.5,-102 681.5,-108"/>
<polyline fill="none" stroke="black" points="681.5,-108 681.5,-102 "/>
<polyline fill="none" stroke="black" points="687.5,-102 681.5,-102 "/>
<text text-anchor="middle" x="619.5" y="-86.3" font-family="Times,serif" font-size="14.00">var.login_depends_on</text>
</g>
<!-- [root] null_resource.login&#45;security&#45;&gt;[root] var.login_depends_on -->
<g id="edge26" class="edge">
<title>[root] null_resource.login&#45;security&#45;&gt;[root] var.login_depends_on</title>
<path fill="none" stroke="black" d="M579.6,-143.7C585.89,-135.39 593.55,-125.28 600.46,-116.14"/>
<polygon fill="black" stroke="black" points="603.3,-118.19 606.55,-108.1 597.72,-113.96 603.3,-118.19"/>
</g>
<!-- [root] null_resource.login&#45;security&#45;&gt;[root] provisioner.local&#45;exec -->
<g id="edge24" class="edge">
<title>[root] null_resource.login&#45;security&#45;&gt;[root] provisioner.local&#45;exec</title>
<path fill="none" stroke="black" d="M651.23,-145.17C654.36,-144.75 657.45,-144.36 660.5,-144 954.04,-109.64 1029.77,-129.9 1324.5,-108 1349.92,-106.11 1377.33,-103.71 1402.91,-101.31"/>
<polygon fill="black" stroke="black" points="1403.36,-104.78 1412.99,-100.36 1402.7,-97.81 1403.36,-104.78"/>
</g>
<!-- [root] var.kubernetes_helm_vault_chart_name -->
<g id="node14" class="node">
<title>[root] var.kubernetes_helm_vault_chart_name</title>
<polygon fill="none" stroke="black" points="1628.5,-252 1400.5,-252 1400.5,-216 1634.5,-216 1634.5,-246 1628.5,-252"/>
<polyline fill="none" stroke="black" points="1628.5,-252 1628.5,-246 "/>
<polyline fill="none" stroke="black" points="1634.5,-246 1628.5,-246 "/>
<text text-anchor="middle" x="1517.5" y="-230.3" font-family="Times,serif" font-size="14.00">var.kubernetes_helm_vault_chart_name</text>
</g>
<!-- [root] var.kubernetes_helm_vault_chart_version -->
<g id="node15" class="node">
<title>[root] var.kubernetes_helm_vault_chart_version</title>
<polygon fill="none" stroke="black" points="1890.5,-252 1652.5,-252 1652.5,-216 1896.5,-216 1896.5,-246 1890.5,-252"/>
<polyline fill="none" stroke="black" points="1890.5,-252 1890.5,-246 "/>
<polyline fill="none" stroke="black" points="1896.5,-246 1890.5,-246 "/>
<text text-anchor="middle" x="1774.5" y="-230.3" font-family="Times,serif" font-size="14.00">var.kubernetes_helm_vault_chart_version</text>
</g>
<!-- [root] var.naming_convention_definition -->
<g id="node17" class="node">
<title>[root] var.naming_convention_definition</title>
<polygon fill="none" stroke="black" points="1207,-252 1010,-252 1010,-216 1213,-216 1213,-246 1207,-252"/>
<polyline fill="none" stroke="black" points="1207,-252 1207,-246 "/>
<polyline fill="none" stroke="black" points="1213,-246 1207,-246 "/>
<text text-anchor="middle" x="1111.5" y="-230.3" font-family="Times,serif" font-size="14.00">var.naming_convention_definition</text>
</g>
<!-- [root] var.security_depends_on -->
<g id="node19" class="node">
<title>[root] var.security_depends_on</title>
<polygon fill="none" stroke="black" points="1376,-252 1231,-252 1231,-216 1382,-216 1382,-246 1376,-252"/>
<polyline fill="none" stroke="black" points="1376,-252 1376,-246 "/>
<polyline fill="none" stroke="black" points="1382,-246 1376,-246 "/>
<text text-anchor="middle" x="1306.5" y="-230.3" font-family="Times,serif" font-size="14.00">var.security_depends_on</text>
</g>
<!-- [root] meta.count&#45;boundary (EachMode fixup) -->
<g id="node20" class="node">
<title>[root] meta.count&#45;boundary (EachMode fixup)</title>
<ellipse fill="none" stroke="black" cx="1132.5" cy="-306" rx="176.27" ry="18"/>
<text text-anchor="middle" x="1132.5" y="-302.3" font-family="Times,serif" font-size="14.00">[root] meta.count&#45;boundary (EachMode fixup)</text>
</g>
<!-- [root] meta.count&#45;boundary (EachMode fixup)&#45;&gt;[root] module.file_issuer_vault.null_resource.generate_file -->
<g id="edge2" class="edge">
<title>[root] meta.count&#45;boundary (EachMode fixup)&#45;&gt;[root] module.file_issuer_vault.null_resource.generate_file</title>
<path fill="none" stroke="black" d="M1066.97,-289.29C1023.89,-278.96 967.22,-265.38 921.34,-254.38"/>
<polygon fill="black" stroke="black" points="921.97,-250.93 911.43,-252 920.34,-257.74 921.97,-250.93"/>
</g>
<!-- [root] meta.count&#45;boundary (EachMode fixup)&#45;&gt;[root] null_resource.kubectl_apply_issuer -->
<g id="edge3" class="edge">
<title>[root] meta.count&#45;boundary (EachMode fixup)&#45;&gt;[root] null_resource.kubectl_apply_issuer</title>
<path fill="none" stroke="black" d="M1016.72,-292.43C927.83,-282.55 801.77,-268.02 681.3,-252.08"/>
<polygon fill="black" stroke="black" points="681.53,-248.58 671.16,-250.74 680.61,-255.52 681.53,-248.58"/>
</g>
<!-- [root] meta.count&#45;boundary (EachMode fixup)&#45;&gt;[root] var.kubernetes_helm_vault_chart_name -->
<g id="edge4" class="edge">
<title>[root] meta.count&#45;boundary (EachMode fixup)&#45;&gt;[root] var.kubernetes_helm_vault_chart_name</title>
<path fill="none" stroke="black" d="M1214.62,-290.07C1272.79,-279.49 1351.27,-265.22 1413.77,-253.86"/>
<polygon fill="black" stroke="black" points="1414.45,-257.29 1423.66,-252.06 1413.19,-250.41 1414.45,-257.29"/>
</g>
<!-- [root] meta.count&#45;boundary (EachMode fixup)&#45;&gt;[root] var.kubernetes_helm_vault_chart_version -->
<g id="edge5" class="edge">
<title>[root] meta.count&#45;boundary (EachMode fixup)&#45;&gt;[root] var.kubernetes_helm_vault_chart_version</title>
<path fill="none" stroke="black" d="M1255.73,-293.11C1356.86,-283.15 1504.08,-268.17 1642.53,-252.1"/>
<polygon fill="black" stroke="black" points="1642.96,-255.57 1652.48,-250.94 1642.15,-248.62 1642.96,-255.57"/>
</g>
<!-- [root] meta.count&#45;boundary (EachMode fixup)&#45;&gt;[root] var.naming_convention_definition -->
<g id="edge6" class="edge">
<title>[root] meta.count&#45;boundary (EachMode fixup)&#45;&gt;[root] var.naming_convention_definition</title>
<path fill="none" stroke="black" d="M1127.31,-287.7C1124.97,-279.9 1122.15,-270.51 1119.55,-261.83"/>
<polygon fill="black" stroke="black" points="1122.86,-260.68 1116.63,-252.1 1116.15,-262.69 1122.86,-260.68"/>
</g>
<!-- [root] meta.count&#45;boundary (EachMode fixup)&#45;&gt;[root] var.security_depends_on -->
<g id="edge7" class="edge">
<title>[root] meta.count&#45;boundary (EachMode fixup)&#45;&gt;[root] var.security_depends_on</title>
<path fill="none" stroke="black" d="M1173.74,-288.41C1197.99,-278.65 1228.88,-266.23 1254.76,-255.81"/>
<polygon fill="black" stroke="black" points="1256.08,-259.06 1264.05,-252.08 1253.46,-252.56 1256.08,-259.06"/>
</g>
<!-- [root] provider.null (close) -->
<g id="node22" class="node">
<title>[root] provider.null (close)</title>
<ellipse fill="none" stroke="black" cx="833.5" cy="-306" rx="104.78" ry="18"/>
<text text-anchor="middle" x="833.5" y="-302.3" font-family="Times,serif" font-size="14.00">[root] provider.null (close)</text>
</g>
<!-- [root] provider.null (close)&#45;&gt;[root] module.file_issuer_vault.null_resource.generate_file -->
<g id="edge27" class="edge">
<title>[root] provider.null (close)&#45;&gt;[root] module.file_issuer_vault.null_resource.generate_file</title>
<path fill="none" stroke="black" d="M835.23,-287.7C836,-279.98 836.93,-270.71 837.79,-262.11"/>
<polygon fill="black" stroke="black" points="841.28,-262.4 838.79,-252.1 834.31,-261.71 841.28,-262.4"/>
</g>
<!-- [root] provider.null (close)&#45;&gt;[root] null_resource.kubectl_apply_issuer -->
<g id="edge28" class="edge">
<title>[root] provider.null (close)&#45;&gt;[root] null_resource.kubectl_apply_issuer</title>
<path fill="none" stroke="black" d="M778.5,-290.58C738.9,-280.2 685.02,-266.07 641.48,-254.66"/>
<polygon fill="black" stroke="black" points="642.35,-251.27 631.79,-252.12 640.58,-258.04 642.35,-251.27"/>
</g>
<!-- [root] provisioner.local&#45;exec (close) -->
<g id="node23" class="node">
<title>[root] provisioner.local&#45;exec (close)</title>
<ellipse fill="none" stroke="black" cx="573.5" cy="-306" rx="137.58" ry="18"/>
<text text-anchor="middle" x="573.5" y="-302.3" font-family="Times,serif" font-size="14.00">[root] provisioner.local&#45;exec (close)</text>
</g>
<!-- [root] provisioner.local&#45;exec (close)&#45;&gt;[root] module.file_issuer_vault.null_resource.generate_file -->
<g id="edge29" class="edge">
<title>[root] provisioner.local&#45;exec (close)&#45;&gt;[root] module.file_issuer_vault.null_resource.generate_file</title>
<path fill="none" stroke="black" d="M632.09,-289.64C671.4,-279.33 723.52,-265.67 765.8,-254.58"/>
<polygon fill="black" stroke="black" points="766.7,-257.97 775.49,-252.04 764.93,-251.19 766.7,-257.97"/>
</g>
<!-- [root] provisioner.local&#45;exec (close)&#45;&gt;[root] null_resource.kubectl_apply_issuer -->
<g id="edge30" class="edge">
<title>[root] provisioner.local&#45;exec (close)&#45;&gt;[root] null_resource.kubectl_apply_issuer</title>
<path fill="none" stroke="black" d="M571.77,-287.7C571,-279.98 570.07,-270.71 569.21,-262.11"/>
<polygon fill="black" stroke="black" points="572.69,-261.71 568.21,-252.1 565.72,-262.4 572.69,-261.71"/>
</g>
<!-- [root] root -->
<g id="node24" class="node">
<title>[root] root</title>
<ellipse fill="none" stroke="black" cx="833.5" cy="-378" rx="47.39" ry="18"/>
<text text-anchor="middle" x="833.5" y="-374.3" font-family="Times,serif" font-size="14.00">[root] root</text>
</g>
<!-- [root] root&#45;&gt;[root] meta.count&#45;boundary (EachMode fixup) -->
<g id="edge31" class="edge">
<title>[root] root&#45;&gt;[root] meta.count&#45;boundary (EachMode fixup)</title>
<path fill="none" stroke="black" d="M872.9,-367.78C919.22,-356.93 997.18,-338.68 1055.61,-325"/>
<polygon fill="black" stroke="black" points="1056.6,-328.36 1065.54,-322.68 1055.01,-321.55 1056.6,-328.36"/>
</g>
<!-- [root] root&#45;&gt;[root] provider.null (close) -->
<g id="edge32" class="edge">
<title>[root] root&#45;&gt;[root] provider.null (close)</title>
<path fill="none" stroke="black" d="M833.5,-359.7C833.5,-351.98 833.5,-342.71 833.5,-334.11"/>
<polygon fill="black" stroke="black" points="837,-334.1 833.5,-324.1 830,-334.1 837,-334.1"/>
</g>
<!-- [root] root&#45;&gt;[root] provisioner.local&#45;exec (close) -->
<g id="edge33" class="edge">
<title>[root] root&#45;&gt;[root] provisioner.local&#45;exec (close)</title>
<path fill="none" stroke="black" d="M795.97,-366.9C755.36,-355.96 689.8,-338.31 640.35,-325"/>
<polygon fill="black" stroke="black" points="641.25,-321.62 630.68,-322.39 639.43,-328.37 641.25,-321.62"/>
</g>
</g>
</svg>
