<?xml version="1.0" encoding="UTF-8" standalone="no"?>
<!DOCTYPE svg PUBLIC "-//W3C//DTD SVG 1.1//EN"
 "http://www.w3.org/Graphics/SVG/1.1/DTD/svg11.dtd">
<!-- Generated by graphviz version 2.44.1 (20200629.0846)
 -->
<!-- Pages: 1 -->
<svg width="747pt" height="332pt"
 viewBox="0.00 0.00 747.03 332.00" xmlns="http://www.w3.org/2000/svg" xmlns:xlink="http://www.w3.org/1999/xlink">
<g id="graph0" class="graph" transform="scale(1 1) rotate(0) translate(4 328)">
<polygon fill="white" stroke="transparent" points="-4,4 -4,-328 743.03,-328 743.03,4 -4,4"/>
<!-- [root] aws_vpc_peering_connection_accepter.peer -->
<g id="node1" class="node">
<title>[root] aws_vpc_peering_connection_accepter.peer</title>
<polygon fill="none" stroke="black" points="426.39,-180 171.39,-180 171.39,-144 426.39,-144 426.39,-180"/>
<text text-anchor="middle" x="298.89" y="-158.3" font-family="Times,serif" font-size="14.00">aws_vpc_peering_connection_accepter.peer</text>
</g>
<!-- [root] provider.aws.shared -->
<g id="node2" class="node">
<title>[root] provider.aws.shared</title>
<polygon fill="none" stroke="black" points="114.89,-108 0.11,-90 114.89,-72 229.68,-90 114.89,-108"/>
<text text-anchor="middle" x="114.89" y="-86.3" font-family="Times,serif" font-size="14.00">provider.aws.shared</text>
</g>
<!-- [root] aws_vpc_peering_connection_accepter.peer&#45;&gt;[root] provider.aws.shared -->
<g id="edge1" class="edge">
<title>[root] aws_vpc_peering_connection_accepter.peer&#45;&gt;[root] provider.aws.shared</title>
<path fill="none" stroke="black" d="M253.88,-143.88C224.06,-132.53 185.23,-117.76 156.2,-106.71"/>
<polygon fill="black" stroke="black" points="157.35,-103.41 146.75,-103.12 154.86,-109.95 157.35,-103.41"/>
</g>
<!-- [root] var.default_tags -->
<g id="node3" class="node">
<title>[root] var.default_tags</title>
<polygon fill="none" stroke="black" points="344.39,-108 247.39,-108 247.39,-72 350.39,-72 350.39,-102 344.39,-108"/>
<polyline fill="none" stroke="black" points="344.39,-108 344.39,-102 "/>
<polyline fill="none" stroke="black" points="350.39,-102 344.39,-102 "/>
<text text-anchor="middle" x="298.89" y="-86.3" font-family="Times,serif" font-size="14.00">var.default_tags</text>
</g>
<!-- [root] aws_vpc_peering_connection_accepter.peer&#45;&gt;[root] var.default_tags -->
<g id="edge2" class="edge">
<title>[root] aws_vpc_peering_connection_accepter.peer&#45;&gt;[root] var.default_tags</title>
<path fill="none" stroke="black" d="M298.89,-143.7C298.89,-135.98 298.89,-126.71 298.89,-118.11"/>
<polygon fill="black" stroke="black" points="302.39,-118.1 298.89,-108.1 295.39,-118.1 302.39,-118.1"/>
</g>
<!-- [root] var.vpc_peering_id -->
<g id="node7" class="node">
<title>[root] var.vpc_peering_id</title>
<polygon fill="none" stroke="black" points="483.39,-108 368.39,-108 368.39,-72 489.39,-72 489.39,-102 483.39,-108"/>
<polyline fill="none" stroke="black" points="483.39,-108 483.39,-102 "/>
<polyline fill="none" stroke="black" points="489.39,-102 483.39,-102 "/>
<text text-anchor="middle" x="428.89" y="-86.3" font-family="Times,serif" font-size="14.00">var.vpc_peering_id</text>
</g>
<!-- [root] aws_vpc_peering_connection_accepter.peer&#45;&gt;[root] var.vpc_peering_id -->
<g id="edge3" class="edge">
<title>[root] aws_vpc_peering_connection_accepter.peer&#45;&gt;[root] var.vpc_peering_id</title>
<path fill="none" stroke="black" d="M330.7,-143.88C348.01,-134.55 369.62,-122.92 388.15,-112.94"/>
<polygon fill="black" stroke="black" points="389.83,-116.01 396.97,-108.19 386.51,-109.85 389.83,-116.01"/>
</g>
<!-- [root] var.region -->
<g id="node5" class="node">
<title>[root] var.region</title>
<polygon fill="none" stroke="black" points="86.39,-36 21.39,-36 21.39,0 92.39,0 92.39,-30 86.39,-36"/>
<polyline fill="none" stroke="black" points="86.39,-36 86.39,-30 "/>
<polyline fill="none" stroke="black" points="92.39,-30 86.39,-30 "/>
<text text-anchor="middle" x="56.89" y="-14.3" font-family="Times,serif" font-size="14.00">var.region</text>
</g>
<!-- [root] provider.aws.shared&#45;&gt;[root] var.region -->
<g id="edge7" class="edge">
<title>[root] provider.aws.shared&#45;&gt;[root] var.region</title>
<path fill="none" stroke="black" d="M102.31,-73.81C95.13,-65.14 85.94,-54.05 77.71,-44.12"/>
<polygon fill="black" stroke="black" points="80.16,-41.59 71.09,-36.13 74.77,-46.06 80.16,-41.59"/>
</g>
<!-- [root] var.shared_role_arn -->
<g id="node6" class="node">
<title>[root] var.shared_role_arn</title>
<polygon fill="none" stroke="black" points="228.89,-36 110.89,-36 110.89,0 234.89,0 234.89,-30 228.89,-36"/>
<polyline fill="none" stroke="black" points="228.89,-36 228.89,-30 "/>
<polyline fill="none" stroke="black" points="234.89,-30 228.89,-30 "/>
<text text-anchor="middle" x="172.89" y="-14.3" font-family="Times,serif" font-size="14.00">var.shared_role_arn</text>
</g>
<!-- [root] provider.aws.shared&#45;&gt;[root] var.shared_role_arn -->
<g id="edge8" class="edge">
<title>[root] provider.aws.shared&#45;&gt;[root] var.shared_role_arn</title>
<path fill="none" stroke="black" d="M127.48,-73.81C134.66,-65.14 143.85,-54.05 152.08,-44.12"/>
<polygon fill="black" stroke="black" points="155.02,-46.06 158.7,-36.13 149.63,-41.59 155.02,-46.06"/>
</g>
<!-- [root] var.provider_name -->
<g id="node4" class="node">
<title>[root] var.provider_name</title>
<polygon fill="none" stroke="black" points="616.39,-180 503.39,-180 503.39,-144 622.39,-144 622.39,-174 616.39,-180"/>
<polyline fill="none" stroke="black" points="616.39,-180 616.39,-174 "/>
<polyline fill="none" stroke="black" points="622.39,-174 616.39,-174 "/>
<text text-anchor="middle" x="562.89" y="-158.3" font-family="Times,serif" font-size="14.00">var.provider_name</text>
</g>
<!-- [root] meta.count&#45;boundary (EachMode fixup) -->
<g id="node8" class="node">
<title>[root] meta.count&#45;boundary (EachMode fixup)</title>
<ellipse fill="none" stroke="black" cx="562.89" cy="-234" rx="176.27" ry="18"/>
<text text-anchor="middle" x="562.89" y="-230.3" font-family="Times,serif" font-size="14.00">[root] meta.count&#45;boundary (EachMode fixup)</text>
</g>
<!-- [root] meta.count&#45;boundary (EachMode fixup)&#45;&gt;[root] aws_vpc_peering_connection_accepter.peer -->
<g id="edge4" class="edge">
<title>[root] meta.count&#45;boundary (EachMode fixup)&#45;&gt;[root] aws_vpc_peering_connection_accepter.peer</title>
<path fill="none" stroke="black" d="M502.66,-217.03C464.06,-206.79 413.69,-193.44 372.69,-182.57"/>
<polygon fill="black" stroke="black" points="373.58,-179.18 363.02,-180 371.79,-185.95 373.58,-179.18"/>
</g>
<!-- [root] meta.count&#45;boundary (EachMode fixup)&#45;&gt;[root] var.provider_name -->
<g id="edge5" class="edge">
<title>[root] meta.count&#45;boundary (EachMode fixup)&#45;&gt;[root] var.provider_name</title>
<path fill="none" stroke="black" d="M562.89,-215.7C562.89,-207.98 562.89,-198.71 562.89,-190.11"/>
<polygon fill="black" stroke="black" points="566.39,-190.1 562.89,-180.1 559.39,-190.1 566.39,-190.1"/>
</g>
<!-- [root] provider.aws.shared (close) -->
<g id="node9" class="node">
<title>[root] provider.aws.shared (close)</title>
<ellipse fill="none" stroke="black" cx="238.89" cy="-234" rx="129.98" ry="18"/>
<text text-anchor="middle" x="238.89" y="-230.3" font-family="Times,serif" font-size="14.00">[root] provider.aws.shared (close)</text>
</g>
<!-- [root] provider.aws.shared (close)&#45;&gt;[root] aws_vpc_peering_connection_accepter.peer -->
<g id="edge6" class="edge">
<title>[root] provider.aws.shared (close)&#45;&gt;[root] aws_vpc_peering_connection_accepter.peer</title>
<path fill="none" stroke="black" d="M253.42,-216.05C260.61,-207.67 269.43,-197.38 277.38,-188.1"/>
<polygon fill="black" stroke="black" points="280.24,-190.15 284.09,-180.28 274.92,-185.59 280.24,-190.15"/>
</g>
<!-- [root] root -->
<g id="node10" class="node">
<title>[root] root</title>
<ellipse fill="none" stroke="black" cx="400.89" cy="-306" rx="47.39" ry="18"/>
<text text-anchor="middle" x="400.89" y="-302.3" font-family="Times,serif" font-size="14.00">[root] root</text>
</g>
<!-- [root] root&#45;&gt;[root] meta.count&#45;boundary (EachMode fixup) -->
<g id="edge9" class="edge">
<title>[root] root&#45;&gt;[root] meta.count&#45;boundary (EachMode fixup)</title>
<path fill="none" stroke="black" d="M430.99,-292C454.56,-281.81 487.81,-267.45 515.02,-255.68"/>
<polygon fill="black" stroke="black" points="516.58,-258.82 524.37,-251.64 513.81,-252.4 516.58,-258.82"/>
</g>
<!-- [root] root&#45;&gt;[root] provider.aws.shared (close) -->
<g id="edge10" class="edge">
<title>[root] root&#45;&gt;[root] provider.aws.shared (close)</title>
<path fill="none" stroke="black" d="M370.8,-292C346.98,-281.71 313.29,-267.15 285.92,-255.32"/>
<polygon fill="black" stroke="black" points="287.09,-252.01 276.52,-251.26 284.32,-258.44 287.09,-252.01"/>
</g>
</g>
</svg>
