<?xml version="1.0" encoding="UTF-8" standalone="no"?>
<!DOCTYPE svg PUBLIC "-//W3C//DTD SVG 1.1//EN"
 "http://www.w3.org/Graphics/SVG/1.1/DTD/svg11.dtd">
<!-- Generated by graphviz version 2.44.1 (20200629.0846)
 -->
<!-- Pages: 1 -->
<svg width="1088pt" height="332pt"
 viewBox="0.00 0.00 1088.05 332.00" xmlns="http://www.w3.org/2000/svg" xmlns:xlink="http://www.w3.org/1999/xlink">
<g id="graph0" class="graph" transform="scale(1 1) rotate(0) translate(4 328)">
<polygon fill="white" stroke="transparent" points="-4,4 -4,-328 1084.05,-328 1084.05,4 -4,4"/>
<!-- [root] aws_security_group.sg -->
<g id="node1" class="node">
<title>[root] aws_security_group.sg</title>
<polygon fill="none" stroke="black" points="674.55,-108 533.55,-108 533.55,-72 674.55,-72 674.55,-108"/>
<text text-anchor="middle" x="604.05" y="-86.3" font-family="Times,serif" font-size="14.00">aws_security_group.sg</text>
</g>
<!-- [root] provider.aws -->
<g id="node4" class="node">
<title>[root] provider.aws</title>
<polygon fill="none" stroke="black" points="79.05,-36 -0.05,-18 79.05,0 158.14,-18 79.05,-36"/>
<text text-anchor="middle" x="79.05" y="-14.3" font-family="Times,serif" font-size="14.00">provider.aws</text>
</g>
<!-- [root] aws_security_group.sg&#45;&gt;[root] provider.aws -->
<g id="edge1" class="edge">
<title>[root] aws_security_group.sg&#45;&gt;[root] provider.aws</title>
<path fill="none" stroke="black" d="M533.45,-81.98C446.88,-73.01 295.77,-56.21 167.05,-36 154.43,-34.02 140.86,-31.56 128.25,-29.14"/>
<polygon fill="black" stroke="black" points="128.86,-25.69 118.37,-27.21 127.51,-32.56 128.86,-25.69"/>
</g>
<!-- [root] var.basenamesgr -->
<g id="node5" class="node">
<title>[root] var.basenamesgr</title>
<polygon fill="none" stroke="black" points="277.55,-36 176.55,-36 176.55,0 283.55,0 283.55,-30 277.55,-36"/>
<polyline fill="none" stroke="black" points="277.55,-36 277.55,-30 "/>
<polyline fill="none" stroke="black" points="283.55,-30 277.55,-30 "/>
<text text-anchor="middle" x="230.05" y="-14.3" font-family="Times,serif" font-size="14.00">var.basenamesgr</text>
</g>
<!-- [root] aws_security_group.sg&#45;&gt;[root] var.basenamesgr -->
<g id="edge2" class="edge">
<title>[root] aws_security_group.sg&#45;&gt;[root] var.basenamesgr</title>
<path fill="none" stroke="black" d="M533.34,-79.04C472.14,-69.95 381.12,-55.31 293.57,-36.24"/>
<polygon fill="black" stroke="black" points="294.25,-32.8 283.73,-34.07 292.75,-39.64 294.25,-32.8"/>
</g>
<!-- [root] var.default_tags -->
<g id="node6" class="node">
<title>[root] var.default_tags</title>
<polygon fill="none" stroke="black" points="398.55,-36 301.55,-36 301.55,0 404.55,0 404.55,-30 398.55,-36"/>
<polyline fill="none" stroke="black" points="398.55,-36 398.55,-30 "/>
<polyline fill="none" stroke="black" points="404.55,-30 398.55,-30 "/>
<text text-anchor="middle" x="353.05" y="-14.3" font-family="Times,serif" font-size="14.00">var.default_tags</text>
</g>
<!-- [root] aws_security_group.sg&#45;&gt;[root] var.default_tags -->
<g id="edge3" class="edge">
<title>[root] aws_security_group.sg&#45;&gt;[root] var.default_tags</title>
<path fill="none" stroke="black" d="M542.09,-71.9C507.11,-62.22 462.34,-49.8 414.65,-36.44"/>
<polygon fill="black" stroke="black" points="415.33,-33 404.75,-33.67 413.44,-39.74 415.33,-33"/>
</g>
<!-- [root] var.es_access_cidr -->
<g id="node7" class="node">
<title>[root] var.es_access_cidr</title>
<polygon fill="none" stroke="black" points="533.55,-36 422.55,-36 422.55,0 539.55,0 539.55,-30 533.55,-36"/>
<polyline fill="none" stroke="black" points="533.55,-36 533.55,-30 "/>
<polyline fill="none" stroke="black" points="539.55,-30 533.55,-30 "/>
<text text-anchor="middle" x="481.05" y="-14.3" font-family="Times,serif" font-size="14.00">var.es_access_cidr</text>
</g>
<!-- [root] aws_security_group.sg&#45;&gt;[root] var.es_access_cidr -->
<g id="edge4" class="edge">
<title>[root] aws_security_group.sg&#45;&gt;[root] var.es_access_cidr</title>
<path fill="none" stroke="black" d="M573.96,-71.88C557.73,-62.64 537.51,-51.13 520.08,-41.21"/>
<polygon fill="black" stroke="black" points="521.67,-38.09 511.25,-36.19 518.21,-44.18 521.67,-38.09"/>
</g>
<!-- [root] var.from_port -->
<g id="node8" class="node">
<title>[root] var.from_port</title>
<polygon fill="none" stroke="black" points="644.05,-36 558.05,-36 558.05,0 650.05,0 650.05,-30 644.05,-36"/>
<polyline fill="none" stroke="black" points="644.05,-36 644.05,-30 "/>
<polyline fill="none" stroke="black" points="650.05,-30 644.05,-30 "/>
<text text-anchor="middle" x="604.05" y="-14.3" font-family="Times,serif" font-size="14.00">var.from_port</text>
</g>
<!-- [root] aws_security_group.sg&#45;&gt;[root] var.from_port -->
<g id="edge5" class="edge">
<title>[root] aws_security_group.sg&#45;&gt;[root] var.from_port</title>
<path fill="none" stroke="black" d="M604.05,-71.7C604.05,-63.98 604.05,-54.71 604.05,-46.11"/>
<polygon fill="black" stroke="black" points="607.55,-46.1 604.05,-36.1 600.55,-46.1 607.55,-46.1"/>
</g>
<!-- [root] var.object_sequence -->
<g id="node9" class="node">
<title>[root] var.object_sequence</title>
<polygon fill="none" stroke="black" points="788.05,-36 668.05,-36 668.05,0 794.05,0 794.05,-30 788.05,-36"/>
<polyline fill="none" stroke="black" points="788.05,-36 788.05,-30 "/>
<polyline fill="none" stroke="black" points="794.05,-30 788.05,-30 "/>
<text text-anchor="middle" x="731.05" y="-14.3" font-family="Times,serif" font-size="14.00">var.object_sequence</text>
</g>
<!-- [root] aws_security_group.sg&#45;&gt;[root] var.object_sequence -->
<g id="edge6" class="edge">
<title>[root] aws_security_group.sg&#45;&gt;[root] var.object_sequence</title>
<path fill="none" stroke="black" d="M635.12,-71.88C651.87,-62.64 672.75,-51.13 690.75,-41.21"/>
<polygon fill="black" stroke="black" points="692.79,-44.08 699.86,-36.19 689.41,-37.95 692.79,-44.08"/>
</g>
<!-- [root] var.protocol -->
<g id="node10" class="node">
<title>[root] var.protocol</title>
<polygon fill="none" stroke="black" points="888.05,-36 812.05,-36 812.05,0 894.05,0 894.05,-30 888.05,-36"/>
<polyline fill="none" stroke="black" points="888.05,-36 888.05,-30 "/>
<polyline fill="none" stroke="black" points="894.05,-30 888.05,-30 "/>
<text text-anchor="middle" x="853.05" y="-14.3" font-family="Times,serif" font-size="14.00">var.protocol</text>
</g>
<!-- [root] aws_security_group.sg&#45;&gt;[root] var.protocol -->
<g id="edge7" class="edge">
<title>[root] aws_security_group.sg&#45;&gt;[root] var.protocol</title>
<path fill="none" stroke="black" d="M672.52,-71.98C708.64,-62.72 753.86,-50.67 802.21,-36.16"/>
<polygon fill="black" stroke="black" points="803.36,-39.47 811.92,-33.23 801.33,-32.77 803.36,-39.47"/>
</g>
<!-- [root] var.to_port -->
<g id="node11" class="node">
<title>[root] var.to_port</title>
<polygon fill="none" stroke="black" points="982.05,-36 912.05,-36 912.05,0 988.05,0 988.05,-30 982.05,-36"/>
<polyline fill="none" stroke="black" points="982.05,-36 982.05,-30 "/>
<polyline fill="none" stroke="black" points="988.05,-30 982.05,-30 "/>
<text text-anchor="middle" x="950.05" y="-14.3" font-family="Times,serif" font-size="14.00">var.to_port</text>
</g>
<!-- [root] aws_security_group.sg&#45;&gt;[root] var.to_port -->
<g id="edge8" class="edge">
<title>[root] aws_security_group.sg&#45;&gt;[root] var.to_port</title>
<path fill="none" stroke="black" d="M674.57,-79.99C733.31,-71.68 819.17,-57.71 902.16,-36"/>
<polygon fill="black" stroke="black" points="903.24,-39.33 912,-33.38 901.44,-32.57 903.24,-39.33"/>
</g>
<!-- [root] var.vpc_id -->
<g id="node12" class="node">
<title>[root] var.vpc_id</title>
<polygon fill="none" stroke="black" points="1074.05,-36 1006.05,-36 1006.05,0 1080.05,0 1080.05,-30 1074.05,-36"/>
<polyline fill="none" stroke="black" points="1074.05,-36 1074.05,-30 "/>
<polyline fill="none" stroke="black" points="1080.05,-30 1074.05,-30 "/>
<text text-anchor="middle" x="1043.05" y="-14.3" font-family="Times,serif" font-size="14.00">var.vpc_id</text>
</g>
<!-- [root] aws_security_group.sg&#45;&gt;[root] var.vpc_id -->
<g id="edge9" class="edge">
<title>[root] aws_security_group.sg&#45;&gt;[root] var.vpc_id</title>
<path fill="none" stroke="black" d="M674.85,-84.16C752.05,-77.84 879.13,-64.34 996.02,-35.95"/>
<polygon fill="black" stroke="black" points="996.99,-39.32 1005.86,-33.52 995.31,-32.52 996.99,-39.32"/>
</g>
<!-- [root] output.id -->
<g id="node2" class="node">
<title>[root] output.id</title>
<polygon fill="none" stroke="black" points="537.55,-180 478.55,-180 478.55,-144 543.55,-144 543.55,-174 537.55,-180"/>
<polyline fill="none" stroke="black" points="537.55,-180 537.55,-174 "/>
<polyline fill="none" stroke="black" points="543.55,-174 537.55,-174 "/>
<text text-anchor="middle" x="511.05" y="-158.3" font-family="Times,serif" font-size="14.00">output.id</text>
</g>
<!-- [root] output.id&#45;&gt;[root] aws_security_group.sg -->
<g id="edge12" class="edge">
<title>[root] output.id&#45;&gt;[root] aws_security_group.sg</title>
<path fill="none" stroke="black" d="M534.04,-143.7C545.86,-134.8 560.44,-123.82 573.23,-114.2"/>
<polygon fill="black" stroke="black" points="575.44,-116.91 581.32,-108.1 571.23,-111.32 575.44,-116.91"/>
</g>
<!-- [root] output.name -->
<g id="node3" class="node">
<title>[root] output.name</title>
<polygon fill="none" stroke="black" points="640.55,-180 561.55,-180 561.55,-144 646.55,-144 646.55,-174 640.55,-180"/>
<polyline fill="none" stroke="black" points="640.55,-180 640.55,-174 "/>
<polyline fill="none" stroke="black" points="646.55,-174 640.55,-174 "/>
<text text-anchor="middle" x="604.05" y="-158.3" font-family="Times,serif" font-size="14.00">output.name</text>
</g>
<!-- [root] output.name&#45;&gt;[root] aws_security_group.sg -->
<g id="edge13" class="edge">
<title>[root] output.name&#45;&gt;[root] aws_security_group.sg</title>
<path fill="none" stroke="black" d="M604.05,-143.7C604.05,-135.98 604.05,-126.71 604.05,-118.11"/>
<polygon fill="black" stroke="black" points="607.55,-118.1 604.05,-108.1 600.55,-118.1 607.55,-118.1"/>
</g>
<!-- [root] meta.count&#45;boundary (EachMode fixup) -->
<g id="node13" class="node">
<title>[root] meta.count&#45;boundary (EachMode fixup)</title>
<ellipse fill="none" stroke="black" cx="511.05" cy="-234" rx="176.27" ry="18"/>
<text text-anchor="middle" x="511.05" y="-230.3" font-family="Times,serif" font-size="14.00">[root] meta.count&#45;boundary (EachMode fixup)</text>
</g>
<!-- [root] meta.count&#45;boundary (EachMode fixup)&#45;&gt;[root] output.id -->
<g id="edge10" class="edge">
<title>[root] meta.count&#45;boundary (EachMode fixup)&#45;&gt;[root] output.id</title>
<path fill="none" stroke="black" d="M511.05,-215.7C511.05,-207.98 511.05,-198.71 511.05,-190.11"/>
<polygon fill="black" stroke="black" points="514.55,-190.1 511.05,-180.1 507.55,-190.1 514.55,-190.1"/>
</g>
<!-- [root] meta.count&#45;boundary (EachMode fixup)&#45;&gt;[root] output.name -->
<g id="edge11" class="edge">
<title>[root] meta.count&#45;boundary (EachMode fixup)&#45;&gt;[root] output.name</title>
<path fill="none" stroke="black" d="M533.56,-216.05C545.47,-207.09 560.26,-195.96 573.22,-186.2"/>
<polygon fill="black" stroke="black" points="575.53,-188.84 581.42,-180.03 571.33,-183.25 575.53,-188.84"/>
</g>
<!-- [root] provider.aws (close) -->
<g id="node14" class="node">
<title>[root] provider.aws (close)</title>
<ellipse fill="none" stroke="black" cx="810.05" cy="-234" rx="104.78" ry="18"/>
<text text-anchor="middle" x="810.05" y="-230.3" font-family="Times,serif" font-size="14.00">[root] provider.aws (close)</text>
</g>
<!-- [root] provider.aws (close)&#45;&gt;[root] aws_security_group.sg -->
<g id="edge14" class="edge">
<title>[root] provider.aws (close)&#45;&gt;[root] aws_security_group.sg</title>
<path fill="none" stroke="black" d="M786.01,-216.43C749.25,-191.09 678.95,-142.63 637.32,-113.93"/>
<polygon fill="black" stroke="black" points="639.11,-110.92 628.89,-108.12 635.14,-116.68 639.11,-110.92"/>
</g>
<!-- [root] root -->
<g id="node15" class="node">
<title>[root] root</title>
<ellipse fill="none" stroke="black" cx="660.05" cy="-306" rx="47.39" ry="18"/>
<text text-anchor="middle" x="660.05" y="-302.3" font-family="Times,serif" font-size="14.00">[root] root</text>
</g>
<!-- [root] root&#45;&gt;[root] meta.count&#45;boundary (EachMode fixup) -->
<g id="edge15" class="edge">
<title>[root] root&#45;&gt;[root] meta.count&#45;boundary (EachMode fixup)</title>
<path fill="none" stroke="black" d="M631.32,-291.5C609.87,-281.43 580.16,-267.47 555.64,-255.95"/>
<polygon fill="black" stroke="black" points="557.06,-252.75 546.52,-251.67 554.09,-259.09 557.06,-252.75"/>
</g>
<!-- [root] root&#45;&gt;[root] provider.aws (close) -->
<g id="edge16" class="edge">
<title>[root] root&#45;&gt;[root] provider.aws (close)</title>
<path fill="none" stroke="black" d="M688.97,-291.5C710.94,-281.25 741.51,-266.98 766.44,-255.35"/>
<polygon fill="black" stroke="black" points="768.11,-258.43 775.69,-251.03 765.15,-252.09 768.11,-258.43"/>
</g>
</g>
</svg>
