<?xml version="1.0" encoding="UTF-8" standalone="no"?>
<!DOCTYPE svg PUBLIC "-//W3C//DTD SVG 1.1//EN"
 "http://www.w3.org/Graphics/SVG/1.1/DTD/svg11.dtd">
<!-- Generated by graphviz version 2.44.1 (20200629.0846)
 -->
<!-- Pages: 1 -->
<svg width="1087pt" height="260pt"
 viewBox="0.00 0.00 1087.05 260.00" xmlns="http://www.w3.org/2000/svg" xmlns:xlink="http://www.w3.org/1999/xlink">
<g id="graph0" class="graph" transform="scale(1 1) rotate(0) translate(4 256)">
<polygon fill="white" stroke="transparent" points="-4,4 -4,-256 1083.05,-256 1083.05,4 -4,4"/>
<!-- [root] aws_rds_cluster_instance.cluster_instances -->
<g id="node1" class="node">
<title>[root] aws_rds_cluster_instance.cluster_instances</title>
<polygon fill="none" stroke="black" points="664.55,-108 413.55,-108 413.55,-72 664.55,-72 664.55,-108"/>
<text text-anchor="middle" x="539.05" y="-86.3" font-family="Times,serif" font-size="14.00">aws_rds_cluster_instance.cluster_instances</text>
</g>
<!-- [root] provider.aws -->
<g id="node2" class="node">
<title>[root] provider.aws</title>
<polygon fill="none" stroke="black" points="79.05,-36 -0.05,-18 79.05,0 158.14,-18 79.05,-36"/>
<text text-anchor="middle" x="79.05" y="-14.3" font-family="Times,serif" font-size="14.00">provider.aws</text>
</g>
<!-- [root] aws_rds_cluster_instance.cluster_instances&#45;&gt;[root] provider.aws -->
<g id="edge1" class="edge">
<title>[root] aws_rds_cluster_instance.cluster_instances&#45;&gt;[root] provider.aws</title>
<path fill="none" stroke="black" d="M413.54,-72.69C341.31,-62.91 248.92,-49.73 167.05,-36 154.7,-33.93 141.42,-31.48 129.01,-29.1"/>
<polygon fill="black" stroke="black" points="129.32,-25.59 118.84,-27.12 127.98,-32.46 129.32,-25.59"/>
</g>
<!-- [root] var.baserdsname -->
<g id="node3" class="node">
<title>[root] var.baserdsname</title>
<polygon fill="none" stroke="black" points="277.55,-36 176.55,-36 176.55,0 283.55,0 283.55,-30 277.55,-36"/>
<polyline fill="none" stroke="black" points="277.55,-36 277.55,-30 "/>
<polyline fill="none" stroke="black" points="283.55,-30 277.55,-30 "/>
<text text-anchor="middle" x="230.05" y="-14.3" font-family="Times,serif" font-size="14.00">var.baserdsname</text>
</g>
<!-- [root] aws_rds_cluster_instance.cluster_instances&#45;&gt;[root] var.baserdsname -->
<g id="edge2" class="edge">
<title>[root] aws_rds_cluster_instance.cluster_instances&#45;&gt;[root] var.baserdsname</title>
<path fill="none" stroke="black" d="M454.83,-71.97C409.72,-62.59 353,-50.37 293.57,-36.06"/>
<polygon fill="black" stroke="black" points="294.16,-32.61 283.62,-33.66 292.51,-39.41 294.16,-32.61"/>
</g>
<!-- [root] var.cluster_id -->
<g id="node4" class="node">
<title>[root] var.cluster_id</title>
<polygon fill="none" stroke="black" points="386.05,-36 302.05,-36 302.05,0 392.05,0 392.05,-30 386.05,-36"/>
<polyline fill="none" stroke="black" points="386.05,-36 386.05,-30 "/>
<polyline fill="none" stroke="black" points="392.05,-30 386.05,-30 "/>
<text text-anchor="middle" x="347.05" y="-14.3" font-family="Times,serif" font-size="14.00">var.cluster_id</text>
</g>
<!-- [root] aws_rds_cluster_instance.cluster_instances&#45;&gt;[root] var.cluster_id -->
<g id="edge3" class="edge">
<title>[root] aws_rds_cluster_instance.cluster_instances&#45;&gt;[root] var.cluster_id</title>
<path fill="none" stroke="black" d="M492.08,-71.88C464.75,-61.91 430.17,-49.31 401.64,-38.9"/>
<polygon fill="black" stroke="black" points="402.8,-35.6 392.21,-35.47 400.41,-42.18 402.8,-35.6"/>
</g>
<!-- [root] var.database_name -->
<g id="node5" class="node">
<title>[root] var.database_name</title>
<polygon fill="none" stroke="black" points="524.05,-36 410.05,-36 410.05,0 530.05,0 530.05,-30 524.05,-36"/>
<polyline fill="none" stroke="black" points="524.05,-36 524.05,-30 "/>
<polyline fill="none" stroke="black" points="530.05,-30 524.05,-30 "/>
<text text-anchor="middle" x="470.05" y="-14.3" font-family="Times,serif" font-size="14.00">var.database_name</text>
</g>
<!-- [root] aws_rds_cluster_instance.cluster_instances&#45;&gt;[root] var.database_name -->
<g id="edge4" class="edge">
<title>[root] aws_rds_cluster_instance.cluster_instances&#45;&gt;[root] var.database_name</title>
<path fill="none" stroke="black" d="M521.99,-71.7C513.55,-63.14 503.22,-52.66 494,-43.3"/>
<polygon fill="black" stroke="black" points="496.42,-40.77 486.91,-36.1 491.43,-45.68 496.42,-40.77"/>
</g>
<!-- [root] var.engine_version -->
<g id="node7" class="node">
<title>[root] var.engine_version</title>
<polygon fill="none" stroke="black" points="661.55,-36 548.55,-36 548.55,0 667.55,0 667.55,-30 661.55,-36"/>
<polyline fill="none" stroke="black" points="661.55,-36 661.55,-30 "/>
<polyline fill="none" stroke="black" points="667.55,-30 661.55,-30 "/>
<text text-anchor="middle" x="608.05" y="-14.3" font-family="Times,serif" font-size="14.00">var.engine_version</text>
</g>
<!-- [root] aws_rds_cluster_instance.cluster_instances&#45;&gt;[root] var.engine_version -->
<g id="edge5" class="edge">
<title>[root] aws_rds_cluster_instance.cluster_instances&#45;&gt;[root] var.engine_version</title>
<path fill="none" stroke="black" d="M556.1,-71.7C564.54,-63.14 574.87,-52.66 584.09,-43.3"/>
<polygon fill="black" stroke="black" points="586.66,-45.68 591.19,-36.1 581.67,-40.77 586.66,-45.68"/>
</g>
<!-- [root] var.instance_type -->
<g id="node8" class="node">
<title>[root] var.instance_type</title>
<polygon fill="none" stroke="black" points="790.55,-36 685.55,-36 685.55,0 796.55,0 796.55,-30 790.55,-36"/>
<polyline fill="none" stroke="black" points="790.55,-36 790.55,-30 "/>
<polyline fill="none" stroke="black" points="796.55,-30 790.55,-30 "/>
<text text-anchor="middle" x="741.05" y="-14.3" font-family="Times,serif" font-size="14.00">var.instance_type</text>
</g>
<!-- [root] aws_rds_cluster_instance.cluster_instances&#45;&gt;[root] var.instance_type -->
<g id="edge6" class="edge">
<title>[root] aws_rds_cluster_instance.cluster_instances&#45;&gt;[root] var.instance_type</title>
<path fill="none" stroke="black" d="M588.2,-71.97C616.55,-62.14 652.37,-49.73 682.21,-39.39"/>
<polygon fill="black" stroke="black" points="683.37,-42.69 691.67,-36.11 681.08,-36.08 683.37,-42.69"/>
</g>
<!-- [root] var.object_sequence -->
<g id="node9" class="node">
<title>[root] var.object_sequence</title>
<polygon fill="none" stroke="black" points="935.05,-36 815.05,-36 815.05,0 941.05,0 941.05,-30 935.05,-36"/>
<polyline fill="none" stroke="black" points="935.05,-36 935.05,-30 "/>
<polyline fill="none" stroke="black" points="941.05,-30 935.05,-30 "/>
<text text-anchor="middle" x="878.05" y="-14.3" font-family="Times,serif" font-size="14.00">var.object_sequence</text>
</g>
<!-- [root] aws_rds_cluster_instance.cluster_instances&#45;&gt;[root] var.object_sequence -->
<g id="edge7" class="edge">
<title>[root] aws_rds_cluster_instance.cluster_instances&#45;&gt;[root] var.object_sequence</title>
<path fill="none" stroke="black" d="M629.13,-71.95C678.44,-62.43 740.84,-50.04 804.97,-36.2"/>
<polygon fill="black" stroke="black" points="805.83,-39.59 814.86,-34.05 804.35,-32.75 805.83,-39.59"/>
</g>
<!-- [root] var.publicaccesible -->
<g id="node10" class="node">
<title>[root] var.publicaccesible</title>
<polygon fill="none" stroke="black" points="1073.05,-36 959.05,-36 959.05,0 1079.05,0 1079.05,-30 1073.05,-36"/>
<polyline fill="none" stroke="black" points="1073.05,-36 1073.05,-30 "/>
<polyline fill="none" stroke="black" points="1079.05,-30 1073.05,-30 "/>
<text text-anchor="middle" x="1019.05" y="-14.3" font-family="Times,serif" font-size="14.00">var.publicaccesible</text>
</g>
<!-- [root] aws_rds_cluster_instance.cluster_instances&#45;&gt;[root] var.publicaccesible -->
<g id="edge8" class="edge">
<title>[root] aws_rds_cluster_instance.cluster_instances&#45;&gt;[root] var.publicaccesible</title>
<path fill="none" stroke="black" d="M664.63,-76.54C743.68,-67.81 847.96,-54.67 948.86,-36.11"/>
<polygon fill="black" stroke="black" points="949.73,-39.51 958.92,-34.24 948.45,-32.63 949.73,-39.51"/>
</g>
<!-- [root] var.engine -->
<g id="node6" class="node">
<title>[root] var.engine</title>
<polygon fill="none" stroke="black" points="808.55,-108 741.55,-108 741.55,-72 814.55,-72 814.55,-102 808.55,-108"/>
<polyline fill="none" stroke="black" points="808.55,-108 808.55,-102 "/>
<polyline fill="none" stroke="black" points="814.55,-102 808.55,-102 "/>
<text text-anchor="middle" x="778.05" y="-86.3" font-family="Times,serif" font-size="14.00">var.engine</text>
</g>
<!-- [root] meta.count&#45;boundary (EachMode fixup) -->
<g id="node11" class="node">
<title>[root] meta.count&#45;boundary (EachMode fixup)</title>
<ellipse fill="none" stroke="black" cx="778.05" cy="-162" rx="176.27" ry="18"/>
<text text-anchor="middle" x="778.05" y="-158.3" font-family="Times,serif" font-size="14.00">[root] meta.count&#45;boundary (EachMode fixup)</text>
</g>
<!-- [root] meta.count&#45;boundary (EachMode fixup)&#45;&gt;[root] aws_rds_cluster_instance.cluster_instances -->
<g id="edge9" class="edge">
<title>[root] meta.count&#45;boundary (EachMode fixup)&#45;&gt;[root] aws_rds_cluster_instance.cluster_instances</title>
<path fill="none" stroke="black" d="M722.92,-144.85C688.37,-134.73 643.59,-121.62 606.87,-110.87"/>
<polygon fill="black" stroke="black" points="607.82,-107.49 597.24,-108.04 605.85,-114.21 607.82,-107.49"/>
</g>
<!-- [root] meta.count&#45;boundary (EachMode fixup)&#45;&gt;[root] var.engine -->
<g id="edge10" class="edge">
<title>[root] meta.count&#45;boundary (EachMode fixup)&#45;&gt;[root] var.engine</title>
<path fill="none" stroke="black" d="M778.05,-143.7C778.05,-135.98 778.05,-126.71 778.05,-118.11"/>
<polygon fill="black" stroke="black" points="781.55,-118.1 778.05,-108.1 774.55,-118.1 781.55,-118.1"/>
</g>
<!-- [root] provider.aws (close) -->
<g id="node12" class="node">
<title>[root] provider.aws (close)</title>
<ellipse fill="none" stroke="black" cx="479.05" cy="-162" rx="104.78" ry="18"/>
<text text-anchor="middle" x="479.05" y="-158.3" font-family="Times,serif" font-size="14.00">[root] provider.aws (close)</text>
</g>
<!-- [root] provider.aws (close)&#45;&gt;[root] aws_rds_cluster_instance.cluster_instances -->
<g id="edge11" class="edge">
<title>[root] provider.aws (close)&#45;&gt;[root] aws_rds_cluster_instance.cluster_instances</title>
<path fill="none" stroke="black" d="M493.57,-144.05C500.76,-135.67 509.58,-125.38 517.54,-116.1"/>
<polygon fill="black" stroke="black" points="520.39,-118.15 524.24,-108.28 515.07,-113.59 520.39,-118.15"/>
</g>
<!-- [root] root -->
<g id="node13" class="node">
<title>[root] root</title>
<ellipse fill="none" stroke="black" cx="628.05" cy="-234" rx="47.39" ry="18"/>
<text text-anchor="middle" x="628.05" y="-230.3" font-family="Times,serif" font-size="14.00">[root] root</text>
</g>
<!-- [root] root&#45;&gt;[root] meta.count&#45;boundary (EachMode fixup) -->
<g id="edge12" class="edge">
<title>[root] root&#45;&gt;[root] meta.count&#45;boundary (EachMode fixup)</title>
<path fill="none" stroke="black" d="M656.97,-219.5C678.56,-209.43 708.47,-195.47 733.15,-183.95"/>
<polygon fill="black" stroke="black" points="734.75,-187.07 742.33,-179.67 731.79,-180.72 734.75,-187.07"/>
</g>
<!-- [root] root&#45;&gt;[root] provider.aws (close) -->
<g id="edge13" class="edge">
<title>[root] root&#45;&gt;[root] provider.aws (close)</title>
<path fill="none" stroke="black" d="M599.32,-219.5C577.5,-209.25 547.12,-194.98 522.36,-183.35"/>
<polygon fill="black" stroke="black" points="523.71,-180.12 513.17,-179.03 520.74,-186.45 523.71,-180.12"/>
</g>
</g>
</svg>
