<?xml version="1.0" encoding="UTF-8" standalone="no"?>
<!DOCTYPE svg PUBLIC "-//W3C//DTD SVG 1.1//EN"
 "http://www.w3.org/Graphics/SVG/1.1/DTD/svg11.dtd">
<!-- Generated by graphviz version 2.44.1 (20200629.0846)
 -->
<!-- Pages: 1 -->
<svg width="955pt" height="404pt"
 viewBox="0.00 0.00 955.05 404.00" xmlns="http://www.w3.org/2000/svg" xmlns:xlink="http://www.w3.org/1999/xlink">
<g id="graph0" class="graph" transform="scale(1 1) rotate(0) translate(4 400)">
<polygon fill="white" stroke="transparent" points="-4,4 -4,-400 951.05,-400 951.05,4 -4,4"/>
<!-- [root] aws_dynamodb_table.dynamodb&#45;table -->
<g id="node1" class="node">
<title>[root] aws_dynamodb_table.dynamodb&#45;table</title>
<polygon fill="none" stroke="black" points="603.55,-108 376.55,-108 376.55,-72 603.55,-72 603.55,-108"/>
<text text-anchor="middle" x="490.05" y="-86.3" font-family="Times,serif" font-size="14.00">aws_dynamodb_table.dynamodb&#45;table</text>
</g>
<!-- [root] provider.aws -->
<g id="node5" class="node">
<title>[root] provider.aws</title>
<polygon fill="none" stroke="black" points="79.05,-36 -0.05,-18 79.05,0 158.14,-18 79.05,-36"/>
<text text-anchor="middle" x="79.05" y="-14.3" font-family="Times,serif" font-size="14.00">provider.aws</text>
</g>
<!-- [root] aws_dynamodb_table.dynamodb&#45;table&#45;&gt;[root] provider.aws -->
<g id="edge1" class="edge">
<title>[root] aws_dynamodb_table.dynamodb&#45;table&#45;&gt;[root] provider.aws</title>
<path fill="none" stroke="black" d="M381.51,-71.97C318.77,-61.93 238.37,-48.74 167.05,-36 154.72,-33.8 141.45,-31.3 129.04,-28.91"/>
<polygon fill="black" stroke="black" points="129.35,-25.41 118.87,-26.94 128.02,-32.28 129.35,-25.41"/>
</g>
<!-- [root] var.attribute -->
<g id="node6" class="node">
<title>[root] var.attribute</title>
<polygon fill="none" stroke="black" points="252.05,-36 176.05,-36 176.05,0 258.05,0 258.05,-30 252.05,-36"/>
<polyline fill="none" stroke="black" points="252.05,-36 252.05,-30 "/>
<polyline fill="none" stroke="black" points="258.05,-30 252.05,-30 "/>
<text text-anchor="middle" x="217.05" y="-14.3" font-family="Times,serif" font-size="14.00">var.attribute</text>
</g>
<!-- [root] aws_dynamodb_table.dynamodb&#45;table&#45;&gt;[root] var.attribute -->
<g id="edge2" class="edge">
<title>[root] aws_dynamodb_table.dynamodb&#45;table&#45;&gt;[root] var.attribute</title>
<path fill="none" stroke="black" d="M410.36,-71.98C370.12,-62.93 320.4,-51.07 267.97,-36.14"/>
<polygon fill="black" stroke="black" points="268.73,-32.72 258.15,-33.32 266.79,-39.44 268.73,-32.72"/>
</g>
<!-- [root] var.default_tags -->
<g id="node7" class="node">
<title>[root] var.default_tags</title>
<polygon fill="none" stroke="black" points="373.55,-36 276.55,-36 276.55,0 379.55,0 379.55,-30 373.55,-36"/>
<polyline fill="none" stroke="black" points="373.55,-36 373.55,-30 "/>
<polyline fill="none" stroke="black" points="379.55,-30 373.55,-30 "/>
<text text-anchor="middle" x="328.05" y="-14.3" font-family="Times,serif" font-size="14.00">var.default_tags</text>
</g>
<!-- [root] aws_dynamodb_table.dynamodb&#45;table&#45;&gt;[root] var.default_tags -->
<g id="edge3" class="edge">
<title>[root] aws_dynamodb_table.dynamodb&#45;table&#45;&gt;[root] var.default_tags</title>
<path fill="none" stroke="black" d="M450.42,-71.88C428.27,-62.31 400.49,-50.3 376.99,-40.15"/>
<polygon fill="black" stroke="black" points="378.12,-36.82 367.55,-36.07 375.34,-43.25 378.12,-36.82"/>
</g>
<!-- [root] var.hash_key -->
<g id="node8" class="node">
<title>[root] var.hash_key</title>
<polygon fill="none" stroke="black" points="480.05,-36 398.05,-36 398.05,0 486.05,0 486.05,-30 480.05,-36"/>
<polyline fill="none" stroke="black" points="480.05,-36 480.05,-30 "/>
<polyline fill="none" stroke="black" points="486.05,-30 480.05,-30 "/>
<text text-anchor="middle" x="442.05" y="-14.3" font-family="Times,serif" font-size="14.00">var.hash_key</text>
</g>
<!-- [root] aws_dynamodb_table.dynamodb&#45;table&#45;&gt;[root] var.hash_key -->
<g id="edge4" class="edge">
<title>[root] aws_dynamodb_table.dynamodb&#45;table&#45;&gt;[root] var.hash_key</title>
<path fill="none" stroke="black" d="M478.18,-71.7C472.54,-63.47 465.69,-53.48 459.48,-44.42"/>
<polygon fill="black" stroke="black" points="462.32,-42.37 453.78,-36.1 456.54,-46.33 462.32,-42.37"/>
</g>
<!-- [root] var.name -->
<g id="node9" class="node">
<title>[root] var.name</title>
<polygon fill="none" stroke="black" points="565.55,-36 504.55,-36 504.55,0 571.55,0 571.55,-30 565.55,-36"/>
<polyline fill="none" stroke="black" points="565.55,-36 565.55,-30 "/>
<polyline fill="none" stroke="black" points="571.55,-30 565.55,-30 "/>
<text text-anchor="middle" x="538.05" y="-14.3" font-family="Times,serif" font-size="14.00">var.name</text>
</g>
<!-- [root] aws_dynamodb_table.dynamodb&#45;table&#45;&gt;[root] var.name -->
<g id="edge5" class="edge">
<title>[root] aws_dynamodb_table.dynamodb&#45;table&#45;&gt;[root] var.name</title>
<path fill="none" stroke="black" d="M501.91,-71.7C507.55,-63.47 514.4,-53.48 520.62,-44.42"/>
<polygon fill="black" stroke="black" points="523.55,-46.33 526.32,-36.1 517.78,-42.37 523.55,-46.33"/>
</g>
<!-- [root] var.range_key -->
<g id="node10" class="node">
<title>[root] var.range_key</title>
<polygon fill="none" stroke="black" points="676.55,-36 589.55,-36 589.55,0 682.55,0 682.55,-30 676.55,-36"/>
<polyline fill="none" stroke="black" points="676.55,-36 676.55,-30 "/>
<polyline fill="none" stroke="black" points="682.55,-30 676.55,-30 "/>
<text text-anchor="middle" x="636.05" y="-14.3" font-family="Times,serif" font-size="14.00">var.range_key</text>
</g>
<!-- [root] aws_dynamodb_table.dynamodb&#45;table&#45;&gt;[root] var.range_key -->
<g id="edge6" class="edge">
<title>[root] aws_dynamodb_table.dynamodb&#45;table&#45;&gt;[root] var.range_key</title>
<path fill="none" stroke="black" d="M525.76,-71.88C545.54,-62.39 570.32,-50.51 591.37,-40.42"/>
<polygon fill="black" stroke="black" points="592.94,-43.55 600.45,-36.07 589.92,-37.24 592.94,-43.55"/>
</g>
<!-- [root] var.read_capacity -->
<g id="node11" class="node">
<title>[root] var.read_capacity</title>
<polygon fill="none" stroke="black" points="807.05,-36 701.05,-36 701.05,0 813.05,0 813.05,-30 807.05,-36"/>
<polyline fill="none" stroke="black" points="807.05,-36 807.05,-30 "/>
<polyline fill="none" stroke="black" points="813.05,-30 807.05,-30 "/>
<text text-anchor="middle" x="757.05" y="-14.3" font-family="Times,serif" font-size="14.00">var.read_capacity</text>
</g>
<!-- [root] aws_dynamodb_table.dynamodb&#45;table&#45;&gt;[root] var.read_capacity -->
<g id="edge7" class="edge">
<title>[root] aws_dynamodb_table.dynamodb&#45;table&#45;&gt;[root] var.read_capacity</title>
<path fill="none" stroke="black" d="M555.02,-71.97C596.32,-61.14 649.62,-47.16 691.11,-36.29"/>
<polygon fill="black" stroke="black" points="692.06,-39.66 700.85,-33.73 690.29,-32.88 692.06,-39.66"/>
</g>
<!-- [root] var.write_capacity -->
<g id="node12" class="node">
<title>[root] var.write_capacity</title>
<polygon fill="none" stroke="black" points="941.05,-36 831.05,-36 831.05,0 947.05,0 947.05,-30 941.05,-36"/>
<polyline fill="none" stroke="black" points="941.05,-36 941.05,-30 "/>
<polyline fill="none" stroke="black" points="947.05,-30 941.05,-30 "/>
<text text-anchor="middle" x="889.05" y="-14.3" font-family="Times,serif" font-size="14.00">var.write_capacity</text>
</g>
<!-- [root] aws_dynamodb_table.dynamodb&#45;table&#45;&gt;[root] var.write_capacity -->
<g id="edge8" class="edge">
<title>[root] aws_dynamodb_table.dynamodb&#45;table&#45;&gt;[root] var.write_capacity</title>
<path fill="none" stroke="black" d="M603.83,-73.43C665.51,-64.37 743.2,-51.95 821.03,-36.12"/>
<polygon fill="black" stroke="black" points="821.93,-39.51 831.02,-34.06 820.52,-32.65 821.93,-39.51"/>
</g>
<!-- [root] local.options -->
<g id="node2" class="node">
<title>[root] local.options</title>
<polygon fill="none" stroke="black" points="527.05,-180 447.05,-180 447.05,-144 533.05,-144 533.05,-174 527.05,-180"/>
<polyline fill="none" stroke="black" points="527.05,-180 527.05,-174 "/>
<polyline fill="none" stroke="black" points="533.05,-174 527.05,-174 "/>
<text text-anchor="middle" x="490.05" y="-158.3" font-family="Times,serif" font-size="14.00">local.options</text>
</g>
<!-- [root] local.options&#45;&gt;[root] aws_dynamodb_table.dynamodb&#45;table -->
<g id="edge9" class="edge">
<title>[root] local.options&#45;&gt;[root] aws_dynamodb_table.dynamodb&#45;table</title>
<path fill="none" stroke="black" d="M490.05,-143.7C490.05,-135.98 490.05,-126.71 490.05,-118.11"/>
<polygon fill="black" stroke="black" points="493.55,-118.1 490.05,-108.1 486.55,-118.1 493.55,-118.1"/>
</g>
<!-- [root] output.name -->
<g id="node3" class="node">
<title>[root] output.name</title>
<polygon fill="none" stroke="black" points="426.55,-252 347.55,-252 347.55,-216 432.55,-216 432.55,-246 426.55,-252"/>
<polyline fill="none" stroke="black" points="426.55,-252 426.55,-246 "/>
<polyline fill="none" stroke="black" points="432.55,-246 426.55,-246 "/>
<text text-anchor="middle" x="390.05" y="-230.3" font-family="Times,serif" font-size="14.00">output.name</text>
</g>
<!-- [root] output.name&#45;&gt;[root] aws_dynamodb_table.dynamodb&#45;table -->
<g id="edge12" class="edge">
<title>[root] output.name&#45;&gt;[root] aws_dynamodb_table.dynamodb&#45;table</title>
<path fill="none" stroke="black" d="M397.57,-215.76C406.07,-197.18 420.96,-167.17 438.05,-144 445.5,-133.89 454.82,-123.79 463.49,-115.17"/>
<polygon fill="black" stroke="black" points="466.14,-117.48 470.89,-108.01 461.27,-112.45 466.14,-117.48"/>
</g>
<!-- [root] output.toString -->
<g id="node4" class="node">
<title>[root] output.toString</title>
<polygon fill="none" stroke="black" points="543.05,-252 451.05,-252 451.05,-216 549.05,-216 549.05,-246 543.05,-252"/>
<polyline fill="none" stroke="black" points="543.05,-252 543.05,-246 "/>
<polyline fill="none" stroke="black" points="549.05,-246 543.05,-246 "/>
<text text-anchor="middle" x="500.05" y="-230.3" font-family="Times,serif" font-size="14.00">output.toString</text>
</g>
<!-- [root] output.toString&#45;&gt;[root] local.options -->
<g id="edge13" class="edge">
<title>[root] output.toString&#45;&gt;[root] local.options</title>
<path fill="none" stroke="black" d="M497.58,-215.7C496.47,-207.98 495.15,-198.71 493.92,-190.11"/>
<polygon fill="black" stroke="black" points="497.37,-189.51 492.49,-180.1 490.44,-190.5 497.37,-189.51"/>
</g>
<!-- [root] meta.count&#45;boundary (EachMode fixup) -->
<g id="node13" class="node">
<title>[root] meta.count&#45;boundary (EachMode fixup)</title>
<ellipse fill="none" stroke="black" cx="452.05" cy="-306" rx="176.27" ry="18"/>
<text text-anchor="middle" x="452.05" y="-302.3" font-family="Times,serif" font-size="14.00">[root] meta.count&#45;boundary (EachMode fixup)</text>
</g>
<!-- [root] meta.count&#45;boundary (EachMode fixup)&#45;&gt;[root] output.name -->
<g id="edge10" class="edge">
<title>[root] meta.count&#45;boundary (EachMode fixup)&#45;&gt;[root] output.name</title>
<path fill="none" stroke="black" d="M437.04,-288.05C429.54,-279.58 420.31,-269.17 412.03,-259.82"/>
<polygon fill="black" stroke="black" points="414.6,-257.44 405.35,-252.28 409.36,-262.08 414.6,-257.44"/>
</g>
<!-- [root] meta.count&#45;boundary (EachMode fixup)&#45;&gt;[root] output.toString -->
<g id="edge11" class="edge">
<title>[root] meta.count&#45;boundary (EachMode fixup)&#45;&gt;[root] output.toString</title>
<path fill="none" stroke="black" d="M463.91,-287.7C469.55,-279.47 476.4,-269.48 482.62,-260.42"/>
<polygon fill="black" stroke="black" points="485.55,-262.33 488.32,-252.1 479.78,-258.37 485.55,-262.33"/>
</g>
<!-- [root] provider.aws (close) -->
<g id="node14" class="node">
<title>[root] provider.aws (close)</title>
<ellipse fill="none" stroke="black" cx="656.05" cy="-162" rx="104.78" ry="18"/>
<text text-anchor="middle" x="656.05" y="-158.3" font-family="Times,serif" font-size="14.00">[root] provider.aws (close)</text>
</g>
<!-- [root] provider.aws (close)&#45;&gt;[root] aws_dynamodb_table.dynamodb&#45;table -->
<g id="edge14" class="edge">
<title>[root] provider.aws (close)&#45;&gt;[root] aws_dynamodb_table.dynamodb&#45;table</title>
<path fill="none" stroke="black" d="M618.38,-145.12C595.14,-135.32 565.06,-122.63 539.86,-112.01"/>
<polygon fill="black" stroke="black" points="541.04,-108.7 530.47,-108.04 538.32,-115.15 541.04,-108.7"/>
</g>
<!-- [root] root -->
<g id="node15" class="node">
<title>[root] root</title>
<ellipse fill="none" stroke="black" cx="554.05" cy="-378" rx="47.39" ry="18"/>
<text text-anchor="middle" x="554.05" y="-374.3" font-family="Times,serif" font-size="14.00">[root] root</text>
</g>
<!-- [root] root&#45;&gt;[root] meta.count&#45;boundary (EachMode fixup) -->
<g id="edge15" class="edge">
<title>[root] root&#45;&gt;[root] meta.count&#45;boundary (EachMode fixup)</title>
<path fill="none" stroke="black" d="M532.17,-361.98C518.44,-352.56 500.47,-340.23 485.03,-329.64"/>
<polygon fill="black" stroke="black" points="486.98,-326.73 476.76,-323.96 483.02,-332.5 486.98,-326.73"/>
</g>
<!-- [root] root&#45;&gt;[root] provider.aws (close) -->
<g id="edge16" class="edge">
<title>[root] root&#45;&gt;[root] provider.aws (close)</title>
<path fill="none" stroke="black" d="M586.41,-364.61C604.35,-356 625.33,-342.69 637.05,-324 662.81,-282.9 662.5,-224.17 659.54,-190.17"/>
<polygon fill="black" stroke="black" points="663.01,-189.66 658.52,-180.06 656.04,-190.36 663.01,-189.66"/>
</g>
</g>
</svg>
