<?xml version="1.0" encoding="UTF-8" standalone="no"?>
<!DOCTYPE svg PUBLIC "-//W3C//DTD SVG 1.1//EN"
 "http://www.w3.org/Graphics/SVG/1.1/DTD/svg11.dtd">
<!-- Generated by graphviz version 2.44.1 (20200629.0846)
 -->
<!-- Pages: 1 -->
<svg width="588pt" height="260pt"
 viewBox="0.00 0.00 587.78 260.00" xmlns="http://www.w3.org/2000/svg" xmlns:xlink="http://www.w3.org/1999/xlink">
<g id="graph0" class="graph" transform="scale(1 1) rotate(0) translate(4 256)">
<polygon fill="white" stroke="transparent" points="-4,4 -4,-256 583.78,-256 583.78,4 -4,4"/>
<!-- [root] aws_route.route -->
<g id="node1" class="node">
<title>[root] aws_route.route</title>
<polygon fill="none" stroke="black" points="377.13,-108 273.13,-108 273.13,-72 377.13,-72 377.13,-108"/>
<text text-anchor="middle" x="325.13" y="-86.3" font-family="Times,serif" font-size="14.00">aws_route.route</text>
</g>
<!-- [root] provider.aws -->
<g id="node2" class="node">
<title>[root] provider.aws</title>
<polygon fill="none" stroke="black" points="103.13,-36 24.04,-18 103.13,0 182.23,-18 103.13,-36"/>
<text text-anchor="middle" x="103.13" y="-14.3" font-family="Times,serif" font-size="14.00">provider.aws</text>
</g>
<!-- [root] aws_route.route&#45;&gt;[root] provider.aws -->
<g id="edge1" class="edge">
<title>[root] aws_route.route&#45;&gt;[root] provider.aws</title>
<path fill="none" stroke="black" d="M273.09,-72.59C233.84,-60.21 180.75,-43.47 144.41,-32.02"/>
<polygon fill="black" stroke="black" points="145.22,-28.6 134.63,-28.93 143.12,-35.28 145.22,-28.6"/>
</g>
<!-- [root] var.destination_route -->
<g id="node3" class="node">
<title>[root] var.destination_route</title>
<polygon fill="none" stroke="black" points="325.63,-36 200.63,-36 200.63,0 331.63,0 331.63,-30 325.63,-36"/>
<polyline fill="none" stroke="black" points="325.63,-36 325.63,-30 "/>
<polyline fill="none" stroke="black" points="331.63,-30 325.63,-30 "/>
<text text-anchor="middle" x="266.13" y="-14.3" font-family="Times,serif" font-size="14.00">var.destination_route</text>
</g>
<!-- [root] aws_route.route&#45;&gt;[root] var.destination_route -->
<g id="edge2" class="edge">
<title>[root] aws_route.route&#45;&gt;[root] var.destination_route</title>
<path fill="none" stroke="black" d="M310.55,-71.7C303.48,-63.3 294.85,-53.07 287.09,-43.86"/>
<polygon fill="black" stroke="black" points="289.67,-41.49 280.55,-36.1 284.32,-46.01 289.67,-41.49"/>
</g>
<!-- [root] var.gw_id -->
<g id="node4" class="node">
<title>[root] var.gw_id</title>
<polygon fill="none" stroke="black" points="414.63,-36 349.63,-36 349.63,0 420.63,0 420.63,-30 414.63,-36"/>
<polyline fill="none" stroke="black" points="414.63,-36 414.63,-30 "/>
<polyline fill="none" stroke="black" points="420.63,-30 414.63,-30 "/>
<text text-anchor="middle" x="385.13" y="-14.3" font-family="Times,serif" font-size="14.00">var.gw_id</text>
</g>
<!-- [root] aws_route.route&#45;&gt;[root] var.gw_id -->
<g id="edge3" class="edge">
<title>[root] aws_route.route&#45;&gt;[root] var.gw_id</title>
<path fill="none" stroke="black" d="M339.97,-71.7C347.16,-63.3 355.93,-53.07 363.82,-43.86"/>
<polygon fill="black" stroke="black" points="366.62,-45.97 370.47,-36.1 361.31,-41.42 366.62,-45.97"/>
</g>
<!-- [root] var.route_tables -->
<g id="node5" class="node">
<title>[root] var.route_tables</title>
<polygon fill="none" stroke="black" points="535.63,-36 438.63,-36 438.63,0 541.63,0 541.63,-30 535.63,-36"/>
<polyline fill="none" stroke="black" points="535.63,-36 535.63,-30 "/>
<polyline fill="none" stroke="black" points="541.63,-30 535.63,-30 "/>
<text text-anchor="middle" x="490.13" y="-14.3" font-family="Times,serif" font-size="14.00">var.route_tables</text>
</g>
<!-- [root] aws_route.route&#45;&gt;[root] var.route_tables -->
<g id="edge4" class="edge">
<title>[root] aws_route.route&#45;&gt;[root] var.route_tables</title>
<path fill="none" stroke="black" d="M365.5,-71.88C388.15,-62.26 416.61,-50.19 440.6,-40.01"/>
<polygon fill="black" stroke="black" points="442.06,-43.2 449.9,-36.07 439.33,-36.75 442.06,-43.2"/>
</g>
<!-- [root] meta.count&#45;boundary (EachMode fixup) -->
<g id="node6" class="node">
<title>[root] meta.count&#45;boundary (EachMode fixup)</title>
<ellipse fill="none" stroke="black" cx="176.13" cy="-162" rx="176.27" ry="18"/>
<text text-anchor="middle" x="176.13" y="-158.3" font-family="Times,serif" font-size="14.00">[root] meta.count&#45;boundary (EachMode fixup)</text>
</g>
<!-- [root] meta.count&#45;boundary (EachMode fixup)&#45;&gt;[root] aws_route.route -->
<g id="edge5" class="edge">
<title>[root] meta.count&#45;boundary (EachMode fixup)&#45;&gt;[root] aws_route.route</title>
<path fill="none" stroke="black" d="M211.82,-144.23C232.16,-134.68 257.86,-122.61 279.64,-112.38"/>
<polygon fill="black" stroke="black" points="281.14,-115.54 288.7,-108.12 278.16,-109.2 281.14,-115.54"/>
</g>
<!-- [root] provider.aws (close) -->
<g id="node7" class="node">
<title>[root] provider.aws (close)</title>
<ellipse fill="none" stroke="black" cx="475.13" cy="-162" rx="104.78" ry="18"/>
<text text-anchor="middle" x="475.13" y="-158.3" font-family="Times,serif" font-size="14.00">[root] provider.aws (close)</text>
</g>
<!-- [root] provider.aws (close)&#45;&gt;[root] aws_route.route -->
<g id="edge6" class="edge">
<title>[root] provider.aws (close)&#45;&gt;[root] aws_route.route</title>
<path fill="none" stroke="black" d="M440.72,-144.94C420.06,-135.3 393.52,-122.91 371.08,-112.44"/>
<polygon fill="black" stroke="black" points="372.29,-109.14 361.74,-108.08 369.33,-115.48 372.29,-109.14"/>
</g>
<!-- [root] root -->
<g id="node8" class="node">
<title>[root] root</title>
<ellipse fill="none" stroke="black" cx="325.13" cy="-234" rx="47.39" ry="18"/>
<text text-anchor="middle" x="325.13" y="-230.3" font-family="Times,serif" font-size="14.00">[root] root</text>
</g>
<!-- [root] root&#45;&gt;[root] meta.count&#45;boundary (EachMode fixup) -->
<g id="edge7" class="edge">
<title>[root] root&#45;&gt;[root] meta.count&#45;boundary (EachMode fixup)</title>
<path fill="none" stroke="black" d="M296.41,-219.5C274.96,-209.43 245.25,-195.47 220.73,-183.95"/>
<polygon fill="black" stroke="black" points="222.15,-180.75 211.61,-179.67 219.17,-187.09 222.15,-180.75"/>
</g>
<!-- [root] root&#45;&gt;[root] provider.aws (close) -->
<g id="edge8" class="edge">
<title>[root] root&#45;&gt;[root] provider.aws (close)</title>
<path fill="none" stroke="black" d="M354.06,-219.5C376.02,-209.25 406.6,-194.98 431.53,-183.35"/>
<polygon fill="black" stroke="black" points="433.2,-186.43 440.78,-179.03 430.24,-180.09 433.2,-186.43"/>
</g>
</g>
</svg>
