<?xml version="1.0" encoding="UTF-8" standalone="no"?>
<!DOCTYPE svg PUBLIC "-//W3C//DTD SVG 1.1//EN"
 "http://www.w3.org/Graphics/SVG/1.1/DTD/svg11.dtd">
<!-- Generated by graphviz version 2.44.1 (20200629.0846)
 -->
<!-- Pages: 1 -->
<svg width="613pt" height="332pt"
 viewBox="0.00 0.00 612.69 332.00" xmlns="http://www.w3.org/2000/svg" xmlns:xlink="http://www.w3.org/1999/xlink">
<g id="graph0" class="graph" transform="scale(1 1) rotate(0) translate(4 328)">
<polygon fill="white" stroke="transparent" points="-4,4 -4,-328 608.69,-328 608.69,4 -4,4"/>
<!-- [root] aws_route53_record.www -->
<g id="node1" class="node">
<title>[root] aws_route53_record.www</title>
<polygon fill="none" stroke="black" points="356.05,-108 196.05,-108 196.05,-72 356.05,-72 356.05,-108"/>
<text text-anchor="middle" x="276.05" y="-86.3" font-family="Times,serif" font-size="14.00">aws_route53_record.www</text>
</g>
<!-- [root] provider.aws -->
<g id="node3" class="node">
<title>[root] provider.aws</title>
<polygon fill="none" stroke="black" points="79.05,-36 -0.05,-18 79.05,0 158.14,-18 79.05,-36"/>
<text text-anchor="middle" x="79.05" y="-14.3" font-family="Times,serif" font-size="14.00">provider.aws</text>
</g>
<!-- [root] aws_route53_record.www&#45;&gt;[root] provider.aws -->
<g id="edge1" class="edge">
<title>[root] aws_route53_record.www&#45;&gt;[root] provider.aws</title>
<path fill="none" stroke="black" d="M228.11,-71.97C194.4,-59.99 149.85,-44.16 118.26,-32.93"/>
<polygon fill="black" stroke="black" points="119.09,-29.51 108.49,-29.46 116.74,-36.11 119.09,-29.51"/>
</g>
<!-- [root] var.new_name -->
<g id="node5" class="node">
<title>[root] var.new_name</title>
<polygon fill="none" stroke="black" points="266.05,-36 176.05,-36 176.05,0 272.05,0 272.05,-30 266.05,-36"/>
<polyline fill="none" stroke="black" points="266.05,-36 266.05,-30 "/>
<polyline fill="none" stroke="black" points="272.05,-30 266.05,-30 "/>
<text text-anchor="middle" x="224.05" y="-14.3" font-family="Times,serif" font-size="14.00">var.new_name</text>
</g>
<!-- [root] aws_route53_record.www&#45;&gt;[root] var.new_name -->
<g id="edge2" class="edge">
<title>[root] aws_route53_record.www&#45;&gt;[root] var.new_name</title>
<path fill="none" stroke="black" d="M263.19,-71.7C257.02,-63.39 249.51,-53.28 242.72,-44.14"/>
<polygon fill="black" stroke="black" points="245.53,-42.04 236.75,-36.1 239.91,-46.22 245.53,-42.04"/>
</g>
<!-- [root] var.records -->
<g id="node6" class="node">
<title>[root] var.records</title>
<polygon fill="none" stroke="black" points="361.55,-36 290.55,-36 290.55,0 367.55,0 367.55,-30 361.55,-36"/>
<polyline fill="none" stroke="black" points="361.55,-36 361.55,-30 "/>
<polyline fill="none" stroke="black" points="367.55,-30 361.55,-30 "/>
<text text-anchor="middle" x="329.05" y="-14.3" font-family="Times,serif" font-size="14.00">var.records</text>
</g>
<!-- [root] aws_route53_record.www&#45;&gt;[root] var.records -->
<g id="edge3" class="edge">
<title>[root] aws_route53_record.www&#45;&gt;[root] var.records</title>
<path fill="none" stroke="black" d="M289.15,-71.7C295.44,-63.39 303.09,-53.28 310.01,-44.14"/>
<polygon fill="black" stroke="black" points="312.85,-46.19 316.1,-36.1 307.27,-41.96 312.85,-46.19"/>
</g>
<!-- [root] var.zone_id -->
<g id="node7" class="node">
<title>[root] var.zone_id</title>
<polygon fill="none" stroke="black" points="460.05,-36 386.05,-36 386.05,0 466.05,0 466.05,-30 460.05,-36"/>
<polyline fill="none" stroke="black" points="460.05,-36 460.05,-30 "/>
<polyline fill="none" stroke="black" points="466.05,-30 460.05,-30 "/>
<text text-anchor="middle" x="426.05" y="-14.3" font-family="Times,serif" font-size="14.00">var.zone_id</text>
</g>
<!-- [root] aws_route53_record.www&#45;&gt;[root] var.zone_id -->
<g id="edge4" class="edge">
<title>[root] aws_route53_record.www&#45;&gt;[root] var.zone_id</title>
<path fill="none" stroke="black" d="M312.74,-71.88C333.07,-62.39 358.52,-50.51 380.15,-40.42"/>
<polygon fill="black" stroke="black" points="381.89,-43.47 389.47,-36.07 378.93,-37.13 381.89,-43.47"/>
</g>
<!-- [root] output.fqdn -->
<g id="node2" class="node">
<title>[root] output.fqdn</title>
<polygon fill="none" stroke="black" points="235.05,-180 161.05,-180 161.05,-144 241.05,-144 241.05,-174 235.05,-180"/>
<polyline fill="none" stroke="black" points="235.05,-180 235.05,-174 "/>
<polyline fill="none" stroke="black" points="241.05,-174 235.05,-174 "/>
<text text-anchor="middle" x="201.05" y="-158.3" font-family="Times,serif" font-size="14.00">output.fqdn</text>
</g>
<!-- [root] output.fqdn&#45;&gt;[root] aws_route53_record.www -->
<g id="edge7" class="edge">
<title>[root] output.fqdn&#45;&gt;[root] aws_route53_record.www</title>
<path fill="none" stroke="black" d="M219.59,-143.7C228.85,-135.05 240.21,-124.45 250.3,-115.03"/>
<polygon fill="black" stroke="black" points="252.8,-117.49 257.72,-108.1 248.02,-112.37 252.8,-117.49"/>
</g>
<!-- [root] var.extra -->
<g id="node4" class="node">
<title>[root] var.extra</title>
<polygon fill="none" stroke="black" points="317.05,-180 259.05,-180 259.05,-144 323.05,-144 323.05,-174 317.05,-180"/>
<polyline fill="none" stroke="black" points="317.05,-180 317.05,-174 "/>
<polyline fill="none" stroke="black" points="323.05,-174 317.05,-174 "/>
<text text-anchor="middle" x="291.05" y="-158.3" font-family="Times,serif" font-size="14.00">var.extra</text>
</g>
<!-- [root] meta.count&#45;boundary (EachMode fixup) -->
<g id="node8" class="node">
<title>[root] meta.count&#45;boundary (EachMode fixup)</title>
<ellipse fill="none" stroke="black" cx="201.05" cy="-234" rx="176.27" ry="18"/>
<text text-anchor="middle" x="201.05" y="-230.3" font-family="Times,serif" font-size="14.00">[root] meta.count&#45;boundary (EachMode fixup)</text>
</g>
<!-- [root] meta.count&#45;boundary (EachMode fixup)&#45;&gt;[root] output.fqdn -->
<g id="edge5" class="edge">
<title>[root] meta.count&#45;boundary (EachMode fixup)&#45;&gt;[root] output.fqdn</title>
<path fill="none" stroke="black" d="M201.05,-215.7C201.05,-207.98 201.05,-198.71 201.05,-190.11"/>
<polygon fill="black" stroke="black" points="204.55,-190.1 201.05,-180.1 197.55,-190.1 204.55,-190.1"/>
</g>
<!-- [root] meta.count&#45;boundary (EachMode fixup)&#45;&gt;[root] var.extra -->
<g id="edge6" class="edge">
<title>[root] meta.count&#45;boundary (EachMode fixup)&#45;&gt;[root] var.extra</title>
<path fill="none" stroke="black" d="M222.83,-216.05C234.36,-207.09 248.67,-195.96 261.21,-186.2"/>
<polygon fill="black" stroke="black" points="263.4,-188.93 269.15,-180.03 259.11,-183.41 263.4,-188.93"/>
</g>
<!-- [root] provider.aws (close) -->
<g id="node9" class="node">
<title>[root] provider.aws (close)</title>
<ellipse fill="none" stroke="black" cx="500.05" cy="-234" rx="104.78" ry="18"/>
<text text-anchor="middle" x="500.05" y="-230.3" font-family="Times,serif" font-size="14.00">[root] provider.aws (close)</text>
</g>
<!-- [root] provider.aws (close)&#45;&gt;[root] aws_route53_record.www -->
<g id="edge8" class="edge">
<title>[root] provider.aws (close)&#45;&gt;[root] aws_route53_record.www</title>
<path fill="none" stroke="black" d="M473.91,-216.43C433.77,-190.99 356.86,-142.23 311.66,-113.57"/>
<polygon fill="black" stroke="black" points="313.38,-110.52 303.06,-108.12 309.63,-116.43 313.38,-110.52"/>
</g>
<!-- [root] root -->
<g id="node10" class="node">
<title>[root] root</title>
<ellipse fill="none" stroke="black" cx="350.05" cy="-306" rx="47.39" ry="18"/>
<text text-anchor="middle" x="350.05" y="-302.3" font-family="Times,serif" font-size="14.00">[root] root</text>
</g>
<!-- [root] root&#45;&gt;[root] meta.count&#45;boundary (EachMode fixup) -->
<g id="edge9" class="edge">
<title>[root] root&#45;&gt;[root] meta.count&#45;boundary (EachMode fixup)</title>
<path fill="none" stroke="black" d="M321.32,-291.5C299.87,-281.43 270.16,-267.47 245.64,-255.95"/>
<polygon fill="black" stroke="black" points="247.06,-252.75 236.52,-251.67 244.09,-259.09 247.06,-252.75"/>
</g>
<!-- [root] root&#45;&gt;[root] provider.aws (close) -->
<g id="edge10" class="edge">
<title>[root] root&#45;&gt;[root] provider.aws (close)</title>
<path fill="none" stroke="black" d="M378.97,-291.5C400.94,-281.25 431.51,-266.98 456.44,-255.35"/>
<polygon fill="black" stroke="black" points="458.11,-258.43 465.69,-251.03 455.15,-252.09 458.11,-258.43"/>
</g>
</g>
</svg>
