<?xml version="1.0" encoding="UTF-8" standalone="no"?>
<!DOCTYPE svg PUBLIC "-//W3C//DTD SVG 1.1//EN"
 "http://www.w3.org/Graphics/SVG/1.1/DTD/svg11.dtd">
<!-- Generated by graphviz version 2.44.1 (20200629.0846)
 -->
<!-- Pages: 1 -->
<svg width="988pt" height="404pt"
 viewBox="0.00 0.00 987.69 404.00" xmlns="http://www.w3.org/2000/svg" xmlns:xlink="http://www.w3.org/1999/xlink">
<g id="graph0" class="graph" transform="scale(1 1) rotate(0) translate(4 400)">
<polygon fill="white" stroke="transparent" points="-4,4 -4,-400 983.69,-400 983.69,4 -4,4"/>
<!-- [root] aws_s3_bucket.bucket -->
<g id="node1" class="node">
<title>[root] aws_s3_bucket.bucket</title>
<polygon fill="none" stroke="black" points="709.69,-108 570.69,-108 570.69,-72 709.69,-72 709.69,-108"/>
<text text-anchor="middle" x="640.19" y="-86.3" font-family="Times,serif" font-size="14.00">aws_s3_bucket.bucket</text>
</g>
<!-- [root] provider.aws -->
<g id="node6" class="node">
<title>[root] provider.aws</title>
<polygon fill="none" stroke="black" points="340.19,-36 261.09,-18 340.19,0 419.28,-18 340.19,-36"/>
<text text-anchor="middle" x="340.19" y="-14.3" font-family="Times,serif" font-size="14.00">provider.aws</text>
</g>
<!-- [root] aws_s3_bucket.bucket&#45;&gt;[root] provider.aws -->
<g id="edge1" class="edge">
<title>[root] aws_s3_bucket.bucket&#45;&gt;[root] provider.aws</title>
<path fill="none" stroke="black" d="M570.61,-72.76C514.26,-59.62 436.4,-41.45 387.18,-29.96"/>
<polygon fill="black" stroke="black" points="387.96,-26.55 377.43,-27.69 386.37,-33.37 387.96,-26.55"/>
</g>
<!-- [root] var.acl -->
<g id="node8" class="node">
<title>[root] var.acl</title>
<polygon fill="none" stroke="black" points="485.19,-36 437.19,-36 437.19,0 491.19,0 491.19,-30 485.19,-36"/>
<polyline fill="none" stroke="black" points="485.19,-36 485.19,-30 "/>
<polyline fill="none" stroke="black" points="491.19,-30 485.19,-30 "/>
<text text-anchor="middle" x="464.19" y="-14.3" font-family="Times,serif" font-size="14.00">var.acl</text>
</g>
<!-- [root] aws_s3_bucket.bucket&#45;&gt;[root] var.acl -->
<g id="edge2" class="edge">
<title>[root] aws_s3_bucket.bucket&#45;&gt;[root] var.acl</title>
<path fill="none" stroke="black" d="M593.23,-71.98C566.15,-61.94 531.55,-48.75 501.19,-36 501.09,-35.96 500.99,-35.92 500.9,-35.88"/>
<polygon fill="black" stroke="black" points="502.14,-32.6 491.58,-31.83 499.36,-39.02 502.14,-32.6"/>
</g>
<!-- [root] var.basenamebucket -->
<g id="node9" class="node">
<title>[root] var.basenamebucket</title>
<polygon fill="none" stroke="black" points="630.69,-36 509.69,-36 509.69,0 636.69,0 636.69,-30 630.69,-36"/>
<polyline fill="none" stroke="black" points="630.69,-36 630.69,-30 "/>
<polyline fill="none" stroke="black" points="636.69,-30 630.69,-30 "/>
<text text-anchor="middle" x="573.19" y="-14.3" font-family="Times,serif" font-size="14.00">var.basenamebucket</text>
</g>
<!-- [root] aws_s3_bucket.bucket&#45;&gt;[root] var.basenamebucket -->
<g id="edge3" class="edge">
<title>[root] aws_s3_bucket.bucket&#45;&gt;[root] var.basenamebucket</title>
<path fill="none" stroke="black" d="M623.63,-71.7C615.51,-63.22 605.6,-52.86 596.72,-43.58"/>
<polygon fill="black" stroke="black" points="599,-40.91 589.56,-36.1 593.95,-45.75 599,-40.91"/>
</g>
<!-- [root] var.default_tags -->
<g id="node10" class="node">
<title>[root] var.default_tags</title>
<polygon fill="none" stroke="black" points="751.69,-36 654.69,-36 654.69,0 757.69,0 757.69,-30 751.69,-36"/>
<polyline fill="none" stroke="black" points="751.69,-36 751.69,-30 "/>
<polyline fill="none" stroke="black" points="757.69,-30 751.69,-30 "/>
<text text-anchor="middle" x="706.19" y="-14.3" font-family="Times,serif" font-size="14.00">var.default_tags</text>
</g>
<!-- [root] aws_s3_bucket.bucket&#45;&gt;[root] var.default_tags -->
<g id="edge4" class="edge">
<title>[root] aws_s3_bucket.bucket&#45;&gt;[root] var.default_tags</title>
<path fill="none" stroke="black" d="M656.5,-71.7C664.5,-63.22 674.26,-52.86 683.01,-43.58"/>
<polygon fill="black" stroke="black" points="685.75,-45.78 690.06,-36.1 680.66,-40.98 685.75,-45.78"/>
</g>
<!-- [root] var.object_sequence -->
<g id="node12" class="node">
<title>[root] var.object_sequence</title>
<polygon fill="none" stroke="black" points="896.19,-36 776.19,-36 776.19,0 902.19,0 902.19,-30 896.19,-36"/>
<polyline fill="none" stroke="black" points="896.19,-36 896.19,-30 "/>
<polyline fill="none" stroke="black" points="902.19,-30 896.19,-30 "/>
<text text-anchor="middle" x="839.19" y="-14.3" font-family="Times,serif" font-size="14.00">var.object_sequence</text>
</g>
<!-- [root] aws_s3_bucket.bucket&#45;&gt;[root] var.object_sequence -->
<g id="edge5" class="edge">
<title>[root] aws_s3_bucket.bucket&#45;&gt;[root] var.object_sequence</title>
<path fill="none" stroke="black" d="M688.62,-71.97C716.42,-62.19 751.53,-49.84 780.84,-39.52"/>
<polygon fill="black" stroke="black" points="782.27,-42.73 790.55,-36.11 779.95,-36.13 782.27,-42.73"/>
</g>
<!-- [root] var.tags -->
<g id="node15" class="node">
<title>[root] var.tags</title>
<polygon fill="none" stroke="black" points="973.69,-36 920.69,-36 920.69,0 979.69,0 979.69,-30 973.69,-36"/>
<polyline fill="none" stroke="black" points="973.69,-36 973.69,-30 "/>
<polyline fill="none" stroke="black" points="979.69,-30 973.69,-30 "/>
<text text-anchor="middle" x="950.19" y="-14.3" font-family="Times,serif" font-size="14.00">var.tags</text>
</g>
<!-- [root] aws_s3_bucket.bucket&#45;&gt;[root] var.tags -->
<g id="edge6" class="edge">
<title>[root] aws_s3_bucket.bucket&#45;&gt;[root] var.tags</title>
<path fill="none" stroke="black" d="M709.72,-79.67C765.08,-71.23 844.14,-56.9 911.19,-36 911.29,-35.97 911.38,-35.94 911.48,-35.91"/>
<polygon fill="black" stroke="black" points="912.37,-39.31 920.63,-32.68 910.04,-32.71 912.37,-39.31"/>
</g>
<!-- [root] aws_s3_bucket_policy.policy_assing -->
<g id="node2" class="node">
<title>[root] aws_s3_bucket_policy.policy_assing</title>
<polygon fill="none" stroke="black" points="475.69,-252 258.69,-252 258.69,-216 475.69,-216 475.69,-252"/>
<text text-anchor="middle" x="367.19" y="-230.3" font-family="Times,serif" font-size="14.00">aws_s3_bucket_policy.policy_assing</text>
</g>
<!-- [root] data.template_file.policy_template -->
<g id="node3" class="node">
<title>[root] data.template_file.policy_template</title>
<polygon fill="none" stroke="black" points="470.19,-180 264.19,-180 264.19,-144 470.19,-144 470.19,-180"/>
<text text-anchor="middle" x="367.19" y="-158.3" font-family="Times,serif" font-size="14.00">data.template_file.policy_template</text>
</g>
<!-- [root] aws_s3_bucket_policy.policy_assing&#45;&gt;[root] data.template_file.policy_template -->
<g id="edge7" class="edge">
<title>[root] aws_s3_bucket_policy.policy_assing&#45;&gt;[root] data.template_file.policy_template</title>
<path fill="none" stroke="black" d="M367.19,-215.7C367.19,-207.98 367.19,-198.71 367.19,-190.11"/>
<polygon fill="black" stroke="black" points="370.69,-190.1 367.19,-180.1 363.69,-190.1 370.69,-190.1"/>
</g>
<!-- [root] data.template_file.policy_template&#45;&gt;[root] aws_s3_bucket.bucket -->
<g id="edge8" class="edge">
<title>[root] data.template_file.policy_template&#45;&gt;[root] aws_s3_bucket.bucket</title>
<path fill="none" stroke="black" d="M433.62,-143.97C472.85,-133.91 522.66,-121.14 563.54,-110.65"/>
<polygon fill="black" stroke="black" points="564.64,-113.98 573.46,-108.11 562.9,-107.2 564.64,-113.98"/>
</g>
<!-- [root] provider.template -->
<g id="node7" class="node">
<title>[root] provider.template</title>
<polygon fill="none" stroke="black" points="215.19,-108 111.46,-90 215.19,-72 318.92,-90 215.19,-108"/>
<text text-anchor="middle" x="215.19" y="-86.3" font-family="Times,serif" font-size="14.00">provider.template</text>
</g>
<!-- [root] data.template_file.policy_template&#45;&gt;[root] provider.template -->
<g id="edge9" class="edge">
<title>[root] data.template_file.policy_template&#45;&gt;[root] provider.template</title>
<path fill="none" stroke="black" d="M330.01,-143.88C306.21,-132.92 275.48,-118.77 251.8,-107.86"/>
<polygon fill="black" stroke="black" points="253,-104.56 242.45,-103.56 250.07,-110.92 253,-104.56"/>
</g>
<!-- [root] var.path -->
<g id="node13" class="node">
<title>[root] var.path</title>
<polygon fill="none" stroke="black" points="391.19,-108 337.19,-108 337.19,-72 397.19,-72 397.19,-102 391.19,-108"/>
<polyline fill="none" stroke="black" points="391.19,-108 391.19,-102 "/>
<polyline fill="none" stroke="black" points="397.19,-102 391.19,-102 "/>
<text text-anchor="middle" x="367.19" y="-86.3" font-family="Times,serif" font-size="14.00">var.path</text>
</g>
<!-- [root] data.template_file.policy_template&#45;&gt;[root] var.path -->
<g id="edge10" class="edge">
<title>[root] data.template_file.policy_template&#45;&gt;[root] var.path</title>
<path fill="none" stroke="black" d="M367.19,-143.7C367.19,-135.98 367.19,-126.71 367.19,-118.11"/>
<polygon fill="black" stroke="black" points="370.69,-118.1 367.19,-108.1 363.69,-118.1 370.69,-118.1"/>
</g>
<!-- [root] var.template_vars -->
<g id="node16" class="node">
<title>[root] var.template_vars</title>
<polygon fill="none" stroke="black" points="522.69,-108 415.69,-108 415.69,-72 528.69,-72 528.69,-102 522.69,-108"/>
<polyline fill="none" stroke="black" points="522.69,-108 522.69,-102 "/>
<polyline fill="none" stroke="black" points="528.69,-102 522.69,-102 "/>
<text text-anchor="middle" x="472.19" y="-86.3" font-family="Times,serif" font-size="14.00">var.template_vars</text>
</g>
<!-- [root] data.template_file.policy_template&#45;&gt;[root] var.template_vars -->
<g id="edge11" class="edge">
<title>[root] data.template_file.policy_template&#45;&gt;[root] var.template_vars</title>
<path fill="none" stroke="black" d="M392.88,-143.88C406.48,-134.81 423.36,-123.55 438.05,-113.76"/>
<polygon fill="black" stroke="black" points="440.03,-116.65 446.4,-108.19 436.14,-110.82 440.03,-116.65"/>
</g>
<!-- [root] output.bucket -->
<g id="node4" class="node">
<title>[root] output.bucket</title>
<polygon fill="none" stroke="black" points="775.69,-180 690.69,-180 690.69,-144 781.69,-144 781.69,-174 775.69,-180"/>
<polyline fill="none" stroke="black" points="775.69,-180 775.69,-174 "/>
<polyline fill="none" stroke="black" points="781.69,-174 775.69,-174 "/>
<text text-anchor="middle" x="736.19" y="-158.3" font-family="Times,serif" font-size="14.00">output.bucket</text>
</g>
<!-- [root] output.bucket&#45;&gt;[root] aws_s3_bucket.bucket -->
<g id="edge17" class="edge">
<title>[root] output.bucket&#45;&gt;[root] aws_s3_bucket.bucket</title>
<path fill="none" stroke="black" d="M712.46,-143.7C700.25,-134.8 685.2,-123.82 672,-114.2"/>
<polygon fill="black" stroke="black" points="673.79,-111.17 663.65,-108.1 669.66,-116.82 673.79,-111.17"/>
</g>
<!-- [root] output.id -->
<g id="node5" class="node">
<title>[root] output.id</title>
<polygon fill="none" stroke="black" points="666.69,-180 607.69,-180 607.69,-144 672.69,-144 672.69,-174 666.69,-180"/>
<polyline fill="none" stroke="black" points="666.69,-180 666.69,-174 "/>
<polyline fill="none" stroke="black" points="672.69,-174 666.69,-174 "/>
<text text-anchor="middle" x="640.19" y="-158.3" font-family="Times,serif" font-size="14.00">output.id</text>
</g>
<!-- [root] output.id&#45;&gt;[root] aws_s3_bucket.bucket -->
<g id="edge18" class="edge">
<title>[root] output.id&#45;&gt;[root] aws_s3_bucket.bucket</title>
<path fill="none" stroke="black" d="M640.19,-143.7C640.19,-135.98 640.19,-126.71 640.19,-118.11"/>
<polygon fill="black" stroke="black" points="643.69,-118.1 640.19,-108.1 636.69,-118.1 643.69,-118.1"/>
</g>
<!-- [root] var.object_id -->
<g id="node11" class="node">
<title>[root] var.object_id</title>
<polygon fill="none" stroke="black" points="574.69,-252 493.69,-252 493.69,-216 580.69,-216 580.69,-246 574.69,-252"/>
<polyline fill="none" stroke="black" points="574.69,-252 574.69,-246 "/>
<polyline fill="none" stroke="black" points="580.69,-246 574.69,-246 "/>
<text text-anchor="middle" x="537.19" y="-230.3" font-family="Times,serif" font-size="14.00">var.object_id</text>
</g>
<!-- [root] var.region -->
<g id="node14" class="node">
<title>[root] var.region</title>
<polygon fill="none" stroke="black" points="663.69,-252 598.69,-252 598.69,-216 669.69,-216 669.69,-246 663.69,-252"/>
<polyline fill="none" stroke="black" points="663.69,-252 663.69,-246 "/>
<polyline fill="none" stroke="black" points="669.69,-246 663.69,-246 "/>
<text text-anchor="middle" x="634.19" y="-230.3" font-family="Times,serif" font-size="14.00">var.region</text>
</g>
<!-- [root] meta.count&#45;boundary (EachMode fixup) -->
<g id="node17" class="node">
<title>[root] meta.count&#45;boundary (EachMode fixup)</title>
<ellipse fill="none" stroke="black" cx="666.19" cy="-306" rx="176.27" ry="18"/>
<text text-anchor="middle" x="666.19" y="-302.3" font-family="Times,serif" font-size="14.00">[root] meta.count&#45;boundary (EachMode fixup)</text>
</g>
<!-- [root] meta.count&#45;boundary (EachMode fixup)&#45;&gt;[root] aws_s3_bucket_policy.policy_assing -->
<g id="edge12" class="edge">
<title>[root] meta.count&#45;boundary (EachMode fixup)&#45;&gt;[root] aws_s3_bucket_policy.policy_assing</title>
<path fill="none" stroke="black" d="M599.09,-289.29C554.88,-278.94 496.7,-265.32 449.67,-254.31"/>
<polygon fill="black" stroke="black" points="450.35,-250.88 439.82,-252 448.76,-257.69 450.35,-250.88"/>
</g>
<!-- [root] meta.count&#45;boundary (EachMode fixup)&#45;&gt;[root] output.bucket -->
<g id="edge13" class="edge">
<title>[root] meta.count&#45;boundary (EachMode fixup)&#45;&gt;[root] output.bucket</title>
<path fill="none" stroke="black" d="M675.47,-287.92C681.02,-277.58 688.14,-264.1 694.19,-252 704.63,-231.11 715.89,-207.16 724.13,-189.36"/>
<polygon fill="black" stroke="black" points="727.36,-190.72 728.36,-180.17 721,-187.79 727.36,-190.72"/>
</g>
<!-- [root] meta.count&#45;boundary (EachMode fixup)&#45;&gt;[root] output.id -->
<g id="edge14" class="edge">
<title>[root] meta.count&#45;boundary (EachMode fixup)&#45;&gt;[root] output.id</title>
<path fill="none" stroke="black" d="M673.23,-287.87C679.69,-269.65 687.13,-240.18 679.19,-216 675.88,-205.91 669.82,-196.15 663.46,-187.82"/>
<polygon fill="black" stroke="black" points="666.11,-185.54 657.08,-180.01 660.69,-189.97 666.11,-185.54"/>
</g>
<!-- [root] meta.count&#45;boundary (EachMode fixup)&#45;&gt;[root] var.object_id -->
<g id="edge15" class="edge">
<title>[root] meta.count&#45;boundary (EachMode fixup)&#45;&gt;[root] var.object_id</title>
<path fill="none" stroke="black" d="M635.29,-288.23C618,-278.85 596.23,-267.04 577.59,-256.93"/>
<polygon fill="black" stroke="black" points="579.19,-253.81 568.73,-252.12 575.85,-259.96 579.19,-253.81"/>
</g>
<!-- [root] meta.count&#45;boundary (EachMode fixup)&#45;&gt;[root] var.region -->
<g id="edge16" class="edge">
<title>[root] meta.count&#45;boundary (EachMode fixup)&#45;&gt;[root] var.region</title>
<path fill="none" stroke="black" d="M658.28,-287.7C654.64,-279.73 650.23,-270.1 646.2,-261.26"/>
<polygon fill="black" stroke="black" points="649.35,-259.74 642.01,-252.1 642.98,-262.65 649.35,-259.74"/>
</g>
<!-- [root] provider.aws (close) -->
<g id="node18" class="node">
<title>[root] provider.aws (close)</title>
<ellipse fill="none" stroke="black" cx="367.19" cy="-306" rx="104.78" ry="18"/>
<text text-anchor="middle" x="367.19" y="-302.3" font-family="Times,serif" font-size="14.00">[root] provider.aws (close)</text>
</g>
<!-- [root] provider.aws (close)&#45;&gt;[root] aws_s3_bucket_policy.policy_assing -->
<g id="edge19" class="edge">
<title>[root] provider.aws (close)&#45;&gt;[root] aws_s3_bucket_policy.policy_assing</title>
<path fill="none" stroke="black" d="M367.19,-287.7C367.19,-279.98 367.19,-270.71 367.19,-262.11"/>
<polygon fill="black" stroke="black" points="370.69,-262.1 367.19,-252.1 363.69,-262.1 370.69,-262.1"/>
</g>
<!-- [root] provider.template (close) -->
<g id="node19" class="node">
<title>[root] provider.template (close)</title>
<ellipse fill="none" stroke="black" cx="122.19" cy="-306" rx="122.38" ry="18"/>
<text text-anchor="middle" x="122.19" y="-302.3" font-family="Times,serif" font-size="14.00">[root] provider.template (close)</text>
</g>
<!-- [root] provider.template (close)&#45;&gt;[root] data.template_file.policy_template -->
<g id="edge20" class="edge">
<title>[root] provider.template (close)&#45;&gt;[root] data.template_file.policy_template</title>
<path fill="none" stroke="black" d="M143.39,-288.26C167.96,-269.32 210.1,-238.21 249.19,-216 270.02,-204.17 293.97,-192.99 314.84,-183.98"/>
<polygon fill="black" stroke="black" points="316.35,-187.14 324.18,-180 313.61,-180.7 316.35,-187.14"/>
</g>
<!-- [root] root -->
<g id="node20" class="node">
<title>[root] root</title>
<ellipse fill="none" stroke="black" cx="367.19" cy="-378" rx="47.39" ry="18"/>
<text text-anchor="middle" x="367.19" y="-374.3" font-family="Times,serif" font-size="14.00">[root] root</text>
</g>
<!-- [root] root&#45;&gt;[root] meta.count&#45;boundary (EachMode fixup) -->
<g id="edge21" class="edge">
<title>[root] root&#45;&gt;[root] meta.count&#45;boundary (EachMode fixup)</title>
<path fill="none" stroke="black" d="M406.59,-367.78C452.91,-356.93 530.87,-338.68 589.3,-325"/>
<polygon fill="black" stroke="black" points="590.29,-328.36 599.23,-322.68 588.69,-321.55 590.29,-328.36"/>
</g>
<!-- [root] root&#45;&gt;[root] provider.aws (close) -->
<g id="edge22" class="edge">
<title>[root] root&#45;&gt;[root] provider.aws (close)</title>
<path fill="none" stroke="black" d="M367.19,-359.7C367.19,-351.98 367.19,-342.71 367.19,-334.11"/>
<polygon fill="black" stroke="black" points="370.69,-334.1 367.19,-324.1 363.69,-334.1 370.69,-334.1"/>
</g>
<!-- [root] root&#45;&gt;[root] provider.template (close) -->
<g id="edge23" class="edge">
<title>[root] root&#45;&gt;[root] provider.template (close)</title>
<path fill="none" stroke="black" d="M330.51,-366.52C292.21,-355.58 231.4,-338.2 185.35,-325.05"/>
<polygon fill="black" stroke="black" points="186.05,-321.6 175.47,-322.22 184.12,-328.34 186.05,-321.6"/>
</g>
</g>
</svg>
