<?xml version="1.0" encoding="UTF-8" standalone="no"?>
<!DOCTYPE svg PUBLIC "-//W3C//DTD SVG 1.1//EN"
 "http://www.w3.org/Graphics/SVG/1.1/DTD/svg11.dtd">
<!-- Generated by graphviz version 2.44.1 (20200629.0846)
 -->
<!-- Pages: 1 -->
<svg width="635pt" height="332pt"
 viewBox="0.00 0.00 635.05 332.00" xmlns="http://www.w3.org/2000/svg" xmlns:xlink="http://www.w3.org/1999/xlink">
<g id="graph0" class="graph" transform="scale(1 1) rotate(0) translate(4 328)">
<polygon fill="white" stroke="transparent" points="-4,4 -4,-328 631.05,-328 631.05,4 -4,4"/>
<!-- [root] aws_vpc_peering_connection.connection -->
<g id="node1" class="node">
<title>[root] aws_vpc_peering_connection.connection</title>
<polygon fill="none" stroke="black" points="478.05,-108 238.05,-108 238.05,-72 478.05,-72 478.05,-108"/>
<text text-anchor="middle" x="358.05" y="-86.3" font-family="Times,serif" font-size="14.00">aws_vpc_peering_connection.connection</text>
</g>
<!-- [root] provider.aws -->
<g id="node3" class="node">
<title>[root] provider.aws</title>
<polygon fill="none" stroke="black" points="79.05,-36 -0.05,-18 79.05,0 158.14,-18 79.05,-36"/>
<text text-anchor="middle" x="79.05" y="-14.3" font-family="Times,serif" font-size="14.00">provider.aws</text>
</g>
<!-- [root] aws_vpc_peering_connection.connection&#45;&gt;[root] provider.aws -->
<g id="edge1" class="edge">
<title>[root] aws_vpc_peering_connection.connection&#45;&gt;[root] provider.aws</title>
<path fill="none" stroke="black" d="M290.15,-71.97C238.72,-59.06 169.46,-41.69 124.54,-30.41"/>
<polygon fill="black" stroke="black" points="125.33,-27 114.78,-27.97 123.63,-33.79 125.33,-27"/>
</g>
<!-- [root] var.default_tags -->
<g id="node4" class="node">
<title>[root] var.default_tags</title>
<polygon fill="none" stroke="black" points="273.55,-36 176.55,-36 176.55,0 279.55,0 279.55,-30 273.55,-36"/>
<polyline fill="none" stroke="black" points="273.55,-36 273.55,-30 "/>
<polyline fill="none" stroke="black" points="279.55,-30 273.55,-30 "/>
<text text-anchor="middle" x="228.05" y="-14.3" font-family="Times,serif" font-size="14.00">var.default_tags</text>
</g>
<!-- [root] aws_vpc_peering_connection.connection&#45;&gt;[root] var.default_tags -->
<g id="edge2" class="edge">
<title>[root] aws_vpc_peering_connection.connection&#45;&gt;[root] var.default_tags</title>
<path fill="none" stroke="black" d="M326.25,-71.88C308.93,-62.55 287.33,-50.92 268.79,-40.94"/>
<polygon fill="black" stroke="black" points="270.44,-37.85 259.97,-36.19 267.12,-44.01 270.44,-37.85"/>
</g>
<!-- [root] var.shared_account -->
<g id="node5" class="node">
<title>[root] var.shared_account</title>
<polygon fill="none" stroke="black" points="412.55,-36 297.55,-36 297.55,0 418.55,0 418.55,-30 412.55,-36"/>
<polyline fill="none" stroke="black" points="412.55,-36 412.55,-30 "/>
<polyline fill="none" stroke="black" points="418.55,-30 412.55,-30 "/>
<text text-anchor="middle" x="358.05" y="-14.3" font-family="Times,serif" font-size="14.00">var.shared_account</text>
</g>
<!-- [root] aws_vpc_peering_connection.connection&#45;&gt;[root] var.shared_account -->
<g id="edge3" class="edge">
<title>[root] aws_vpc_peering_connection.connection&#45;&gt;[root] var.shared_account</title>
<path fill="none" stroke="black" d="M358.05,-71.7C358.05,-63.98 358.05,-54.71 358.05,-46.11"/>
<polygon fill="black" stroke="black" points="361.55,-46.1 358.05,-36.1 354.55,-46.1 361.55,-46.1"/>
</g>
<!-- [root] var.shared_vpc -->
<g id="node6" class="node">
<title>[root] var.shared_vpc</title>
<polygon fill="none" stroke="black" points="529.05,-36 437.05,-36 437.05,0 535.05,0 535.05,-30 529.05,-36"/>
<polyline fill="none" stroke="black" points="529.05,-36 529.05,-30 "/>
<polyline fill="none" stroke="black" points="535.05,-30 529.05,-30 "/>
<text text-anchor="middle" x="486.05" y="-14.3" font-family="Times,serif" font-size="14.00">var.shared_vpc</text>
</g>
<!-- [root] aws_vpc_peering_connection.connection&#45;&gt;[root] var.shared_vpc -->
<g id="edge4" class="edge">
<title>[root] aws_vpc_peering_connection.connection&#45;&gt;[root] var.shared_vpc</title>
<path fill="none" stroke="black" d="M389.36,-71.88C406.25,-62.64 427.29,-51.13 445.43,-41.21"/>
<polygon fill="black" stroke="black" points="447.52,-44.06 454.61,-36.19 444.16,-37.92 447.52,-44.06"/>
</g>
<!-- [root] var.vpc_id -->
<g id="node7" class="node">
<title>[root] var.vpc_id</title>
<polygon fill="none" stroke="black" points="621.05,-36 553.05,-36 553.05,0 627.05,0 627.05,-30 621.05,-36"/>
<polyline fill="none" stroke="black" points="621.05,-36 621.05,-30 "/>
<polyline fill="none" stroke="black" points="627.05,-30 621.05,-30 "/>
<text text-anchor="middle" x="590.05" y="-14.3" font-family="Times,serif" font-size="14.00">var.vpc_id</text>
</g>
<!-- [root] aws_vpc_peering_connection.connection&#45;&gt;[root] var.vpc_id -->
<g id="edge5" class="edge">
<title>[root] aws_vpc_peering_connection.connection&#45;&gt;[root] var.vpc_id</title>
<path fill="none" stroke="black" d="M422.55,-71.93C456.12,-62.73 497.99,-50.8 543.27,-36.15"/>
<polygon fill="black" stroke="black" points="544.55,-39.41 552.98,-32.98 542.38,-32.75 544.55,-39.41"/>
</g>
<!-- [root] output.id -->
<g id="node2" class="node">
<title>[root] output.id</title>
<polygon fill="none" stroke="black" points="307.55,-180 248.55,-180 248.55,-144 313.55,-144 313.55,-174 307.55,-180"/>
<polyline fill="none" stroke="black" points="307.55,-180 307.55,-174 "/>
<polyline fill="none" stroke="black" points="313.55,-174 307.55,-174 "/>
<text text-anchor="middle" x="281.05" y="-158.3" font-family="Times,serif" font-size="14.00">output.id</text>
</g>
<!-- [root] output.id&#45;&gt;[root] aws_vpc_peering_connection.connection -->
<g id="edge7" class="edge">
<title>[root] output.id&#45;&gt;[root] aws_vpc_peering_connection.connection</title>
<path fill="none" stroke="black" d="M300.08,-143.7C309.59,-135.05 321.25,-124.45 331.62,-115.03"/>
<polygon fill="black" stroke="black" points="334.19,-117.42 339.23,-108.1 329.48,-112.24 334.19,-117.42"/>
</g>
<!-- [root] meta.count&#45;boundary (EachMode fixup) -->
<g id="node8" class="node">
<title>[root] meta.count&#45;boundary (EachMode fixup)</title>
<ellipse fill="none" stroke="black" cx="257.05" cy="-234" rx="176.27" ry="18"/>
<text text-anchor="middle" x="257.05" y="-230.3" font-family="Times,serif" font-size="14.00">[root] meta.count&#45;boundary (EachMode fixup)</text>
</g>
<!-- [root] meta.count&#45;boundary (EachMode fixup)&#45;&gt;[root] output.id -->
<g id="edge6" class="edge">
<title>[root] meta.count&#45;boundary (EachMode fixup)&#45;&gt;[root] output.id</title>
<path fill="none" stroke="black" d="M262.98,-215.7C265.65,-207.9 268.87,-198.51 271.85,-189.83"/>
<polygon fill="black" stroke="black" points="275.25,-190.7 275.18,-180.1 268.63,-188.43 275.25,-190.7"/>
</g>
<!-- [root] provider.aws (close) -->
<g id="node9" class="node">
<title>[root] provider.aws (close)</title>
<ellipse fill="none" stroke="black" cx="448.05" cy="-162" rx="104.78" ry="18"/>
<text text-anchor="middle" x="448.05" y="-158.3" font-family="Times,serif" font-size="14.00">[root] provider.aws (close)</text>
</g>
<!-- [root] provider.aws (close)&#45;&gt;[root] aws_vpc_peering_connection.connection -->
<g id="edge8" class="edge">
<title>[root] provider.aws (close)&#45;&gt;[root] aws_vpc_peering_connection.connection</title>
<path fill="none" stroke="black" d="M426.26,-144.05C414.74,-135.09 400.42,-123.96 387.88,-114.2"/>
<polygon fill="black" stroke="black" points="389.99,-111.41 379.95,-108.03 385.69,-116.93 389.99,-111.41"/>
</g>
<!-- [root] root -->
<g id="node10" class="node">
<title>[root] root</title>
<ellipse fill="none" stroke="black" cx="359.05" cy="-306" rx="47.39" ry="18"/>
<text text-anchor="middle" x="359.05" y="-302.3" font-family="Times,serif" font-size="14.00">[root] root</text>
</g>
<!-- [root] root&#45;&gt;[root] meta.count&#45;boundary (EachMode fixup) -->
<g id="edge9" class="edge">
<title>[root] root&#45;&gt;[root] meta.count&#45;boundary (EachMode fixup)</title>
<path fill="none" stroke="black" d="M337.17,-289.98C323.44,-280.56 305.47,-268.23 290.03,-257.64"/>
<polygon fill="black" stroke="black" points="291.98,-254.73 281.76,-251.96 288.02,-260.5 291.98,-254.73"/>
</g>
<!-- [root] root&#45;&gt;[root] provider.aws (close) -->
<g id="edge10" class="edge">
<title>[root] root&#45;&gt;[root] provider.aws (close)</title>
<path fill="none" stroke="black" d="M391.76,-292.82C409.82,-284.28 430.8,-270.97 442.05,-252 453.05,-233.43 453.85,-208.69 452.3,-190.01"/>
<polygon fill="black" stroke="black" points="455.77,-189.62 451.2,-180.07 448.82,-190.39 455.77,-189.62"/>
</g>
</g>
</svg>
